<svg width="1920" height="1080" viewBox="0 0 1920 1080" fill="none" xmlns="http://www.w3.org/2000/svg">
<path d="M1920.13 -0.129883H0.129997V1079.87H1920.13V-0.129883Z" fill="#FEFDFC"/>
<path d="M1759.11 163.303C1756.72 161.497 1754.36 159.824 1752.12 157.998C1747.96 154.6 1744.26 150.766 1741.68 145.948C1738.01 139.091 1738.09 132.275 1742.13 125.631C1746.25 118.845 1751.63 113.357 1758.81 109.899C1766.35 106.257 1774.2 105.862 1782.25 107.738C1782.69 107.84 1783.13 107.941 1783.57 108.042C1783.74 106.166 1783.85 104.36 1784.09 102.575C1784.99 95.8908 1788.52 91.1235 1794.36 87.9386C1800.45 84.6116 1806.82 82.6235 1813.78 83.0597C1818.73 83.3741 1823.49 84.5406 1827.86 86.9952C1834.67 90.8192 1838.11 96.8646 1838.95 104.573C1839.08 105.76 1839.12 106.957 1839.2 108.286C1839.52 108.184 1839.82 108.093 1840.12 107.992C1845.8 106.004 1851.6 104.908 1857.63 105.517C1866.93 106.45 1873.93 111.167 1878.98 119.017C1881.18 122.436 1882.97 126.057 1883.87 130.063C1885.5 137.336 1883.56 143.605 1878.42 148.798C1876.55 150.695 1874.3 152.206 1872.22 153.89C1871.96 154.093 1871.67 154.255 1871.37 154.448C1872.44 156.182 1873.52 157.846 1874.5 159.56C1876.79 163.587 1878.55 167.827 1879.12 172.472C1880.02 179.775 1877.43 185.648 1871.91 190.304C1863.27 197.607 1853.51 199.108 1842.87 196.106C1842.64 196.045 1842.41 195.984 1842.09 195.903C1842.01 197.343 1841.98 198.743 1841.85 200.133C1841.31 206.137 1839.51 211.665 1835.41 216.139C1829.88 222.174 1822.99 225.359 1814.82 225.318C1810.29 225.298 1806.44 223.3 1803.06 220.358C1798.93 216.768 1796.08 212.223 1793.67 207.355C1793.55 207.111 1793.42 206.858 1793.29 206.624C1793.26 206.574 1793.2 206.553 1793.12 206.503C1791.99 207.243 1790.88 208.034 1789.71 208.744C1785.05 211.564 1780.05 213.116 1774.56 212.802C1770.42 212.568 1766.6 211.26 1763.06 209.109C1758.31 206.208 1754.37 202.405 1751.32 197.729C1746.75 190.71 1746.73 183.366 1750.13 175.87C1752.17 171.377 1755.13 167.532 1758.48 163.982C1758.69 163.759 1758.89 163.536 1759.1 163.303H1759.11ZM1813.9 95.0185C1811.92 95.2822 1809.91 95.404 1807.96 95.83C1801.95 97.1283 1797.9 100.618 1796.47 106.856C1795.83 109.665 1795.74 112.526 1796.07 115.386C1796.38 118.013 1795.38 120.032 1793.4 121.563C1791.44 123.085 1789.3 123.105 1787.05 122.121C1784.63 121.066 1782.21 119.981 1779.7 119.19C1775.3 117.79 1770.81 117.415 1766.4 119.149C1761.59 121.046 1757.51 124.048 1754.3 128.167C1750.31 133.299 1750.25 138.442 1753.99 143.777C1755.9 146.495 1758.31 148.717 1761.09 150.441C1764.76 152.723 1768.54 154.803 1772.28 156.953C1774.66 158.322 1775.63 160.584 1774.96 163.272C1774.55 164.915 1773.67 166.234 1772.39 167.309C1771.55 168.009 1770.68 168.689 1769.85 169.399C1766.62 172.178 1763.66 175.211 1761.61 179.025C1758.51 184.776 1759.24 190.06 1763.88 194.625C1765.2 195.923 1766.67 197.1 1768.22 198.104C1773.46 201.502 1778.77 201.461 1784.05 198.124C1786.78 196.4 1789.07 194.179 1791.21 191.765C1792.45 190.365 1793.99 189.665 1795.84 189.939C1798.38 190.314 1800.17 191.754 1801.15 194.168C1801.49 195.02 1801.74 195.913 1802.04 196.785C1803.39 200.711 1804.86 204.575 1807.28 207.994C1810.17 212.071 1813.85 213.958 1818.91 212.741C1825.34 211.199 1829.25 206.949 1830.06 200.285C1830.57 196.126 1829.96 192.079 1829.09 188.032C1828.86 186.957 1828.82 185.729 1829.1 184.685C1830.05 181.084 1834.05 179.39 1837.51 180.982C1839.52 181.915 1841.5 182.93 1843.56 183.751C1847.54 185.334 1851.63 186.389 1855.98 185.831C1862.9 184.948 1868.11 178.01 1866.95 171.164C1866.46 168.283 1865.13 165.747 1863.4 163.465C1861.74 161.274 1859.98 159.154 1858.17 157.085C1854.9 153.312 1855.84 148.818 1860.3 146.779C1863.11 145.491 1865.96 144.223 1868.58 142.59C1872.25 140.298 1873.57 136.687 1872.45 132.457C1870.65 125.681 1866.24 121.158 1859.97 118.51C1855.26 116.522 1850.47 117.029 1845.73 118.561C1841.83 119.829 1838.28 121.807 1834.78 123.917C1832.11 125.519 1829.05 124.87 1827.16 122.375C1825.89 120.701 1825.59 118.845 1826.1 116.796C1827.03 113.053 1827.61 109.27 1827.14 105.385C1826.52 100.283 1823.69 96.8747 1818.86 95.7083C1817.25 95.3228 1815.57 95.2417 1813.89 95.0084L1813.9 95.0185Z" fill="#EF94B4"/>
<path d="M1834.7 154.235C1834.65 166.701 1824.64 176.803 1812.43 176.722C1800.12 176.641 1790.17 166.477 1790.27 154.103C1790.38 141.647 1800.29 131.636 1812.5 131.656C1824.78 131.676 1834.75 141.819 1834.7 154.224V154.235Z" fill="#333333" fill-opacity="0.9"/>
<path d="M1864.95 445.365C1868.3 448.915 1871.25 452.76 1873.3 457.253C1876.71 464.749 1876.68 472.093 1872.11 479.112C1869.06 483.788 1865.12 487.602 1860.37 490.492C1856.83 492.643 1853.01 493.951 1848.87 494.185C1843.39 494.499 1838.39 492.937 1833.72 490.127C1832.55 489.427 1831.44 488.636 1830.31 487.886C1830.23 487.936 1830.17 487.957 1830.14 488.007C1830.01 488.251 1829.88 488.494 1829.76 488.738C1827.35 493.606 1824.49 498.151 1820.37 501.741C1816.99 504.683 1813.14 506.681 1808.61 506.701C1800.44 506.742 1793.55 503.547 1788.02 497.522C1783.92 493.049 1782.11 487.51 1781.58 481.516C1781.46 480.126 1781.42 478.726 1781.34 477.286C1781.02 477.367 1780.79 477.428 1780.56 477.489C1769.92 480.501 1760.16 478.99 1751.52 471.687C1746 467.031 1743.41 461.158 1744.31 453.855C1744.88 449.199 1746.64 444.96 1748.93 440.943C1749.91 439.229 1751 437.565 1752.06 435.831C1751.76 435.638 1751.46 435.476 1751.21 435.273C1749.13 433.589 1746.88 432.078 1745.01 430.181C1739.87 424.977 1737.93 418.709 1739.56 411.446C1740.46 407.44 1742.25 403.819 1744.45 400.4C1749.51 392.55 1756.5 387.833 1765.8 386.9C1771.83 386.291 1777.63 387.387 1783.31 389.375C1783.6 389.476 1783.9 389.567 1784.23 389.669C1784.32 388.34 1784.35 387.143 1784.48 385.956C1785.31 378.248 1788.76 372.202 1795.57 368.378C1799.94 365.924 1804.7 364.747 1809.65 364.443C1816.61 364.007 1822.99 365.995 1829.06 369.311C1834.89 372.486 1838.43 377.254 1839.33 383.948C1839.57 385.733 1839.67 387.549 1839.85 389.415C1840.3 389.314 1840.74 389.212 1841.17 389.111C1849.22 387.235 1857.07 387.63 1864.61 391.272C1871.79 394.73 1877.17 400.228 1881.29 407.004C1885.33 413.647 1885.41 420.474 1881.74 427.321C1879.16 432.128 1875.46 435.973 1871.3 439.371C1869.06 441.196 1866.7 442.87 1864.31 444.676C1864.52 444.909 1864.72 445.132 1864.93 445.355L1864.95 445.365ZM1804.58 377.101C1799.76 378.268 1796.92 381.676 1796.3 386.778C1795.83 390.663 1796.41 394.446 1797.34 398.189C1797.85 400.238 1797.55 402.094 1796.28 403.768C1794.39 406.263 1791.32 406.912 1788.66 405.31C1785.16 403.21 1781.61 401.222 1777.71 399.954C1772.97 398.412 1768.17 397.915 1763.47 399.903C1757.2 402.551 1752.79 407.075 1750.99 413.85C1749.87 418.08 1751.19 421.691 1754.86 423.983C1757.48 425.616 1760.33 426.884 1763.14 428.173C1767.6 430.211 1768.54 434.715 1765.27 438.478C1763.47 440.557 1761.7 442.667 1760.04 444.858C1758.31 447.14 1756.98 449.676 1756.49 452.557C1755.33 459.404 1760.55 466.341 1767.46 467.224C1771.81 467.782 1775.9 466.727 1779.88 465.145C1781.94 464.323 1783.91 463.309 1785.93 462.375C1789.4 460.773 1793.39 462.477 1794.34 466.078C1794.62 467.123 1794.58 468.35 1794.35 469.425C1793.48 473.472 1792.88 477.529 1793.38 481.678C1794.19 488.332 1798.11 492.582 1804.53 494.134C1809.59 495.351 1813.28 493.464 1816.16 489.387C1818.58 485.979 1820.05 482.104 1821.4 478.179C1821.7 477.306 1821.94 476.414 1822.29 475.562C1823.27 473.148 1825.06 471.707 1827.6 471.332C1829.45 471.058 1830.99 471.758 1832.23 473.158C1834.37 475.562 1836.66 477.793 1839.39 479.518C1844.67 482.855 1849.98 482.895 1855.22 479.497C1856.77 478.493 1858.24 477.316 1859.56 476.018C1864.19 471.454 1864.93 466.169 1861.83 460.418C1859.77 456.604 1856.82 453.571 1853.59 450.792C1852.76 450.072 1851.89 449.402 1851.05 448.702C1849.78 447.637 1848.89 446.309 1848.48 444.665C1847.8 441.988 1848.78 439.716 1851.16 438.346C1854.9 436.196 1858.69 434.116 1862.35 431.834C1865.13 430.11 1867.54 427.889 1869.45 425.17C1873.19 419.825 1873.13 414.692 1869.14 409.56C1865.94 405.442 1861.85 402.439 1857.04 400.542C1852.64 398.808 1848.14 399.193 1843.74 400.583C1841.23 401.374 1838.81 402.459 1836.39 403.514C1834.14 404.498 1832 404.478 1830.04 402.957C1828.06 401.425 1827.06 399.396 1827.37 396.779C1827.7 393.919 1827.61 391.059 1826.97 388.249C1825.55 382.011 1821.5 378.511 1815.48 377.223C1813.53 376.807 1811.53 376.675 1809.54 376.412C1807.86 376.635 1806.18 376.716 1804.57 377.112L1804.58 377.101Z" fill="#8D9FF6"/>
<path d="M1788.75 435.618C1788.8 448.084 1798.81 458.186 1811.02 458.105C1823.33 458.024 1833.28 447.861 1833.18 435.486C1833.07 423.03 1823.16 413.019 1810.95 413.039C1798.67 413.059 1788.7 423.202 1788.75 435.608V435.618Z" fill="#333333" fill-opacity="0.9"/>
<path d="M1759.83 713.055C1757.44 711.249 1755.08 709.576 1752.84 707.75C1748.68 704.352 1744.98 700.518 1742.4 695.7C1738.73 688.843 1738.81 682.027 1742.85 675.383C1746.97 668.597 1752.35 663.11 1759.53 659.651C1767.07 656.009 1774.92 655.614 1782.97 657.49C1783.41 657.592 1783.85 657.693 1784.29 657.794C1784.46 655.918 1784.57 654.112 1784.81 652.327C1785.71 645.643 1789.24 640.876 1795.08 637.691C1801.16 634.374 1807.54 632.386 1814.49 632.822C1819.44 633.136 1824.2 634.303 1828.57 636.757C1835.38 640.581 1838.82 646.627 1839.66 654.336C1839.79 655.522 1839.83 656.719 1839.91 658.048C1840.23 657.947 1840.53 657.855 1840.83 657.754C1846.51 655.766 1852.31 654.67 1858.34 655.279C1867.64 656.212 1874.64 660.929 1879.69 668.78C1881.89 672.198 1883.68 675.819 1884.58 679.826C1886.21 687.098 1884.27 693.367 1879.13 698.56C1877.26 700.457 1875.01 701.968 1872.93 703.652C1872.67 703.855 1872.38 704.017 1872.08 704.21C1873.15 705.944 1874.23 707.608 1875.21 709.322C1877.5 713.349 1879.26 717.589 1879.83 722.234C1880.73 729.537 1878.14 735.41 1872.62 740.066C1863.98 747.369 1854.22 748.87 1843.58 745.868C1843.35 745.807 1843.12 745.746 1842.8 745.665C1842.72 747.105 1842.69 748.505 1842.56 749.895C1842.02 755.9 1840.22 761.428 1836.12 765.901C1830.59 771.936 1823.7 775.121 1815.53 775.08C1811 775.06 1807.15 773.062 1803.77 770.12C1799.64 766.53 1796.79 761.986 1794.38 757.117C1794.26 756.873 1794.13 756.62 1794 756.387C1793.97 756.336 1793.91 756.316 1793.83 756.265C1792.7 757.005 1791.59 757.796 1790.42 758.506C1785.76 761.326 1780.76 762.878 1775.27 762.564C1771.13 762.33 1767.31 761.022 1763.77 758.872C1759.02 755.971 1755.08 752.167 1752.03 747.491C1747.46 740.472 1747.44 733.128 1750.84 725.632C1752.88 721.139 1755.84 717.295 1759.19 713.744C1759.4 713.521 1759.6 713.298 1759.81 713.065L1759.83 713.055ZM1814.61 644.771C1812.63 645.034 1810.62 645.156 1808.67 645.582C1802.66 646.88 1798.61 650.37 1797.18 656.608C1796.54 659.417 1796.45 662.278 1796.78 665.138C1797.09 667.765 1796.09 669.784 1794.11 671.315C1792.15 672.837 1790.01 672.857 1787.76 671.873C1785.34 670.818 1782.92 669.733 1780.41 668.942C1776.01 667.542 1771.52 667.167 1767.11 668.901C1762.3 670.798 1758.22 673.8 1755.01 677.919C1751.02 683.051 1750.96 688.194 1754.7 693.529C1756.61 696.247 1759.02 698.469 1761.8 700.193C1765.47 702.475 1769.25 704.555 1772.99 706.705C1775.37 708.074 1776.34 710.336 1775.67 713.024C1775.26 714.668 1774.38 715.986 1773.1 717.061C1772.26 717.761 1771.39 718.441 1770.56 719.151C1767.33 721.93 1764.37 724.963 1762.32 728.777C1759.22 734.528 1759.95 739.813 1764.59 744.377C1765.91 745.675 1767.38 746.852 1768.93 747.856C1774.17 751.254 1779.48 751.213 1784.76 747.876C1787.49 746.152 1789.78 743.931 1791.92 741.517C1793.16 740.117 1794.7 739.417 1796.55 739.691C1799.09 740.066 1800.88 741.506 1801.86 743.921C1802.2 744.773 1802.45 745.665 1802.75 746.537C1804.1 750.463 1805.57 754.327 1807.99 757.746C1810.88 761.823 1814.56 763.71 1819.62 762.493C1826.05 760.951 1829.96 756.701 1830.77 750.037C1831.28 745.878 1830.67 741.831 1829.8 737.784C1829.57 736.709 1829.53 735.481 1829.81 734.437C1830.76 730.836 1834.76 729.142 1838.22 730.734C1840.23 731.668 1842.21 732.682 1844.27 733.503C1848.25 735.086 1852.34 736.141 1856.69 735.583C1863.61 734.7 1868.82 727.762 1867.66 720.916C1867.17 718.035 1865.84 715.499 1864.11 713.217C1862.45 711.026 1860.69 708.906 1858.88 706.837C1855.61 703.064 1856.55 698.57 1861.01 696.531C1863.82 695.243 1866.67 693.975 1869.29 692.342C1872.96 690.05 1874.28 686.439 1873.16 682.209C1871.36 675.434 1866.95 670.91 1860.68 668.262C1855.97 666.274 1851.18 666.781 1846.44 668.313C1842.54 669.581 1838.99 671.559 1835.49 673.669C1832.82 675.271 1829.76 674.622 1827.87 672.127C1826.6 670.453 1826.3 668.597 1826.81 666.548C1827.74 662.805 1828.32 659.022 1827.85 655.137C1827.23 650.035 1824.4 646.627 1819.57 645.46C1817.96 645.075 1816.28 644.994 1814.6 644.76L1814.61 644.771Z" fill="#EF94B4"/>
<path d="M1835.41 703.987C1835.36 716.453 1825.35 726.555 1813.14 726.474C1800.83 726.393 1790.88 716.23 1790.98 703.855C1791.09 691.399 1801 681.388 1813.21 681.408C1825.49 681.428 1835.46 691.571 1835.41 703.977V703.987Z" fill="#333333" fill-opacity="0.9"/>
<path d="M1865.66 995.117C1869.01 998.668 1871.96 1002.51 1874.01 1007.01C1877.42 1014.5 1877.39 1021.84 1872.82 1028.86C1869.77 1033.54 1865.83 1037.35 1861.08 1040.24C1857.54 1042.39 1853.72 1043.7 1849.58 1043.94C1844.1 1044.25 1839.1 1042.69 1834.43 1039.88C1833.26 1039.18 1832.15 1038.39 1831.02 1037.64C1830.94 1037.69 1830.88 1037.71 1830.85 1037.76C1830.72 1038 1830.59 1038.25 1830.47 1038.49C1828.06 1043.36 1825.2 1047.9 1821.08 1051.49C1817.7 1054.44 1813.85 1056.43 1809.32 1056.45C1801.15 1056.49 1794.26 1053.3 1788.73 1047.27C1784.63 1042.8 1782.82 1037.26 1782.29 1031.27C1782.17 1029.88 1782.13 1028.48 1782.05 1027.04C1781.73 1027.12 1781.5 1027.18 1781.27 1027.24C1770.63 1030.25 1760.87 1028.74 1752.23 1021.44C1746.71 1016.78 1744.12 1010.91 1745.02 1003.61C1745.59 998.952 1747.35 994.712 1749.64 990.695C1750.62 988.981 1751.71 987.317 1752.77 985.583C1752.47 985.39 1752.17 985.228 1751.92 985.025C1749.84 983.341 1747.59 981.83 1745.72 979.933C1740.58 974.73 1738.64 968.461 1740.27 961.199C1741.17 957.192 1742.96 953.571 1745.16 950.153C1750.22 942.302 1757.21 937.585 1766.51 936.652C1772.54 936.043 1778.34 937.139 1784.02 939.127C1784.31 939.228 1784.61 939.32 1784.94 939.421C1785.03 938.092 1785.06 936.895 1785.19 935.709C1786.02 928 1789.47 921.954 1796.28 918.131C1800.65 915.676 1805.41 914.499 1810.36 914.195C1817.32 913.759 1823.7 915.747 1829.77 919.064C1835.6 922.238 1839.14 927.006 1840.04 933.7C1840.28 935.486 1840.38 937.301 1840.56 939.168C1841.01 939.066 1841.45 938.965 1841.88 938.863C1849.93 936.987 1857.78 937.382 1865.32 941.024C1872.5 944.483 1877.88 949.98 1882 956.756C1886.04 963.4 1886.12 970.226 1882.45 977.073C1879.87 981.881 1876.17 985.725 1872.01 989.123C1869.77 990.949 1867.41 992.622 1865.02 994.428C1865.23 994.661 1865.43 994.884 1865.64 995.107L1865.66 995.117ZM1805.29 926.854C1800.47 928.02 1797.63 931.428 1797.01 936.53C1796.54 940.415 1797.12 944.199 1798.05 947.941C1798.56 949.99 1798.26 951.847 1796.99 953.52C1795.1 956.015 1792.03 956.665 1789.37 955.062C1785.87 952.962 1782.32 950.974 1778.42 949.706C1773.68 948.165 1768.88 947.668 1764.18 949.656C1757.91 952.303 1753.5 956.827 1751.7 963.602C1750.58 967.832 1751.9 971.443 1755.57 973.736C1758.19 975.369 1761.04 976.637 1763.85 977.925C1768.31 979.963 1769.25 984.467 1765.98 988.23C1764.18 990.31 1762.41 992.419 1760.75 994.61C1759.02 996.893 1757.69 999.428 1757.2 1002.31C1756.04 1009.16 1761.26 1016.09 1768.17 1016.98C1772.52 1017.53 1776.61 1016.48 1780.59 1014.9C1782.65 1014.08 1784.62 1013.06 1786.64 1012.13C1790.11 1010.53 1794.1 1012.23 1795.05 1015.83C1795.33 1016.87 1795.29 1018.1 1795.06 1019.18C1794.19 1023.22 1793.59 1027.28 1794.09 1031.43C1794.9 1038.08 1798.82 1042.33 1805.24 1043.89C1810.3 1045.1 1813.99 1043.22 1816.87 1039.14C1819.29 1035.73 1820.76 1031.86 1822.11 1027.93C1822.41 1027.06 1822.65 1026.17 1823 1025.31C1823.98 1022.9 1825.77 1021.46 1828.31 1021.08C1830.16 1020.81 1831.7 1021.51 1832.94 1022.91C1835.08 1025.31 1837.37 1027.55 1840.1 1029.27C1845.38 1032.61 1850.69 1032.65 1855.93 1029.25C1857.48 1028.25 1858.95 1027.07 1860.27 1025.77C1864.9 1021.21 1865.64 1015.92 1862.54 1010.17C1860.48 1006.36 1857.53 1003.32 1854.3 1000.54C1853.47 999.824 1852.6 999.155 1851.76 998.455C1850.49 997.39 1849.6 996.061 1849.19 994.418C1848.51 991.74 1849.49 989.468 1851.87 988.098C1855.61 985.948 1859.4 983.869 1863.06 981.586C1865.84 979.862 1868.25 977.641 1870.16 974.922C1873.9 969.577 1873.84 964.444 1869.85 959.312C1866.65 955.194 1862.56 952.191 1857.75 950.295C1853.35 948.56 1848.85 948.946 1844.45 950.335C1841.94 951.126 1839.52 952.212 1837.1 953.267C1834.85 954.25 1832.71 954.23 1830.75 952.709C1828.77 951.177 1827.77 949.148 1828.08 946.532C1828.41 943.671 1828.32 940.811 1827.68 938.001C1826.26 931.763 1822.21 928.264 1816.19 926.975C1814.24 926.559 1812.24 926.428 1810.25 926.164C1808.57 926.387 1806.89 926.468 1805.28 926.864L1805.29 926.854Z" fill="#8D9FF6"/>
<path d="M1789.46 985.37C1789.51 997.836 1799.52 1007.94 1811.73 1007.86C1824.04 1007.78 1833.99 997.613 1833.89 985.238C1833.78 972.782 1823.87 962.771 1811.66 962.791C1799.38 962.811 1789.41 972.955 1789.46 985.36V985.37Z" fill="#333333" fill-opacity="0.9"/>
<path d="M31.1127 163.303C28.7227 161.497 26.3627 159.824 24.1227 157.998C19.9627 154.6 16.2627 150.766 13.6827 145.948C10.0127 139.091 10.0927 132.275 14.1327 125.631C18.2527 118.845 23.6327 113.357 30.8127 109.899C38.3526 106.257 46.2027 105.862 54.2527 107.738C54.6927 107.84 55.1327 107.941 55.5727 108.042C55.7427 106.166 55.8527 104.36 56.0927 102.575C56.9927 95.8908 60.5227 91.1235 66.3627 87.9386C72.4527 84.6116 78.8226 82.6235 85.7826 83.0597C90.7326 83.3741 95.4926 84.5406 99.8626 86.9952C106.673 90.8192 110.113 96.8646 110.953 104.573C111.083 105.76 111.123 106.957 111.203 108.286C111.523 108.184 111.823 108.093 112.123 107.992C117.803 106.004 123.603 104.908 129.633 105.517C138.933 106.45 145.933 111.167 150.983 119.017C153.183 122.436 154.973 126.057 155.873 130.063C157.503 137.336 155.563 143.605 150.423 148.798C148.553 150.695 146.303 152.206 144.223 153.89C143.963 154.093 143.673 154.255 143.373 154.448C144.443 156.182 145.523 157.846 146.503 159.56C148.793 163.587 150.553 167.827 151.123 172.472C152.023 179.775 149.433 185.648 143.913 190.304C135.273 197.607 125.513 199.108 114.873 196.106C114.643 196.045 114.413 195.984 114.093 195.903C114.013 197.343 113.983 198.743 113.853 200.133C113.313 206.137 111.513 211.665 107.413 216.139C101.883 222.174 94.9926 225.359 86.8226 225.318C82.2926 225.298 78.4426 223.3 75.0627 220.358C70.9327 216.768 68.0827 212.223 65.6727 207.355C65.5527 207.111 65.4227 206.858 65.2927 206.624C65.2627 206.574 65.2027 206.553 65.1227 206.503C63.9927 207.243 62.8827 208.034 61.7127 208.744C57.0527 211.564 52.0527 213.116 46.5627 212.802C42.4227 212.568 38.6026 211.26 35.0627 209.109C30.3127 206.208 26.3727 202.405 23.3227 197.729C18.7527 190.71 18.7327 183.366 22.1327 175.87C24.1727 171.377 27.1327 167.532 30.4827 163.982C30.6926 163.759 30.8927 163.536 31.1027 163.303H31.1127ZM85.9026 95.0185C83.9226 95.2822 81.9126 95.404 79.9626 95.83C73.9526 97.1283 69.9027 100.618 68.4727 106.856C67.8327 109.665 67.7427 112.526 68.0727 115.386C68.3827 118.013 67.3827 120.032 65.4027 121.563C63.4427 123.085 61.3027 123.105 59.0527 122.121C56.6327 121.066 54.2127 119.981 51.7027 119.19C47.3027 117.79 42.8127 117.415 38.4027 119.149C33.5927 121.046 29.5127 124.048 26.3027 128.167C22.3127 133.299 22.2527 138.442 25.9927 143.777C27.9027 146.495 30.3127 148.717 33.0927 150.441C36.7627 152.723 40.5427 154.803 44.2827 156.953C46.6627 158.322 47.6327 160.584 46.9627 163.272C46.5527 164.915 45.6727 166.234 44.3927 167.309C43.5527 168.009 42.6827 168.689 41.8527 169.399C38.6227 172.178 35.6627 175.211 33.6127 179.025C30.5127 184.776 31.2427 190.06 35.8827 194.625C37.2027 195.923 38.6727 197.1 40.2227 198.104C45.4627 201.502 50.7727 201.461 56.0527 198.124C58.7827 196.4 61.0727 194.179 63.2127 191.765C64.4527 190.365 65.9927 189.665 67.8427 189.939C70.3827 190.314 72.1727 191.754 73.1527 194.168C73.4927 195.02 73.7427 195.913 74.0427 196.785C75.3927 200.711 76.8626 204.575 79.2826 207.994C82.1726 212.071 85.8527 213.958 90.9127 212.741C97.3427 211.199 101.253 206.949 102.063 200.285C102.573 196.126 101.963 192.079 101.093 188.032C100.863 186.957 100.823 185.729 101.103 184.685C102.053 181.084 106.053 179.39 109.513 180.982C111.523 181.915 113.503 182.93 115.563 183.751C119.543 185.334 123.633 186.389 127.983 185.831C134.903 184.948 140.113 178.01 138.953 171.164C138.463 168.283 137.133 165.747 135.403 163.465C133.743 161.274 131.983 159.154 130.173 157.085C126.903 153.312 127.843 148.818 132.303 146.779C135.113 145.491 137.963 144.223 140.583 142.59C144.253 140.298 145.573 136.687 144.453 132.457C142.653 125.681 138.243 121.158 131.973 118.51C127.263 116.522 122.473 117.029 117.733 118.561C113.833 119.829 110.283 121.807 106.783 123.917C104.113 125.519 101.053 124.87 99.1627 122.375C97.8927 120.701 97.5926 118.845 98.1026 116.796C99.0326 113.053 99.6126 109.27 99.1426 105.385C98.5226 100.283 95.6926 96.8747 90.8626 95.7083C89.2526 95.3228 87.5726 95.2417 85.8926 95.0084L85.9026 95.0185Z" fill="#EF94B4"/>
<path d="M106.703 154.235C106.653 166.701 96.6427 176.803 84.4327 176.722C72.1227 176.641 62.1727 166.477 62.2727 154.103C62.3827 141.647 72.2927 131.636 84.5027 131.656C96.7826 131.676 106.753 141.819 106.703 154.224V154.235Z" fill="#333333" fill-opacity="0.9"/>
<path d="M136.953 445.365C140.303 448.915 143.253 452.76 145.303 457.253C148.713 464.749 148.683 472.093 144.113 479.112C141.063 483.788 137.123 487.602 132.373 490.492C128.833 492.643 125.013 493.951 120.873 494.185C115.393 494.499 110.393 492.937 105.723 490.127C104.553 489.427 103.443 488.636 102.313 487.886C102.233 487.936 102.173 487.957 102.143 488.007C102.013 488.251 101.883 488.494 101.763 488.738C99.3527 493.606 96.4927 498.151 92.3727 501.741C88.9927 504.683 85.1427 506.681 80.6127 506.701C72.4427 506.742 65.5527 503.547 60.0227 497.522C55.9227 493.049 54.1127 487.51 53.5827 481.516C53.4627 480.126 53.4227 478.726 53.3427 477.286C53.0227 477.367 52.7927 477.428 52.5627 477.489C41.9227 480.501 32.1627 478.99 23.5227 471.687C18.0027 467.031 15.4127 461.158 16.3127 453.855C16.8827 449.199 18.6427 444.96 20.9327 440.943C21.9127 439.229 23.0027 437.565 24.0627 435.831C23.7627 435.638 23.4627 435.476 23.2127 435.273C21.1327 433.589 18.8827 432.078 17.0127 430.181C11.8727 424.977 9.93265 418.709 11.5627 411.446C12.4627 407.44 14.2527 403.819 16.4527 400.4C21.5127 392.55 28.5027 387.833 37.8027 386.9C43.8327 386.291 49.6327 387.387 55.3127 389.375C55.6027 389.476 55.9027 389.567 56.2327 389.669C56.3227 388.34 56.3527 387.143 56.4827 385.956C57.3127 378.248 60.7627 372.202 67.5727 368.378C71.9427 365.924 76.7027 364.747 81.6527 364.443C88.6127 364.007 94.9927 365.995 101.063 369.311C106.893 372.486 110.433 377.254 111.333 383.948C111.573 385.733 111.673 387.549 111.853 389.415C112.303 389.314 112.743 389.212 113.173 389.111C121.223 387.235 129.073 387.63 136.613 391.272C143.793 394.73 149.173 400.228 153.293 407.004C157.333 413.647 157.413 420.474 153.743 427.321C151.163 432.128 147.463 435.973 143.303 439.371C141.063 441.196 138.703 442.87 136.313 444.676C136.523 444.909 136.723 445.132 136.933 445.355L136.953 445.365ZM76.5827 377.101C71.7627 378.268 68.9227 381.676 68.3027 386.778C67.8327 390.663 68.4127 394.446 69.3427 398.189C69.8527 400.238 69.5527 402.094 68.2827 403.768C66.3927 406.263 63.3227 406.912 60.6627 405.31C57.1627 403.21 53.6127 401.222 49.7127 399.954C44.9727 398.412 40.1727 397.915 35.4727 399.903C29.2027 402.551 24.7927 407.075 22.9927 413.85C21.8727 418.08 23.1927 421.691 26.8627 423.983C29.4827 425.616 32.3327 426.884 35.1427 428.173C39.6027 430.211 40.5427 434.715 37.2727 438.478C35.4727 440.557 33.7027 442.667 32.0427 444.858C30.3127 447.14 28.9827 449.676 28.4927 452.557C27.3327 459.404 32.5527 466.341 39.4627 467.224C43.8127 467.782 47.9027 466.727 51.8827 465.145C53.9427 464.323 55.9127 463.309 57.9327 462.375C61.4027 460.773 65.3927 462.477 66.3427 466.078C66.6227 467.123 66.5827 468.35 66.3527 469.425C65.4827 473.472 64.8827 477.529 65.3827 481.678C66.1927 488.332 70.1127 492.582 76.5327 494.134C81.5927 495.351 85.2827 493.464 88.1627 489.387C90.5827 485.979 92.0527 482.104 93.4027 478.179C93.7027 477.306 93.9427 476.414 94.2927 475.562C95.2727 473.148 97.0627 471.707 99.6027 471.332C101.453 471.058 102.993 471.758 104.233 473.158C106.373 475.562 108.663 477.793 111.393 479.518C116.673 482.855 121.983 482.895 127.223 479.497C128.773 478.493 130.243 477.316 131.563 476.018C136.193 471.454 136.933 466.169 133.833 460.418C131.773 456.604 128.823 453.571 125.593 450.792C124.763 450.072 123.893 449.402 123.053 448.702C121.783 447.637 120.893 446.309 120.483 444.665C119.803 441.988 120.783 439.716 123.163 438.346C126.903 436.196 130.693 434.116 134.353 431.834C137.133 430.11 139.543 427.889 141.453 425.17C145.193 419.825 145.133 414.692 141.143 409.56C137.943 405.442 133.853 402.439 129.043 400.542C124.643 398.808 120.143 399.193 115.743 400.583C113.233 401.374 110.813 402.459 108.393 403.514C106.143 404.498 104.003 404.478 102.043 402.957C100.063 401.425 99.0627 399.396 99.3727 396.779C99.7027 393.919 99.6127 391.059 98.9727 388.249C97.5527 382.011 93.5027 378.511 87.4827 377.223C85.5327 376.807 83.5327 376.675 81.5427 376.412C79.8627 376.635 78.1827 376.716 76.5727 377.112L76.5827 377.101Z" fill="#8D9FF6"/>
<path d="M60.7527 435.618C60.8027 448.084 70.8127 458.186 83.0227 458.105C95.3327 458.024 105.283 447.861 105.183 435.486C105.073 423.03 95.1627 413.019 82.9527 413.039C70.6727 413.059 60.7027 423.202 60.7527 435.608V435.618Z" fill="#333333" fill-opacity="0.9"/>
<path d="M31.8327 713.055C29.4427 711.249 27.0827 709.576 24.8427 707.75C20.6827 704.352 16.9827 700.518 14.4027 695.7C10.7327 688.843 10.8127 682.027 14.8527 675.383C18.9727 668.597 24.3527 663.11 31.5327 659.651C39.0727 656.009 46.9227 655.614 54.9727 657.49C55.4127 657.592 55.8527 657.693 56.2927 657.794C56.4627 655.918 56.5727 654.112 56.8127 652.327C57.7127 645.643 61.2427 640.876 67.0827 637.691C73.1627 634.374 79.5427 632.386 86.4927 632.822C91.4426 633.136 96.2026 634.303 100.573 636.757C107.383 640.581 110.823 646.627 111.663 654.336C111.793 655.522 111.833 656.719 111.913 658.048C112.233 657.947 112.533 657.855 112.833 657.754C118.513 655.766 124.313 654.67 130.343 655.279C139.643 656.212 146.643 660.929 151.693 668.78C153.893 672.198 155.683 675.819 156.583 679.826C158.213 687.098 156.273 693.367 151.133 698.56C149.263 700.457 147.013 701.968 144.933 703.652C144.673 703.855 144.383 704.017 144.083 704.21C145.153 705.944 146.233 707.608 147.213 709.322C149.503 713.349 151.263 717.589 151.833 722.234C152.733 729.537 150.143 735.41 144.623 740.066C135.983 747.369 126.223 748.87 115.583 745.868C115.353 745.807 115.123 745.746 114.803 745.665C114.723 747.105 114.693 748.505 114.563 749.895C114.023 755.9 112.223 761.428 108.123 765.901C102.593 771.936 95.7026 775.121 87.5326 775.08C83.0026 775.06 79.1526 773.062 75.7727 770.12C71.6427 766.53 68.7927 761.986 66.3827 757.117C66.2627 756.873 66.1327 756.62 66.0027 756.387C65.9727 756.336 65.9127 756.316 65.8327 756.265C64.7027 757.005 63.5927 757.796 62.4227 758.506C57.7627 761.326 52.7626 762.878 47.2727 762.564C43.1327 762.33 39.3127 761.022 35.7727 758.872C31.0227 755.971 27.0827 752.167 24.0327 747.491C19.4627 740.472 19.4427 733.128 22.8427 725.632C24.8827 721.139 27.8427 717.295 31.1927 713.744C31.4027 713.521 31.6027 713.298 31.8127 713.065L31.8327 713.055ZM86.6126 644.771C84.6326 645.034 82.6227 645.156 80.6727 645.582C74.6627 646.88 70.6127 650.37 69.1827 656.608C68.5427 659.417 68.4527 662.278 68.7827 665.138C69.0927 667.765 68.0927 669.784 66.1127 671.315C64.1527 672.837 62.0127 672.857 59.7627 671.873C57.3427 670.818 54.9227 669.733 52.4127 668.942C48.0127 667.542 43.5227 667.167 39.1127 668.901C34.3027 670.798 30.2227 673.8 27.0127 677.919C23.0227 683.051 22.9627 688.194 26.7027 693.529C28.6127 696.247 31.0227 698.469 33.8027 700.193C37.4727 702.475 41.2527 704.555 44.9927 706.705C47.3727 708.074 48.3427 710.336 47.6727 713.024C47.2627 714.668 46.3827 715.986 45.1027 717.061C44.2627 717.761 43.3927 718.441 42.5627 719.151C39.3327 721.93 36.3727 724.963 34.3227 728.777C31.2227 734.528 31.9527 739.813 36.5927 744.377C37.9127 745.675 39.3827 746.852 40.9327 747.856C46.1727 751.254 51.4827 751.213 56.7627 747.876C59.4927 746.152 61.7827 743.931 63.9227 741.517C65.1627 740.117 66.7027 739.417 68.5527 739.691C71.0927 740.066 72.8827 741.506 73.8627 743.921C74.2027 744.773 74.4527 745.665 74.7527 746.537C76.1027 750.463 77.5727 754.327 79.9927 757.746C82.8827 761.823 86.5627 763.71 91.6227 762.493C98.0527 760.951 101.963 756.701 102.773 750.037C103.283 745.878 102.673 741.831 101.803 737.784C101.573 736.709 101.533 735.481 101.813 734.437C102.763 730.836 106.763 729.142 110.223 730.734C112.233 731.668 114.213 732.682 116.273 733.503C120.253 735.086 124.343 736.141 128.693 735.583C135.613 734.7 140.823 727.762 139.663 720.916C139.173 718.035 137.843 715.499 136.113 713.217C134.453 711.026 132.693 708.906 130.883 706.837C127.613 703.064 128.553 698.57 133.013 696.531C135.823 695.243 138.673 693.975 141.293 692.342C144.963 690.05 146.283 686.439 145.163 682.209C143.363 675.434 138.953 670.91 132.683 668.262C127.973 666.274 123.183 666.781 118.443 668.313C114.543 669.581 110.993 671.559 107.493 673.669C104.823 675.271 101.763 674.622 99.8727 672.127C98.6027 670.453 98.3027 668.597 98.8127 666.548C99.7427 662.805 100.323 659.022 99.8526 655.137C99.2326 650.035 96.4026 646.627 91.5726 645.46C89.9626 645.075 88.2826 644.994 86.6026 644.76L86.6126 644.771Z" fill="#EF94B4"/>
<path d="M107.413 703.987C107.363 716.453 97.3526 726.555 85.1427 726.474C72.8327 726.393 62.8827 716.23 62.9827 703.855C63.0927 691.399 73.0027 681.388 85.2127 681.408C97.4926 681.428 107.463 691.571 107.413 703.977V703.987Z" fill="#333333" fill-opacity="0.9"/>
<path d="M137.663 995.117C141.013 998.668 143.963 1002.51 146.013 1007.01C149.423 1014.5 149.393 1021.84 144.823 1028.86C141.773 1033.54 137.833 1037.35 133.083 1040.24C129.543 1042.39 125.723 1043.7 121.583 1043.94C116.103 1044.25 111.103 1042.69 106.433 1039.88C105.263 1039.18 104.153 1038.39 103.023 1037.64C102.943 1037.69 102.883 1037.71 102.853 1037.76C102.723 1038 102.593 1038.25 102.473 1038.49C100.063 1043.36 97.2027 1047.9 93.0827 1051.49C89.7027 1054.44 85.8527 1056.43 81.3227 1056.45C73.1527 1056.49 66.2627 1053.3 60.7327 1047.27C56.6327 1042.8 54.8227 1037.26 54.2927 1031.27C54.1727 1029.88 54.1327 1028.48 54.0527 1027.04C53.7327 1027.12 53.5027 1027.18 53.2727 1027.24C42.6327 1030.25 32.8727 1028.74 24.2327 1021.44C18.7127 1016.78 16.1227 1010.91 17.0227 1003.61C17.5927 998.952 19.3527 994.712 21.6427 990.695C22.6227 988.981 23.7127 987.317 24.7727 985.583C24.4727 985.39 24.1727 985.228 23.9227 985.025C21.8427 983.341 19.5927 981.83 17.7227 979.933C12.5827 974.73 10.6427 968.461 12.2727 961.199C13.1727 957.192 14.9627 953.571 17.1627 950.153C22.2227 942.302 29.2127 937.585 38.5127 936.652C44.5427 936.043 50.3427 937.139 56.0227 939.127C56.3127 939.228 56.6127 939.32 56.9427 939.421C57.0327 938.092 57.0627 936.895 57.1927 935.709C58.0227 928 61.4727 921.954 68.2827 918.131C72.6527 915.676 77.4127 914.499 82.3627 914.195C89.3227 913.759 95.7027 915.747 101.773 919.064C107.603 922.238 111.143 927.006 112.043 933.7C112.283 935.486 112.383 937.301 112.563 939.168C113.013 939.066 113.453 938.965 113.883 938.863C121.933 936.987 129.783 937.382 137.323 941.024C144.503 944.483 149.883 949.98 154.003 956.756C158.043 963.4 158.123 970.226 154.453 977.073C151.873 981.881 148.173 985.725 144.013 989.123C141.773 990.949 139.413 992.622 137.023 994.428C137.233 994.661 137.433 994.884 137.643 995.107L137.663 995.117ZM77.2927 926.854C72.4727 928.02 69.6327 931.428 69.0127 936.53C68.5427 940.415 69.1227 944.199 70.0527 947.941C70.5627 949.99 70.2627 951.847 68.9927 953.52C67.1027 956.015 64.0327 956.665 61.3727 955.062C57.8727 952.962 54.3227 950.974 50.4227 949.706C45.6827 948.165 40.8827 947.668 36.1827 949.656C29.9127 952.303 25.5027 956.827 23.7027 963.602C22.5827 967.832 23.9027 971.443 27.5727 973.736C30.1927 975.369 33.0427 976.637 35.8527 977.925C40.3127 979.963 41.2527 984.467 37.9827 988.23C36.1827 990.31 34.4127 992.419 32.7527 994.61C31.0227 996.893 29.6927 999.428 29.2027 1002.31C28.0427 1009.16 33.2627 1016.09 40.1727 1016.98C44.5227 1017.53 48.6127 1016.48 52.5927 1014.9C54.6527 1014.08 56.6227 1013.06 58.6427 1012.13C62.1127 1010.53 66.1027 1012.23 67.0527 1015.83C67.3327 1016.87 67.2927 1018.1 67.0627 1019.18C66.1927 1023.22 65.5927 1027.28 66.0927 1031.43C66.9027 1038.08 70.8227 1042.33 77.2427 1043.89C82.3027 1045.1 85.9927 1043.22 88.8727 1039.14C91.2927 1035.73 92.7627 1031.86 94.1127 1027.93C94.4127 1027.06 94.6527 1026.17 95.0027 1025.31C95.9827 1022.9 97.7727 1021.46 100.313 1021.08C102.163 1020.81 103.703 1021.51 104.943 1022.91C107.083 1025.31 109.373 1027.55 112.103 1029.27C117.383 1032.61 122.693 1032.65 127.933 1029.25C129.483 1028.25 130.953 1027.07 132.273 1025.77C136.903 1021.21 137.643 1015.92 134.543 1010.17C132.483 1006.36 129.533 1003.32 126.303 1000.54C125.473 999.824 124.603 999.155 123.763 998.455C122.493 997.39 121.603 996.061 121.193 994.418C120.513 991.74 121.493 989.468 123.873 988.098C127.613 985.948 131.403 983.869 135.063 981.586C137.843 979.862 140.253 977.641 142.163 974.922C145.903 969.577 145.843 964.444 141.853 959.312C138.653 955.194 134.563 952.191 129.753 950.295C125.353 948.56 120.853 948.946 116.453 950.335C113.943 951.126 111.523 952.212 109.103 953.267C106.853 954.25 104.713 954.23 102.753 952.709C100.773 951.177 99.7727 949.148 100.083 946.532C100.413 943.671 100.323 940.811 99.6827 938.001C98.2627 931.763 94.2127 928.264 88.1927 926.975C86.2427 926.559 84.2427 926.428 82.2527 926.164C80.5727 926.387 78.8927 926.468 77.2827 926.864L77.2927 926.854Z" fill="#8D9FF6"/>
<path d="M61.4627 985.37C61.5127 997.836 71.5227 1007.94 83.7327 1007.86C96.0427 1007.78 105.993 997.613 105.893 985.238C105.783 972.782 95.8727 962.771 83.6627 962.791C71.3827 962.811 61.4127 972.955 61.4627 985.36V985.37Z" fill="#333333" fill-opacity="0.9"/>
</svg>
