<svg width="1920" height="1080" viewBox="0 0 1920 1080" fill="none" xmlns="http://www.w3.org/2000/svg">
<path d="M1920.13 -0.662598H0.130203V1079.34H1920.13V-0.662598Z" fill="#FEFDFC"/>
<path d="M1759.11 162.764C1756.72 160.959 1754.36 159.285 1752.12 157.459C1747.96 154.061 1744.26 150.227 1741.68 145.409C1738.01 138.552 1738.09 131.736 1742.13 125.092C1746.25 118.307 1751.63 112.819 1758.81 109.36C1766.35 105.719 1774.2 105.323 1782.25 107.2C1782.69 107.301 1783.13 107.403 1783.57 107.504C1783.74 105.628 1783.85 103.822 1784.09 102.037C1784.99 95.3525 1788.52 90.5852 1794.36 87.4002C1800.45 84.0733 1806.82 82.0852 1813.78 82.5213C1818.73 82.8358 1823.49 84.0022 1827.86 86.4569C1834.67 90.2809 1838.11 96.3263 1838.95 104.035C1839.08 105.222 1839.12 106.419 1839.2 107.748C1839.52 107.646 1839.82 107.555 1840.12 107.453C1845.8 105.465 1851.6 104.37 1857.63 104.978C1866.93 105.912 1873.93 110.628 1878.98 118.479C1881.18 121.897 1882.97 125.518 1883.87 129.525C1885.5 136.798 1883.56 143.066 1878.42 148.26C1876.55 150.156 1874.3 151.668 1872.22 153.351C1871.96 153.554 1871.67 153.717 1871.37 153.909C1872.44 155.644 1873.52 157.307 1874.5 159.022C1876.79 163.048 1878.55 167.288 1879.12 171.934C1880.02 179.237 1877.43 185.11 1871.91 189.766C1863.27 197.069 1853.51 198.57 1842.87 195.568C1842.64 195.507 1842.41 195.446 1842.09 195.365C1842.01 196.805 1841.98 198.205 1841.85 199.594C1841.31 205.599 1839.51 211.127 1835.41 215.6C1829.88 221.636 1822.99 224.821 1814.82 224.78C1810.29 224.76 1806.44 222.762 1803.06 219.82C1798.93 216.229 1796.08 211.685 1793.67 206.816C1793.55 206.573 1793.42 206.319 1793.29 206.086C1793.26 206.035 1793.2 206.015 1793.12 205.964C1791.99 206.705 1790.88 207.496 1789.71 208.206C1785.05 211.026 1780.05 212.578 1774.56 212.263C1770.42 212.03 1766.6 210.721 1763.06 208.571C1758.31 205.67 1754.37 201.866 1751.32 197.19C1746.75 190.171 1746.73 182.828 1750.13 175.332C1752.17 170.838 1755.13 166.994 1758.48 163.444C1758.69 163.221 1758.89 162.998 1759.1 162.764H1759.11ZM1813.9 94.4802C1811.92 94.7439 1809.91 94.8656 1807.96 95.2917C1801.95 96.59 1797.9 100.079 1796.47 106.317C1795.83 109.127 1795.74 111.987 1796.07 114.848C1796.38 117.475 1795.38 119.493 1793.4 121.025C1791.44 122.546 1789.3 122.567 1787.05 121.583C1784.63 120.528 1782.21 119.443 1779.7 118.651C1775.3 117.252 1770.81 116.876 1766.4 118.611C1761.59 120.508 1757.51 123.51 1754.3 127.628C1750.31 132.761 1750.25 137.903 1753.99 143.239C1755.9 145.957 1758.31 148.178 1761.09 149.903C1764.76 152.185 1768.54 154.264 1772.28 156.415C1774.66 157.784 1775.63 160.046 1774.96 162.734C1774.55 164.377 1773.67 165.696 1772.39 166.771C1771.55 167.471 1770.68 168.15 1769.85 168.86C1766.62 171.64 1763.66 174.672 1761.61 178.486C1758.51 184.238 1759.24 189.522 1763.88 194.087C1765.2 195.385 1766.67 196.562 1768.22 197.566C1773.46 200.964 1778.77 200.923 1784.05 197.586C1786.78 195.862 1789.07 193.64 1791.21 191.226C1792.45 189.826 1793.99 189.127 1795.84 189.4C1798.38 189.776 1800.17 191.216 1801.15 193.63C1801.49 194.482 1801.74 195.375 1802.04 196.247C1803.39 200.173 1804.86 204.037 1807.28 207.455C1810.17 211.533 1813.85 213.42 1818.91 212.202C1825.34 210.661 1829.25 206.411 1830.06 199.747C1830.57 195.588 1829.96 191.541 1829.09 187.494C1828.86 186.418 1828.82 185.191 1829.1 184.146C1830.05 180.545 1834.05 178.852 1837.51 180.444C1839.52 181.377 1841.5 182.391 1843.56 183.213C1847.54 184.795 1851.63 185.85 1855.98 185.292C1862.9 184.41 1868.11 177.472 1866.95 170.625C1866.46 167.745 1865.13 165.209 1863.4 162.927C1861.74 160.736 1859.98 158.616 1858.17 156.547C1854.9 152.773 1855.84 148.28 1860.3 146.241C1863.11 144.953 1865.96 143.685 1868.58 142.052C1872.25 139.76 1873.57 136.149 1872.45 131.919C1870.65 125.143 1866.24 120.619 1859.97 117.972C1855.26 115.984 1850.47 116.491 1845.73 118.023C1841.83 119.291 1838.28 121.268 1834.78 123.378C1832.11 124.981 1829.05 124.332 1827.16 121.836C1825.89 120.163 1825.59 118.307 1826.1 116.258C1827.03 112.515 1827.61 108.731 1827.14 104.847C1826.52 99.7445 1823.69 96.3364 1818.86 95.1699C1817.25 94.7845 1815.57 94.7033 1813.89 94.4701L1813.9 94.4802Z" fill="#EF94B4"/>
<path d="M1834.71 153.697C1834.66 166.164 1824.65 176.266 1812.44 176.185C1800.13 176.104 1790.18 165.94 1790.28 153.566C1790.39 141.11 1800.3 131.098 1812.51 131.119C1824.79 131.139 1834.76 141.282 1834.71 153.687V153.697Z" fill="#333333" fill-opacity="0.9"/>
<path d="M1864.95 444.828C1868.3 448.378 1871.25 452.222 1873.3 456.715C1876.71 464.211 1876.68 471.555 1872.11 478.574C1869.06 483.25 1865.12 487.064 1860.37 489.955C1856.83 492.105 1853.01 493.414 1848.87 493.647C1843.39 493.961 1838.39 492.399 1833.72 489.59C1832.55 488.89 1831.44 488.098 1830.31 487.348C1830.23 487.399 1830.17 487.419 1830.14 487.47C1830.01 487.713 1829.88 487.956 1829.76 488.2C1827.35 493.069 1824.49 497.613 1820.37 501.204C1816.99 504.145 1813.14 506.143 1808.61 506.164C1800.44 506.204 1793.55 503.009 1788.02 496.984C1783.92 492.511 1782.11 486.973 1781.58 480.978C1781.46 479.588 1781.42 478.189 1781.34 476.748C1781.02 476.829 1780.79 476.89 1780.56 476.951C1769.92 479.964 1760.16 478.452 1751.52 471.149C1746 466.493 1743.41 460.62 1744.31 453.317C1744.88 448.662 1746.64 444.422 1748.93 440.405C1749.91 438.691 1751 437.027 1752.06 435.293C1751.76 435.1 1751.46 434.938 1751.21 434.735C1749.13 433.051 1746.88 431.54 1745.01 429.643C1739.87 424.44 1737.93 418.171 1739.56 410.909C1740.46 406.902 1742.25 403.281 1744.45 399.863C1749.51 392.012 1756.5 387.295 1765.8 386.362C1771.83 385.753 1777.63 386.849 1783.31 388.837C1783.6 388.938 1783.9 389.03 1784.23 389.131C1784.32 387.802 1784.35 386.605 1784.48 385.419C1785.31 377.71 1788.76 371.664 1795.57 367.84C1799.94 365.386 1804.7 364.209 1809.65 363.905C1816.61 363.469 1822.99 365.457 1829.06 368.774C1834.89 371.948 1838.43 376.716 1839.33 383.41C1839.57 385.196 1839.67 387.011 1839.85 388.877C1840.3 388.776 1840.74 388.675 1841.17 388.573C1849.22 386.697 1857.07 387.092 1864.61 390.734C1871.79 394.193 1877.17 399.69 1881.29 406.466C1885.33 413.11 1885.41 419.936 1881.74 426.783C1879.16 431.591 1875.46 435.435 1871.3 438.833C1869.06 440.659 1866.7 442.332 1864.31 444.138C1864.52 444.371 1864.72 444.594 1864.93 444.817L1864.95 444.828ZM1804.58 376.564C1799.76 377.73 1796.92 381.138 1796.3 386.24C1795.83 390.125 1796.41 393.909 1797.34 397.651C1797.85 399.7 1797.55 401.557 1796.28 403.23C1794.39 405.725 1791.32 406.375 1788.66 404.772C1785.16 402.672 1781.61 400.684 1777.71 399.416C1772.97 397.875 1768.17 397.378 1763.47 399.366C1757.2 402.013 1752.79 406.537 1750.99 413.313C1749.87 417.542 1751.19 421.153 1754.86 423.446C1757.48 425.079 1760.33 426.347 1763.14 427.635C1767.6 429.674 1768.54 434.177 1765.27 437.94C1763.47 440.02 1761.7 442.129 1760.04 444.32C1758.31 446.603 1756.98 449.138 1756.49 452.019C1755.33 458.866 1760.55 465.804 1767.46 466.686C1771.81 467.244 1775.9 466.189 1779.88 464.607C1781.94 463.785 1783.91 462.771 1785.93 461.838C1789.4 460.235 1793.39 461.939 1794.34 465.54C1794.62 466.585 1794.58 467.812 1794.35 468.887C1793.48 472.934 1792.88 476.992 1793.38 481.14C1794.19 487.794 1798.11 492.044 1804.53 493.596C1809.59 494.813 1813.28 492.927 1816.16 488.849C1818.58 485.441 1820.05 481.566 1821.4 477.641C1821.7 476.769 1821.94 475.876 1822.29 475.024C1823.27 472.61 1825.06 471.169 1827.6 470.794C1829.45 470.52 1830.99 471.22 1832.23 472.62C1834.37 475.024 1836.66 477.255 1839.39 478.98C1844.67 482.317 1849.98 482.357 1855.22 478.959C1856.77 477.955 1858.24 476.779 1859.56 475.48C1864.19 470.916 1864.93 465.631 1861.83 459.88C1859.77 456.066 1856.82 453.033 1853.59 450.254C1852.76 449.534 1851.89 448.865 1851.05 448.165C1849.78 447.1 1848.89 445.771 1848.48 444.128C1847.8 441.45 1848.78 439.178 1851.16 437.808C1854.9 435.658 1858.69 433.579 1862.35 431.296C1865.13 429.572 1867.54 427.351 1869.45 424.632C1873.19 419.287 1873.13 414.154 1869.14 409.022C1865.94 404.904 1861.85 401.901 1857.04 400.005C1852.64 398.27 1848.14 398.656 1843.74 400.045C1841.23 400.836 1838.81 401.922 1836.39 402.977C1834.14 403.96 1832 403.94 1830.04 402.419C1828.06 400.887 1827.06 398.858 1827.37 396.241C1827.7 393.381 1827.61 390.521 1826.97 387.711C1825.55 381.473 1821.5 377.974 1815.48 376.685C1813.53 376.269 1811.53 376.138 1809.54 375.874C1807.86 376.097 1806.18 376.178 1804.57 376.574L1804.58 376.564Z" fill="#8D9FF6"/>
<path d="M1788.75 435.081C1788.8 447.547 1798.81 457.649 1811.02 457.568C1823.33 457.487 1833.28 447.324 1833.18 434.949C1833.07 422.493 1823.16 412.482 1810.95 412.502C1798.67 412.522 1788.7 422.665 1788.75 435.071V435.081Z" fill="#333333" fill-opacity="0.9"/>
<path d="M1759.83 712.517C1757.44 710.711 1755.08 709.038 1752.84 707.212C1748.68 703.814 1744.98 699.98 1742.4 695.162C1738.73 688.305 1738.81 681.489 1742.85 674.845C1746.97 668.059 1752.35 662.571 1759.53 659.113C1767.07 655.471 1774.92 655.076 1782.97 656.952C1783.41 657.054 1783.85 657.155 1784.29 657.256C1784.46 655.38 1784.57 653.574 1784.81 651.789C1785.71 645.105 1789.24 640.338 1795.08 637.153C1801.16 633.836 1807.54 631.848 1814.49 632.284C1819.44 632.598 1824.2 633.765 1828.57 636.219C1835.38 640.043 1838.82 646.089 1839.66 653.798C1839.79 654.984 1839.83 656.181 1839.91 657.51C1840.23 657.409 1840.53 657.317 1840.83 657.216C1846.51 655.228 1852.31 654.132 1858.34 654.741C1867.64 655.674 1874.64 660.391 1879.69 668.242C1881.89 671.66 1883.68 675.281 1884.58 679.288C1886.21 686.56 1884.27 692.829 1879.13 698.022C1877.26 699.919 1875.01 701.43 1872.93 703.114C1872.67 703.317 1872.38 703.479 1872.08 703.672C1873.15 705.406 1874.23 707.07 1875.21 708.784C1877.5 712.811 1879.26 717.051 1879.83 721.696C1880.73 728.999 1878.14 734.872 1872.62 739.528C1863.98 746.831 1854.22 748.332 1843.58 745.33C1843.35 745.269 1843.12 745.208 1842.8 745.127C1842.72 746.567 1842.69 747.967 1842.56 749.357C1842.02 755.362 1840.22 760.89 1836.12 765.363C1830.59 771.398 1823.7 774.583 1815.53 774.542C1811 774.522 1807.15 772.524 1803.77 769.582C1799.64 765.992 1796.79 761.448 1794.38 756.579C1794.26 756.335 1794.13 756.082 1794 755.849C1793.97 755.798 1793.91 755.778 1793.83 755.727C1792.7 756.467 1791.59 757.258 1790.42 757.968C1785.76 760.788 1780.76 762.34 1775.27 762.026C1771.13 761.792 1767.31 760.484 1763.77 758.334C1759.02 755.433 1755.08 751.629 1752.03 746.953C1747.46 739.934 1747.44 732.59 1750.84 725.094C1752.88 720.601 1755.84 716.757 1759.19 713.206C1759.4 712.983 1759.6 712.76 1759.81 712.527L1759.83 712.517ZM1814.61 644.233C1812.63 644.496 1810.62 644.618 1808.67 645.044C1802.66 646.342 1798.61 649.832 1797.18 656.07C1796.54 658.879 1796.45 661.74 1796.78 664.6C1797.09 667.227 1796.09 669.246 1794.11 670.777C1792.15 672.299 1790.01 672.319 1787.76 671.335C1785.34 670.28 1782.92 669.195 1780.41 668.404C1776.01 667.004 1771.52 666.629 1767.11 668.363C1762.3 670.26 1758.22 673.262 1755.01 677.381C1751.02 682.513 1750.96 687.656 1754.7 692.991C1756.61 695.709 1759.02 697.931 1761.8 699.655C1765.47 701.937 1769.25 704.017 1772.99 706.167C1775.37 707.536 1776.34 709.798 1775.67 712.486C1775.26 714.129 1774.38 715.448 1773.1 716.523C1772.26 717.223 1771.39 717.903 1770.56 718.613C1767.33 721.392 1764.37 724.425 1762.32 728.239C1759.22 733.99 1759.95 739.274 1764.59 743.839C1765.91 745.137 1767.38 746.314 1768.93 747.318C1774.17 750.716 1779.48 750.675 1784.76 747.338C1787.49 745.614 1789.78 743.393 1791.92 740.979C1793.16 739.579 1794.7 738.879 1796.55 739.153C1799.09 739.528 1800.88 740.968 1801.86 743.383C1802.2 744.235 1802.45 745.127 1802.75 745.999C1804.1 749.925 1805.57 753.789 1807.99 757.208C1810.88 761.285 1814.56 763.172 1819.62 761.955C1826.05 760.413 1829.96 756.163 1830.77 749.499C1831.28 745.34 1830.67 741.293 1829.8 737.246C1829.57 736.171 1829.53 734.943 1829.81 733.899C1830.76 730.298 1834.76 728.604 1838.22 730.196C1840.23 731.13 1842.21 732.144 1844.27 732.965C1848.25 734.548 1852.34 735.603 1856.69 735.045C1863.61 734.162 1868.82 727.224 1867.66 720.378C1867.17 717.497 1865.84 714.961 1864.11 712.679C1862.45 710.488 1860.69 708.368 1858.88 706.299C1855.61 702.526 1856.55 698.032 1861.01 695.993C1863.82 694.705 1866.67 693.437 1869.29 691.804C1872.96 689.512 1874.28 685.901 1873.16 681.671C1871.36 674.895 1866.95 670.372 1860.68 667.724C1855.97 665.736 1851.18 666.243 1846.44 667.775C1842.54 669.043 1838.99 671.021 1835.49 673.131C1832.82 674.733 1829.76 674.084 1827.87 671.589C1826.6 669.915 1826.3 668.059 1826.81 666.01C1827.74 662.267 1828.32 658.484 1827.85 654.599C1827.23 649.497 1824.4 646.089 1819.57 644.922C1817.96 644.537 1816.28 644.456 1814.6 644.222L1814.61 644.233Z" fill="#EF94B4"/>
<path d="M1835.41 703.45C1835.36 715.916 1825.35 726.019 1813.14 725.937C1800.83 725.856 1790.88 715.693 1790.98 703.318C1791.09 690.862 1801 680.851 1813.21 680.871C1825.49 680.891 1835.46 691.035 1835.41 703.44V703.45Z" fill="#333333" fill-opacity="0.9"/>
<path d="M1865.66 994.58C1869.01 998.131 1871.96 1001.97 1874.01 1006.47C1877.42 1013.96 1877.39 1021.31 1872.82 1028.33C1869.77 1033 1865.83 1036.82 1861.08 1039.71C1857.54 1041.86 1853.72 1043.17 1849.58 1043.4C1844.1 1043.71 1839.1 1042.15 1834.43 1039.34C1833.26 1038.64 1832.15 1037.85 1831.02 1037.1C1830.94 1037.15 1830.88 1037.17 1830.85 1037.22C1830.72 1037.47 1830.59 1037.71 1830.47 1037.95C1828.06 1042.82 1825.2 1047.37 1821.08 1050.96C1817.7 1053.9 1813.85 1055.9 1809.32 1055.92C1801.15 1055.96 1794.26 1052.76 1788.73 1046.74C1784.63 1042.26 1782.82 1036.73 1782.29 1030.73C1782.17 1029.34 1782.13 1027.94 1782.05 1026.5C1781.73 1026.58 1781.5 1026.64 1781.27 1026.7C1770.63 1029.72 1760.87 1028.21 1752.23 1020.9C1746.71 1016.25 1744.12 1010.37 1745.02 1003.07C1745.59 998.415 1747.35 994.175 1749.64 990.158C1750.62 988.444 1751.71 986.78 1752.77 985.046C1752.47 984.853 1752.17 984.691 1751.92 984.488C1749.84 982.804 1747.59 981.293 1745.72 979.396C1740.58 974.193 1738.64 967.924 1740.27 960.661C1741.17 956.655 1742.96 953.034 1745.16 949.615C1750.22 941.765 1757.21 937.048 1766.51 936.115C1772.54 935.506 1778.34 936.602 1784.02 938.59C1784.31 938.691 1784.61 938.783 1784.94 938.884C1785.03 937.555 1785.06 936.358 1785.19 935.172C1786.02 927.463 1789.47 921.417 1796.28 917.593C1800.65 915.139 1805.41 913.962 1810.36 913.658C1817.32 913.222 1823.7 915.21 1829.77 918.527C1835.6 921.701 1839.14 926.469 1840.04 933.163C1840.28 934.948 1840.38 936.764 1840.56 938.63C1841.01 938.529 1841.45 938.428 1841.88 938.326C1849.93 936.45 1857.78 936.845 1865.32 940.487C1872.5 943.945 1877.88 949.443 1882 956.219C1886.04 962.863 1886.12 969.689 1882.45 976.536C1879.87 981.344 1876.17 985.188 1872.01 988.586C1869.77 990.412 1867.41 992.085 1865.02 993.891C1865.23 994.124 1865.43 994.347 1865.64 994.57L1865.66 994.58ZM1805.29 926.317C1800.47 927.483 1797.63 930.891 1797.01 935.993C1796.54 939.878 1797.12 943.661 1798.05 947.404C1798.56 949.453 1798.26 951.309 1796.99 952.983C1795.1 955.478 1792.03 956.127 1789.37 954.525C1785.87 952.425 1782.32 950.437 1778.42 949.169C1773.68 947.627 1768.88 947.13 1764.18 949.118C1757.91 951.766 1753.5 956.29 1751.7 963.065C1750.58 967.295 1751.9 970.906 1755.57 973.198C1758.19 974.832 1761.04 976.099 1763.85 977.388C1768.31 979.426 1769.25 983.93 1765.98 987.693C1764.18 989.773 1762.41 991.882 1760.75 994.073C1759.02 996.355 1757.69 998.891 1757.2 1001.77C1756.04 1008.62 1761.26 1015.56 1768.17 1016.44C1772.52 1017 1776.61 1015.94 1780.59 1014.36C1782.65 1013.54 1784.62 1012.52 1786.64 1011.59C1790.11 1009.99 1794.1 1011.69 1795.05 1015.29C1795.33 1016.34 1795.29 1017.56 1795.06 1018.64C1794.19 1022.69 1793.59 1026.74 1794.09 1030.89C1794.9 1037.55 1798.82 1041.8 1805.24 1043.35C1810.3 1044.57 1813.99 1042.68 1816.87 1038.6C1819.29 1035.19 1820.76 1031.32 1822.11 1027.39C1822.41 1026.52 1822.65 1025.63 1823 1024.78C1823.98 1022.36 1825.77 1020.92 1828.31 1020.55C1830.16 1020.27 1831.7 1020.97 1832.94 1022.37C1835.08 1024.78 1837.37 1027.01 1840.1 1028.73C1845.38 1032.07 1850.69 1032.11 1855.93 1028.71C1857.48 1027.71 1858.95 1026.53 1860.27 1025.23C1864.9 1020.67 1865.64 1015.38 1862.54 1009.63C1860.48 1005.82 1857.53 1002.79 1854.3 1000.01C1853.47 999.287 1852.6 998.617 1851.76 997.918C1850.49 996.853 1849.6 995.524 1849.19 993.881C1848.51 991.203 1849.49 988.931 1851.87 987.561C1855.61 985.411 1859.4 983.332 1863.06 981.049C1865.84 979.325 1868.25 977.104 1870.16 974.385C1873.9 969.04 1873.84 963.907 1869.85 958.775C1866.65 954.657 1862.56 951.654 1857.75 949.758C1853.35 948.023 1848.85 948.409 1844.45 949.798C1841.94 950.589 1839.52 951.675 1837.1 952.729C1834.85 953.713 1832.71 953.693 1830.75 952.172C1828.77 950.64 1827.77 948.611 1828.08 945.994C1828.41 943.134 1828.32 940.274 1827.68 937.464C1826.26 931.226 1822.21 927.726 1816.19 926.438C1814.24 926.022 1812.24 925.891 1810.25 925.627C1808.57 925.85 1806.89 925.931 1805.28 926.327L1805.29 926.317Z" fill="#8D9FF6"/>
<path d="M1789.46 984.831C1789.51 997.297 1799.52 1007.4 1811.73 1007.32C1824.04 1007.24 1833.99 997.073 1833.89 984.699C1833.78 972.243 1823.87 962.231 1811.66 962.252C1799.38 962.272 1789.41 972.415 1789.46 984.82V984.831Z" fill="#333333" fill-opacity="0.9"/>
<path d="M31.1106 162.765C28.7206 160.959 26.3606 159.285 24.1206 157.46C19.9606 154.062 16.2606 150.228 13.6806 145.41C10.0106 138.553 10.0906 131.736 14.1306 125.093C18.2506 118.307 23.6306 112.819 30.8106 109.361C38.3506 105.719 46.2006 105.324 54.2506 107.2C54.6906 107.301 55.1306 107.403 55.5706 107.504C55.7406 105.628 55.8506 103.822 56.0906 102.037C56.9906 95.3528 60.5206 90.5854 66.3606 87.4005C72.4506 84.0735 78.8206 82.0854 85.7806 82.5216C90.7306 82.836 95.4906 84.0025 99.8606 86.4572C106.671 90.2811 110.111 96.3265 110.951 104.035C111.081 105.222 111.121 106.419 111.201 107.748C111.521 107.646 111.821 107.555 112.121 107.454C117.801 105.466 123.601 104.37 129.631 104.979C138.931 105.912 145.931 110.628 150.981 118.479C153.181 121.898 154.971 125.519 155.871 129.525C157.501 136.798 155.561 143.066 150.421 148.26C148.551 150.157 146.301 151.668 144.221 153.352C143.961 153.555 143.671 153.717 143.371 153.91C144.441 155.644 145.521 157.308 146.501 159.022C148.791 163.049 150.551 167.288 151.121 171.934C152.021 179.237 149.431 185.11 143.911 189.766C135.271 197.069 125.511 198.57 114.871 195.568C114.641 195.507 114.411 195.446 114.091 195.365C114.011 196.805 113.981 198.205 113.851 199.595C113.311 205.599 111.511 211.127 107.411 215.601C101.881 221.636 94.9906 224.821 86.8206 224.78C82.2906 224.76 78.4406 222.762 75.0606 219.82C70.9306 216.23 68.0806 211.685 65.6706 206.817C65.5506 206.573 65.4206 206.32 65.2906 206.086C65.2606 206.036 65.2006 206.015 65.1206 205.965C63.9906 206.705 62.8806 207.496 61.7106 208.206C57.0506 211.026 52.0506 212.578 46.5606 212.264C42.4206 212.03 38.6006 210.722 35.0606 208.571C30.3106 205.67 26.3706 201.867 23.3206 197.191C18.7506 190.172 18.7306 182.828 22.1306 175.332C24.1706 170.839 27.1306 166.994 30.4806 163.444C30.6906 163.221 30.8906 162.998 31.1006 162.765H31.1106ZM85.9006 94.4804C83.9206 94.7442 81.9106 94.8659 79.9606 95.2919C73.9506 96.5902 69.9006 100.079 68.4706 106.318C67.8306 109.127 67.7406 111.988 68.0706 114.848C68.3806 117.475 67.3806 119.494 65.4006 121.025C63.4406 122.547 61.3006 122.567 59.0506 121.583C56.6306 120.528 54.2106 119.443 51.7006 118.652C47.3006 117.252 42.8106 116.877 38.4006 118.611C33.5906 120.508 29.5106 123.51 26.3006 127.628C22.3106 132.761 22.2506 137.904 25.9906 143.239C27.9006 145.957 30.3106 148.179 33.0906 149.903C36.7606 152.185 40.5406 154.265 44.2806 156.415C46.6606 157.784 47.6306 160.046 46.9606 162.734C46.5506 164.377 45.6706 165.696 44.3906 166.771C43.5506 167.471 42.6806 168.151 41.8506 168.861C38.6206 171.64 35.6606 174.673 33.6106 178.487C30.5106 184.238 31.2406 189.522 35.8806 194.087C37.2006 195.385 38.6706 196.562 40.2206 197.566C45.4606 200.964 50.7706 200.923 56.0506 197.586C58.7806 195.862 61.0706 193.641 63.2106 191.226C64.4506 189.827 65.9906 189.127 67.8406 189.401C70.3806 189.776 72.1706 191.216 73.1506 193.63C73.4906 194.482 73.7406 195.375 74.0406 196.247C75.3906 200.173 76.8606 204.037 79.2806 207.456C82.1706 211.533 85.8506 213.42 90.9106 212.203C97.3406 210.661 101.251 206.411 102.061 199.747C102.571 195.588 101.961 191.541 101.091 187.494C100.861 186.419 100.821 185.191 101.101 184.147C102.051 180.546 106.051 178.852 109.511 180.444C111.521 181.377 113.501 182.392 115.561 183.213C119.541 184.796 123.631 185.851 127.981 185.293C134.901 184.41 140.111 177.472 138.951 170.626C138.461 167.745 137.131 165.209 135.401 162.927C133.741 160.736 131.981 158.616 130.171 156.547C126.901 152.774 127.841 148.28 132.301 146.241C135.111 144.953 137.961 143.685 140.581 142.052C144.251 139.76 145.571 136.149 144.451 131.919C142.651 125.143 138.241 120.62 131.971 117.972C127.261 115.984 122.471 116.491 117.731 118.023C113.831 119.291 110.281 121.269 106.781 123.378C104.111 124.981 101.051 124.332 99.1606 121.837C97.8906 120.163 97.5906 118.307 98.1006 116.258C99.0306 112.515 99.6106 108.732 99.1406 104.847C98.5206 99.7448 95.6906 96.3366 90.8606 95.1702C89.2506 94.7847 87.5706 94.7036 85.8906 94.4703L85.9006 94.4804Z" fill="#EF94B4"/>
<path d="M106.701 153.697C106.651 166.164 96.6415 176.266 84.4315 176.185C72.1215 176.104 62.1715 165.94 62.2715 153.566C62.3815 141.11 72.2915 131.098 84.5015 131.119C96.7815 131.139 106.751 141.282 106.701 153.687V153.697Z" fill="#333333" fill-opacity="0.9"/>
<path d="M136.951 444.828C140.301 448.378 143.251 452.222 145.301 456.715C148.711 464.211 148.681 471.555 144.111 478.574C141.061 483.25 137.121 487.064 132.371 489.955C128.831 492.105 125.011 493.414 120.871 493.647C115.391 493.961 110.391 492.399 105.721 489.59C104.551 488.89 103.441 488.098 102.311 487.348C102.231 487.399 102.171 487.419 102.141 487.47C102.011 487.713 101.881 487.956 101.761 488.2C99.3509 493.069 96.4909 497.613 92.3709 501.204C88.9909 504.145 85.1409 506.143 80.6109 506.164C72.4409 506.204 65.5509 503.009 60.0209 496.984C55.9209 492.511 54.1109 486.973 53.5809 480.978C53.4609 479.588 53.4209 478.189 53.3409 476.748C53.0209 476.829 52.7909 476.89 52.5609 476.951C41.9209 479.964 32.1609 478.452 23.5209 471.149C18.0009 466.493 15.4109 460.62 16.3109 453.317C16.8809 448.662 18.6409 444.422 20.9309 440.405C21.9109 438.691 23.0009 437.027 24.0609 435.293C23.7609 435.1 23.4609 434.938 23.2109 434.735C21.1309 433.051 18.8809 431.54 17.0109 429.643C11.8709 424.44 9.93086 418.171 11.5609 410.909C12.4609 406.902 14.2509 403.281 16.4509 399.863C21.5109 392.012 28.5009 387.295 37.8009 386.362C43.8309 385.753 49.6309 386.849 55.3109 388.837C55.6009 388.938 55.9009 389.03 56.2309 389.131C56.3209 387.802 56.3509 386.605 56.4809 385.419C57.3109 377.71 60.7609 371.664 67.5709 367.84C71.9409 365.386 76.7009 364.209 81.6509 363.905C88.6109 363.469 94.9909 365.457 101.061 368.774C106.891 371.948 110.431 376.716 111.331 383.41C111.571 385.196 111.671 387.011 111.851 388.877C112.301 388.776 112.741 388.675 113.171 388.573C121.221 386.697 129.071 387.092 136.611 390.734C143.791 394.193 149.171 399.69 153.291 406.466C157.331 413.11 157.411 419.936 153.741 426.783C151.161 431.591 147.461 435.435 143.301 438.833C141.061 440.659 138.701 442.332 136.311 444.138C136.521 444.371 136.721 444.594 136.931 444.817L136.951 444.828ZM76.5809 376.564C71.7609 377.73 68.9209 381.138 68.3009 386.24C67.8309 390.125 68.4109 393.909 69.3409 397.651C69.8509 399.7 69.5509 401.557 68.2809 403.23C66.3909 405.725 63.3209 406.375 60.6609 404.772C57.1609 402.672 53.6109 400.684 49.7109 399.416C44.9709 397.875 40.1709 397.378 35.4709 399.366C29.2009 402.013 24.7909 406.537 22.9909 413.313C21.8709 417.542 23.1909 421.153 26.8609 423.446C29.4809 425.079 32.3309 426.347 35.1409 427.635C39.6009 429.674 40.5409 434.177 37.2709 437.94C35.4709 440.02 33.7009 442.129 32.0409 444.32C30.3109 446.603 28.9809 449.138 28.4909 452.019C27.3309 458.866 32.5509 465.804 39.4609 466.686C43.8109 467.244 47.9009 466.189 51.8809 464.607C53.9409 463.785 55.9109 462.771 57.9309 461.838C61.4009 460.235 65.3909 461.939 66.3409 465.54C66.6209 466.585 66.5809 467.812 66.3509 468.887C65.4809 472.934 64.8809 476.992 65.3809 481.14C66.1909 487.794 70.1109 492.044 76.5309 493.596C81.5909 494.813 85.2809 492.927 88.1609 488.849C90.5809 485.441 92.0509 481.566 93.4009 477.641C93.7009 476.769 93.9409 475.876 94.2909 475.024C95.2709 472.61 97.0609 471.169 99.6009 470.794C101.451 470.52 102.991 471.22 104.231 472.62C106.371 475.024 108.661 477.255 111.391 478.98C116.671 482.317 121.981 482.357 127.221 478.959C128.771 477.955 130.241 476.779 131.561 475.48C136.191 470.916 136.931 465.631 133.831 459.88C131.771 456.066 128.821 453.033 125.591 450.254C124.761 449.534 123.891 448.865 123.051 448.165C121.781 447.1 120.891 445.771 120.481 444.128C119.801 441.45 120.781 439.178 123.161 437.808C126.901 435.658 130.691 433.579 134.351 431.296C137.131 429.572 139.541 427.351 141.451 424.632C145.191 419.287 145.131 414.154 141.141 409.022C137.941 404.904 133.851 401.901 129.041 400.005C124.641 398.27 120.141 398.656 115.741 400.045C113.231 400.836 110.811 401.922 108.391 402.977C106.141 403.96 104.001 403.94 102.041 402.419C100.061 400.887 99.0609 398.858 99.3709 396.241C99.7009 393.381 99.6109 390.521 98.9709 387.711C97.5509 381.473 93.5009 377.974 87.4809 376.685C85.5309 376.269 83.5309 376.138 81.5409 375.874C79.8609 376.097 78.1809 376.178 76.5709 376.574L76.5809 376.564Z" fill="#8D9FF6"/>
<path d="M60.7509 435.081C60.8009 447.547 70.8109 457.649 83.0209 457.568C95.3309 457.487 105.281 447.324 105.181 434.949C105.071 422.493 95.1609 412.482 82.9509 412.502C70.6709 412.522 60.7009 422.665 60.7509 435.071V435.081Z" fill="#333333" fill-opacity="0.9"/>
<path d="M31.8316 712.517C29.4416 710.711 27.0816 709.038 24.8416 707.212C20.6816 703.814 16.9815 699.98 14.4015 695.162C10.7315 688.305 10.8115 681.489 14.8515 674.845C18.9715 668.059 24.3516 662.571 31.5316 659.113C39.0716 655.471 46.9216 655.076 54.9716 656.952C55.4116 657.054 55.8516 657.155 56.2916 657.256C56.4616 655.38 56.5716 653.574 56.8116 651.789C57.7116 645.105 61.2416 640.338 67.0816 637.153C73.1616 633.836 79.5416 631.848 86.4916 632.284C91.4416 632.598 96.2016 633.765 100.572 636.219C107.382 640.043 110.822 646.089 111.662 653.798C111.792 654.984 111.832 656.181 111.912 657.51C112.232 657.409 112.532 657.317 112.832 657.216C118.512 655.228 124.312 654.132 130.342 654.741C139.642 655.674 146.642 660.391 151.692 668.242C153.892 671.66 155.682 675.281 156.582 679.288C158.212 686.56 156.272 692.829 151.132 698.022C149.262 699.919 147.012 701.43 144.932 703.114C144.672 703.317 144.382 703.479 144.082 703.672C145.152 705.406 146.232 707.07 147.212 708.784C149.502 712.811 151.262 717.051 151.832 721.696C152.732 728.999 150.142 734.872 144.622 739.528C135.982 746.831 126.222 748.332 115.582 745.33C115.352 745.269 115.122 745.208 114.802 745.127C114.722 746.567 114.692 747.967 114.562 749.357C114.022 755.362 112.222 760.89 108.122 765.363C102.592 771.398 95.7016 774.583 87.5316 774.542C83.0016 774.522 79.1516 772.524 75.7716 769.582C71.6416 765.992 68.7916 761.448 66.3816 756.579C66.2616 756.335 66.1316 756.082 66.0016 755.849C65.9716 755.798 65.9116 755.778 65.8316 755.727C64.7016 756.467 63.5916 757.258 62.4216 757.968C57.7616 760.788 52.7616 762.34 47.2716 762.026C43.1316 761.792 39.3116 760.484 35.7716 758.334C31.0216 755.433 27.0816 751.629 24.0316 746.953C19.4616 739.934 19.4416 732.59 22.8416 725.094C24.8816 720.601 27.8416 716.757 31.1916 713.206C31.4016 712.983 31.6016 712.76 31.8116 712.527L31.8316 712.517ZM86.6116 644.233C84.6316 644.496 82.6216 644.618 80.6716 645.044C74.6616 646.342 70.6116 649.832 69.1816 656.07C68.5416 658.879 68.4516 661.74 68.7816 664.6C69.0916 667.227 68.0916 669.246 66.1116 670.777C64.1516 672.299 62.0116 672.319 59.7616 671.335C57.3416 670.28 54.9216 669.195 52.4116 668.404C48.0116 667.004 43.5216 666.629 39.1116 668.363C34.3016 670.26 30.2216 673.262 27.0116 677.381C23.0216 682.513 22.9616 687.656 26.7016 692.991C28.6116 695.709 31.0216 697.931 33.8016 699.655C37.4716 701.937 41.2516 704.017 44.9916 706.167C47.3716 707.536 48.3416 709.798 47.6716 712.486C47.2616 714.129 46.3816 715.448 45.1016 716.523C44.2616 717.223 43.3916 717.903 42.5616 718.613C39.3316 721.392 36.3716 724.425 34.3216 728.239C31.2216 733.99 31.9516 739.274 36.5916 743.839C37.9116 745.137 39.3816 746.314 40.9316 747.318C46.1716 750.716 51.4816 750.675 56.7616 747.338C59.4916 745.614 61.7816 743.393 63.9216 740.979C65.1616 739.579 66.7016 738.879 68.5516 739.153C71.0916 739.528 72.8816 740.968 73.8616 743.383C74.2016 744.235 74.4516 745.127 74.7516 745.999C76.1016 749.925 77.5716 753.789 79.9916 757.208C82.8816 761.285 86.5616 763.172 91.6216 761.955C98.0516 760.413 101.962 756.163 102.772 749.499C103.282 745.34 102.672 741.293 101.802 737.246C101.572 736.171 101.532 734.943 101.812 733.899C102.762 730.298 106.762 728.604 110.222 730.196C112.232 731.13 114.212 732.144 116.272 732.965C120.252 734.548 124.342 735.603 128.692 735.045C135.612 734.162 140.822 727.224 139.662 720.378C139.172 717.497 137.842 714.961 136.112 712.679C134.452 710.488 132.692 708.368 130.882 706.299C127.612 702.526 128.552 698.032 133.012 695.993C135.822 694.705 138.672 693.437 141.292 691.804C144.962 689.512 146.282 685.901 145.162 681.671C143.362 674.895 138.952 670.372 132.682 667.724C127.972 665.736 123.182 666.243 118.442 667.775C114.542 669.043 110.992 671.021 107.492 673.131C104.822 674.733 101.762 674.084 99.8716 671.589C98.6016 669.915 98.3016 668.059 98.8116 666.01C99.7416 662.267 100.322 658.484 99.8516 654.599C99.2316 649.497 96.4016 646.089 91.5716 644.922C89.9616 644.537 88.2816 644.456 86.6016 644.222L86.6116 644.233Z" fill="#EF94B4"/>
<path d="M107.412 703.45C107.362 715.916 97.3518 726.019 85.1417 725.937C72.8317 725.856 62.8817 715.693 62.9817 703.318C63.0917 690.862 73.0017 680.851 85.2117 680.871C97.4918 680.891 107.462 691.035 107.412 703.44V703.45Z" fill="#333333" fill-opacity="0.9"/>
<path d="M137.661 994.58C141.011 998.131 143.961 1001.97 146.011 1006.47C149.421 1013.96 149.391 1021.31 144.821 1028.33C141.771 1033 137.831 1036.82 133.081 1039.71C129.541 1041.86 125.721 1043.17 121.581 1043.4C116.101 1043.71 111.101 1042.15 106.431 1039.34C105.261 1038.64 104.151 1037.85 103.021 1037.1C102.941 1037.15 102.881 1037.17 102.851 1037.22C102.721 1037.47 102.591 1037.71 102.471 1037.95C100.061 1042.82 97.2012 1047.37 93.0812 1050.96C89.7012 1053.9 85.8512 1055.9 81.3212 1055.92C73.1511 1055.96 66.2611 1052.76 60.7311 1046.74C56.6311 1042.26 54.8211 1036.73 54.2911 1030.73C54.1711 1029.34 54.1311 1027.94 54.0511 1026.5C53.7311 1026.58 53.5011 1026.64 53.2711 1026.7C42.6311 1029.72 32.8711 1028.21 24.2311 1020.9C18.7111 1016.25 16.1211 1010.37 17.0211 1003.07C17.5911 998.415 19.3511 994.175 21.6411 990.158C22.6211 988.444 23.7111 986.78 24.7711 985.046C24.4711 984.853 24.1711 984.691 23.9211 984.488C21.8411 982.804 19.5911 981.293 17.7211 979.396C12.5811 974.193 10.6411 967.924 12.2711 960.661C13.1711 956.655 14.9611 953.034 17.1611 949.615C22.2211 941.765 29.2111 937.048 38.5111 936.115C44.5411 935.506 50.3411 936.602 56.0211 938.59C56.3111 938.691 56.6111 938.783 56.9411 938.884C57.0311 937.555 57.0611 936.358 57.1911 935.172C58.0211 927.463 61.4711 921.417 68.2811 917.593C72.6511 915.139 77.4112 913.962 82.3612 913.658C89.3212 913.222 95.7012 915.21 101.771 918.527C107.601 921.701 111.141 926.469 112.041 933.163C112.281 934.948 112.381 936.764 112.561 938.63C113.011 938.529 113.451 938.428 113.881 938.326C121.931 936.45 129.781 936.845 137.321 940.487C144.501 943.945 149.881 949.443 154.001 956.219C158.041 962.863 158.121 969.689 154.451 976.536C151.871 981.344 148.171 985.188 144.011 988.586C141.771 990.412 139.411 992.085 137.021 993.891C137.231 994.124 137.431 994.347 137.641 994.57L137.661 994.58ZM77.2912 926.317C72.4711 927.483 69.6311 930.891 69.0111 935.993C68.5411 939.878 69.1211 943.661 70.0511 947.404C70.5611 949.453 70.2611 951.309 68.9911 952.983C67.1011 955.478 64.0311 956.127 61.3711 954.525C57.8711 952.425 54.3211 950.437 50.4211 949.169C45.6811 947.627 40.8811 947.13 36.1811 949.118C29.9111 951.766 25.5011 956.29 23.7011 963.065C22.5811 967.295 23.9011 970.906 27.5711 973.198C30.1911 974.832 33.0411 976.099 35.8511 977.388C40.3111 979.426 41.2511 983.93 37.9811 987.693C36.1811 989.773 34.4111 991.882 32.7511 994.073C31.0211 996.355 29.6911 998.891 29.2011 1001.77C28.0411 1008.62 33.2611 1015.56 40.1711 1016.44C44.5211 1017 48.6111 1015.94 52.5911 1014.36C54.6511 1013.54 56.6211 1012.52 58.6411 1011.59C62.1111 1009.99 66.1011 1011.69 67.0511 1015.29C67.3311 1016.34 67.2911 1017.56 67.0611 1018.64C66.1911 1022.69 65.5911 1026.74 66.0911 1030.89C66.9011 1037.55 70.8212 1041.8 77.2412 1043.35C82.3012 1044.57 85.9912 1042.68 88.8712 1038.6C91.2912 1035.19 92.7612 1031.32 94.1112 1027.39C94.4112 1026.52 94.6512 1025.63 95.0012 1024.78C95.9812 1022.36 97.7712 1020.92 100.311 1020.55C102.161 1020.27 103.701 1020.97 104.941 1022.37C107.081 1024.78 109.371 1027.01 112.101 1028.73C117.381 1032.07 122.691 1032.11 127.931 1028.71C129.481 1027.71 130.951 1026.53 132.271 1025.23C136.901 1020.67 137.641 1015.38 134.541 1009.63C132.481 1005.82 129.531 1002.79 126.301 1000.01C125.471 999.287 124.601 998.617 123.761 997.918C122.491 996.853 121.601 995.524 121.191 993.881C120.511 991.203 121.491 988.931 123.871 987.561C127.611 985.411 131.401 983.332 135.061 981.049C137.841 979.325 140.251 977.104 142.161 974.385C145.901 969.04 145.841 963.907 141.851 958.775C138.651 954.657 134.561 951.654 129.751 949.758C125.351 948.023 120.851 948.409 116.451 949.798C113.941 950.589 111.521 951.675 109.101 952.729C106.851 953.713 104.711 953.693 102.751 952.172C100.771 950.64 99.7712 948.611 100.081 945.994C100.411 943.134 100.321 940.274 99.6812 937.464C98.2612 931.226 94.2112 927.726 88.1912 926.438C86.2412 926.022 84.2412 925.891 82.2512 925.627C80.5712 925.85 78.8912 925.931 77.2812 926.327L77.2912 926.317Z" fill="#8D9FF6"/>
<path d="M61.4611 984.831C61.5111 997.297 71.5211 1007.4 83.7311 1007.32C96.0411 1007.24 105.991 997.074 105.891 984.699C105.781 972.243 95.8712 962.232 83.6611 962.252C71.3811 962.272 61.4111 972.415 61.4611 984.821V984.831Z" fill="#333333" fill-opacity="0.9"/>
</svg>
