<svg width="281" height="271" viewBox="0 0 281 271" fill="none" xmlns="http://www.w3.org/2000/svg">
<g clip-path="url(#clip0_528_2)">
<path d="M140.949 270.472C218.269 270.472 280.949 210.03 280.949 135.472C280.949 60.9133 218.269 0.47168 140.949 0.47168C63.6294 0.47168 0.949188 60.9133 0.949188 135.472C0.949188 210.03 63.6294 270.472 140.949 270.472Z" fill="url(#paint0_radial_528_2)"/>
<g clip-path="url(#clip1_528_2)">
<path d="M141.001 270.474C218.321 270.474 281.001 210.032 281.001 135.473C281.001 60.915 218.321 0.473389 141.001 0.473389C63.6815 0.473389 1.00128 60.915 1.00128 135.473C1.00128 210.032 63.6815 270.474 141.001 270.474Z" fill="url(#paint1_radial_528_2)"/>
</g>
</g>
<path d="M130.869 182.532C129.809 187.732 127.409 192.082 123.549 195.592C114.519 203.812 100.669 203.732 91.7286 195.422C88.1186 192.062 85.7986 187.952 84.7586 183.142C84.6486 182.612 84.4286 182.522 83.9586 182.522C80.1386 182.542 76.3185 182.542 72.5085 182.522C70.3985 182.512 68.6185 180.952 68.3485 178.952C68.0585 176.792 69.2285 174.842 71.2485 174.242C71.8085 174.072 72.4185 174.022 72.9985 174.022C76.5785 174.002 80.1586 174.012 83.7386 174.012C83.9986 174.012 84.2585 174.012 84.5585 174.012C85.9085 167.322 89.3486 162.042 95.0686 158.342C99.4286 155.522 104.249 154.332 109.419 154.702C119.559 155.422 128.719 162.752 130.869 173.962C144.809 173.962 158.759 173.962 172.709 173.962C174.799 162.492 184.669 155.112 194.699 154.662C198.529 154.492 202.199 155.172 205.689 156.772C209.199 158.382 212.139 160.722 214.509 163.772C216.859 166.802 218.339 170.222 219.039 173.992C224.449 173.992 229.809 173.992 235.269 173.992C235.269 173.732 235.269 173.482 235.269 173.232C235.269 161.712 235.279 150.182 235.249 138.662C235.249 138.232 235.049 137.742 234.789 137.392C231.599 133.272 228.369 129.172 225.169 125.052C224.839 124.632 224.519 124.482 223.989 124.482C204.479 124.492 184.959 124.492 165.449 124.502C163.459 124.502 161.919 123.762 161.139 121.882C160.869 121.232 160.789 120.452 160.789 119.732C160.769 104.512 160.779 89.2822 160.779 74.0622C160.779 73.7322 160.779 73.4022 160.779 72.9622C160.409 72.9622 160.089 72.9622 159.759 72.9622C131.499 72.9622 103.229 72.9622 74.9685 72.9622C72.5585 72.9622 70.7386 71.4822 70.4586 69.2922C70.1286 66.7222 71.9785 64.5422 74.5685 64.4522C74.7085 64.4422 74.8485 64.4522 74.9985 64.4522C104.899 64.4522 134.799 64.4522 164.699 64.4522C167.029 64.4522 168.719 65.7122 169.179 67.8222C169.269 68.2522 169.269 68.7122 169.269 69.1622C169.279 71.1522 169.269 73.1422 169.269 75.2422C169.599 75.2422 169.869 75.2422 170.139 75.2422C177.959 75.2422 185.789 75.1522 193.609 75.2622C204.459 75.4122 212.369 80.4222 217.139 90.1622C221.649 99.3622 225.979 108.652 230.419 117.892C230.739 118.562 231.269 119.142 231.729 119.732C235.359 124.382 238.999 129.032 242.639 133.672C243.339 134.562 243.679 135.532 243.679 136.692C243.659 149.162 243.669 161.632 243.669 174.112C243.669 178.762 239.919 182.512 235.259 182.522C230.109 182.532 224.969 182.522 219.819 182.522C219.539 182.522 219.259 182.522 218.959 182.522C218.319 185.732 217.189 188.682 215.329 191.302C210.229 198.522 203.229 202.022 194.399 201.622C184.359 201.162 175.179 193.842 172.869 183.242C172.759 182.732 172.609 182.502 172.019 182.502C158.529 182.522 145.039 182.522 131.539 182.522C131.339 182.532 131.129 182.532 130.869 182.532ZM169.299 116.042C186.239 116.042 203.149 116.042 220.109 116.042C220.019 115.802 219.959 115.632 219.879 115.462C216.459 108.282 213.049 101.102 209.609 93.9322C206.329 87.0922 200.849 83.7222 193.289 83.7022C185.589 83.6822 177.879 83.7022 170.179 83.7022C169.879 83.7022 169.589 83.7022 169.299 83.7022C169.299 94.5522 169.299 105.282 169.299 116.042ZM195.809 163.132C187.559 163.132 180.789 169.872 180.789 178.072C180.789 186.452 187.499 193.222 195.829 193.222C204.119 193.222 210.909 186.442 210.899 178.162C210.889 169.872 204.129 163.132 195.809 163.132ZM107.729 163.132C99.4186 163.132 92.6685 169.832 92.6585 178.092C92.6485 186.442 99.3486 193.222 107.629 193.222C115.939 193.232 122.719 186.522 122.729 178.292C122.729 169.872 116.069 163.142 107.729 163.132Z" fill="#333333"/>
<path d="M78.4684 116.113C86.4584 116.113 94.4484 116.113 102.438 116.113C104.818 116.113 106.598 117.523 106.928 119.633C107.358 122.383 105.408 124.623 102.568 124.623C87.3984 124.623 72.2284 124.623 57.0584 124.623C56.0884 124.623 55.1184 124.633 54.1384 124.623C51.7884 124.593 49.9484 122.773 49.8784 120.443C49.8184 118.193 51.6084 116.263 53.9284 116.143C54.8784 116.093 55.8284 116.123 56.7684 116.123C64.0084 116.113 71.2384 116.113 78.4684 116.113Z" fill="#333333"/>
<path d="M88.9867 99.2528C80.9467 99.2528 72.9167 99.2628 64.8767 99.2528C61.4167 99.2528 59.3467 95.7928 61.0467 92.8728C61.7867 91.5928 62.9267 90.9029 64.4067 90.7929C64.7167 90.7729 65.0267 90.7728 65.3267 90.7728C81.1367 90.7728 96.9467 90.7629 112.757 90.7929C113.647 90.7929 114.627 90.9728 115.417 91.3628C117.147 92.2128 117.887 94.1628 117.437 96.0828C117.027 97.8328 115.397 99.1528 113.517 99.2528C113.277 99.2628 113.047 99.2528 112.807 99.2528C104.867 99.2528 96.9268 99.2528 88.9867 99.2528Z" fill="#333333"/>
<path d="M76.3289 149.972C72.5089 149.972 68.6989 149.972 64.8789 149.972C62.4089 149.972 60.6089 148.312 60.4589 145.902C60.3289 143.652 62.0089 141.762 64.3889 141.502C64.6489 141.472 64.9089 141.462 65.1689 141.462C72.6089 141.462 80.0489 141.462 87.4889 141.462C89.6589 141.462 91.2189 142.432 91.8989 144.172C92.9889 146.962 90.9689 149.952 87.9689 149.972C84.0989 149.982 80.2189 149.972 76.3289 149.972Z" fill="#333333"/>
<defs>
<radialGradient id="paint0_radial_528_2" cx="0" cy="0" r="1" gradientUnits="userSpaceOnUse" gradientTransform="translate(140.949 135.472) scale(179.041 178.339)">
<stop stop-color="#E86795"/>
<stop offset="0.14" stop-color="#E96E9B"/>
<stop offset="0.35" stop-color="#EC83AB"/>
<stop offset="0.61" stop-color="#F1A5C7"/>
<stop offset="0.9" stop-color="#F9D4EC"/>
<stop offset="1" stop-color="#FCE6FB" stop-opacity="0"/>
</radialGradient>
<radialGradient id="paint1_radial_528_2" cx="0" cy="0" r="1" gradientUnits="userSpaceOnUse" gradientTransform="translate(141.001 135.473) scale(179.041 178.339)">
<stop stop-color="#E78EAD"/>
<stop offset="0.391" stop-color="#F1C0D1"/>
<stop offset="0.776" stop-color="#FEFDFC"/>
</radialGradient>
<clipPath id="clip0_528_2">
<rect width="280" height="270" fill="white" transform="translate(0.949158 0.46875)"/>
</clipPath>
<clipPath id="clip1_528_2">
<rect width="280" height="270" fill="white" transform="translate(0.997467 0.470703)"/>
</clipPath>
</defs>
</svg>
