<svg width="280" height="270" viewBox="0 0 280 270" fill="none" xmlns="http://www.w3.org/2000/svg">
<g clip-path="url(#clip0_247_335)">
<path d="M140 270C217.32 270 280 209.558 280 135C280 60.4416 217.32 0 140 0C62.6801 0 0 60.4416 0 135C0 209.558 62.6801 270 140 270Z" fill="url(#paint0_radial_247_335)"/>
</g>
<path d="M126.92 183.07C125.86 188.27 123.46 192.62 119.6 196.13C110.57 204.35 96.72 204.27 87.78 195.96C84.17 192.6 81.85 188.49 80.81 183.68C80.7 183.15 80.48 183.06 80.01 183.06C76.19 183.08 72.37 183.08 68.56 183.06C66.45 183.05 64.67 181.49 64.4 179.49C64.11 177.33 65.28 175.38 67.3 174.78C67.86 174.61 68.47 174.56 69.05 174.56C72.63 174.54 76.21 174.55 79.79 174.55C80.05 174.55 80.31 174.55 80.61 174.55C81.96 167.86 85.4 162.58 91.12 158.88C95.48 156.06 100.3 154.87 105.47 155.24C115.61 155.96 124.77 163.29 126.92 174.5C140.86 174.5 154.81 174.5 168.76 174.5C170.85 163.03 180.72 155.65 190.75 155.2C194.58 155.03 198.25 155.71 201.74 157.31C205.25 158.92 208.19 161.26 210.56 164.31C212.91 167.34 214.39 170.76 215.09 174.53C220.5 174.53 225.86 174.53 231.32 174.53C231.32 174.27 231.32 174.02 231.32 173.77C231.32 162.25 231.33 150.72 231.3 139.2C231.3 138.77 231.1 138.28 230.84 137.93C227.65 133.81 224.42 129.71 221.22 125.59C220.89 125.17 220.57 125.02 220.04 125.02C200.53 125.03 181.01 125.03 161.5 125.04C159.51 125.04 157.97 124.3 157.19 122.42C156.92 121.77 156.84 120.99 156.84 120.27C156.82 105.05 156.83 89.8198 156.83 74.5998C156.83 74.2698 156.83 73.9398 156.83 73.4998C156.46 73.4998 156.14 73.4998 155.81 73.4998C127.55 73.4998 99.28 73.4998 71.02 73.4998C68.61 73.4998 66.79 72.0198 66.51 69.8298C66.18 67.2598 68.03 65.0798 70.62 64.9898C70.76 64.9798 70.9 64.9898 71.05 64.9898C100.95 64.9898 130.85 64.9898 160.75 64.9898C163.08 64.9898 164.77 66.2498 165.23 68.3598C165.32 68.7898 165.32 69.2498 165.32 69.6998C165.33 71.6898 165.32 73.6798 165.32 75.7798C165.65 75.7798 165.92 75.7798 166.19 75.7798C174.01 75.7798 181.84 75.6898 189.66 75.7998C200.51 75.9498 208.42 80.9598 213.19 90.6998C217.7 99.8998 222.03 109.19 226.47 118.43C226.79 119.1 227.32 119.68 227.78 120.27C231.41 124.92 235.05 129.57 238.69 134.21C239.39 135.1 239.73 136.07 239.73 137.23C239.71 149.7 239.72 162.17 239.72 174.65C239.72 179.3 235.97 183.05 231.31 183.06C226.16 183.07 221.02 183.06 215.87 183.06C215.59 183.06 215.31 183.06 215.01 183.06C214.37 186.27 213.24 189.22 211.38 191.84C206.28 199.06 199.28 202.56 190.45 202.16C180.41 201.7 171.23 194.38 168.92 183.78C168.81 183.27 168.66 183.04 168.07 183.04C154.58 183.06 141.09 183.06 127.59 183.06C127.39 183.07 127.18 183.07 126.92 183.07ZM165.35 116.58C182.29 116.58 199.2 116.58 216.16 116.58C216.07 116.34 216.01 116.17 215.93 116C212.51 108.82 209.1 101.64 205.66 94.4698C202.38 87.6298 196.9 84.2598 189.34 84.2398C181.64 84.2198 173.93 84.2398 166.23 84.2398C165.93 84.2398 165.64 84.2398 165.35 84.2398C165.35 95.0898 165.35 105.82 165.35 116.58ZM191.86 163.67C183.61 163.67 176.84 170.41 176.84 178.61C176.84 186.99 183.55 193.76 191.88 193.76C200.17 193.76 206.96 186.98 206.95 178.7C206.94 170.41 200.18 163.67 191.86 163.67ZM103.78 163.67C95.47 163.67 88.72 170.37 88.71 178.63C88.7 186.98 95.4 193.76 103.68 193.76C111.99 193.77 118.77 187.06 118.78 178.83C118.78 170.41 112.12 163.68 103.78 163.67Z" fill="#333333"/>
<path d="M74.52 116.65C82.51 116.65 90.5 116.65 98.49 116.65C100.87 116.65 102.65 118.06 102.98 120.17C103.41 122.92 101.46 125.16 98.62 125.16C83.45 125.16 68.28 125.16 53.11 125.16C52.14 125.16 51.17 125.17 50.19 125.16C47.84 125.13 46 123.31 45.93 120.98C45.87 118.73 47.66 116.8 49.98 116.68C50.93 116.63 51.88 116.66 52.82 116.66C60.06 116.65 67.29 116.65 74.52 116.65Z" fill="#333333"/>
<path d="M85.04 99.7897C77 99.7897 68.97 99.7997 60.93 99.7897C57.47 99.7897 55.4 96.3297 57.1 93.4097C57.84 92.1297 58.98 91.4397 60.46 91.3297C60.77 91.3097 61.08 91.3097 61.38 91.3097C77.19 91.3097 93 91.2997 108.81 91.3297C109.7 91.3297 110.68 91.5097 111.47 91.8997C113.2 92.7497 113.94 94.6997 113.49 96.6197C113.08 98.3697 111.45 99.6897 109.57 99.7897C109.33 99.7997 109.1 99.7897 108.86 99.7897C100.92 99.7897 92.98 99.7897 85.04 99.7897Z" fill="#333333"/>
<path d="M72.38 150.51C68.56 150.51 64.75 150.51 60.93 150.51C58.46 150.51 56.66 148.85 56.51 146.44C56.38 144.19 58.06 142.3 60.44 142.04C60.7 142.01 60.96 142 61.22 142C68.66 142 76.1 142 83.54 142C85.71 142 87.27 142.97 87.95 144.71C89.04 147.5 87.02 150.49 84.02 150.51C80.15 150.52 76.27 150.51 72.38 150.51Z" fill="#333333"/>
<defs>
<radialGradient id="paint0_radial_247_335" cx="0" cy="0" r="1" gradientUnits="userSpaceOnUse" gradientTransform="translate(140 135) scale(179.041 178.338)">
<stop stop-color="#E86795"/>
<stop offset="0.14" stop-color="#E96E9B"/>
<stop offset="0.35" stop-color="#EC83AB"/>
<stop offset="0.61" stop-color="#F1A5C7"/>
<stop offset="0.9" stop-color="#F9D4EC"/>
<stop offset="1" stop-color="#FCE6FB"/>
</radialGradient>
<clipPath id="clip0_247_335">
<rect width="280" height="270" fill="white"/>
</clipPath>
</defs>
</svg>
