<svg width="283" height="274" viewBox="0 0 283 274" fill="none" xmlns="http://www.w3.org/2000/svg">
<path d="M141.13 273.87C219.002 273.87 282.13 212.757 282.13 137.37C282.13 61.9832 219.002 0.870117 141.13 0.870117C63.2579 0.870117 0.130005 61.9832 0.130005 137.37C0.130005 212.757 63.2579 273.87 141.13 273.87Z" fill="url(#paint0_radial_104_657)"/>
<path d="M125.05 186.94C123.99 192.14 121.59 196.49 117.73 200C108.7 208.22 94.85 208.14 85.91 199.83C82.3 196.47 79.98 192.36 78.94 187.55C78.83 187.02 78.61 186.93 78.14 186.93C74.32 186.95 70.5 186.95 66.69 186.93C64.58 186.92 62.8 185.36 62.53 183.36C62.24 181.2 63.41 179.25 65.43 178.65C65.99 178.48 66.6 178.43 67.18 178.43C70.76 178.41 74.34 178.42 77.92 178.42C78.18 178.42 78.44 178.42 78.74 178.42C80.09 171.73 83.53 166.45 89.25 162.75C93.61 159.93 98.43 158.74 103.6 159.11C113.74 159.83 122.9 167.16 125.05 178.37C138.99 178.37 152.94 178.37 166.89 178.37C168.98 166.9 178.85 159.52 188.88 159.07C192.71 158.9 196.38 159.58 199.87 161.18C203.38 162.79 206.32 165.13 208.69 168.18C211.04 171.21 212.52 174.63 213.22 178.4C218.63 178.4 223.99 178.4 229.45 178.4C229.45 178.14 229.45 177.89 229.45 177.64C229.45 166.12 229.46 154.59 229.43 143.07C229.43 142.64 229.23 142.15 228.97 141.8C225.78 137.68 222.55 133.58 219.35 129.46C219.02 129.04 218.7 128.89 218.17 128.89C198.66 128.9 179.14 128.9 159.63 128.91C157.64 128.91 156.1 128.17 155.32 126.29C155.05 125.64 154.97 124.86 154.97 124.14C154.95 108.92 154.96 93.6899 154.96 78.4699C154.96 78.1399 154.96 77.8099 154.96 77.3699C154.59 77.3699 154.27 77.3699 153.94 77.3699C125.68 77.3699 97.41 77.3699 69.15 77.3699C66.74 77.3699 64.92 75.8899 64.64 73.6999C64.31 71.1299 66.16 68.9499 68.75 68.8599C68.89 68.8499 69.03 68.8599 69.18 68.8599C99.08 68.8599 128.98 68.8599 158.88 68.8599C161.21 68.8599 162.9 70.1199 163.36 72.2299C163.45 72.6599 163.45 73.1199 163.45 73.5699C163.46 75.5599 163.45 77.5499 163.45 79.6499C163.78 79.6499 164.05 79.6499 164.32 79.6499C172.14 79.6499 179.97 79.5599 187.79 79.6699C198.64 79.8199 206.55 84.8299 211.32 94.5699C215.83 103.77 220.16 113.06 224.6 122.3C224.92 122.97 225.45 123.55 225.91 124.14C229.54 128.79 233.18 133.44 236.82 138.08C237.52 138.97 237.86 139.94 237.86 141.1C237.84 153.57 237.85 166.04 237.85 178.52C237.85 183.17 234.1 186.92 229.44 186.93C224.29 186.94 219.15 186.93 214 186.93C213.72 186.93 213.44 186.93 213.14 186.93C212.5 190.14 211.37 193.09 209.51 195.71C204.41 202.93 197.41 206.43 188.58 206.03C178.54 205.57 169.36 198.25 167.05 187.65C166.94 187.14 166.79 186.91 166.2 186.91C152.71 186.93 139.22 186.93 125.72 186.93C125.52 186.94 125.31 186.94 125.05 186.94ZM163.48 120.45C180.42 120.45 197.33 120.45 214.29 120.45C214.2 120.21 214.14 120.04 214.06 119.87C210.64 112.69 207.23 105.51 203.79 98.3399C200.51 91.4999 195.03 88.1299 187.47 88.1099C179.77 88.0899 172.06 88.1099 164.36 88.1099C164.06 88.1099 163.77 88.1099 163.48 88.1099C163.48 98.9599 163.48 109.69 163.48 120.45ZM189.99 167.54C181.74 167.54 174.97 174.28 174.97 182.48C174.97 190.86 181.68 197.63 190.01 197.63C198.3 197.63 205.09 190.85 205.08 182.57C205.07 174.28 198.31 167.54 189.99 167.54ZM101.91 167.54C93.6 167.54 86.85 174.24 86.84 182.5C86.83 190.85 93.53 197.63 101.81 197.63C110.12 197.64 116.9 190.93 116.91 182.7C116.91 174.28 110.25 167.55 101.91 167.54Z" fill="#333333"/>
<path d="M72.65 120.52C80.64 120.52 88.63 120.52 96.62 120.52C99 120.52 100.78 121.93 101.11 124.04C101.54 126.79 99.59 129.03 96.75 129.03C81.58 129.03 66.41 129.03 51.24 129.03C50.27 129.03 49.3 129.04 48.32 129.03C45.97 129 44.13 127.18 44.06 124.85C44 122.6 45.79 120.67 48.11 120.55C49.06 120.5 50.01 120.53 50.95 120.53C58.19 120.52 65.42 120.52 72.65 120.52Z" fill="#333333"/>
<path d="M83.17 103.66C75.13 103.66 67.1 103.67 59.06 103.66C55.6 103.66 53.53 100.2 55.23 97.2798C55.97 95.9998 57.11 95.3098 58.59 95.1998C58.9 95.1798 59.21 95.1798 59.51 95.1798C75.32 95.1798 91.13 95.1698 106.94 95.1998C107.83 95.1998 108.81 95.3798 109.6 95.7698C111.33 96.6198 112.07 98.5698 111.62 100.49C111.21 102.24 109.58 103.56 107.7 103.66C107.46 103.67 107.23 103.66 106.99 103.66C99.05 103.66 91.11 103.66 83.17 103.66Z" fill="#333333"/>
<path d="M70.51 154.38C66.69 154.38 62.88 154.38 59.06 154.38C56.59 154.38 54.79 152.72 54.64 150.31C54.51 148.06 56.19 146.17 58.57 145.91C58.83 145.88 59.09 145.87 59.35 145.87C66.79 145.87 74.23 145.87 81.67 145.87C83.84 145.87 85.4 146.84 86.08 148.58C87.17 151.37 85.15 154.36 82.15 154.38C78.28 154.39 74.4 154.38 70.51 154.38Z" fill="#333333"/>
<defs>
<radialGradient id="paint0_radial_104_657" cx="0" cy="0" r="1" gradientUnits="userSpaceOnUse" gradientTransform="translate(141.128 137.372) scale(180.323)">
<stop offset="1.38522e-07" stop-color="#F970E6"/>
<stop offset="0.1984" stop-color="#F974E7" stop-opacity="0.8016"/>
<stop offset="0.3805" stop-color="#F97FE9" stop-opacity="0.6195"/>
<stop offset="0.5561" stop-color="#FA91EC" stop-opacity="0.4439"/>
<stop offset="0.7278" stop-color="#FBACF1" stop-opacity="0.2722"/>
<stop offset="0.8951" stop-color="#FBCDF7" stop-opacity="0.1049"/>
<stop offset="1" stop-color="#FCE6FB" stop-opacity="0"/>
</radialGradient>
</defs>
</svg>
