<svg width="113" height="40" viewBox="0 0 113 40" fill="none" xmlns="http://www.w3.org/2000/svg">
<path d="M50.29 20.39C50.29 26.58 50.2801 32.76 50.3101 38.95C50.3101 39.69 50.09 39.8799 49.38 39.8699C45.92 39.8399 42.47 39.8399 39.01 39.8699C38.3 39.8799 38.0699 39.69 38.0699 38.95C38.0999 31.84 38.09 24.7199 38.08 17.6099C38.08 16.7999 37.8601 16.5399 37.3 16.7499C37.07 16.8399 36.87 17.1899 36.78 17.4699C35.81 20.5399 34.87 23.63 33.92 26.71C32.65 30.84 31.37 34.9699 30.13 39.1099C29.96 39.6899 29.6799 39.8899 29.0699 39.88C26.7199 39.84 24.36 39.84 22.01 39.88C21.35 39.8899 21.1101 39.6399 20.9301 39.0499C18.7501 31.9099 16.55 24.7699 14.35 17.6299C14.31 17.49 14.24 17.35 14.22 17.2C14.14 16.73 13.7799 16.6299 13.4399 16.7499C13.2499 16.8199 13.05 17.16 13.05 17.39C13.02 19.74 13.03 22.1 13.03 24.45C13.03 29.31 13.02 34.17 13.04 39.03C13.04 39.7 12.8301 39.8799 12.1801 39.8699C8.67005 39.8399 5.17003 39.8399 1.66003 39.8699C1.01003 39.8799 0.800049 39.7 0.800049 39.03C0.820049 26.61 0.820049 14.18 0.800049 1.75995C0.800049 1.11995 0.950005 0.889959 1.63 0.889959C5.31001 0.919959 8.99005 0.889918 12.6801 0.909918C16.3301 0.929918 18.9101 2.86995 19.9301 6.37995C21.5501 11.9699 23.15 17.5699 24.77 23.1599C24.86 23.4699 25.02 23.8999 25.27 23.9999C25.79 24.2099 26.1 23.9499 26.27 23.3599C27.84 17.8299 29.48 12.3299 31.02 6.78992C31.83 3.89992 33.4401 1.87997 36.4301 1.14997C37.0801 0.989969 37.7699 0.919928 38.4399 0.919928C42.1199 0.899928 45.8 0.929959 49.49 0.889959C50.17 0.879959 50.3299 1.10994 50.3199 1.74994C50.2799 7.95994 50.29 14.18 50.29 20.39Z" fill="#333333"/>
<path d="M111.55 18.7899C110 22.6199 107.37 25.1299 103.56 26.6599C106.49 31.0599 109.37 35.3999 112.31 39.8099C111.98 39.8299 111.77 39.8499 111.55 39.8499C107.42 39.8499 103.29 39.8399 99.15 39.8599C98.6 39.8599 98.3 39.7 98.04 39.2C96.16 35.56 94.22 31.94 92.35 28.28C91.99 27.57 91.57 27.3199 90.79 27.3499C89.39 27.4099 87.98 27.3999 86.58 27.3499C85.9 27.3299 85.74 27.57 85.74 28.21C85.77 31.79 85.74 35.37 85.77 38.95C85.78 39.64 85.59 39.85 84.89 39.84C81.41 39.8 77.93 39.81 74.45 39.84C73.78 39.85 73.54 39.6999 73.54 38.9699C73.57 32.5099 73.57 26.05 73.54 19.59C73.54 18.89 73.7501 18.6899 74.4301 18.6899C86.5001 18.7099 98.57 18.7 110.64 18.7C110.9 18.73 111.15 18.7599 111.55 18.7899Z" fill="#333333"/>
<path d="M71.78 0.870001C72.09 0.870001 72.34 0.870001 72.59 0.870001C81.38 0.870001 90.17 0.860021 98.96 0.890021C102.76 0.900021 106.07 2.19999 108.71 4.97999C111.66 8.08999 112.82 11.81 112.27 16.08C112.2 16.63 111.97 16.72 111.5 16.72C108.72 16.71 105.94 16.72 103.16 16.72C98.73 16.72 94.29 16.86 89.86 16.7C80.39 16.36 73.16 9.05 71.78 0.870001Z" fill="url(#paint0_radial_4_962)"/>
<path d="M68.03 20.39C68.03 26.58 68.02 32.76 68.05 38.95C68.05 39.68 67.84 39.88 67.12 39.87C63.64 39.84 60.1601 39.84 56.6801 39.87C56.0301 39.88 55.8199 39.7101 55.8199 39.0301C55.8399 26.5801 55.8399 14.14 55.8199 1.69003C55.8199 1.06003 56.02 0.880039 56.64 0.890039C60.17 0.920039 63.7 0.920039 67.23 0.890039C67.93 0.880039 68.05 1.14004 68.05 1.77004C68.02 7.97004 68.03 14.18 68.03 20.39Z" fill="#333333"/>
<defs>
<radialGradient id="paint0_radial_4_962" cx="0" cy="0" r="1" gradientUnits="userSpaceOnUse" gradientTransform="translate(92.0903 8.82481) scale(22.3826 22.3826)">
<stop offset="1.38522e-07" stop-color="#F970E6"/>
<stop offset="0.2878" stop-color="#F973E6" stop-opacity="0.7122"/>
<stop offset="0.4625" stop-color="#F97BE8" stop-opacity="0.5375"/>
<stop offset="0.607" stop-color="#FA89EB" stop-opacity="0.393"/>
<stop offset="0.735" stop-color="#FA9EEE" stop-opacity="0.265"/>
<stop offset="0.8522" stop-color="#FBB8F3" stop-opacity="0.1478"/>
<stop offset="0.9599" stop-color="#FCD8F9" stop-opacity="0.0401"/>
<stop offset="1" stop-color="#FCE6FB" stop-opacity="0"/>
</radialGradient>
</defs>
</svg>
