<svg width="112" height="40" viewBox="0 0 112 40" fill="none" xmlns="http://www.w3.org/2000/svg">
<path d="M71 0C71.31 0 71.56 0 71.81 0C80.6 0 89.39 0 98.18 0.02C101.98 0.03 105.3 1.33 107.93 4.11C110.88 7.22 112.04 10.94 111.49 15.21C111.42 15.76 111.19 15.85 110.72 15.85C107.94 15.84 105.16 15.85 102.38 15.85C97.95 15.85 93.51 15.99 89.08 15.83C79.61 15.49 72.37 8.18 71 0Z" fill="url(#paint0_radial_243_94)"/>
<path d="M49.49 19.5216C49.49 25.7116 49.48 31.8916 49.51 38.0816C49.51 38.8216 49.29 39.0115 48.58 39.0015C45.12 38.9715 41.67 38.9715 38.21 39.0015C37.5 39.0115 37.2699 38.8216 37.2699 38.0816C37.2999 30.9715 37.2899 23.8515 37.2799 16.7415C37.2799 15.9315 37.06 15.6715 36.5 15.8815C36.27 15.9715 36.07 16.3215 35.98 16.6015C35.01 19.6715 34.07 22.7616 33.12 25.8416C31.85 29.9716 30.57 34.1015 29.33 38.2415C29.16 38.8215 28.8799 39.0215 28.2699 39.0115C25.9199 38.9715 23.56 38.9715 21.21 39.0115C20.55 39.0215 20.31 38.7715 20.13 38.1815C17.95 31.0415 15.7499 23.9015 13.5499 16.7615C13.5099 16.6215 13.4399 16.4815 13.4199 16.3315C13.3399 15.8615 12.9799 15.7615 12.6399 15.8815C12.4499 15.9515 12.25 16.2916 12.25 16.5216C12.22 18.8716 12.23 21.2315 12.23 23.5815C12.23 28.4415 12.22 33.3016 12.24 38.1616C12.24 38.8316 12.03 39.0115 11.38 39.0015C7.87 38.9715 4.36999 38.9715 0.859985 39.0015C0.209985 39.0115 0 38.8316 0 38.1616C0.02 25.7416 0.02 13.3115 0 0.891546C0 0.251546 0.149956 0.0215512 0.829956 0.0215512C4.50996 0.0515512 8.19 0.0215097 11.88 0.0415097C15.53 0.0615097 18.11 2.00154 19.13 5.51154C20.75 11.1015 22.35 16.7015 23.97 22.2915C24.06 22.6015 24.22 23.0315 24.47 23.1315C24.99 23.3415 25.3 23.0815 25.47 22.4915C27.04 16.9615 28.68 11.4615 30.22 5.92151C31.03 3.03151 32.64 1.01156 35.63 0.281561C36.28 0.121561 36.9699 0.0515195 37.6399 0.0515195C41.3199 0.0315195 44.9999 0.0615512 48.6899 0.0215512C49.3699 0.0115512 49.5299 0.241537 49.5199 0.881537C49.4799 7.09154 49.49 13.3116 49.49 19.5216Z" fill="#333333"/>
<path d="M110.75 17.9215C109.2 21.7515 106.57 24.2615 102.76 25.7915C105.69 30.1915 108.57 34.5315 111.51 38.9415C111.18 38.9615 110.97 38.9815 110.75 38.9815C106.62 38.9815 102.49 38.9715 98.35 38.9915C97.8 38.9915 97.5 38.8315 97.24 38.3315C95.36 34.6915 93.4199 31.0716 91.5499 27.4116C91.1899 26.7016 90.77 26.4515 89.99 26.4815C88.59 26.5415 87.1799 26.5315 85.7799 26.4815C85.0999 26.4615 84.9399 26.7016 84.9399 27.3416C84.9699 30.9216 84.94 34.5015 84.97 38.0815C84.98 38.7715 84.79 38.9816 84.09 38.9716C80.61 38.9316 77.1299 38.9416 73.6499 38.9716C72.9799 38.9816 72.74 38.8315 72.74 38.1015C72.77 31.6415 72.77 25.1816 72.74 18.7216C72.74 18.0216 72.95 17.8215 73.63 17.8215C85.7 17.8415 97.77 17.8315 109.84 17.8315C110.1 17.8615 110.35 17.8915 110.75 17.9215Z" fill="#333333"/>
<path d="M67.23 19.5216C67.23 25.7116 67.22 31.8916 67.25 38.0816C67.25 38.8116 67.0399 39.0116 66.3199 39.0016C62.8399 38.9716 59.36 38.9716 55.88 39.0016C55.23 39.0116 55.0199 38.8416 55.0199 38.1616C55.0399 25.7116 55.0399 13.2716 55.0199 0.821618C55.0199 0.191618 55.22 0.0116304 55.84 0.0216304C59.37 0.0516304 62.8999 0.0516304 66.4299 0.0216304C67.1299 0.0116304 67.25 0.271635 67.25 0.901635C67.22 7.10163 67.23 13.3116 67.23 19.5216Z" fill="#333333"/>
<defs>
<radialGradient id="paint0_radial_243_94" cx="0" cy="0" r="1" gradientUnits="userSpaceOnUse" gradientTransform="translate(91.31 7.95) scale(22.38)">
<stop stop-color="#E86795"/>
<stop offset="0.14" stop-color="#E96E9B"/>
<stop offset="0.35" stop-color="#EC83AB"/>
<stop offset="0.61" stop-color="#F1A5C7"/>
<stop offset="0.9" stop-color="#F9D4EC"/>
<stop offset="1" stop-color="#FCE6FB"/>
</radialGradient>
</defs>
</svg>
