<svg width="51" height="53" viewBox="0 0 51 53" fill="none" xmlns="http://www.w3.org/2000/svg">
<path d="M25.24 0.870117C25.43 0.910117 25.61 0.970093 25.8 0.970093C29.13 1.08009 32.29 1.86014 35.25 3.39014C36.73 4.15014 38.13 5.03015 39.39 6.15015C40.61 7.24015 41.7699 8.36011 42.7299 9.6701C43.8499 11.1801 44.7699 12.8101 45.4499 14.5601C46.1699 16.4101 46.6499 18.3301 46.8299 20.3201C47.1899 24.3801 46.5399 28.2601 44.8299 31.9601C44.4499 32.7801 43.99 33.5601 43.53 34.3301C43.06 35.1201 42.56 35.8801 42.02 36.7301C40.87 32.8801 38.5199 30.4901 34.7299 29.9301C35.3699 29.7701 36.02 29.7301 37.15 30.0701C38 30.3201 38.7899 30.7401 39.6999 31.1101C39.8499 30.4101 40.05 29.6901 40.17 28.9501C40.55 26.6501 40.4399 24.3701 39.9599 22.0901C39.4899 19.8701 38.66 17.8001 37.53 15.8401C36.5 14.0501 35.26 12.4201 33.74 11.0401C32.87 10.2501 31.96 9.49012 31 8.81012C28.7 7.18012 26.1399 6.13011 23.3499 5.6701C19.9899 5.1201 16.8 5.6101 13.88 7.4101C11.83 8.6801 10.28 10.4501 9.11996 12.5701C7.94996 14.7101 7.33997 17.0001 7.12997 19.4201C6.84997 22.6801 7.39991 25.8101 8.68991 28.7901C9.2999 30.2101 10.0399 31.6101 10.9499 32.8501C11.7899 33.9901 12.8699 34.9801 13.9699 35.9001C14.9499 36.7101 16.06 37.3701 17.17 38.0101C19.33 39.2501 21.69 39.9301 24.15 40.2701C24.79 40.3601 25.43 40.4101 26.17 40.4801C25.82 39.3501 25.58 38.3101 25.75 37.1301C26.1 37.6101 26.3999 38.0301 26.7199 38.4301C27.0599 38.8601 27.39 39.3001 27.77 39.7001C27.92 39.8601 28.17 39.9201 28.38 40.0401C29.24 40.5501 30.0599 41.1601 30.9799 41.5501C31.9299 41.9501 32.97 42.2101 33.99 42.4101C36.09 42.8101 38.22 42.9901 40.27 43.6401C42.57 44.3701 44.57 45.6201 46.36 47.2001C47.13 47.8801 47.8399 48.6401 48.4799 49.4501C48.9299 50.0201 49.2299 50.7201 49.5899 51.3601C49.7699 51.6701 49.9599 51.9701 50.0999 52.3001C50.1699 52.4701 50.15 52.6801 50.17 52.8701C50.13 52.8801 50.08 52.8901 50.04 52.9001C49.98 52.8001 49.92 52.7001 49.86 52.6001C49.31 51.6101 48.61 50.7501 47.77 49.9801C46.27 48.5901 44.64 47.4201 42.8 46.5201C41.22 45.7401 39.5599 45.2301 37.8299 44.9501C36.6399 44.7601 35.4199 44.6401 34.2099 44.6301C32.5699 44.6101 30.9599 44.8601 29.3599 45.3101C27.1999 45.9201 24.9799 46.1001 22.7299 45.9701C19.9699 45.8101 17.2899 45.2801 14.6899 44.3601C12.9499 43.7401 11.2799 42.9401 9.72994 41.9301C8.41994 41.0801 7.17995 40.1101 6.10995 38.9701C5.14995 37.9501 4.31994 36.8301 3.59994 35.6101C2.51994 33.7801 1.74995 31.8601 1.23995 29.8201C0.679954 27.5701 0.519925 25.2701 0.709925 22.9701C1.04993 18.9901 2.33991 15.3201 4.56991 12.0101C5.20991 11.0601 5.99994 10.2101 6.72994 9.32013C7.06994 8.91013 7.42999 8.52012 7.77999 8.12012C7.79999 8.10012 7.80992 8.06012 7.82992 8.06012C8.58992 7.99012 8.57998 7.13012 9.13998 6.81012C9.67998 6.50012 10.14 6.0401 10.65 5.6701C13.68 3.4901 17.0099 2.00012 20.6999 1.37012C21.7999 1.18012 22.92 1.13013 24.02 1.01013C24.21 0.990132 24.3899 0.940146 24.5799 0.900146C24.7999 0.870146 25.02 0.870117 25.24 0.870117Z" fill="#333333"/>
<path d="M31.86 40.1803C31.39 40.1503 31 39.7703 30.73 39.2703C30.47 38.7903 30.4901 38.2903 30.7901 37.8203C31.0601 37.4003 31.57 37.3503 32.23 37.6403C32.97 37.9703 33.3101 38.9503 32.9201 39.6503C32.7001 40.0503 32.45 40.1903 31.86 40.1803Z" fill="#333333"/>
<path d="M36.17 37.2101C35.7 37.1801 35.31 36.8001 35.04 36.3001C34.78 35.8201 34.7999 35.3201 35.0999 34.8501C35.3699 34.4301 35.88 34.3801 36.54 34.6701C37.28 35.0001 37.6199 35.9801 37.2299 36.6801C37.0099 37.0801 36.77 37.2201 36.17 37.2101Z" fill="#333333"/>
</svg>
