<svg width="280" height="270" viewBox="0 0 280 270" fill="none" xmlns="http://www.w3.org/2000/svg">
<g clip-path="url(#clip0_247_336)">
<path d="M140 270C217.32 270 280 209.558 280 135C280 60.4416 217.32 0 140 0C62.6801 0 0 60.4416 0 135C0 209.558 62.6801 270 140 270Z" fill="url(#paint0_radial_247_336)"/>
</g>
<path d="M168.46 71.3299C168.46 73.8299 168.46 76.2098 168.46 78.7398C170.25 78.7398 172.04 78.7298 173.84 78.7398C179.26 78.7598 183.73 82.3398 184.86 87.6298C185.06 88.5598 185.09 89.5299 185.09 90.4799C185.11 99.0299 185.12 107.57 185.08 116.12C185.08 117.03 185.38 117.48 186.18 117.86C188.71 119.06 191.21 120.31 193.69 121.6C197.84 123.74 199.96 127.2 199.96 131.85C199.99 154.66 199.99 177.46 199.96 200.27C199.95 204.92 197.81 208.36 193.66 210.5C191.14 211.8 188.6 213.06 186.05 214.29C185.38 214.61 185.08 214.98 185.07 215.78C185.02 222.65 180.28 227.34 173.42 227.34C150.21 227.34 127 227.34 103.79 227.34C96.9901 227.34 92.1801 222.52 92.1801 215.71C92.1801 205.54 92.1701 195.37 92.1801 185.2C92.1801 182.46 94.2901 180.67 96.7901 181.26C98.4201 181.64 99.5701 183.02 99.6301 184.77C99.6801 186.21 99.6501 187.64 99.6501 189.08C99.6501 197.89 99.6501 206.69 99.6501 215.5C99.6501 218.5 101.05 219.92 104.03 219.92C127.17 219.92 150.3 219.92 173.44 219.92C176.15 219.92 177.65 218.37 177.65 215.64C177.65 174.27 177.65 132.89 177.65 91.5199C177.65 90.9299 177.68 90.3398 177.64 89.7498C177.5 87.7198 175.99 86.2398 173.97 86.2098C172.17 86.1798 170.36 86.1999 168.46 86.1999C168.43 86.5599 168.39 86.8798 168.38 87.1898C168.37 88.7698 168.38 90.3598 168.38 91.9398C168.38 93.0998 168.31 94.1498 169.4 95.0898C170.47 96.0198 170.47 97.4799 169.91 98.7999C169.35 100.12 168.27 100.85 166.85 101.02C166.52 101.06 166.19 101.04 165.86 101.04C147.66 101.04 129.46 101.04 111.26 101.04C108.44 101.04 106.62 99.1099 107.19 96.5799C107.36 95.8099 108.01 95.1598 108.43 94.4398C108.6 94.1498 108.89 93.8398 108.9 93.5398C108.94 91.1498 108.92 88.7599 108.92 86.2999C106.7 86.2999 104.54 86.1398 102.41 86.3498C100.86 86.4998 99.7601 88.0999 99.6701 89.6699C99.6501 90.0399 99.6601 90.4098 99.6601 90.7798C99.6601 111.96 99.6601 133.15 99.6601 154.33C99.6601 154.66 99.6701 154.99 99.6501 155.32C99.5101 157.33 97.93 158.86 95.97 158.88C93.99 158.9 92.33 157.33 92.2 155.29C92.18 155 92.19 154.7 92.19 154.41C92.19 132.97 92.19 111.53 92.19 90.0799C92.19 83.6699 97.1201 78.7298 103.52 78.7198C105.28 78.7198 107.04 78.7198 108.93 78.7198C108.93 78.2198 108.93 77.8298 108.93 77.4398C108.93 72.9098 108.92 68.3798 108.93 63.8498C108.95 55.7998 115.25 49.2498 123.32 49.0598C128.62 48.9298 133.93 49.0199 139.23 49.0199C151.31 49.0199 163.4 49.0099 175.48 49.0199C182.56 49.0299 188.46 53.3298 190.08 60.0298C190.7 62.5898 190.64 65.3598 190.59 68.0298C190.55 70.0698 188.82 71.3098 186.6 71.3098C180.96 71.3098 175.33 71.3098 169.69 71.3098C169.32 71.3298 168.92 71.3299 168.46 71.3299ZM162.56 56.4799C162.49 56.4799 162.24 56.4499 162 56.4499C149.33 56.4499 136.67 56.4298 124 56.4598C119.59 56.4698 116.42 59.6798 116.41 64.0898C116.39 73.5898 116.4 83.0898 116.41 92.5898C116.41 92.8998 116.46 93.2199 116.49 93.5199C131.34 93.5199 146.09 93.5199 160.94 93.5199C160.94 93.0199 160.94 92.5798 160.94 92.1498C160.94 83.2798 160.94 74.3998 160.94 65.5298C160.94 64.4598 160.86 63.3698 161.07 62.3398C161.46 60.3798 162.04 58.4599 162.56 56.4799ZM185.22 125.69C185.22 152.68 185.22 179.48 185.22 206.39C186.94 205.53 188.51 204.73 190.1 203.97C191.79 203.17 192.52 201.87 192.52 200.01C192.5 181.19 192.51 162.36 192.51 143.54C192.51 139.64 192.5 135.73 192.51 131.83C192.51 130.52 192.09 129.35 190.98 128.7C189.16 127.61 187.22 126.72 185.22 125.69ZM168.47 63.7999C173.42 63.7999 178.28 63.7999 183.15 63.7999C183.3 59.8999 179.82 56.4698 175.8 56.4598C171.8 56.4598 168.3 59.9299 168.47 63.7999Z" fill="#333333"/>
<path d="M138.62 134.46C130.7 134.46 122.78 134.46 114.86 134.46C110.21 134.46 107.11 131.37 107.08 126.71C107.06 123.28 107.06 119.86 107.07 116.43C107.09 111.55 110.13 108.46 114.99 108.46C130.83 108.45 146.67 108.45 162.51 108.46C167.08 108.46 170.2 111.6 170.22 116.17C170.24 119.71 170.24 123.24 170.22 126.78C170.19 131.36 167.06 134.45 162.48 134.45C154.54 134.46 146.58 134.46 138.62 134.46ZM114.56 115.95C114.56 119.69 114.56 123.29 114.56 126.95C130.65 126.95 146.68 126.95 162.74 126.95C162.74 123.24 162.74 119.61 162.74 115.95C146.66 115.95 130.65 115.95 114.56 115.95Z" fill="#333333"/>
<path d="M119.62 212.49C117.54 212.63 115.19 212.38 113 211.2C108.53 208.8 106.22 203.76 107.35 198.87C108.5 193.9 112.76 190.32 117.88 190.2C120.11 190.15 122.42 190.11 124.58 190.57C130.15 191.78 133.65 197 133.02 202.72C132.42 208.12 127.73 212.35 122.18 212.48C121.44 212.5 120.71 212.49 119.62 212.49ZM120.11 197.66C119.41 197.66 118.71 197.62 118.02 197.67C116.09 197.79 114.58 199.36 114.52 201.27C114.46 203.15 115.93 204.86 117.86 204.99C119.36 205.09 120.88 205.09 122.37 204.98C124.32 204.84 125.68 203.17 125.62 201.21C125.56 199.33 124.09 197.8 122.2 197.67C121.51 197.62 120.81 197.66 120.11 197.66Z" fill="#333333"/>
<path d="M157.18 212.49C154.07 212.72 151.17 212.17 148.64 210.23C144.87 207.34 143.32 202.5 144.74 198C146.17 193.47 150.26 190.29 155.03 190.19C157.26 190.15 159.56 190.1 161.72 190.56C167.32 191.77 170.83 197.02 170.17 202.79C169.56 208.16 164.84 212.36 159.29 212.48C158.58 212.5 157.88 212.49 157.18 212.49ZM157.25 205C157.25 205.01 157.25 205.01 157.25 205C157.98 205.01 158.73 205.07 159.45 205C161.37 204.81 162.77 203.27 162.8 201.39C162.82 199.49 161.35 197.81 159.42 197.68C157.96 197.59 156.48 197.59 155.01 197.68C153.14 197.8 151.7 199.43 151.66 201.3C151.62 203.15 153.04 204.79 154.93 204.98C155.7 205.07 156.48 205 157.25 205Z" fill="#333333"/>
<path d="M114.51 179.1C114.5 181.15 112.79 182.83 110.76 182.8C108.72 182.77 107.06 181.06 107.08 179.02C107.1 176.96 108.79 175.31 110.84 175.34C112.91 175.36 114.52 177.01 114.51 179.1Z" fill="#333333"/>
<path d="M151.65 179.06C151.66 181.11 149.99 182.8 147.95 182.8C145.91 182.8 144.23 181.11 144.24 179.06C144.25 176.98 145.88 175.35 147.95 175.33C150 175.33 151.64 176.97 151.65 179.06Z" fill="#333333"/>
<path d="M166.49 175.33C168.55 175.31 170.21 176.95 170.23 179.02C170.25 181.09 168.62 182.76 166.56 182.79C164.53 182.83 162.85 181.15 162.83 179.08C162.8 177.01 164.42 175.35 166.49 175.33Z" fill="#333333"/>
<path d="M95.89 166.3C97.94 166.28 99.64 167.94 99.67 169.99C99.7 172.02 98.02 173.75 95.99 173.78C93.96 173.8 92.2499 172.14 92.2099 170.09C92.1599 168.07 93.88 166.31 95.89 166.3Z" fill="#333333"/>
<path d="M129.38 175.33C131.44 175.32 133.08 176.98 133.08 179.06C133.08 181.12 131.42 182.8 129.37 182.79C127.32 182.79 125.66 181.12 125.66 179.05C125.65 177 127.31 175.34 129.38 175.33Z" fill="#333333"/>
<path d="M162.82 164.18C162.83 162.09 164.45 160.49 166.54 160.49C168.62 160.49 170.23 162.12 170.23 164.21C170.23 166.27 168.56 167.93 166.51 167.92C164.44 167.91 162.81 166.25 162.82 164.18Z" fill="#333333"/>
<path d="M133.07 164.26C133.05 166.27 131.42 167.91 129.42 167.92C127.32 167.93 125.61 166.21 125.65 164.13C125.69 162.07 127.36 160.47 129.44 160.49C131.52 160.51 133.09 162.15 133.07 164.26Z" fill="#333333"/>
<path d="M151.65 164.22C151.65 166.27 149.98 167.93 147.92 167.92C145.91 167.91 144.26 166.27 144.23 164.28C144.2 162.14 145.84 160.48 147.97 160.49C150.06 160.5 151.66 162.12 151.65 164.22Z" fill="#333333"/>
<path d="M129.4 153.05C127.33 153.06 125.67 151.43 125.65 149.36C125.63 147.31 127.28 145.65 129.35 145.64C131.46 145.63 133.07 147.23 133.07 149.31C133.08 151.41 131.47 153.04 129.4 153.05Z" fill="#333333"/>
<path d="M151.65 149.4C151.62 151.49 149.99 153.07 147.89 153.04C145.82 153.01 144.2 151.34 144.24 149.28C144.28 147.19 145.92 145.61 148.01 145.64C150.09 145.66 151.68 147.31 151.65 149.4Z" fill="#333333"/>
<path d="M114.51 164.24C114.5 166.3 112.83 167.93 110.75 167.91C108.69 167.88 107.06 166.21 107.08 164.14C107.11 162.07 108.77 160.46 110.84 160.48C112.93 160.52 114.52 162.15 114.51 164.24Z" fill="#333333"/>
<path d="M110.76 145.63C112.85 145.61 114.5 147.22 114.51 149.29C114.52 151.39 112.93 153.01 110.84 153.03C108.75 153.05 107.13 151.47 107.09 149.37C107.05 147.32 108.68 145.66 110.76 145.63Z" fill="#333333"/>
<path d="M170.23 149.26C170.24 151.38 168.68 153.01 166.6 153.04C164.5 153.07 162.86 151.5 162.83 149.42C162.8 147.25 164.39 145.64 166.56 145.64C168.59 145.65 170.21 147.25 170.23 149.26Z" fill="#333333"/>
<path d="M138.69 71.3198C135.08 71.3198 131.48 71.3298 127.87 71.3198C125.45 71.3098 123.81 69.8198 123.78 67.6398C123.76 65.4798 125.43 63.8998 127.81 63.8898C135.02 63.8798 142.23 63.8798 149.45 63.8898C151.85 63.8898 153.53 65.4298 153.55 67.5798C153.57 69.7698 151.84 71.3298 149.4 71.3298C145.83 71.3198 142.26 71.3298 138.69 71.3198Z" fill="#333333"/>
<path d="M142.48 78.7398C144.84 78.7398 147.2 78.7298 149.55 78.7398C151.85 78.7498 153.51 80.2898 153.55 82.4298C153.59 84.5198 151.9 86.1898 149.63 86.2098C144.77 86.2398 139.9 86.2398 135.04 86.2098C132.82 86.1998 131.23 84.5698 131.24 82.4598C131.25 80.3398 132.85 78.7698 135.07 78.7598C137.54 78.7298 140.01 78.7398 142.48 78.7398Z" fill="#333333"/>
<defs>
<radialGradient id="paint0_radial_247_336" cx="0" cy="0" r="1" gradientUnits="userSpaceOnUse" gradientTransform="translate(140 135) scale(179.041 178.338)">
<stop stop-color="#E86795"/>
<stop offset="0.14" stop-color="#E96E9B"/>
<stop offset="0.35" stop-color="#EC83AB"/>
<stop offset="0.61" stop-color="#F1A5C7"/>
<stop offset="0.9" stop-color="#F9D4EC"/>
<stop offset="1" stop-color="#FCE6FB"/>
</radialGradient>
<clipPath id="clip0_247_336">
<rect width="280" height="270" fill="white"/>
</clipPath>
</defs>
</svg>
