<svg width="283" height="274" viewBox="0 0 283 274" fill="none" xmlns="http://www.w3.org/2000/svg">
<path d="M141.13 273.87C219.002 273.87 282.13 212.757 282.13 137.37C282.13 61.9832 219.002 0.870117 141.13 0.870117C63.2579 0.870117 0.130005 61.9832 0.130005 137.37C0.130005 212.757 63.2579 273.87 141.13 273.87Z" fill="url(#paint0_radial_104_658)"/>
<path d="M168.59 75.2C168.59 77.7 168.59 80.0799 168.59 82.6099C170.38 82.6099 172.17 82.5999 173.97 82.6099C179.39 82.6299 183.86 86.21 184.99 91.5C185.19 92.43 185.22 93.4 185.22 94.35C185.24 102.9 185.25 111.44 185.21 119.99C185.21 120.9 185.51 121.35 186.31 121.73C188.84 122.93 191.34 124.18 193.82 125.47C197.97 127.61 200.09 131.07 200.09 135.72C200.12 158.53 200.12 181.33 200.09 204.14C200.08 208.79 197.94 212.23 193.79 214.37C191.27 215.67 188.73 216.93 186.18 218.16C185.51 218.48 185.21 218.85 185.2 219.65C185.15 226.52 180.41 231.21 173.55 231.21C150.34 231.21 127.13 231.21 103.92 231.21C97.1201 231.21 92.3101 226.39 92.3101 219.58C92.3101 209.41 92.3001 199.24 92.3101 189.07C92.3101 186.33 94.4201 184.54 96.9201 185.13C98.5501 185.51 99.7001 186.89 99.7601 188.64C99.8101 190.08 99.7801 191.51 99.7801 192.95C99.7801 201.76 99.7801 210.56 99.7801 219.37C99.7801 222.37 101.18 223.79 104.16 223.79C127.3 223.79 150.43 223.79 173.57 223.79C176.28 223.79 177.78 222.24 177.78 219.51C177.78 178.14 177.78 136.76 177.78 95.39C177.78 94.8 177.81 94.21 177.77 93.62C177.63 91.59 176.12 90.1099 174.1 90.0799C172.3 90.0499 170.49 90.07 168.59 90.07C168.56 90.43 168.52 90.75 168.51 91.06C168.5 92.64 168.51 94.23 168.51 95.81C168.51 96.97 168.44 98.02 169.53 98.96C170.6 99.89 170.6 101.35 170.04 102.67C169.48 103.99 168.4 104.72 166.98 104.89C166.65 104.93 166.32 104.91 165.99 104.91C147.79 104.91 129.59 104.91 111.39 104.91C108.57 104.91 106.75 102.98 107.32 100.45C107.49 99.68 108.14 99.03 108.56 98.31C108.73 98.02 109.02 97.71 109.03 97.41C109.07 95.02 109.05 92.63 109.05 90.17C106.83 90.17 104.67 90.01 102.54 90.22C100.99 90.37 99.8901 91.97 99.8001 93.54C99.7801 93.91 99.7901 94.28 99.7901 94.65C99.7901 115.83 99.7901 137.02 99.7901 158.2C99.7901 158.53 99.8001 158.86 99.7801 159.19C99.6401 161.2 98.06 162.73 96.1 162.75C94.12 162.77 92.46 161.2 92.33 159.16C92.31 158.87 92.32 158.57 92.32 158.28C92.32 136.84 92.32 115.4 92.32 93.95C92.32 87.54 97.2501 82.6 103.65 82.59C105.41 82.59 107.17 82.59 109.06 82.59C109.06 82.09 109.06 81.7 109.06 81.31C109.06 76.78 109.05 72.25 109.06 67.72C109.08 59.67 115.38 53.12 123.45 52.93C128.75 52.8 134.06 52.89 139.36 52.89C151.44 52.89 163.53 52.88 175.61 52.89C182.69 52.9 188.59 57.2 190.21 63.9C190.83 66.46 190.77 69.23 190.72 71.9C190.68 73.94 188.95 75.18 186.73 75.18C181.09 75.18 175.46 75.18 169.82 75.18C169.45 75.2 169.05 75.2 168.59 75.2ZM162.69 60.35C162.62 60.35 162.37 60.32 162.13 60.32C149.46 60.32 136.8 60.2999 124.13 60.3299C119.72 60.3399 116.55 63.55 116.54 67.96C116.52 77.46 116.53 86.96 116.54 96.46C116.54 96.77 116.59 97.09 116.62 97.39C131.47 97.39 146.22 97.39 161.07 97.39C161.07 96.89 161.07 96.45 161.07 96.02C161.07 87.15 161.07 78.27 161.07 69.4C161.07 68.33 160.99 67.24 161.2 66.21C161.59 64.25 162.17 62.33 162.69 60.35ZM185.35 129.56C185.35 156.55 185.35 183.35 185.35 210.26C187.07 209.4 188.64 208.6 190.23 207.84C191.92 207.04 192.65 205.74 192.65 203.88C192.63 185.06 192.64 166.23 192.64 147.41C192.64 143.51 192.63 139.6 192.64 135.7C192.64 134.39 192.22 133.22 191.11 132.57C189.29 131.48 187.35 130.59 185.35 129.56ZM168.6 67.67C173.55 67.67 178.41 67.67 183.28 67.67C183.43 63.77 179.95 60.3399 175.93 60.3299C171.93 60.3299 168.43 63.8 168.6 67.67Z" fill="#333333"/>
<path d="M138.75 138.33C130.83 138.33 122.91 138.33 114.99 138.33C110.34 138.33 107.24 135.24 107.21 130.58C107.19 127.15 107.19 123.73 107.2 120.3C107.22 115.42 110.26 112.33 115.12 112.33C130.96 112.32 146.8 112.32 162.64 112.33C167.21 112.33 170.33 115.47 170.35 120.04C170.37 123.58 170.37 127.11 170.35 130.65C170.32 135.23 167.19 138.32 162.61 138.32C154.67 138.33 146.71 138.33 138.75 138.33ZM114.69 119.82C114.69 123.56 114.69 127.16 114.69 130.82C130.78 130.82 146.81 130.82 162.87 130.82C162.87 127.11 162.87 123.48 162.87 119.82C146.79 119.82 130.78 119.82 114.69 119.82Z" fill="#333333"/>
<path d="M119.75 216.36C117.67 216.5 115.32 216.25 113.13 215.07C108.66 212.67 106.35 207.63 107.48 202.74C108.63 197.77 112.89 194.19 118.01 194.07C120.24 194.02 122.55 193.98 124.71 194.44C130.28 195.65 133.78 200.87 133.15 206.59C132.55 211.99 127.86 216.22 122.31 216.35C121.57 216.37 120.84 216.36 119.75 216.36ZM120.24 201.53C119.54 201.53 118.84 201.49 118.15 201.54C116.22 201.66 114.71 203.23 114.65 205.14C114.59 207.02 116.06 208.73 117.99 208.86C119.49 208.96 121.01 208.96 122.5 208.85C124.45 208.71 125.81 207.04 125.75 205.08C125.69 203.2 124.22 201.67 122.33 201.54C121.64 201.49 120.94 201.53 120.24 201.53Z" fill="#333333"/>
<path d="M157.31 216.36C154.2 216.59 151.3 216.04 148.77 214.1C145 211.21 143.45 206.37 144.87 201.87C146.3 197.34 150.39 194.16 155.16 194.06C157.39 194.02 159.69 193.97 161.85 194.43C167.45 195.64 170.96 200.89 170.3 206.66C169.69 212.03 164.97 216.23 159.42 216.35C158.71 216.37 158.01 216.36 157.31 216.36ZM157.38 208.87C157.38 208.88 157.38 208.88 157.38 208.87C158.11 208.88 158.86 208.94 159.58 208.87C161.5 208.68 162.9 207.14 162.93 205.26C162.95 203.36 161.48 201.68 159.55 201.55C158.09 201.46 156.61 201.46 155.14 201.55C153.27 201.67 151.83 203.3 151.79 205.17C151.75 207.02 153.17 208.66 155.06 208.85C155.83 208.94 156.61 208.87 157.38 208.87Z" fill="#333333"/>
<path d="M114.64 182.97C114.63 185.02 112.92 186.7 110.89 186.67C108.85 186.64 107.19 184.93 107.21 182.89C107.23 180.83 108.92 179.18 110.97 179.21C113.04 179.23 114.65 180.88 114.64 182.97Z" fill="#333333"/>
<path d="M151.78 182.93C151.79 184.98 150.12 186.67 148.08 186.67C146.04 186.67 144.36 184.98 144.37 182.93C144.38 180.85 146.01 179.22 148.08 179.2C150.13 179.2 151.77 180.84 151.78 182.93Z" fill="#333333"/>
<path d="M166.62 179.2C168.68 179.18 170.34 180.82 170.36 182.89C170.38 184.96 168.75 186.63 166.69 186.66C164.66 186.7 162.98 185.02 162.96 182.95C162.93 180.88 164.55 179.22 166.62 179.2Z" fill="#333333"/>
<path d="M96.02 170.17C98.07 170.15 99.77 171.81 99.8 173.86C99.83 175.89 98.15 177.62 96.12 177.65C94.09 177.67 92.3799 176.01 92.3399 173.96C92.2899 171.94 94.01 170.18 96.02 170.17Z" fill="#333333"/>
<path d="M129.51 179.2C131.57 179.19 133.21 180.85 133.21 182.93C133.21 184.99 131.55 186.67 129.5 186.66C127.45 186.66 125.79 184.99 125.79 182.92C125.78 180.87 127.44 179.21 129.51 179.2Z" fill="#333333"/>
<path d="M162.95 168.05C162.96 165.96 164.58 164.36 166.67 164.36C168.75 164.36 170.36 165.99 170.36 168.08C170.36 170.14 168.69 171.8 166.64 171.79C164.57 171.78 162.94 170.12 162.95 168.05Z" fill="#333333"/>
<path d="M133.2 168.13C133.18 170.14 131.55 171.78 129.55 171.79C127.45 171.8 125.74 170.08 125.78 168C125.82 165.94 127.49 164.34 129.57 164.36C131.65 164.38 133.22 166.02 133.2 168.13Z" fill="#333333"/>
<path d="M151.78 168.09C151.78 170.14 150.11 171.8 148.05 171.79C146.04 171.78 144.39 170.14 144.36 168.15C144.33 166.01 145.97 164.35 148.1 164.36C150.19 164.37 151.79 165.99 151.78 168.09Z" fill="#333333"/>
<path d="M129.53 156.92C127.46 156.93 125.8 155.3 125.78 153.23C125.76 151.18 127.41 149.52 129.48 149.51C131.59 149.5 133.2 151.1 133.2 153.18C133.21 155.28 131.6 156.91 129.53 156.92Z" fill="#333333"/>
<path d="M151.78 153.27C151.75 155.36 150.12 156.94 148.02 156.91C145.95 156.88 144.33 155.21 144.37 153.15C144.41 151.06 146.05 149.48 148.14 149.51C150.22 149.53 151.81 151.18 151.78 153.27Z" fill="#333333"/>
<path d="M114.64 168.11C114.63 170.17 112.96 171.8 110.88 171.78C108.82 171.75 107.19 170.08 107.21 168.01C107.24 165.94 108.9 164.33 110.97 164.35C113.06 164.39 114.65 166.02 114.64 168.11Z" fill="#333333"/>
<path d="M110.89 149.5C112.98 149.48 114.63 151.09 114.64 153.16C114.65 155.26 113.06 156.88 110.97 156.9C108.88 156.92 107.26 155.34 107.22 153.24C107.18 151.19 108.81 149.53 110.89 149.5Z" fill="#333333"/>
<path d="M170.36 153.13C170.37 155.25 168.81 156.88 166.73 156.91C164.63 156.94 162.99 155.37 162.96 153.29C162.93 151.12 164.52 149.51 166.69 149.51C168.72 149.52 170.34 151.12 170.36 153.13Z" fill="#333333"/>
<path d="M138.82 75.1899C135.21 75.1899 131.61 75.1999 128 75.1899C125.58 75.1799 123.94 73.6899 123.91 71.5099C123.89 69.3499 125.56 67.7699 127.94 67.7599C135.15 67.7499 142.36 67.7499 149.58 67.7599C151.98 67.7599 153.66 69.2999 153.68 71.4499C153.7 73.6399 151.97 75.1999 149.53 75.1999C145.96 75.1899 142.39 75.1999 138.82 75.1899Z" fill="#333333"/>
<path d="M142.61 82.6099C144.97 82.6099 147.33 82.5999 149.68 82.6099C151.98 82.6199 153.64 84.1599 153.68 86.2999C153.72 88.3899 152.03 90.0599 149.76 90.0799C144.9 90.1099 140.03 90.1099 135.17 90.0799C132.95 90.0699 131.36 88.4399 131.37 86.3299C131.38 84.2099 132.98 82.6399 135.2 82.6299C137.67 82.5999 140.14 82.6099 142.61 82.6099Z" fill="#333333"/>
<defs>
<radialGradient id="paint0_radial_104_658" cx="0" cy="0" r="1" gradientUnits="userSpaceOnUse" gradientTransform="translate(141.128 137.372) scale(180.323)">
<stop offset="1.38522e-07" stop-color="#F970E6"/>
<stop offset="0.1984" stop-color="#F974E7" stop-opacity="0.8016"/>
<stop offset="0.3805" stop-color="#F97FE9" stop-opacity="0.6195"/>
<stop offset="0.5561" stop-color="#FA91EC" stop-opacity="0.4439"/>
<stop offset="0.7278" stop-color="#FBACF1" stop-opacity="0.2722"/>
<stop offset="0.8951" stop-color="#FBCDF7" stop-opacity="0.1049"/>
<stop offset="1" stop-color="#FCE6FB" stop-opacity="0"/>
</radialGradient>
</defs>
</svg>
