<svg width="281" height="271" viewBox="0 0 281 271" fill="none" xmlns="http://www.w3.org/2000/svg">
<g clip-path="url(#clip0_528_3)">
<path d="M140.952 270.473C218.272 270.473 280.952 210.031 280.952 135.473C280.952 60.9145 218.272 0.4729 140.952 0.4729C63.6322 0.4729 0.952026 60.9145 0.952026 135.473C0.952026 210.031 63.6322 270.473 140.952 270.473Z" fill="url(#paint0_radial_528_3)"/>
</g>
<path d="M169.413 71.8001C169.413 74.3001 169.413 76.6801 169.413 79.2101C171.203 79.2101 172.993 79.2001 174.793 79.2101C180.213 79.2301 184.683 82.8101 185.813 88.1001C186.013 89.0301 186.043 90.0001 186.043 90.9501C186.063 99.5001 186.073 108.04 186.033 116.59C186.033 117.5 186.333 117.95 187.133 118.33C189.663 119.53 192.163 120.78 194.643 122.07C198.793 124.21 200.913 127.67 200.913 132.32C200.943 155.13 200.943 177.93 200.913 200.74C200.903 205.39 198.763 208.83 194.613 210.97C192.093 212.27 189.553 213.53 187.003 214.76C186.333 215.08 186.033 215.45 186.023 216.25C185.973 223.12 181.233 227.81 174.373 227.81C151.163 227.81 127.953 227.81 104.743 227.81C97.9428 227.81 93.1329 222.99 93.1329 216.18C93.1329 206.01 93.1229 195.84 93.1329 185.67C93.1329 182.93 95.2428 181.14 97.7429 181.73C99.3729 182.11 100.523 183.49 100.583 185.24C100.633 186.68 100.603 188.11 100.603 189.55C100.603 198.36 100.603 207.16 100.603 215.97C100.603 218.97 102.003 220.39 104.983 220.39C128.123 220.39 151.253 220.39 174.393 220.39C177.103 220.39 178.603 218.84 178.603 216.11C178.603 174.74 178.603 133.36 178.603 91.9901C178.603 91.4001 178.633 90.8101 178.593 90.2201C178.453 88.1901 176.943 86.7101 174.923 86.6801C173.123 86.6501 171.313 86.6701 169.413 86.6701C169.383 87.0301 169.343 87.3501 169.333 87.6601C169.323 89.2401 169.333 90.8301 169.333 92.4101C169.333 93.5701 169.263 94.6201 170.353 95.5601C171.423 96.4901 171.423 97.9501 170.863 99.2701C170.303 100.59 169.223 101.32 167.803 101.49C167.473 101.53 167.143 101.51 166.813 101.51C148.613 101.51 130.413 101.51 112.213 101.51C109.393 101.51 107.573 99.5801 108.143 97.0501C108.313 96.2801 108.963 95.6301 109.383 94.9101C109.553 94.6201 109.843 94.3101 109.853 94.0101C109.893 91.6201 109.873 89.2301 109.873 86.7701C107.653 86.7701 105.493 86.6101 103.363 86.8201C101.813 86.9701 100.713 88.5701 100.623 90.1401C100.603 90.5101 100.613 90.8801 100.613 91.2501C100.613 112.43 100.613 133.62 100.613 154.8C100.613 155.13 100.623 155.46 100.603 155.79C100.463 157.8 98.8828 159.33 96.9228 159.35C94.9428 159.37 93.2828 157.8 93.1528 155.76C93.1328 155.47 93.1428 155.17 93.1428 154.88C93.1428 133.44 93.1428 112 93.1428 90.5501C93.1428 84.1401 98.0728 79.2001 104.473 79.1901C106.233 79.1901 107.993 79.1901 109.883 79.1901C109.883 78.6901 109.883 78.3001 109.883 77.9101C109.883 73.3801 109.873 68.8501 109.883 64.3201C109.903 56.2701 116.203 49.7201 124.273 49.5301C129.573 49.4001 134.883 49.4901 140.183 49.4901C152.263 49.4901 164.353 49.4801 176.433 49.4901C183.513 49.5001 189.413 53.8001 191.033 60.5001C191.653 63.0601 191.593 65.8301 191.543 68.5001C191.503 70.5401 189.773 71.7801 187.553 71.7801C181.913 71.7801 176.283 71.7801 170.643 71.7801C170.273 71.8001 169.873 71.8001 169.413 71.8001ZM163.513 56.9501C163.443 56.9501 163.193 56.9201 162.953 56.9201C150.283 56.9201 137.623 56.9001 124.953 56.93C120.543 56.9401 117.373 60.1501 117.363 64.5601C117.343 74.0601 117.353 83.5601 117.363 93.0601C117.363 93.3701 117.413 93.6901 117.443 93.9901C132.293 93.9901 147.043 93.9901 161.893 93.9901C161.893 93.4901 161.893 93.0501 161.893 92.6201C161.893 83.7501 161.893 74.8701 161.893 66.0001C161.893 64.9301 161.813 63.8401 162.023 62.8101C162.413 60.8501 162.993 58.9301 163.513 56.9501ZM186.173 126.16C186.173 153.15 186.173 179.95 186.173 206.86C187.893 206 189.463 205.2 191.053 204.44C192.743 203.64 193.473 202.34 193.473 200.48C193.453 181.66 193.463 162.83 193.463 144.01C193.463 140.11 193.453 136.2 193.463 132.3C193.463 130.99 193.043 129.82 191.933 129.17C190.113 128.08 188.173 127.19 186.173 126.16ZM169.423 64.2701C174.373 64.2701 179.233 64.2701 184.103 64.2701C184.253 60.3701 180.773 56.9401 176.753 56.93C172.753 56.93 169.253 60.4001 169.423 64.2701Z" fill="#333333"/>
<path d="M139.572 134.931C131.652 134.931 123.732 134.931 115.812 134.931C111.162 134.931 108.062 131.841 108.032 127.181C108.012 123.751 108.012 120.331 108.022 116.901C108.042 112.021 111.082 108.931 115.942 108.931C131.782 108.921 147.622 108.921 163.462 108.931C168.032 108.931 171.152 112.071 171.172 116.641C171.192 120.181 171.192 123.711 171.172 127.251C171.142 131.831 168.012 134.921 163.432 134.921C155.492 134.931 147.532 134.931 139.572 134.931ZM115.512 116.421C115.512 120.161 115.512 123.761 115.512 127.421C131.602 127.421 147.632 127.421 163.692 127.421C163.692 123.711 163.692 120.081 163.692 116.421C147.612 116.421 131.602 116.421 115.512 116.421Z" fill="#333333"/>
<path d="M120.572 212.961C118.492 213.101 116.142 212.851 113.952 211.671C109.482 209.271 107.172 204.231 108.302 199.341C109.452 194.371 113.712 190.791 118.832 190.671C121.062 190.621 123.372 190.581 125.532 191.041C131.102 192.251 134.602 197.471 133.972 203.191C133.372 208.591 128.682 212.821 123.132 212.951C122.392 212.971 121.662 212.961 120.572 212.961ZM121.062 198.131C120.362 198.131 119.662 198.091 118.972 198.141C117.042 198.261 115.532 199.831 115.472 201.741C115.412 203.621 116.882 205.331 118.812 205.461C120.312 205.561 121.832 205.561 123.322 205.451C125.272 205.311 126.632 203.641 126.572 201.681C126.512 199.801 125.042 198.271 123.152 198.141C122.462 198.091 121.762 198.131 121.062 198.131Z" fill="#333333"/>
<path d="M158.134 212.959C155.024 213.189 152.124 212.639 149.594 210.699C145.824 207.809 144.274 202.969 145.694 198.469C147.124 193.939 151.214 190.759 155.984 190.659C158.214 190.619 160.514 190.569 162.674 191.029C168.274 192.239 171.784 197.489 171.124 203.259C170.514 208.629 165.794 212.829 160.244 212.949C159.534 212.969 158.834 212.959 158.134 212.959ZM158.204 205.469C158.204 205.479 158.204 205.479 158.204 205.469C158.934 205.479 159.683 205.539 160.403 205.469C162.323 205.279 163.724 203.739 163.754 201.859C163.774 199.959 162.304 198.279 160.374 198.149C158.914 198.059 157.434 198.059 155.964 198.149C154.094 198.269 152.654 199.899 152.614 201.769C152.574 203.619 153.994 205.259 155.884 205.449C156.654 205.539 157.434 205.469 158.204 205.469Z" fill="#333333"/>
<path d="M115.461 179.569C115.451 181.619 113.741 183.299 111.711 183.269C109.671 183.239 108.011 181.529 108.031 179.489C108.051 177.429 109.741 175.779 111.791 175.809C113.861 175.829 115.471 177.479 115.461 179.569Z" fill="#333333"/>
<path d="M152.603 179.528C152.613 181.578 150.943 183.268 148.903 183.268C146.863 183.268 145.183 181.578 145.193 179.528C145.203 177.448 146.833 175.818 148.903 175.798C150.953 175.798 152.593 177.438 152.603 179.528Z" fill="#333333"/>
<path d="M167.443 175.799C169.503 175.779 171.163 177.419 171.183 179.489C171.203 181.559 169.573 183.229 167.513 183.259C165.483 183.299 163.803 181.619 163.783 179.549C163.753 177.479 165.373 175.819 167.443 175.799Z" fill="#333333"/>
<path d="M96.8427 166.771C98.8927 166.751 100.593 168.411 100.623 170.461C100.653 172.491 98.9727 174.221 96.9427 174.251C94.9127 174.271 93.2027 172.611 93.1627 170.561C93.1127 168.541 94.8327 166.781 96.8427 166.771Z" fill="#333333"/>
<path d="M130.333 175.798C132.393 175.788 134.033 177.448 134.033 179.528C134.033 181.588 132.373 183.268 130.323 183.258C128.273 183.258 126.613 181.588 126.613 179.518C126.603 177.468 128.263 175.808 130.333 175.798Z" fill="#333333"/>
<path d="M163.772 164.65C163.782 162.56 165.402 160.96 167.492 160.96C169.572 160.96 171.182 162.59 171.182 164.68C171.182 166.74 169.512 168.4 167.462 168.39C165.392 168.38 163.762 166.72 163.772 164.65Z" fill="#333333"/>
<path d="M134.022 164.73C134.002 166.74 132.372 168.38 130.372 168.39C128.272 168.4 126.562 166.68 126.602 164.6C126.642 162.54 128.312 160.94 130.392 160.96C132.472 160.98 134.042 162.62 134.022 164.73Z" fill="#333333"/>
<path d="M152.603 164.69C152.603 166.74 150.933 168.4 148.873 168.39C146.863 168.38 145.213 166.74 145.183 164.75C145.153 162.61 146.793 160.95 148.923 160.96C151.013 160.97 152.613 162.59 152.603 164.69Z" fill="#333333"/>
<path d="M130.353 153.521C128.283 153.531 126.623 151.901 126.603 149.831C126.583 147.781 128.233 146.121 130.303 146.111C132.413 146.101 134.023 147.701 134.023 149.781C134.033 151.881 132.423 153.511 130.353 153.521Z" fill="#333333"/>
<path d="M152.602 149.871C152.572 151.961 150.942 153.541 148.842 153.511C146.772 153.481 145.152 151.811 145.192 149.751C145.232 147.661 146.872 146.081 148.962 146.111C151.042 146.131 152.632 147.781 152.602 149.871Z" fill="#333333"/>
<path d="M115.461 164.71C115.451 166.77 113.781 168.4 111.701 168.38C109.641 168.35 108.011 166.68 108.031 164.61C108.061 162.54 109.721 160.93 111.791 160.95C113.881 160.99 115.471 162.62 115.461 164.71Z" fill="#333333"/>
<path d="M111.711 146.101C113.801 146.081 115.451 147.691 115.461 149.761C115.471 151.861 113.881 153.481 111.791 153.501C109.701 153.521 108.081 151.941 108.041 149.841C108.001 147.791 109.631 146.131 111.711 146.101Z" fill="#333333"/>
<path d="M171.183 149.731C171.193 151.851 169.633 153.481 167.553 153.511C165.453 153.541 163.813 151.971 163.783 149.891C163.753 147.721 165.343 146.111 167.513 146.111C169.543 146.121 171.163 147.721 171.183 149.731Z" fill="#333333"/>
<path d="M139.642 71.7905C136.032 71.7905 132.432 71.8005 128.822 71.7905C126.402 71.7805 124.762 70.2905 124.732 68.1105C124.712 65.9505 126.382 64.3705 128.762 64.3605C135.972 64.3505 143.182 64.3505 150.402 64.3605C152.802 64.3605 154.482 65.9005 154.502 68.0505C154.522 70.2405 152.792 71.8005 150.352 71.8005C146.782 71.7905 143.212 71.8005 139.642 71.7905Z" fill="#333333"/>
<path d="M143.433 79.2107C145.793 79.2107 148.153 79.2007 150.503 79.2107C152.803 79.2207 154.463 80.7607 154.503 82.9007C154.543 84.9907 152.853 86.6607 150.583 86.6807C145.723 86.7107 140.853 86.7107 135.993 86.6807C133.773 86.6707 132.183 85.0407 132.193 82.9307C132.203 80.8107 133.803 79.2408 136.023 79.2308C138.493 79.2008 140.963 79.2107 143.433 79.2107Z" fill="#333333"/>
<defs>
<radialGradient id="paint0_radial_528_3" cx="0" cy="0" r="1" gradientUnits="userSpaceOnUse" gradientTransform="translate(140.952 135.473) scale(179.041 178.339)">
<stop stop-color="#E78EAD"/>
<stop offset="0.391" stop-color="#F1C0D1"/>
<stop offset="0.776" stop-color="#FEFDFC"/>
</radialGradient>
<clipPath id="clip0_528_3">
<rect width="280" height="270" fill="white" transform="translate(0.948608 0.469482)"/>
</clipPath>
</defs>
</svg>
