<svg width="125" height="40" viewBox="0 0 125 40" fill="none" xmlns="http://www.w3.org/2000/svg">
<path d="M0 1H18.24C18.49 1.02 18.88 1.07 19.3 1.26C19.3 1.26 20.23 1.69 20.89 2.85C21.6 4.11 23.11 11.02 24.59 20.56C23.65 18.43 22.04 15.41 19.3 12.36C18.85 11.86 16.91 9.74 13.48 7.34C10.76 5.43 6.29 2.79 0 1Z" fill="url(#paint0_radial_243_98)"/>
<path d="M124.46 39.3099C121.45 39.3099 118.51 39.3099 115.42 39.3099C115.11 37.7999 114.76 36.2699 114.49 34.7299C114.33 33.8399 113.96 33.5099 113 33.5299C109.43 33.5899 105.86 33.5799 102.3 33.5399C101.47 33.5299 101.01 33.7599 100.76 34.5899C100.34 35.9299 99.8499 37.2599 99.3199 38.5599C99.1899 38.8899 98.78 39.3399 98.49 39.3399C95.29 39.3999 92.08 39.3799 88.7 39.3799C89.83 36.6799 90.89 34.1299 91.96 31.5899C95.77 22.5099 99.62 13.4399 103.37 4.32992C104.35 1.94992 105.95 0.729903 108.47 0.689903C110.85 0.649903 113.23 0.719935 115.61 0.659935C116.51 0.639935 116.59 1.2099 116.71 1.8099C118.15 8.7399 119.59 15.6699 121.04 22.5899C122.13 27.8399 123.23 33.0899 124.32 38.3399C124.37 38.6399 124.41 38.9399 124.46 39.3099ZM104.05 25.6699C106.96 25.6699 109.69 25.6699 112.56 25.6699C111.56 20.8399 110.6 16.1399 109.63 11.4499C109.51 11.4499 109.39 11.4499 109.28 11.4499C107.55 16.1499 105.82 20.8599 104.05 25.6699Z" fill="#333333"/>
<path d="M90.64 1.6699C90.2 4.3699 89.7599 7.0299 89.3099 9.7899C86.4599 8.4999 83.63 7.7199 80.63 7.9799C79.34 8.0899 77.99 8.36991 76.84 8.92991C74.67 9.98991 74.45 12.1299 76.37 13.5699C77.83 14.6699 79.51 15.4899 81.1 16.4199C82.2 17.0699 83.33 17.6499 84.4 18.3499C91.76 23.1699 89.62 31.9699 85.26 35.6899C82.33 38.1899 78.89 39.3599 75.14 39.7499C70.26 40.2699 65.49 39.72 60.7 37.97C61.15 35.15 61.59 32.3599 62.05 29.4399C62.97 29.8299 63.76 30.1799 64.55 30.5099C67.83 31.8399 71.22 32.4099 74.75 31.8399C75.05 31.7899 75.35 31.7099 75.64 31.6099C77.15 31.0899 78.5199 30.3699 78.8199 28.6099C79.1199 26.7899 77.91 25.7599 76.58 24.8999C75.62 24.2799 74.58 23.79 73.59 23.22C72.15 22.38 70.63 21.6299 69.3 20.6499C63.75 16.5599 63.3 9.62994 68.21 4.76994C71.13 1.87994 74.8 0.599903 78.77 0.169903C82.48 -0.230097 86.16 0.0398982 89.72 1.2899C90 1.3899 90.28 1.5199 90.64 1.6699Z" fill="#333333"/>
<path d="M11.39 5.75984C19.15 10.7598 24.85 17.1298 25.74 26.8798C25.86 26.8598 25.99 26.8498 26.11 26.8298C26.31 26.3498 26.53 25.8698 26.71 25.3898C29.64 17.5198 32.58 9.64985 35.47 1.76985C35.78 0.929852 36.1699 0.629857 37.0699 0.649857C40.0599 0.709857 43.05 0.669815 46.23 0.669815C46.07 1.16982 45.98 1.52983 45.84 1.86983C40.92 13.9698 35.99 26.0698 31.09 38.1798C30.72 39.0898 30.26 39.4299 29.25 39.3999C26.56 39.3199 23.8799 39.3498 21.1899 39.3798C20.4399 39.3898 20.02 39.2399 19.8 38.3999C16.96 27.5999 14.07 16.8199 11.2 6.02986C11.2 5.98986 11.26 5.93984 11.39 5.75984Z" fill="#333333"/>
<path d="M54.21 39.32C50.89 39.32 47.74 39.32 44.35 39.32C46.43 26.44 48.5 13.66 50.59 0.780029C53.86 0.780029 57.09 0.780029 60.46 0.780029C58.36 13.66 56.29 26.48 54.21 39.32Z" fill="#333333"/>
<defs>
<radialGradient id="paint0_radial_243_98" cx="0" cy="0" r="1" gradientUnits="userSpaceOnUse" gradientTransform="translate(12.29 10.78) scale(14.44)">
<stop stop-color="#E86795"/>
<stop offset="0.14" stop-color="#E96E9B"/>
<stop offset="0.35" stop-color="#EC83AB"/>
<stop offset="0.61" stop-color="#F1A5C7"/>
<stop offset="0.9" stop-color="#F9D4EC"/>
<stop offset="1" stop-color="#FCE6FB"/>
</radialGradient>
</defs>
</svg>
