<svg width="125" height="41" viewBox="0 0 125 41" fill="none" xmlns="http://www.w3.org/2000/svg">
<path d="M124.59 40.18C121.58 40.18 118.64 40.18 115.55 40.18C115.24 38.67 114.89 37.14 114.62 35.6C114.46 34.71 114.09 34.38 113.13 34.4C109.56 34.46 105.99 34.45 102.43 34.41C101.6 34.4 101.14 34.63 100.89 35.46C100.47 36.8 99.98 38.13 99.45 39.43C99.32 39.76 98.91 40.21 98.62 40.21C95.42 40.27 92.21 40.25 88.83 40.25C89.96 37.55 91.02 35 92.09 32.46C95.9 23.38 99.75 14.31 103.5 5.20004C104.48 2.82003 106.08 1.60002 108.6 1.56002C110.98 1.52002 113.36 1.59005 115.74 1.53005C116.64 1.51005 116.72 2.08002 116.84 2.68002C118.28 9.61002 119.72 16.54 121.17 23.46C122.26 28.71 123.36 33.96 124.45 39.21C124.5 39.51 124.54 39.81 124.59 40.18ZM104.18 26.54C107.09 26.54 109.82 26.54 112.69 26.54C111.69 21.71 110.73 17.01 109.76 12.32C109.64 12.32 109.52 12.32 109.41 12.32C107.68 17.02 105.95 21.73 104.18 26.54Z" fill="#333333"/>
<path d="M90.77 2.54002C90.33 5.24002 89.8899 7.90001 89.4399 10.66C86.5899 9.37002 83.76 8.59002 80.76 8.85002C79.47 8.96002 78.12 9.24003 76.97 9.80003C74.8 10.86 74.58 13 76.5 14.44C77.96 15.54 79.64 16.36 81.23 17.29C82.33 17.94 83.46 18.52 84.53 19.22C91.89 24.04 89.75 32.84 85.39 36.56C82.46 39.06 79.02 40.23 75.27 40.62C70.39 41.14 65.62 40.5901 60.83 38.8401C61.28 36.0201 61.7201 33.23 62.1801 30.31C63.1001 30.7 63.8901 31.05 64.6801 31.38C67.9601 32.71 71.35 33.2801 74.88 32.7101C75.18 32.6601 75.48 32.58 75.77 32.48C77.28 31.96 78.65 31.24 78.95 29.48C79.25 27.66 78.04 26.6301 76.71 25.7701C75.75 25.1501 74.71 24.6601 73.72 24.0901C72.28 23.2501 70.7601 22.5001 69.4301 21.5201C63.8801 17.4301 63.43 10.5001 68.34 5.64006C71.26 2.75006 74.93 1.47002 78.9 1.04002C82.61 0.64002 86.29 0.910015 89.85 2.16002C90.13 2.26002 90.41 2.39002 90.77 2.54002Z" fill="#333333"/>
<path d="M11.52 6.62996C19.28 11.63 24.98 18 25.87 27.75C25.99 27.73 26.12 27.72 26.24 27.7C26.44 27.22 26.66 26.74 26.84 26.26C29.77 18.39 32.71 10.52 35.6 2.63997C35.91 1.79997 36.3 1.49997 37.2 1.51997C40.19 1.57997 43.18 1.53993 46.36 1.53993C46.2 2.03993 46.11 2.39994 45.97 2.73994C41.05 14.8399 36.12 26.9399 31.22 39.0499C30.85 39.9599 30.39 40.3 29.38 40.27C26.69 40.19 24.0099 40.22 21.3199 40.25C20.5699 40.26 20.1501 40.11 19.9301 39.27C17.0901 28.47 14.2 17.69 11.33 6.89998C11.33 6.85998 11.39 6.80996 11.52 6.62996Z" fill="#333333"/>
<path d="M54.34 40.1901C51.02 40.1901 47.87 40.1901 44.48 40.1901C46.56 27.3101 48.63 14.5301 50.72 1.65015C53.99 1.65015 57.22 1.65015 60.59 1.65015C58.49 14.5301 56.42 27.3501 54.34 40.1901Z" fill="#333333"/>
<path d="M0.130005 1.7002C6.21 1.7002 12.29 1.7002 18.37 1.7002C18.62 1.7202 19.0101 1.77021 19.4301 1.96021C19.4301 1.96021 20.36 2.39017 21.02 3.55017C21.73 4.81017 23.24 11.7202 24.72 21.2602C23.78 19.1302 22.1701 16.1102 19.4301 13.0602C18.9801 12.5602 17.04 10.4402 13.61 8.04016C10.88 6.14016 6.42 3.4902 0.130005 1.7002Z" fill="url(#paint0_radial_4_953)"/>
<defs>
<radialGradient id="paint0_radial_4_953" cx="0" cy="0" r="1" gradientUnits="userSpaceOnUse" gradientTransform="translate(12.4218 11.4848) scale(14.4362 14.4362)">
<stop offset="1.38522e-07" stop-color="#F970E6"/>
<stop offset="0.2878" stop-color="#F973E6" stop-opacity="0.7122"/>
<stop offset="0.4625" stop-color="#F97BE8" stop-opacity="0.5375"/>
<stop offset="0.607" stop-color="#FA89EB" stop-opacity="0.393"/>
<stop offset="0.735" stop-color="#FA9EEE" stop-opacity="0.265"/>
<stop offset="0.8522" stop-color="#FBB8F3" stop-opacity="0.1478"/>
<stop offset="0.9599" stop-color="#FCD8F9" stop-opacity="0.0401"/>
<stop offset="1" stop-color="#FCE6FB" stop-opacity="0"/>
</radialGradient>
</defs>
</svg>
