<svg width="58" height="49" viewBox="0 0 58 49" fill="none" xmlns="http://www.w3.org/2000/svg">
<path d="M29.8707 49.0017C22.6628 49.0017 15.4549 49.0075 8.24692 49.0017C6.13354 49.0017 4.05557 48.7932 2.27277 47.5191C0.867786 46.5172 0 45.2142 0 43.4363C0.0118066 35.7107 0 27.9909 0 20.2654C0 18.279 0.968142 16.7617 2.59155 15.725C3.9198 14.8737 5.36611 14.173 6.81832 13.5475C14.8232 10.0959 22.8458 6.67905 30.8684 3.27377C33.3242 2.23134 35.7799 1.18312 38.2948 0.302849C40.0953 -0.3284 41.8367 0.0364506 43.3185 1.31053C43.9914 1.88966 44.2807 2.64253 44.2866 3.49963C44.2925 11.5321 44.3102 19.5704 44.2807 27.6029C44.2689 30.3712 42.492 32.4908 39.3515 33.4869C35.6855 34.6509 31.9841 35.7223 28.2946 36.8226C22.6097 38.5137 16.913 40.1816 11.2399 41.9074C10.5433 42.1217 9.87033 42.5502 9.31542 43.0309C8.79002 43.4826 8.93761 43.9633 9.62239 44.0386C10.7086 44.1602 11.8538 44.2876 12.9046 44.0907C19.1503 42.9035 25.3783 41.6236 31.6122 40.3785C35.6324 39.5735 39.6525 38.7917 43.6727 37.9809C45.2961 37.6508 46.7306 36.9269 47.9231 35.7918C49.0211 34.7494 49.694 33.539 49.6763 31.958C49.635 27.5219 49.6763 23.0799 49.6527 18.638C49.6468 17.3118 49.9125 16.9644 51.2407 16.9875C52.3446 17.0049 53.4545 17.0281 54.5466 17.167C56.3766 17.3987 57.3093 18.2616 57.6871 20.0337C57.8642 20.8561 57.9587 21.7074 57.9646 22.5414C57.9941 29.4909 57.9882 36.4404 58 43.3899C58 43.7548 58 44.1139 58 44.4787C57.9705 46.8068 57.0082 48.0751 54.7119 48.66C53.909 48.8627 53.0648 48.9843 52.2384 48.9901C44.7825 49.0133 37.3266 49.0017 29.8766 49.0017H29.8707ZM29.9711 20.6071C31.5414 20.5723 33.088 19.8195 34.2746 18.3485C34.9063 17.5609 35.2191 16.6864 34.7705 15.7308C34.3041 14.7405 33.4186 14.2888 32.3442 14.2482C30.65 14.1845 29.1682 14.7579 27.8813 15.8177C26.8423 16.669 26.3465 18.111 26.7125 19.1013C27.0785 20.0859 28.0997 20.6129 29.977 20.6129L29.9711 20.6071Z" fill="#333333"/>
</svg>
