<svg width="22" height="26" viewBox="0 0 22 26" fill="none" xmlns="http://www.w3.org/2000/svg">
<path d="M10.9999 0.0666504C7.40256 0.0666504 4.46661 3.31717 4.46661 7.29998V9.36665H2.59994C1.56861 9.36665 0.733276 10.2915 0.733276 11.4333V23.8333C0.733276 24.9751 1.56861 25.9 2.59994 25.9H19.3999C20.4313 25.9 21.2666 24.9751 21.2666 23.8333V11.4333C21.2666 10.2915 20.4313 9.36665 19.3999 9.36665H17.5333V7.29998C17.5333 3.44728 14.7674 0.344168 11.3317 0.141325C11.2262 0.0942512 11.1137 0.0689435 10.9999 0.0666504ZM10.9999 2.13332C13.5887 2.13332 15.6666 4.43386 15.6666 7.29998V9.36665H6.33328V7.29998C6.33328 4.43386 8.41119 2.13332 10.9999 2.13332Z" fill="white"/>
</svg>
