<svg width="23" height="26" viewBox="0 0 23 26" fill="none" xmlns="http://www.w3.org/2000/svg">
<path d="M11.6869 10.9062C11.5779 10.8911 11.4377 10.8911 11.313 10.9062C8.57119 10.8155 6.39014 8.63763 6.39014 5.96066C6.39014 3.22322 8.66467 1 11.5 1C14.3197 1 16.6098 3.22322 16.6098 5.96066C16.5942 8.63763 14.4288 10.8155 11.6869 10.9062Z" fill="white" stroke="white" stroke-width="2" stroke-linecap="round" stroke-linejoin="round"/>
<path d="M22 20.8882C19.227 23.3534 15.5504 24.8506 11.5 24.8506C7.44956 24.8506 3.773 23.3534 1 20.8882C1.15579 19.4665 2.09051 18.0751 3.75742 16.9862C8.02597 14.2336 15.0052 14.2336 19.2426 16.9862C20.9095 18.0751 21.8442 19.4665 22 20.8882Z" fill="white" stroke="white" stroke-width="2" stroke-linecap="round" stroke-linejoin="round"/>
</svg>
