<svg width="63" height="106" viewBox="0 0 63 106" fill="none" xmlns="http://www.w3.org/2000/svg">
<g clip-path="url(#clip0_497_357)">
<path d="M20.0897 52.5931C23.9885 48.7868 27.7614 45.0979 31.5343 41.4031C41.7373 31.4272 51.9462 21.4454 62.1492 11.4695C63.9487 9.71003 63.9547 7.89196 62.1732 6.13254C60.5837 4.56079 58.9761 3.01249 57.3806 1.44661C55.4672 -0.424249 53.6737 -0.435979 51.7423 1.44661C45.1802 7.85091 38.6302 14.2611 32.0741 20.6712C22.1831 30.3539 12.286 40.0249 2.39494 49.7076C0.301557 51.7544 0.313554 53.4083 2.41893 55.4668C18.8061 71.4893 35.1992 87.5118 51.5743 103.546C52.774 104.719 54.0576 105.522 55.7911 104.813C56.3429 104.584 56.8468 104.185 57.2786 103.775C58.9401 102.197 60.5717 100.584 62.1972 98.9715C63.9367 97.2472 63.9307 95.4233 62.1672 93.6991C50.2847 82.0751 38.4022 70.4571 26.5138 58.839C24.4024 56.7746 22.273 54.7278 20.0837 52.6048L20.0897 52.5931Z" fill="#333333"/>
</g>
<defs>
<clipPath id="clip0_497_357">
<rect width="62.6634" height="105.038" fill="white" transform="translate(0.000427246 0.0356445)"/>
</clipPath>
</defs>
</svg>
