<svg width="1661" height="3807" viewBox="0 0 1661 3807" fill="none" xmlns="http://www.w3.org/2000/svg">
<path d="M1088.4 3580.81C1079.67 3574.23 1071.05 3568.12 1062.87 3561.47C1047.68 3549.07 1034.17 3535.09 1024.75 3517.52C1011.35 3492.52 1011.64 3467.66 1026.39 3443.43C1041.44 3418.68 1061.08 3398.67 1087.3 3386.06C1114.84 3372.78 1143.5 3371.34 1172.9 3378.18C1174.5 3378.55 1176.11 3378.92 1177.72 3379.29C1178.34 3372.45 1178.74 3365.86 1179.62 3359.35C1182.9 3334.98 1195.79 3317.59 1217.12 3305.98C1239.32 3293.88 1262.62 3286.63 1288 3288.22C1306.07 3289.37 1323.46 3293.62 1339.41 3302.57C1364.28 3316.52 1376.84 3338.57 1379.91 3366.68C1380.39 3371.01 1380.53 3375.37 1380.82 3380.22C1381.99 3379.85 1383.09 3379.51 1384.18 3379.14C1404.93 3371.89 1426.11 3367.9 1448.12 3370.12C1482.09 3373.52 1507.65 3390.72 1526.09 3419.35C1534.12 3431.82 1540.66 3445.02 1543.95 3459.63C1549.9 3486.15 1542.81 3509.01 1524.04 3527.95C1517.21 3534.87 1509 3540.38 1501.4 3546.52C1500.45 3547.26 1499.39 3547.85 1498.3 3548.56C1502.21 3554.88 1506.15 3560.95 1509.73 3567.2C1518.09 3581.88 1524.52 3597.35 1526.6 3614.29C1529.89 3640.92 1520.43 3662.34 1500.27 3679.31C1468.72 3705.95 1433.08 3711.42 1394.23 3700.47C1393.39 3700.25 1392.55 3700.03 1391.38 3699.73C1391.09 3704.99 1390.98 3710.09 1390.5 3715.16C1388.53 3737.06 1381.96 3757.21 1366.98 3773.53C1346.79 3795.54 1321.63 3807.15 1291.8 3807C1275.25 3806.93 1261.2 3799.64 1248.85 3788.91C1233.77 3775.82 1223.36 3759.25 1214.56 3741.49C1214.12 3740.61 1213.65 3739.68 1213.18 3738.83C1213.07 3738.65 1212.85 3738.57 1212.55 3738.39C1208.43 3741.09 1204.37 3743.97 1200.1 3746.56C1183.09 3756.84 1164.83 3762.5 1144.78 3761.36C1129.66 3760.51 1115.71 3755.74 1102.79 3747.89C1085.44 3737.31 1071.05 3723.44 1059.91 3706.39C1043.23 3680.79 1043.15 3654.01 1055.57 3626.68C1063.02 3610.29 1073.83 3596.27 1086.06 3583.33C1086.83 3582.51 1087.56 3581.7 1088.32 3580.85L1088.4 3580.81ZM1288.44 3331.8C1281.21 3332.76 1273.87 3333.2 1266.75 3334.76C1244.8 3339.49 1230.01 3352.21 1224.79 3374.96C1222.45 3385.21 1222.12 3395.64 1223.33 3406.07C1224.46 3415.65 1220.81 3423.01 1213.58 3428.6C1206.42 3434.15 1198.61 3434.22 1190.39 3430.63C1181.55 3426.79 1172.71 3422.83 1163.55 3419.94C1147.48 3414.84 1131.09 3413.47 1114.98 3419.79C1097.42 3426.71 1082.52 3437.66 1070.8 3452.68C1056.23 3471.4 1056.01 3490.15 1069.66 3509.61C1076.64 3519.52 1085.44 3527.62 1095.59 3533.91C1108.99 3542.23 1122.8 3549.81 1136.45 3557.66C1145.14 3562.65 1148.69 3570.9 1146.24 3580.7C1144.74 3586.69 1141.53 3591.5 1136.86 3595.42C1133.79 3597.97 1130.61 3600.45 1127.58 3603.04C1115.79 3613.18 1104.98 3624.24 1097.49 3638.14C1086.17 3659.12 1088.84 3678.39 1105.78 3695.04C1110.6 3699.77 1115.97 3704.06 1121.63 3707.72C1140.76 3720.11 1160.15 3719.97 1179.43 3707.8C1189.4 3701.51 1197.77 3693.41 1205.58 3684.6C1210.11 3679.5 1215.73 3676.95 1222.49 3677.95C1231.76 3679.31 1238.3 3684.57 1241.88 3693.37C1243.12 3696.48 1244.03 3699.73 1245.13 3702.91C1250.06 3717.23 1255.43 3731.32 1264.26 3743.79C1274.82 3758.66 1288.25 3765.54 1306.73 3761.1C1330.21 3755.48 1344.49 3739.98 1347.45 3715.68C1349.31 3700.51 1347.08 3685.75 1343.91 3670.99C1343.07 3667.07 1342.92 3662.6 1343.94 3658.79C1347.41 3645.65 1362.02 3639.48 1374.65 3645.28C1381.99 3648.69 1389.22 3652.39 1396.75 3655.38C1411.28 3661.15 1426.21 3665 1442.1 3662.96C1467.37 3659.75 1486.39 3634.45 1482.16 3609.48C1480.37 3598.97 1475.51 3589.73 1469.2 3581.4C1463.13 3573.41 1456.71 3565.68 1450.1 3558.14C1438.16 3544.38 1441.59 3527.99 1457.87 3520.55C1468.14 3515.86 1478.54 3511.23 1488.11 3505.28C1501.51 3496.92 1506.33 3483.75 1502.24 3468.33C1495.67 3443.62 1479.57 3427.12 1456.67 3417.46C1439.47 3410.21 1421.98 3412.06 1404.67 3417.65C1390.43 3422.27 1377.46 3429.49 1364.68 3437.18C1354.93 3443.02 1343.76 3440.66 1336.86 3431.56C1332.22 3425.45 1331.12 3418.68 1332.99 3411.21C1336.38 3397.56 1338.5 3383.77 1336.79 3369.6C1334.52 3350.99 1324.19 3338.57 1306.55 3334.31C1300.67 3332.91 1294.54 3332.61 1288.4 3331.76L1288.44 3331.8Z" fill="#5D77F4" fill-opacity="0.7"/>
<path d="M1364 3547.17C1363.82 3592.53 1327.32 3629.3 1282.8 3629C1237.92 3628.71 1201.64 3591.72 1202 3546.69C1202.4 3501.36 1238.54 3464.93 1283.05 3465.01C1327.83 3465.08 1364.18 3501.99 1364 3547.13V3547.17Z" fill="#333333" fill-opacity="0.9"/>
<path d="M1072.4 1357.81C1063.67 1351.23 1055.05 1345.13 1046.87 1338.47C1031.68 1326.08 1018.17 1312.09 1008.75 1294.52C995.35 1269.52 995.642 1244.66 1010.39 1220.43C1025.44 1195.69 1045.09 1175.68 1071.3 1163.06C1098.84 1149.78 1127.5 1148.34 1156.9 1155.18C1158.51 1155.55 1160.11 1155.92 1161.72 1156.29C1162.34 1149.45 1162.74 1142.87 1163.62 1136.36C1166.91 1111.98 1179.8 1094.59 1201.12 1082.98C1223.32 1070.88 1246.62 1063.63 1272 1065.22C1290.08 1066.37 1307.46 1070.63 1323.42 1079.58C1348.28 1093.52 1360.85 1115.57 1363.91 1143.68C1364.39 1148.01 1364.53 1152.37 1364.83 1157.22C1366 1156.85 1367.09 1156.52 1368.19 1156.15C1388.93 1148.9 1410.11 1144.9 1432.13 1147.12C1466.09 1150.52 1491.65 1167.72 1510.09 1196.35C1518.12 1208.82 1524.66 1222.02 1527.95 1236.64C1533.9 1263.16 1526.82 1286.02 1508.05 1304.96C1501.22 1311.87 1493 1317.38 1485.41 1323.52C1484.46 1324.26 1483.4 1324.86 1482.3 1325.56C1486.21 1331.88 1490.15 1337.95 1493.73 1344.2C1502.09 1358.89 1508.52 1374.35 1510.6 1391.29C1513.89 1417.92 1504.43 1439.34 1484.27 1456.32C1452.72 1482.95 1417.08 1488.42 1378.23 1477.48C1377.39 1477.25 1376.55 1477.03 1375.38 1476.74C1375.09 1481.99 1374.98 1487.09 1374.5 1492.16C1372.53 1514.06 1365.96 1534.22 1350.99 1550.53C1330.79 1572.54 1305.63 1584.15 1275.8 1584.01C1259.26 1583.93 1245.2 1576.64 1232.86 1565.92C1217.77 1552.82 1207.37 1536.25 1198.57 1518.5C1198.13 1517.61 1197.65 1516.68 1197.18 1515.83C1197.07 1515.65 1196.85 1515.57 1196.56 1515.39C1192.43 1518.09 1188.38 1520.98 1184.11 1523.56C1167.09 1533.85 1148.83 1539.51 1128.78 1538.36C1113.66 1537.51 1099.71 1532.74 1086.79 1524.9C1069.44 1514.32 1055.05 1500.45 1043.92 1483.39C1027.23 1457.8 1027.16 1431.02 1039.57 1403.68C1047.02 1387.29 1057.83 1373.28 1070.06 1360.33C1070.83 1359.52 1071.56 1358.7 1072.33 1357.85L1072.4 1357.81ZM1272.44 1108.8C1265.21 1109.76 1257.87 1110.2 1250.75 1111.76C1228.8 1116.49 1214.01 1129.22 1208.79 1151.97C1206.45 1162.21 1206.12 1172.64 1207.33 1183.07C1208.46 1192.65 1204.81 1200.02 1197.58 1205.6C1190.42 1211.15 1182.61 1211.22 1174.39 1207.64C1165.55 1203.79 1156.72 1199.83 1147.55 1196.95C1131.48 1191.84 1115.09 1190.47 1098.98 1196.8C1081.42 1203.71 1066.52 1214.66 1054.8 1229.68C1040.23 1248.4 1040.01 1267.15 1053.67 1286.61C1060.64 1296.52 1069.44 1304.62 1079.59 1310.91C1093 1319.23 1106.8 1326.82 1120.46 1334.66C1129.15 1339.65 1132.69 1347.9 1130.24 1357.7C1128.75 1363.69 1125.53 1368.5 1120.86 1372.42C1117.79 1374.98 1114.61 1377.45 1111.58 1380.04C1099.79 1390.18 1088.98 1401.24 1081.49 1415.15C1070.17 1436.12 1072.84 1455.39 1089.78 1472.04C1094.6 1476.77 1099.97 1481.06 1105.63 1484.73C1124.77 1497.12 1144.16 1496.97 1163.44 1484.8C1173.41 1478.51 1181.77 1470.41 1189.58 1461.61C1194.11 1456.5 1199.73 1453.95 1206.49 1454.95C1215.77 1456.32 1222.3 1461.57 1225.88 1470.37C1227.12 1473.48 1228.03 1476.74 1229.13 1479.92C1234.06 1494.23 1239.43 1508.32 1248.27 1520.79C1258.82 1535.66 1272.26 1542.54 1290.73 1538.1C1314.21 1532.48 1328.49 1516.98 1331.45 1492.68C1333.31 1477.51 1331.09 1462.75 1327.91 1447.99C1327.07 1444.07 1326.92 1439.6 1327.95 1435.79C1331.41 1422.66 1346.02 1416.48 1358.66 1422.29C1366 1425.69 1373.23 1429.39 1380.75 1432.38C1395.28 1438.16 1410.22 1442 1426.1 1439.97C1451.37 1436.75 1470.4 1411.45 1466.16 1386.48C1464.37 1375.98 1459.52 1366.73 1453.2 1358.41C1447.14 1350.42 1440.71 1342.68 1434.1 1335.14C1422.16 1321.38 1425.59 1304.99 1441.88 1297.56C1452.14 1292.86 1462.55 1288.24 1472.11 1282.28C1485.52 1273.92 1490.34 1260.75 1486.25 1245.33C1479.67 1220.62 1463.57 1204.12 1440.67 1194.47C1423.47 1187.22 1405.98 1189.07 1388.67 1194.65C1374.43 1199.28 1361.47 1206.49 1348.69 1214.18C1338.94 1220.03 1327.76 1217.66 1320.86 1208.56C1316.22 1202.46 1315.13 1195.69 1316.99 1188.22C1320.39 1174.57 1322.5 1160.77 1320.79 1146.6C1318.52 1128 1308.19 1115.57 1290.55 1111.31C1284.67 1109.91 1278.54 1109.61 1272.4 1108.76L1272.44 1108.8Z" fill="#5D77F4" fill-opacity="0.7"/>
<path d="M1348 1324.17C1347.82 1369.54 1311.32 1406.3 1266.8 1406.01C1221.92 1405.71 1185.64 1368.73 1186 1323.69C1186.41 1278.37 1222.54 1241.93 1267.06 1242.01C1311.83 1242.08 1348.18 1278.99 1348 1324.14V1324.17Z" fill="#333333" fill-opacity="0.9"/>
<path d="M1203.4 292.81C1194.67 286.226 1186.05 280.122 1177.87 273.464C1162.68 261.073 1149.17 247.09 1139.75 229.52C1126.35 204.515 1126.64 179.658 1141.39 155.43C1156.44 130.684 1176.08 110.672 1202.3 98.0589C1229.84 84.7796 1258.5 83.337 1287.9 90.1801C1289.5 90.55 1291.11 90.9198 1292.72 91.2897C1293.34 84.4466 1293.74 77.8624 1294.62 71.3522C1297.9 46.976 1310.79 29.5908 1332.12 17.9761C1354.32 5.88043 1377.62 -1.36951 1403 0.221045C1421.07 1.36773 1438.46 5.62156 1454.41 14.5731C1479.28 28.5182 1491.84 50.5641 1494.91 78.6763C1495.39 83.0041 1495.53 87.3688 1495.82 92.2145C1496.99 91.8446 1498.09 91.5118 1499.18 91.1419C1519.93 83.8919 1541.11 79.897 1563.13 82.1164C1597.09 85.5194 1622.65 102.72 1641.09 131.35C1649.12 143.815 1655.66 157.021 1658.95 171.632C1664.9 198.153 1657.81 221.013 1639.04 239.951C1632.22 246.869 1624 252.38 1616.4 258.52C1615.45 259.26 1614.39 259.852 1613.3 260.555C1617.21 266.88 1621.15 272.946 1624.73 279.198C1633.09 293.882 1639.52 309.344 1641.6 326.286C1644.89 352.918 1635.43 374.335 1615.27 391.313C1583.72 417.946 1548.08 423.421 1509.23 412.472C1508.39 412.25 1507.55 412.028 1506.38 411.732C1506.09 416.984 1505.98 422.089 1505.5 427.156C1503.53 449.054 1496.96 469.214 1481.98 485.526C1461.79 507.535 1436.63 519.15 1406.8 519.002C1390.25 518.928 1376.2 511.641 1363.85 500.914C1348.77 487.82 1338.36 471.248 1329.56 453.493C1329.13 452.605 1328.65 451.681 1328.18 450.83C1328.07 450.645 1327.85 450.571 1327.55 450.386C1323.43 453.086 1319.38 455.971 1315.1 458.561C1298.09 468.844 1279.83 474.503 1259.78 473.357C1244.66 472.506 1230.71 467.734 1217.79 459.892C1200.44 449.313 1186.05 435.442 1174.91 418.39C1158.23 392.793 1158.15 366.012 1170.57 338.677C1178.02 322.291 1188.83 308.272 1201.06 295.325C1201.83 294.511 1202.56 293.698 1203.32 292.847L1203.4 292.81ZM1403.44 43.7951C1396.21 44.7568 1388.87 45.2006 1381.75 46.7542C1359.8 51.4889 1345.01 64.2133 1339.79 86.962C1337.45 97.2082 1337.12 107.639 1338.33 118.07C1339.46 127.651 1335.81 135.012 1328.58 140.597C1321.42 146.146 1313.61 146.22 1305.39 142.632C1296.55 138.785 1287.72 134.827 1278.55 131.941C1262.48 126.837 1246.09 125.468 1229.98 131.794C1212.42 138.711 1197.52 149.66 1185.8 164.677C1171.23 183.394 1171.01 202.148 1184.66 221.604C1191.64 231.518 1200.44 239.619 1210.59 245.907C1223.99 254.229 1237.8 261.813 1251.45 269.654C1260.14 274.648 1263.69 282.897 1261.24 292.699C1259.74 298.691 1256.53 303.5 1251.86 307.421C1248.79 309.973 1245.61 312.451 1242.58 315.041C1230.79 325.176 1219.98 336.236 1212.49 350.144C1201.17 371.117 1203.84 390.389 1220.78 407.034C1225.6 411.769 1230.97 416.06 1236.63 419.721C1255.76 432.113 1275.15 431.965 1294.43 419.796C1304.4 413.507 1312.77 405.406 1320.58 396.603C1325.11 391.498 1330.73 388.946 1337.49 389.945C1346.76 391.313 1353.3 396.566 1356.88 405.37C1358.12 408.477 1359.03 411.732 1360.13 414.913C1365.06 429.228 1370.43 443.321 1379.26 455.786C1389.82 470.656 1403.25 477.537 1421.73 473.098C1445.21 467.475 1459.49 451.977 1462.45 427.674C1464.31 412.509 1462.08 397.75 1458.91 382.991C1458.07 379.07 1457.92 374.594 1458.94 370.784C1462.41 357.653 1477.02 351.476 1489.65 357.283C1496.99 360.686 1504.22 364.385 1511.75 367.381C1526.28 373.152 1541.22 376.998 1557.1 374.964C1582.37 371.746 1601.39 346.445 1597.16 321.477C1595.37 310.972 1590.51 301.724 1584.2 293.402C1578.13 285.412 1571.71 277.681 1565.1 270.135C1553.16 256.375 1556.59 239.988 1572.88 232.554C1583.14 227.856 1593.54 223.232 1603.11 217.277C1616.51 208.917 1621.33 195.749 1617.24 180.324C1610.67 155.615 1594.57 139.117 1571.67 129.463C1554.47 122.213 1536.98 124.063 1519.67 129.648C1505.43 134.272 1492.47 141.485 1479.68 149.179C1469.93 155.023 1458.76 152.656 1451.86 143.556C1447.22 137.453 1446.13 130.684 1447.99 123.212C1451.38 109.563 1453.5 95.7655 1451.79 81.5984C1449.52 62.9926 1439.19 50.5641 1421.55 46.3103C1415.67 44.9047 1409.54 44.6088 1403.4 43.758L1403.44 43.7951Z" fill="#5D77F4" fill-opacity="0.7"/>
<path d="M1479 259.17C1478.82 304.534 1442.32 341.298 1397.8 341.003C1352.92 340.708 1316.64 303.722 1317 258.69C1317.4 213.363 1353.54 176.931 1398.05 177.005C1442.83 177.079 1479.18 213.99 1479 259.133V259.17Z" fill="#333333" fill-opacity="0.9"/>
<path d="M1088.4 2485.81C1079.67 2479.22 1071.05 2473.12 1062.87 2466.46C1047.68 2454.07 1034.17 2440.09 1024.75 2422.52C1011.35 2397.51 1011.64 2372.66 1026.39 2348.43C1041.44 2323.68 1061.08 2303.67 1087.3 2291.06C1114.84 2277.78 1143.5 2276.33 1172.9 2283.18C1174.5 2283.55 1176.11 2283.92 1177.72 2284.29C1178.34 2277.44 1178.74 2270.86 1179.62 2264.35C1182.9 2239.97 1195.79 2222.59 1217.12 2210.97C1239.32 2198.88 1262.62 2191.63 1288 2193.22C1306.07 2194.37 1323.46 2198.62 1339.41 2207.57C1364.28 2221.52 1376.84 2243.56 1379.91 2271.67C1380.39 2276 1380.53 2280.37 1380.82 2285.21C1381.99 2284.84 1383.09 2284.51 1384.18 2284.14C1404.93 2276.89 1426.11 2272.89 1448.12 2275.11C1482.09 2278.52 1507.65 2295.72 1526.09 2324.35C1534.12 2336.81 1540.66 2350.02 1543.95 2364.63C1549.9 2391.15 1542.81 2414.01 1524.04 2432.95C1517.21 2439.87 1509 2445.38 1501.4 2451.52C1500.45 2452.26 1499.39 2452.85 1498.3 2453.55C1502.21 2459.88 1506.15 2465.94 1509.73 2472.2C1518.09 2486.88 1524.52 2502.34 1526.6 2519.28C1529.89 2545.92 1520.43 2567.33 1500.27 2584.31C1468.72 2610.94 1433.08 2616.42 1394.23 2605.47C1393.39 2605.25 1392.55 2605.03 1391.38 2604.73C1391.09 2609.98 1390.98 2615.09 1390.5 2620.15C1388.53 2642.05 1381.96 2662.21 1366.98 2678.52C1346.79 2700.53 1321.63 2712.15 1291.8 2712C1275.25 2711.93 1261.2 2704.64 1248.85 2693.91C1233.77 2680.82 1223.36 2664.25 1214.56 2646.49C1214.12 2645.6 1213.65 2644.68 1213.18 2643.83C1213.07 2643.64 1212.85 2643.57 1212.55 2643.38C1208.43 2646.08 1204.37 2648.97 1200.1 2651.56C1183.09 2661.84 1164.83 2667.5 1144.78 2666.35C1129.66 2665.5 1115.71 2660.73 1102.79 2652.89C1085.44 2642.31 1071.05 2628.44 1059.91 2611.39C1043.23 2585.79 1043.15 2559.01 1055.57 2531.67C1063.02 2515.29 1073.83 2501.27 1086.06 2488.32C1086.83 2487.51 1087.56 2486.7 1088.32 2485.84L1088.4 2485.81ZM1288.44 2236.79C1281.21 2237.75 1273.87 2238.2 1266.75 2239.75C1244.8 2244.49 1230.01 2257.21 1224.79 2279.96C1222.45 2290.21 1222.12 2300.64 1223.33 2311.07C1224.46 2320.65 1220.81 2328.01 1213.58 2333.59C1206.42 2339.14 1198.61 2339.22 1190.39 2335.63C1181.55 2331.78 1172.71 2327.82 1163.55 2324.94C1147.48 2319.83 1131.09 2318.47 1114.98 2324.79C1097.42 2331.71 1082.52 2342.66 1070.8 2357.68C1056.23 2376.39 1056.01 2395.15 1069.66 2414.6C1076.64 2424.52 1085.44 2432.62 1095.59 2438.9C1108.99 2447.23 1122.8 2454.81 1136.45 2462.65C1145.14 2467.65 1148.69 2475.89 1146.24 2485.7C1144.74 2491.69 1141.53 2496.5 1136.86 2500.42C1133.79 2502.97 1130.61 2505.45 1127.58 2508.04C1115.79 2518.17 1104.98 2529.23 1097.49 2543.14C1086.17 2564.11 1088.84 2583.39 1105.78 2600.03C1110.6 2604.77 1115.97 2609.06 1121.63 2612.72C1140.76 2625.11 1160.15 2624.96 1179.43 2612.79C1189.4 2606.5 1197.77 2598.4 1205.58 2589.6C1210.11 2584.5 1215.73 2581.94 1222.49 2582.94C1231.76 2584.31 1238.3 2589.56 1241.88 2598.37C1243.12 2601.47 1244.03 2604.73 1245.13 2607.91C1250.06 2622.23 1255.43 2636.32 1264.26 2648.78C1274.82 2663.65 1288.25 2670.53 1306.73 2666.1C1330.21 2660.47 1344.49 2644.97 1347.45 2620.67C1349.31 2605.51 1347.08 2590.75 1343.91 2575.99C1343.07 2572.07 1342.92 2567.59 1343.94 2563.78C1347.41 2550.65 1362.02 2544.47 1374.65 2550.28C1381.99 2553.68 1389.22 2557.38 1396.75 2560.38C1411.28 2566.15 1426.21 2570 1442.1 2567.96C1467.37 2564.74 1486.39 2539.44 1482.16 2514.47C1480.37 2503.97 1475.51 2494.72 1469.2 2486.4C1463.13 2478.41 1456.71 2470.68 1450.1 2463.13C1438.16 2449.37 1441.59 2432.99 1457.87 2425.55C1468.14 2420.85 1478.54 2416.23 1488.11 2410.27C1501.51 2401.91 1506.33 2388.75 1502.24 2373.32C1495.67 2348.61 1479.57 2332.12 1456.67 2322.46C1439.47 2315.21 1421.98 2317.06 1404.67 2322.65C1390.43 2327.27 1377.46 2334.48 1364.68 2342.18C1354.93 2348.02 1343.76 2345.65 1336.86 2336.55C1332.22 2330.45 1331.12 2323.68 1332.99 2316.21C1336.38 2302.56 1338.5 2288.76 1336.79 2274.6C1334.52 2255.99 1324.19 2243.56 1306.55 2239.31C1300.67 2237.9 1294.54 2237.61 1288.4 2236.76L1288.44 2236.79Z" fill="#5D77F4" fill-opacity="0.7"/>
<path d="M1364 2452.17C1363.82 2497.53 1327.32 2534.3 1282.8 2534C1237.92 2533.71 1201.64 2496.72 1202 2451.69C1202.4 2406.36 1238.54 2369.93 1283.05 2370C1327.83 2370.08 1364.18 2406.99 1364 2452.13V2452.17Z" fill="#333333" fill-opacity="0.9"/>
<path d="M458.209 2870.19C470.396 2883.08 481.127 2897.05 488.585 2913.37C500.991 2940.6 500.881 2967.28 484.256 2992.78C473.16 3009.76 458.827 3023.62 441.547 3034.12C428.669 3041.93 414.772 3046.68 399.711 3047.53C379.775 3048.67 361.585 3043 344.596 3032.79C340.34 3030.25 336.301 3027.38 332.191 3024.65C331.9 3024.83 331.681 3024.91 331.572 3025.09C331.099 3025.98 330.626 3026.86 330.19 3027.75C321.422 3045.43 311.018 3061.94 296.03 3074.98C283.733 3085.67 269.727 3092.93 253.248 3093C223.526 3093.15 198.46 3081.54 178.342 3059.66C163.427 3043.41 156.842 3023.29 154.914 3001.51C154.478 2996.46 154.332 2991.38 154.041 2986.14C152.877 2986.44 152.04 2986.66 151.204 2986.88C112.496 2997.83 76.9897 2992.34 45.558 2965.81C25.4766 2948.89 16.0544 2927.56 19.3285 2901.03C21.4022 2884.12 27.8049 2868.71 36.1358 2854.12C39.701 2847.89 43.6663 2841.85 47.5225 2835.55C46.4311 2834.85 45.3397 2834.26 44.4303 2833.52C36.8634 2827.41 28.678 2821.92 21.8751 2815.03C3.17612 2796.12 -3.88146 2773.35 2.04836 2746.97C5.3225 2732.42 11.8344 2719.26 19.8378 2706.84C38.2458 2678.32 63.6749 2661.19 97.5077 2657.8C119.444 2655.59 140.544 2659.57 161.208 2666.79C162.263 2667.16 163.354 2667.49 164.555 2667.86C164.882 2663.03 164.991 2658.68 165.464 2654.37C168.484 2626.37 181.035 2604.41 205.809 2590.52C221.707 2581.6 239.023 2577.33 257.031 2576.22C282.351 2574.64 305.561 2581.86 327.643 2593.91C348.852 2605.44 361.731 2622.76 365.005 2647.08C365.878 2653.56 366.242 2660.16 366.896 2666.94C368.534 2666.57 370.134 2666.2 371.699 2665.83C400.984 2659.02 429.542 2660.45 456.972 2673.68C483.092 2686.25 502.664 2706.22 517.652 2730.83C532.35 2754.97 532.641 2779.76 519.289 2804.64C509.904 2822.1 496.443 2836.07 481.309 2848.41C473.16 2855.04 464.575 2861.12 455.88 2867.68C456.644 2868.53 457.372 2869.34 458.136 2870.15L458.209 2870.19ZM238.587 2622.21C221.052 2626.44 210.72 2638.82 208.465 2657.36C206.755 2671.47 208.865 2685.21 212.248 2698.81C214.103 2706.25 213.012 2713 208.392 2719.08C201.516 2728.14 190.348 2730.5 180.671 2724.68C167.938 2717.05 155.023 2709.83 140.835 2705.22C123.592 2699.62 106.13 2697.82 89.0313 2705.04C66.2215 2714.65 50.1782 2731.09 43.6299 2755.7C39.5554 2771.07 44.3575 2784.19 57.7087 2792.51C67.2401 2798.45 77.6082 2803.05 87.8308 2807.73C104.056 2815.14 107.476 2831.5 95.5796 2845.17C89.0313 2852.72 82.5922 2860.39 76.5532 2868.34C70.2596 2876.64 65.4211 2885.85 63.6385 2896.31C59.4185 2921.18 78.4085 2946.39 103.547 2949.59C119.372 2951.62 134.251 2947.79 148.73 2942.04C156.224 2939.05 163.391 2935.37 170.739 2931.98C183.363 2926.16 197.878 2932.35 201.334 2945.43C202.353 2949.22 202.207 2953.68 201.371 2957.59C198.206 2972.29 196.023 2987.03 197.842 3002.1C200.789 3026.27 215.049 3041.71 238.405 3047.35C256.813 3051.77 270.237 3044.92 280.714 3030.1C289.518 3017.72 294.865 3003.65 299.777 2989.39C300.868 2986.22 301.741 2982.98 303.014 2979.88C306.58 2971.11 313.091 2965.88 322.332 2964.52C329.062 2963.52 334.664 2966.06 339.175 2971.15C346.961 2979.88 355.291 2987.99 365.223 2994.25C384.431 3006.37 403.749 3006.52 422.811 2994.18C428.45 2990.53 433.798 2986.26 438.6 2981.54C455.444 2964.96 458.136 2945.76 446.858 2924.87C439.364 2911.01 428.632 2900 416.882 2889.9C413.862 2887.28 410.697 2884.85 407.641 2882.31C403.021 2878.44 399.783 2873.61 398.292 2867.64C395.818 2857.92 399.383 2849.66 408.042 2844.69C421.647 2836.88 435.435 2829.32 448.75 2821.03C458.863 2814.77 467.631 2806.7 474.579 2796.82C488.185 2777.41 487.967 2758.76 473.451 2740.12C461.81 2725.16 446.931 2714.25 429.433 2707.36C413.426 2701.06 397.055 2702.46 381.048 2707.51C371.917 2710.38 363.113 2714.32 354.309 2718.16C346.124 2721.73 338.339 2721.66 331.208 2716.13C324.005 2710.56 320.367 2703.2 321.495 2693.69C322.696 2683.3 322.368 2672.91 320.04 2662.7C314.874 2640.04 300.14 2627.33 278.24 2622.65C271.146 2621.14 263.87 2620.66 256.631 2619.7C250.519 2620.51 244.407 2620.81 238.55 2622.24L238.587 2622.21Z" fill="#E86795" fill-opacity="0.7"/>
<path d="M181.002 2835.17C181.184 2880.53 217.682 2917.3 262.201 2917C307.084 2916.71 343.363 2879.72 342.998 2834.69C342.597 2789.36 306.465 2752.93 261.946 2753C217.171 2753.08 180.82 2789.99 181.002 2835.13V2835.17Z" fill="#333333" fill-opacity="0.9"/>
<path d="M461.206 1771.19C473.393 1784.09 484.125 1798.05 491.583 1814.38C503.988 1841.61 503.879 1868.28 487.253 1893.78C476.158 1910.77 461.824 1924.62 444.544 1935.13C431.666 1942.94 417.769 1947.69 402.708 1948.54C382.772 1949.68 364.582 1944.01 347.593 1933.8C343.337 1931.26 339.299 1928.38 335.188 1925.66C334.897 1925.84 334.679 1925.91 334.569 1926.1C334.097 1926.98 333.624 1927.87 333.187 1928.75C324.42 1946.44 314.015 1962.95 299.027 1975.99C286.731 1986.67 272.725 1993.93 256.245 1994.01C226.523 1994.15 201.458 1982.55 181.34 1960.66C166.424 1944.41 159.84 1924.29 157.912 1902.52C157.475 1897.47 157.329 1892.38 157.038 1887.15C155.874 1887.45 155.038 1887.67 154.201 1887.89C115.493 1898.83 79.9871 1893.34 48.5553 1866.81C28.474 1849.9 19.0517 1828.56 22.3258 1802.03C24.3995 1785.12 30.8022 1769.72 39.1331 1755.13C42.6983 1748.9 46.6636 1742.86 50.5198 1736.56C49.4284 1735.86 48.3371 1735.27 47.4276 1734.53C39.8607 1728.41 31.6753 1722.92 24.8724 1716.03C6.17344 1697.13 -0.88415 1674.36 5.04568 1647.98C8.31982 1633.42 14.8317 1620.27 22.8352 1607.85C41.2431 1579.33 66.6722 1562.2 100.505 1558.81C122.442 1556.59 143.542 1560.57 164.205 1567.8C165.26 1568.16 166.352 1568.5 167.552 1568.86C167.879 1564.04 167.989 1559.69 168.462 1555.38C171.481 1527.37 184.032 1505.41 208.806 1491.52C224.704 1482.61 242.021 1478.33 260.028 1477.23C285.348 1475.64 308.558 1482.86 330.641 1494.91C351.85 1506.45 364.728 1523.76 368.002 1548.08C368.875 1554.57 369.239 1561.16 369.894 1567.94C371.531 1567.57 373.132 1567.21 374.696 1566.84C403.981 1560.02 432.539 1561.46 459.969 1574.69C486.089 1587.25 505.661 1607.22 520.65 1631.84C535.347 1655.97 535.638 1680.77 522.287 1705.64C512.901 1723.11 499.44 1737.07 484.307 1749.42C476.158 1756.05 467.572 1762.13 458.878 1768.69C459.642 1769.53 460.369 1770.34 461.133 1771.16L461.206 1771.19ZM241.584 1523.21C224.049 1527.45 213.717 1539.83 211.462 1558.36C209.752 1572.48 211.862 1586.22 215.245 1599.82C217.101 1607.26 216.009 1614 211.389 1620.08C204.513 1629.15 193.345 1631.5 183.668 1625.68C170.935 1618.06 158.021 1610.83 143.833 1606.23C126.589 1600.63 109.127 1598.82 92.0286 1606.04C69.2188 1615.66 53.1755 1632.09 46.6272 1656.71C42.5527 1672.07 47.3548 1685.19 60.706 1693.52C70.2374 1699.45 80.6055 1704.06 90.8281 1708.74C107.053 1716.14 110.473 1732.5 98.5769 1746.17C92.0286 1753.73 85.5895 1761.39 79.5505 1769.35C73.2569 1777.64 68.4184 1786.85 66.6359 1797.32C62.4159 1822.19 81.4059 1847.39 106.544 1850.6C122.369 1852.62 137.248 1848.79 151.727 1843.04C159.221 1840.06 166.388 1836.38 173.737 1832.99C186.36 1827.16 200.876 1833.35 204.332 1846.43C205.35 1850.23 205.205 1854.69 204.368 1858.59C201.203 1873.3 199.02 1888.03 200.839 1903.11C203.786 1927.28 218.047 1942.72 241.402 1948.35C259.81 1952.78 273.234 1945.92 283.711 1931.11C292.515 1918.73 297.863 1904.65 302.774 1890.39C303.865 1887.22 304.738 1883.98 306.012 1880.89C309.577 1872.12 316.089 1866.88 325.329 1865.52C332.059 1864.53 337.662 1867.07 342.173 1872.15C349.958 1880.89 358.289 1888.99 368.22 1895.26C387.429 1907.38 406.746 1907.53 425.809 1895.18C431.448 1891.54 436.795 1887.26 441.597 1882.54C458.441 1865.96 461.133 1846.77 449.856 1825.87C442.361 1812.02 431.629 1801 419.879 1790.91C416.859 1788.29 413.694 1785.86 410.639 1783.32C406.018 1779.45 402.781 1774.62 401.289 1768.65C398.815 1758.92 402.381 1750.67 411.039 1745.69C424.645 1737.88 438.432 1730.33 451.747 1722.04C461.861 1715.77 470.628 1707.7 477.577 1697.83C491.182 1678.41 490.964 1659.77 476.449 1641.12C464.807 1626.16 449.928 1615.26 432.43 1608.36C416.423 1602.06 400.052 1603.46 384.045 1608.51C374.914 1611.39 366.11 1615.33 357.307 1619.16C349.121 1622.74 341.336 1622.66 334.206 1617.13C327.003 1611.57 323.365 1604.2 324.492 1594.69C325.693 1584.3 325.366 1573.91 323.037 1563.71C317.871 1541.04 303.138 1528.33 281.237 1523.65C274.143 1522.14 266.868 1521.66 259.628 1520.71C253.516 1521.52 247.405 1521.81 241.548 1523.25L241.584 1523.21Z" fill="#E86795" fill-opacity="0.7"/>
<path d="M183.999 1736.18C184.182 1781.54 220.679 1818.3 265.198 1818.01C310.082 1817.71 346.361 1780.73 345.996 1735.7C345.595 1690.37 309.462 1653.94 264.943 1654.01C220.169 1654.08 183.817 1691 183.999 1736.14V1736.18Z" fill="#333333" fill-opacity="0.9"/>
<path d="M472.209 671.191C484.396 684.087 495.128 698.052 502.585 714.376C514.991 741.606 514.882 768.283 498.256 793.781C487.161 810.768 472.827 824.622 455.547 835.124C442.669 842.935 428.772 847.689 413.711 848.536C393.775 849.679 375.585 844.004 358.596 833.797C354.34 831.255 350.302 828.381 346.191 825.654C345.9 825.838 345.681 825.912 345.572 826.096C345.099 826.981 344.626 827.865 344.19 828.749C335.422 846.436 325.018 862.944 310.03 875.987C297.733 886.673 283.727 893.932 267.248 894.006C237.526 894.153 212.46 882.546 192.343 860.659C177.427 844.409 170.842 824.291 168.914 802.514C168.478 797.466 168.332 792.381 168.041 787.149C166.877 787.444 166.04 787.665 165.204 787.886C126.496 798.829 90.9899 793.339 59.5581 766.809C39.4768 749.896 30.0545 728.562 33.3287 702.032C35.4023 685.119 41.805 669.717 50.1359 655.125C53.7011 648.898 57.6664 642.855 61.5226 636.554C60.4312 635.854 59.3399 635.265 58.4304 634.528C50.8635 628.411 42.6781 622.921 35.8752 616.031C17.1762 597.128 10.1187 574.356 16.0485 547.974C19.3226 533.419 25.8345 520.265 33.838 507.847C52.2459 479.327 77.675 462.193 111.508 458.803C133.445 456.593 154.545 460.572 175.208 467.794C176.263 468.163 177.354 468.494 178.555 468.863C178.882 464.036 178.991 459.688 179.464 455.377C182.484 427.373 195.035 405.412 219.809 391.521C235.707 382.604 253.023 378.329 271.031 377.224C296.351 375.639 319.561 382.861 341.643 394.91C362.852 406.444 375.731 423.762 379.005 448.081C379.878 454.566 380.242 461.162 380.897 467.942C382.534 467.573 384.134 467.205 385.699 466.836C414.984 460.02 443.542 461.457 470.972 474.685C497.092 487.25 516.664 507.221 531.652 531.835C546.35 555.97 546.641 580.768 533.289 605.64C523.904 623.105 510.443 637.07 495.309 649.414C487.161 656.047 478.575 662.126 469.88 668.685C470.644 669.533 471.372 670.343 472.136 671.154L472.209 671.191ZM252.587 423.209C235.052 427.447 224.72 439.827 222.465 458.361C220.755 472.474 222.865 486.218 226.248 499.814C228.103 507.258 227.012 514.001 222.392 520.08C215.516 529.145 204.348 531.503 194.671 525.681C181.938 518.054 169.023 510.832 154.836 506.226C137.592 500.625 120.13 498.82 103.031 506.042C80.2216 515.659 64.1783 532.093 57.63 556.706C53.5556 572.072 58.3576 585.189 71.7088 593.517C81.2402 599.449 91.6083 604.055 101.831 608.735C118.056 616.141 121.476 632.501 109.58 646.171C103.031 653.725 96.5923 661.389 90.5533 669.348C84.2597 677.639 79.4212 686.851 77.6387 697.315C73.4187 722.187 92.4087 747.391 117.547 750.596C133.372 752.623 148.251 748.791 162.73 743.043C170.224 740.058 177.391 736.373 184.739 732.983C197.363 727.162 211.878 733.352 215.334 746.433C216.353 750.228 216.207 754.686 215.371 758.592C212.206 773.294 210.023 788.033 211.842 803.104C214.789 827.275 229.049 842.714 252.405 848.352C270.813 852.774 284.237 845.92 294.714 831.108C303.518 818.727 308.866 804.651 313.777 790.391C314.868 787.223 315.741 783.98 317.015 780.885C320.58 772.115 327.092 766.883 336.332 765.52C343.062 764.525 348.665 767.067 353.176 772.152C360.961 780.885 369.292 788.991 379.223 795.255C398.431 807.378 417.749 807.525 436.812 795.182C442.45 791.534 447.798 787.259 452.6 782.543C469.444 765.962 472.136 746.764 460.858 725.872C453.364 712.017 442.632 701 430.882 690.904C427.862 688.288 424.697 685.856 421.641 683.314C417.021 679.445 413.784 674.618 412.292 668.648C409.818 658.921 413.383 650.667 422.042 645.692C435.647 637.881 449.435 630.327 462.75 622.037C472.863 615.773 481.631 607.703 488.579 597.828C502.185 578.41 501.967 559.765 487.452 541.12C475.81 526.16 460.931 515.253 443.433 508.363C427.426 502.062 411.055 503.462 395.048 508.51C385.917 511.385 377.113 515.327 368.309 519.159C360.124 522.733 352.339 522.66 345.208 517.133C338.005 511.569 334.367 504.199 335.495 494.693C336.696 484.302 336.368 473.911 334.04 463.704C328.874 441.043 314.141 428.331 292.24 423.651C285.146 422.141 277.87 421.662 270.631 420.704C264.519 421.514 258.407 421.809 252.55 423.246L252.587 423.209Z" fill="#E86795" fill-opacity="0.7"/>
<path d="M195.002 636.174C195.184 681.539 231.682 718.302 276.201 718.007C321.085 717.712 357.363 680.727 356.999 635.694C356.598 590.367 320.465 553.935 275.946 554.009C231.172 554.083 194.82 590.994 195.002 636.137V636.174Z" fill="#333333" fill-opacity="0.9"/>
</svg>
