<svg width="63" height="106" viewBox="0 0 63 106" fill="none" xmlns="http://www.w3.org/2000/svg">
<g clip-path="url(#clip0_497_357)">
<path d="M20.0897 52.6932C23.9885 48.8869 27.7614 45.198 31.5343 41.5032C41.7373 31.5273 51.9462 21.5455 62.1492 11.5696C63.9487 9.81013 63.9547 7.99206 62.1732 6.23264C60.5837 4.66088 58.9761 3.11259 57.3806 1.5467C55.4672 -0.324151 53.6737 -0.335881 51.7423 1.5467C45.1802 7.95101 38.6302 14.3612 32.0741 20.7713C22.1831 30.454 12.286 40.125 2.39494 49.8077C0.301557 51.8545 0.313554 53.5084 2.41893 55.5669C18.8061 71.5894 35.1992 87.6119 51.5743 103.646C52.774 104.819 54.0576 105.622 55.7911 104.913C56.3429 104.684 56.8468 104.285 57.2786 103.875C58.9401 102.297 60.5717 100.684 62.1972 99.0716C63.9367 97.3473 63.9307 95.5234 62.1672 93.7992C50.2847 82.1752 38.4022 70.5572 26.5138 58.9391C24.4024 56.8747 22.273 54.8279 20.0837 52.7049L20.0897 52.6932Z" fill="#333333"/>
</g>
<defs>
<clipPath id="clip0_497_357">
<rect width="62.6634" height="105.038" fill="white" transform="translate(0.000427246 0.135742)"/>
</clipPath>
</defs>
</svg>
