<svg width="63" height="106" viewBox="0 0 63 106" fill="none" xmlns="http://www.w3.org/2000/svg">
<g clip-path="url(#clip0_497_354)">
<path d="M43.7561 52.6551C39.8572 48.8489 36.0843 45.1599 32.3115 41.4651C22.1025 31.4892 11.8995 21.5133 1.69655 11.5315C-0.10292 9.77204 -0.108918 7.95397 1.67255 6.19455C3.26208 4.6228 4.8696 3.0745 6.46513 1.50862C8.37856 -0.362237 10.172 -0.373967 12.1035 1.50862C18.6655 7.91292 25.2156 14.3231 31.7716 20.7333C41.6627 30.4101 51.5597 40.0811 61.4508 49.7579C63.5442 51.8047 63.5322 53.4585 61.4268 55.5171C45.0397 71.5396 28.6465 87.562 12.2714 103.596C11.0718 104.769 9.78814 105.573 8.05466 104.863C7.50282 104.634 6.99897 104.236 6.5671 103.825C4.90559 102.247 3.27408 100.635 1.64856 99.0218C-0.0909232 97.2975 -0.084925 95.4736 1.67855 93.7493C13.561 82.1254 25.4435 70.5074 37.332 58.8893C39.4433 56.8249 41.5727 54.7781 43.7621 52.6551H43.7561Z" fill="#333333"/>
</g>
<defs>
<clipPath id="clip0_497_354">
<rect width="62.6634" height="105.038" fill="white" transform="translate(0.338623 0.0986328)"/>
</clipPath>
</defs>
</svg>
