<svg width="64" height="64" viewBox="0 0 64 64" fill="none" xmlns="http://www.w3.org/2000/svg">
<path d="M64 32C64 14.3269 49.6731 0 32 0C14.3269 0 0 14.3269 0 32C0 49.6731 14.3269 64 32 64C49.6731 64 64 49.6731 64 32Z" fill="#4F4F4F"/>
<path fill-rule="evenodd" clip-rule="evenodd" d="M38.4286 17H25.5714C20.8376 17 17 20.8376 17 25.5714V38.4286C17 43.1624 20.8376 47 25.5714 47H38.4286C43.1624 47 47 43.1624 47 38.4286V25.5714C47 20.8376 43.1624 17 38.4286 17Z" stroke="#FCE6FB" stroke-width="2.13333" stroke-linecap="round" stroke-linejoin="round"/>
<path fill-rule="evenodd" clip-rule="evenodd" d="M32 38.4284C28.4495 38.4284 25.5714 35.5504 25.5714 31.9999C25.5714 28.4494 28.4495 25.5713 32 25.5713C35.5505 25.5713 38.4286 28.4494 38.4286 31.9999C38.4286 33.7047 37.7512 35.3399 36.5456 36.5455C35.3401 37.7511 33.7048 38.4284 32 38.4284Z" stroke="#FCE6FB" stroke-width="2.13333" stroke-linecap="round" stroke-linejoin="round"/>
<path d="M40.5714 21.2856C39.3879 21.2856 38.4285 22.245 38.4285 23.4284C38.4285 24.6119 39.3879 25.5713 40.5714 25.5713C41.7549 25.5713 42.7142 24.6119 42.7142 23.4284C42.7142 22.245 41.7549 21.2856 40.5714 21.2856Z" fill="#F6D6E0"/>
<path d="M40.5714 22.3571C39.9797 22.3571 39.5 22.8368 39.5 23.4286C39.5 24.0203 39.9797 24.5 40.5714 24.5C41.1632 24.5 41.6429 24.0203 41.6429 23.4286C41.6429 22.8368 41.1632 22.3571 40.5714 22.3571Z" stroke="#FCE6FB" stroke-width="2.13333" stroke-linecap="round"/>
</svg>
