<svg width="465" height="78" viewBox="0 0 465 78" fill="none" xmlns="http://www.w3.org/2000/svg">
<path d="M121.2 42.5696C123.49 42.3803 125.311 44.4061 125.01 46.7159C124.673 49.3476 124.016 51.79 123.04 54.043C121.538 57.5266 119.492 60.4801 116.902 62.9036C114.311 65.327 111.289 67.1824 107.854 68.4698C104.419 69.7573 100.741 70.4199 96.8551 70.4199C92.5943 70.4199 88.7651 69.7005 85.3302 68.2426C81.8952 66.7848 78.9671 64.759 76.5457 62.1652C74.1244 59.5714 72.2661 56.4853 70.9522 52.907C69.6383 49.3287 69.0001 45.4285 69.0001 41.1875C69.0001 36.9466 69.6946 33.3115 71.0648 29.7521C72.4538 26.1927 74.3684 23.1067 76.8461 20.475C79.305 17.8433 82.2519 15.7607 85.6681 14.2461C89.0842 12.7314 92.8195 11.9741 96.8739 11.9741C99.6519 11.9741 102.336 12.2581 104.908 12.8072C107.479 13.3562 109.919 14.3029 112.247 15.6092C114.574 16.9345 116.752 18.6764 118.779 20.8347C119.698 21.8192 120.562 22.8984 121.407 24.0722C122.946 26.2306 121.613 29.2977 119.004 29.6953L114.518 30.3579C112.678 30.623 110.895 29.4492 110.539 27.6127C110.351 26.6092 110.088 25.6437 109.769 24.7349C109.112 22.8795 108.192 21.2702 107.029 19.9259C105.865 18.5817 104.457 17.5404 102.805 16.7831C101.172 16.0258 99.314 15.6471 97.268 15.6471C95.0719 15.6471 93.0823 16.0258 91.3367 16.7641C89.591 17.5025 88.0143 18.506 86.6441 19.7934C85.2739 21.0808 84.0914 22.5576 83.1153 24.2426C82.1205 25.9276 81.3134 27.7263 80.6752 29.6006C80.037 31.4939 79.5677 33.4251 79.2674 35.413C78.9671 37.401 78.8169 39.3132 78.8169 41.1686C78.8169 43.1376 78.9483 45.1445 79.2111 47.1514C79.4739 49.1772 79.9056 51.1273 80.5063 53.0395C81.1069 54.9328 81.8765 56.7125 82.8338 58.3597C83.791 60.0068 84.9548 61.4457 86.325 62.6953C87.6952 63.9259 89.2907 64.9104 91.0926 65.611C92.8946 66.3304 94.9593 66.6901 97.2868 66.6901C99.9334 66.6901 102.298 66.1411 104.382 65.043C106.465 63.9449 108.249 62.506 109.694 60.7073C111.139 58.9087 112.265 56.864 113.035 54.5542C113.805 52.2443 114.199 49.8967 114.199 47.4733V46.9621C112.359 47.2271 110.482 47.6058 108.568 48.0791C106.653 48.5524 104.776 49.1583 102.955 49.9156C101.135 50.6729 99.4078 51.5817 97.7748 52.6609C97.7748 52.6609 97.7373 52.6798 97.7185 52.6987C95.56 54.1187 92.6693 52.9827 92.2001 50.4268L91.9561 49.1015C91.5619 46.9999 93.0447 45.0309 95.147 44.8605L121.275 42.6454L121.2 42.5696Z" fill="#FCE6FB" stroke="#333333" stroke-width="0.5" stroke-miterlimit="10"/>
<path d="M148.379 57.3374C146.446 57.3374 144.531 57.0913 142.636 56.5801C140.74 56.0689 139.032 55.2737 137.493 54.1567C137.511 55.1223 137.568 56.1068 137.68 57.1102C137.774 58.1137 137.943 59.0982 138.168 60.0448C138.394 60.9914 138.713 61.8813 139.088 62.7333C139.463 63.5663 139.951 64.3047 140.552 64.9295C141.153 65.5543 141.866 66.0655 142.711 66.4252C143.555 66.7849 144.569 66.9742 145.733 66.9742C146.84 66.9742 147.854 66.766 148.811 66.3684C149.768 65.9708 150.594 65.4217 151.326 64.7212C152.039 64.0396 152.64 63.2255 153.109 62.2789C153.241 62.0138 153.372 61.7298 153.485 61.4458C153.973 60.1963 155.324 59.5336 156.638 59.8365L158.872 60.3477C161.068 60.84 161.875 63.6989 160.148 65.1567C160.148 65.1567 160.129 65.1756 160.111 65.1945C158.834 66.2548 157.408 67.1068 155.831 67.7694C154.273 68.4131 152.64 68.9054 150.932 69.1894C149.224 69.4923 147.61 69.6248 146.033 69.6248C143.217 69.6248 140.721 69.2083 138.525 68.3753C136.329 67.5422 134.471 66.3305 132.969 64.7591C131.467 63.1877 130.322 61.2565 129.515 59.0035C128.727 56.7505 128.333 54.2135 128.333 51.4114C128.333 48.6093 128.802 46.0913 129.722 43.6679C130.641 41.2445 131.937 39.124 133.607 37.3254C135.259 35.5267 137.267 34.1068 139.595 33.0465C141.922 32.0052 144.494 31.4751 147.309 31.4751C149.355 31.4751 151.401 31.7212 153.428 32.2324C155.456 32.7436 157.276 33.5198 158.891 34.599C160.505 35.6782 161.8 37.0414 162.795 38.7264C163.79 40.4114 164.278 42.4183 164.278 44.7849C164.278 47.1515 163.827 49.0637 162.907 50.6541C161.988 52.2445 160.786 53.5319 159.304 54.5353C157.821 55.5388 156.113 56.2582 154.217 56.6937C152.321 57.1291 150.369 57.3563 148.379 57.3563V57.3374ZM146.803 34.2014C145.676 34.2014 144.682 34.4286 143.818 34.883C142.955 35.3374 142.185 35.9622 141.509 36.7574C140.834 37.5525 140.271 38.4424 139.801 39.4648C139.332 40.4682 138.938 41.5285 138.638 42.6455C138.318 43.7625 138.074 44.8796 137.906 46.0155C137.793 46.8107 137.699 47.5491 137.643 48.2686C137.586 48.8744 137.737 49.4992 138.093 49.9914C138.957 51.241 140.008 52.2823 141.284 53.1343C142.823 54.1567 144.606 54.6679 146.634 54.6679C147.929 54.6679 149.093 54.3649 150.125 53.7591C151.157 53.1532 152.021 52.377 152.734 51.4114C153.447 50.4458 153.992 49.3856 154.367 48.1928C154.742 47.019 154.93 45.8262 154.93 44.6334C154.93 43.4407 154.761 42.229 154.423 40.9983C154.085 39.7488 153.579 38.6317 152.903 37.6283C152.227 36.6248 151.382 35.8107 150.369 35.167C149.355 34.5233 148.173 34.2014 146.84 34.2014H146.803Z" fill="#FCE6FB" stroke="#333333" stroke-width="0.5" stroke-miterlimit="10"/>
<path d="M181.546 18.2033L181.208 29.7145C181.19 30.5854 181.884 31.3049 182.747 31.3049H188.303C189.148 31.3049 189.843 32.0054 189.843 32.8574C189.843 33.7093 189.148 34.4099 188.303 34.4099H182.579C181.753 34.4099 181.058 35.0725 181.039 35.9245L180.138 66.5768C180.12 67.3531 179.519 67.9968 178.749 68.0725L175.014 68.4133C174.132 68.489 173.344 67.8074 173.325 66.8987L172.687 35.9245C172.687 35.0725 171.992 34.4099 171.147 34.4099H165.179C164.334 34.4099 163.639 33.7093 163.639 32.8574C163.639 32.0054 164.334 31.3049 165.179 31.3049H171.016C171.88 31.3049 172.574 30.5854 172.555 29.7334L172.386 19.7558C172.386 19.0364 172.856 18.3926 173.55 18.2222L179.632 16.6697C180.626 16.4236 181.584 17.1809 181.546 18.2222V18.2033Z" fill="#FCE6FB" stroke="#333333" stroke-width="0.5" stroke-miterlimit="10"/>
<path d="M249.438 41.5663C249.4 42.9673 248.218 44.0465 246.848 43.9329C246.754 43.9329 246.641 43.9329 246.547 43.9139C245.421 43.8382 244.201 43.7814 242.906 43.7057C241.592 43.6489 240.241 43.611 238.833 43.5731C237.425 43.5542 236.074 43.5163 234.76 43.4974C233.446 43.4785 232.226 43.4595 231.1 43.4406C229.955 43.4406 229.016 43.4406 228.265 43.4406H225.149C224.905 43.4406 224.661 43.4406 224.417 43.4406C223.103 43.4406 222.015 44.5387 222.015 45.883C221.996 48.5146 221.996 51.1084 222.015 53.6833C222.034 57.0344 222.052 60.4423 222.052 63.8881V65.6489C222.052 66.2358 222.071 66.8227 222.127 67.4475L215.539 67.5611C214.206 67.58 213.099 66.5009 213.08 65.1566L212.292 17.0861C212.273 15.704 213.38 14.5869 214.732 14.5869L251.991 14.852C253.342 14.852 254.431 15.9879 254.393 17.3322L254.337 20.494C254.318 22.179 252.667 23.3339 251.109 22.7659C250.846 22.6713 250.583 22.5766 250.301 22.4819C248.668 21.9329 246.904 21.4595 244.971 21.0241C243.037 20.5886 241.01 20.21 238.908 19.8881C236.787 19.5663 234.741 19.2823 232.733 19.0551C230.724 18.8279 228.847 18.6385 227.083 18.4871C226.369 18.4303 225.712 18.3735 225.093 18.3356C223.723 18.222 222.54 19.3012 222.484 20.7022C222.39 23.5043 222.315 26.2874 222.259 29.0516C222.184 32.6678 222.127 36.3029 222.071 39.938H222.221C223.329 39.938 224.605 39.938 226.088 39.9002C227.571 39.8812 229.129 39.8434 230.799 39.7866C232.47 39.7298 234.159 39.6919 235.905 39.6162C237.65 39.5594 239.358 39.4836 241.01 39.389C242.681 39.3132 244.239 39.2186 245.703 39.1239C246.116 39.105 246.51 39.0671 246.904 39.0482C248.331 38.9535 249.513 40.1274 249.476 41.5663H249.438Z" fill="#FCE6FB" stroke="#333333" stroke-width="0.5" stroke-miterlimit="10"/>
<path d="M267.983 12.6181L266.406 64.6457C266.35 66.5011 264.923 68.0157 263.103 68.1672C261.038 68.3376 259.255 66.7283 259.199 64.6457L257.622 12.921C257.566 10.9899 258.992 9.36166 260.888 9.19127L264.041 8.88834C266.2 8.68008 268.058 10.4408 267.983 12.6181Z" fill="#FCE6FB" stroke="#333333" stroke-width="0.5" stroke-miterlimit="10"/>
<path d="M311.436 50.4648C311.436 53.4562 310.854 56.0879 309.69 58.3977C308.527 60.7075 306.987 62.6576 305.073 64.2479C303.158 65.8383 300.943 67.05 298.428 67.8641C295.913 68.6972 293.304 69.0948 290.582 69.0948C287.861 69.0948 285.42 68.6214 283.149 67.6937C280.897 66.766 278.945 65.4596 277.293 63.7935C275.641 62.1275 274.384 60.1584 273.464 57.8865C272.544 55.6145 272.094 53.1154 272.094 50.3891C272.094 47.6627 272.638 45.2393 273.727 42.9106C274.815 40.6008 276.261 38.575 278.081 36.8331C279.902 35.0913 282.004 33.7281 284.369 32.7247C286.734 31.7213 289.212 31.229 291.802 31.229C294.618 31.229 297.208 31.7023 299.611 32.63C302.013 33.5767 304.078 34.883 305.824 36.587C307.569 38.291 308.94 40.3168 309.934 42.6645C310.929 45.0121 311.417 47.6059 311.417 50.4459L311.436 50.4648ZM302.182 50.1051C302.182 48.988 302.107 47.8521 301.957 46.6404C301.807 45.4476 301.563 44.2738 301.244 43.1188C300.925 41.9639 300.493 40.8848 299.967 39.8624C299.442 38.84 298.785 37.9312 298.015 37.155C297.246 36.3787 296.307 35.754 295.275 35.2996C294.224 34.8452 293.022 34.618 291.69 34.618C289.644 34.618 287.936 35.1102 286.603 36.1137C285.252 37.1171 284.2 38.3856 283.431 39.9192C282.661 41.4528 282.117 43.1567 281.817 45.0121C281.516 46.8676 281.366 48.6283 281.366 50.2944C281.366 51.4114 281.441 52.5664 281.573 53.7591C281.704 54.9519 281.929 56.1257 282.248 57.2996C282.567 58.4545 282.98 59.5715 283.487 60.6128C283.994 61.6541 284.651 62.5818 285.42 63.377C286.19 64.1722 287.091 64.8159 288.142 65.2892C289.175 65.7626 290.376 65.9898 291.708 65.9898C293.041 65.9898 294.28 65.7436 295.331 65.2703C296.382 64.797 297.283 64.1533 298.072 63.3392C298.841 62.544 299.498 61.5973 300.024 60.5371C300.549 59.4769 300.981 58.3409 301.3 57.167C301.619 55.9932 301.844 54.8004 301.995 53.5887C302.145 52.377 302.22 51.2032 302.22 50.0861L302.182 50.1051Z" fill="#FCE6FB" stroke="#333333" stroke-width="0.5" stroke-miterlimit="10"/>
<path d="M342.369 34.2013C343.007 34.2392 343.533 34.7125 343.608 35.3373C343.664 35.7538 343.739 36.246 343.833 36.814C344.021 37.9311 344.246 39.1806 344.528 40.6006C344.809 42.0206 345.11 43.5352 345.448 45.1445C345.785 46.7538 346.105 48.3631 346.461 49.9724C346.874 51.8657 347.287 53.8158 347.738 55.8794C348.057 57.2994 350.084 57.2615 350.347 55.8226C350.591 54.5163 350.816 53.2099 351.041 51.9035C351.285 50.4457 351.529 48.9121 351.773 47.3028C352.017 45.6936 352.242 44.0653 352.449 42.4371C352.655 40.8089 352.843 39.1996 352.974 37.5903C353.068 36.549 353.143 35.5266 353.218 34.561C353.275 33.7469 354.007 33.1979 354.795 33.3493L362.416 34.8829C363.26 35.0533 363.73 35.981 363.354 36.7572C362.866 37.7796 362.378 38.8777 361.872 40.0516C361.121 41.8312 360.37 43.7245 359.638 45.7125C358.906 47.7004 358.193 49.7263 357.517 51.7899C356.841 53.8536 356.203 55.8984 355.602 57.8674C355.02 59.8553 354.476 61.7297 354.007 63.5283C353.65 64.8726 353.35 66.1032 353.087 67.2392C352.937 67.8639 352.374 68.2994 351.736 68.2805L346.236 68.0154C345.617 67.9775 345.11 67.5232 344.997 66.9173L341.356 46.5834C341.112 45.2581 339.31 45.0877 338.822 46.3183L330.713 66.8226C330.525 67.296 330.094 67.6178 329.606 67.6557L325.363 68.0722C324.725 68.129 324.143 67.7314 323.974 67.1066C323.486 65.2701 322.923 63.1875 322.285 60.8398C321.534 58.0189 320.69 55.0653 319.751 51.9603C318.813 48.8743 317.799 45.7314 316.692 42.5696C315.791 40.0137 314.833 37.5714 313.82 35.2615C313.463 34.4474 313.97 33.5197 314.852 33.4061L323.956 32.1755C324.725 32.0808 325.401 32.6109 325.457 33.3872C325.626 35.4887 325.776 37.666 325.945 39.938C326.114 42.191 326.133 44.1979 326.64 48.1927C326.959 50.6161 327.034 50.4268 327.109 51.6385C327.147 52.2633 327.316 53.2856 327.653 55.3115C327.71 55.6333 327.804 56.1256 328.198 56.4664C328.648 56.845 329.305 56.8639 329.774 56.7125C330.45 56.4853 330.807 55.8984 331.145 55.2547C332.121 53.3614 332.496 51.6385 332.965 49.7263C333.397 47.9655 332.965 49.8967 333.66 47.0757C334.692 42.759 335.987 37.0223 336.457 34.9207C336.494 34.8071 336.607 34.4664 336.963 34.2013C337.207 34.0309 337.489 33.9362 337.808 33.9552L342.369 34.2013Z" fill="#FCE6FB" stroke="#333333" stroke-width="0.5" stroke-miterlimit="10"/>
<path d="M386.066 57.3374C384.133 57.3374 382.218 57.0913 380.323 56.5801C378.427 56.0689 376.719 55.2737 375.18 54.1567C375.198 55.1223 375.273 56.1068 375.367 57.1102C375.461 58.1137 375.63 59.0982 375.855 60.0448C376.08 60.9914 376.4 61.8813 376.775 62.7333C377.15 63.5663 377.638 64.3047 378.239 64.9295C378.84 65.5543 379.553 66.0655 380.398 66.4252C381.242 66.7849 382.256 66.9742 383.42 66.9742C384.527 66.9742 385.541 66.766 386.498 66.3684C387.455 65.9708 388.281 65.4217 389.013 64.7212C389.726 64.0396 390.327 63.2255 390.796 62.2789C390.928 62.0138 391.059 61.7298 391.172 61.4458C391.66 60.1963 393.011 59.5336 394.325 59.8365L396.559 60.3477C398.755 60.84 399.562 63.6989 397.835 65.1567C397.835 65.1567 397.816 65.1756 397.798 65.1945C396.521 66.2548 395.095 67.1068 393.518 67.7694C391.941 68.4321 390.327 68.9054 388.619 69.1894C386.911 69.4734 385.297 69.6248 383.72 69.6248C380.904 69.6248 378.408 69.2083 376.212 68.3753C374.016 67.5422 372.158 66.3305 370.656 64.7591C369.154 63.1877 368.009 61.2565 367.202 59.0035C366.395 56.7505 366.02 54.2135 366.02 51.4114C366.02 48.6093 366.489 46.0913 367.409 43.6679C368.347 41.2445 369.624 39.124 371.294 37.3254C372.965 35.5267 374.954 34.1068 377.282 33.0465C379.609 32.0052 382.181 31.4751 384.996 31.4751C387.042 31.4751 389.088 31.7212 391.115 32.2324C393.143 32.7436 394.963 33.5198 396.578 34.599C398.192 35.6782 399.487 37.0414 400.482 38.7264C401.477 40.4114 401.965 42.4183 401.965 44.7849C401.965 47.1515 401.514 49.0637 400.594 50.6541C399.675 52.2445 398.473 53.5319 396.99 54.5353C395.508 55.5388 393.8 56.2582 391.904 56.6937C390.008 57.1291 388.056 57.3563 386.066 57.3563V57.3374ZM384.49 34.2014C383.363 34.2014 382.368 34.4286 381.505 34.883C380.642 35.3374 379.872 35.9622 379.196 36.7574C378.521 37.5525 377.957 38.4424 377.488 39.4648C377.019 40.4682 376.625 41.5285 376.325 42.6455C376.024 43.7625 375.761 44.8796 375.592 46.0155C375.48 46.7918 375.386 47.5491 375.33 48.2686C375.273 48.8744 375.424 49.4992 375.78 49.9914C376.644 51.241 377.695 52.2823 378.971 53.1343C380.51 54.1567 382.293 54.6679 384.321 54.6679C385.616 54.6679 386.779 54.3649 387.812 53.7591C388.844 53.1532 389.708 52.377 390.421 51.4114C391.134 50.4458 391.679 49.3856 392.054 48.1928C392.429 47.0001 392.617 45.8262 392.617 44.6334C392.617 43.4407 392.448 42.229 392.11 40.9983C391.772 39.7488 391.266 38.6317 390.59 37.6283C389.914 36.6248 389.069 35.8107 388.056 35.167C387.042 34.5233 385.86 34.2014 384.527 34.2014H384.49Z" fill="#FCE6FB" stroke="#333333" stroke-width="0.5" stroke-miterlimit="10"/>
<path d="M414.034 31.8349C415.367 31.7592 416.455 32.8573 416.38 34.2015L416.005 41.3771C416.643 40.2032 417.394 39.0294 418.238 37.8745C419.083 36.7196 420.022 35.6593 421.035 34.6559C422.049 33.6524 423.119 32.7437 424.264 31.9106C424.264 31.9106 424.282 31.9106 424.301 31.8917C425.747 30.8504 427.774 31.9674 427.774 33.7471V42.2101C427.267 41.6421 426.666 41.2445 426.009 40.9984C425.352 40.7523 424.639 40.6197 423.888 40.6197C422.762 40.6197 421.767 40.8091 420.885 41.1688C420.003 41.5285 419.233 42.0397 418.576 42.6645C417.919 43.2893 417.356 44.0277 416.887 44.8796C416.474 45.618 416.136 46.4132 415.836 47.2273C415.761 47.4545 415.704 47.6817 415.704 47.9278L414.766 65.5165C414.71 66.6525 413.809 67.5612 412.701 67.637L410.449 67.7884C409.21 67.8642 408.159 66.9364 408.084 65.6869L406.226 34.5423C406.15 33.3117 407.089 32.2325 408.309 32.1757L414.053 31.8349H414.034Z" fill="#FCE6FB" stroke="#333333" stroke-width="0.5" stroke-miterlimit="10"/>
<path d="M448.177 68.8865C446.075 68.8865 443.972 68.6214 441.889 68.0724C439.805 67.5233 437.891 66.6903 436.145 65.5732C434.418 64.4562 432.954 63.0362 431.772 61.3133C431.772 61.3133 431.753 61.2755 431.734 61.2565C430.007 58.7385 432.053 55.2927 435.075 55.3873L439.843 55.5199C439.787 55.6713 439.768 55.8228 439.768 55.9743V56.4286C439.768 57.8865 439.974 59.1928 440.406 60.3478C440.838 61.5027 441.457 62.4872 442.264 63.2823C443.071 64.0775 444.029 64.7023 445.155 65.1188C446.281 65.5354 447.539 65.7436 448.928 65.7436C449.754 65.7436 450.579 65.6679 451.368 65.4786C452.156 65.3082 452.869 65.0242 453.489 64.6077C454.108 64.1911 454.615 63.661 455.009 62.9984C455.403 62.3357 455.591 61.5027 455.591 60.4803C455.591 59.3443 455.234 58.3787 454.521 57.5646C453.808 56.7505 452.944 56.0689 451.931 55.5199C450.917 54.9708 449.847 54.5164 448.74 54.1567C447.632 53.797 446.656 53.5319 445.831 53.3237C444.967 53.0965 443.991 52.8503 442.884 52.5663C441.776 52.2823 440.631 51.9416 439.449 51.5629C438.285 51.1842 437.121 50.7299 435.995 50.2187C434.869 49.7075 433.874 49.0827 432.992 48.3632C432.11 47.6438 431.396 46.8297 430.871 45.902C430.345 44.9743 430.064 43.914 430.064 42.7023C430.064 41.3391 430.326 40.1085 430.833 39.0104C431.34 37.9123 432.034 36.9089 432.898 36.0569C433.761 35.186 434.775 34.4476 435.901 33.8228C437.027 33.198 438.21 32.6679 439.43 32.2703C440.65 31.8727 441.889 31.5698 443.128 31.3615C444.366 31.1722 445.549 31.0586 446.656 31.0586C448.515 31.0586 450.41 31.2669 452.325 31.7023C454.24 32.1378 455.985 32.8383 457.562 33.7849C459.139 34.7316 460.453 36.0001 461.522 37.5147C461.522 37.5336 461.56 37.5526 461.56 37.5715C463.174 39.9381 461.447 43.1946 458.613 43.4218L453.395 43.8194V43.4407C453.414 41.9829 453.245 40.6765 452.907 39.4837C452.569 38.291 452.006 37.2875 451.293 36.4545C450.579 35.6214 449.66 34.9777 448.571 34.5044C447.482 34.05 446.206 33.8228 444.742 33.8228C444.085 33.8228 443.353 33.9175 442.583 34.1257C441.795 34.315 441.082 34.618 440.406 35.0345C439.73 35.451 439.167 35.9622 438.698 36.5681C438.229 37.1928 438.003 37.9123 438.003 38.7453C438.003 40.0328 438.398 41.0552 439.186 41.8314C439.974 42.6076 440.95 43.2324 442.095 43.6868C443.24 44.1412 444.442 44.482 445.68 44.7281C446.919 44.9553 448.008 45.1825 448.946 45.4097C449.941 45.6369 451.011 45.902 452.156 46.2428C453.301 46.5836 454.409 46.9811 455.535 47.4545C456.661 47.9278 457.712 48.4958 458.726 49.1584C459.739 49.8211 460.64 50.5595 461.429 51.4114C462.217 52.2634 462.836 53.229 463.306 54.2892C463.775 55.3495 464 56.5612 464 57.8865C464 59.8744 463.493 61.5784 462.461 62.9794C461.429 64.3805 460.133 65.4975 458.557 66.3684C456.98 67.2393 455.272 67.8452 453.414 68.2428C451.555 68.6404 449.791 68.8108 448.139 68.8108L448.177 68.8865Z" fill="#FCE6FB" stroke="#333333" stroke-width="0.5" stroke-miterlimit="10"/>
<path d="M27.5106 57.9351C27.5106 57.8404 27.5295 57.7268 27.5484 57.6322C27.6805 56.1933 27.6616 54.8112 27.5484 53.4859C26.7936 53.7888 26.0955 54.1107 25.3785 54.3568C20.5292 56.0418 16.397 54.6408 13.3969 50.2673C11.944 48.1468 10.9439 45.8181 10.359 43.3189C10.076 42.0883 10.4345 41.615 11.6987 41.6528C14.0384 41.7096 16.3593 41.899 18.699 42.0883C19.0575 42.1262 19.3782 42.2398 19.699 42.3534C20.2273 42.5616 20.5292 42.9213 20.416 43.5272C20.3028 44.152 19.9066 44.4738 19.2273 44.3792C18.0386 44.2277 16.8498 44.0384 15.6611 43.8301C14.8309 43.6787 14.0007 43.7922 13.1893 43.7733C12.9251 43.7733 12.7742 43.8301 12.8685 44.152C13.7931 47.0866 15.1328 49.775 17.7178 51.6115C20.0575 53.2587 23.4916 53.2776 25.8879 51.6873C25.7936 51.4222 25.5294 51.3843 25.3407 51.2897C22.8312 50.0401 20.3217 48.7905 17.8121 47.5599C17.4725 47.3895 17.1706 47.1812 16.9442 46.8783C16.6611 46.5186 16.5479 46.121 16.831 45.7234C17.114 45.3258 17.5291 45.1744 17.982 45.3447C18.6235 45.5909 19.265 45.9127 19.8877 46.2157C21.6614 47.0676 23.4161 47.9385 25.1898 48.7905C25.4162 48.9041 25.6426 49.0745 26.02 48.8852C25.0388 47.9953 24.2464 47.0298 23.2086 46.2725C22.4916 45.7423 22.3406 45.2879 22.6803 44.72C23.0388 44.1141 23.6237 43.9626 24.2464 44.3981C25.0011 44.9282 25.737 45.5151 26.5672 46.1399C26.6238 45.6098 26.5295 45.1933 26.4163 44.7957C25.4728 41.4446 24.1332 38.2639 22.3406 35.2725C22.001 34.7045 21.6425 34.5909 21.0198 34.837C19.5858 35.405 18.1329 35.8594 16.5857 35.8972C14.0007 35.954 11.7553 35.0263 9.71747 33.5117C6.60414 31.164 4.30216 28.1158 2.39642 24.7458C1.75488 23.6287 1.16995 22.4738 0.566156 21.3189C-0.0942479 20.0126 0.301995 19.331 1.75488 19.3499C3.17004 19.3499 4.60406 19.3878 6.01921 19.4635C6.64188 19.5014 6.75509 19.2363 6.75509 18.7062C6.71735 16.6046 6.69848 14.4842 6.67961 12.3826C6.67961 10.6029 7.24567 10.2053 8.88725 10.849C10.9628 11.6632 13.0384 12.4773 15.095 13.3103C15.4158 13.4429 15.5102 13.3861 15.6234 13.0453C16.0196 11.701 16.4536 10.3757 16.8876 9.03149C16.9819 8.76643 17.0574 8.48244 17.1895 8.23631C17.5668 7.55473 18.1518 7.4222 18.7744 7.89552C19.4537 8.42564 19.9632 9.10722 20.5292 9.75094C23.1897 12.837 25.5672 16.1124 26.9257 20.0126C28.0201 23.1175 28.2843 26.2604 26.7936 29.3465C26.2087 30.5582 25.4162 31.6373 24.3596 32.4893C23.8313 32.9058 23.718 33.2277 24.0954 33.8714C26.0389 37.2604 27.4918 40.8766 28.7371 44.5685C28.7371 44.6064 28.7749 44.6442 28.8503 44.7768C29.0767 43.849 29.3032 42.9971 29.5107 42.1451C30.5108 37.9041 32.0014 33.8336 34.0204 29.9713C34.4166 29.2139 34.8128 28.4566 35.3034 27.7561C35.6431 27.2638 35.511 27.0177 35.0959 26.6959C33.3222 25.3516 32.0014 23.6666 31.341 21.5272C30.473 18.7062 30.8693 15.9231 31.6995 13.1778C32.775 9.61841 34.7185 6.53235 36.8318 3.54096C37.3035 2.85937 37.7941 2.17779 38.3035 1.53407C38.9262 0.757824 39.4545 0.833555 39.8508 1.7234C40.4923 3.1623 41.1527 4.6012 41.7754 6.0401C42.1716 6.94887 42.1716 6.96781 43.0773 6.51342C44.8887 5.60464 46.7001 4.658 48.5115 3.74922C48.7379 3.63562 48.9832 3.52202 49.2285 3.42736C50.1153 3.08657 50.7003 3.42736 50.7946 4.39294C51.0022 6.51342 51.1909 8.61497 51.3607 10.7354C51.4739 12.1175 51.455 12.1175 52.7947 11.9093C54.0212 11.72 55.2476 11.4928 56.493 11.3224C57.7383 11.152 58.2477 11.7768 57.8138 12.9506C56.3797 16.9076 54.5684 20.6563 51.9267 23.9695C51.7381 24.2157 51.5305 24.4429 51.3229 24.6511C50.8512 25.1244 50.3984 25.1623 49.9267 24.8026C49.4549 24.4429 49.3229 23.9695 49.6814 23.4015C50.2852 22.417 50.9456 21.4515 51.606 20.4859C52.9268 18.5169 54.1721 16.51 55.0401 14.2948C55.0967 14.1434 55.2288 13.9919 55.1533 13.7458C52.9645 14.0298 50.7757 14.3895 48.6058 14.9196C45.3982 15.6959 42.3037 16.7561 39.4923 18.4979C37.9828 19.4256 36.5299 20.448 35.8695 22.2466C35.3789 23.5909 35.5676 24.3861 36.794 25.1623C38.4356 26.2225 40.1338 27.1881 42.1716 27.1503C43.3226 27.1313 44.3981 26.7148 45.4736 26.3929C45.7567 26.2983 46.0397 26.1657 46.3416 26.09C47.1152 25.8817 47.6058 26.09 47.8322 26.658C48.0587 27.226 47.8322 27.6804 47.1341 28.078C46.2473 28.5702 45.3038 28.911 44.3038 29.1193C42.3037 29.5358 40.3414 29.3465 38.4734 28.5134C37.8318 28.2294 37.5111 28.362 37.1526 28.911C36.0393 30.6718 35.1525 32.5651 34.3411 34.4773C33.3411 36.8817 32.3788 39.3052 31.8504 41.88C31.7938 42.2019 31.7561 42.5237 31.6995 42.9781C32.4165 42.4859 33.0203 42.0694 33.6618 41.6718C35.8317 40.3275 38.2281 39.627 40.7565 39.3052C42.4169 39.0969 44.0774 39.078 45.7378 39.1726C47.0964 39.2484 47.4171 39.7217 47.0775 41.028C46.3039 43.8869 45.1717 46.5754 43.2471 48.8663C41.115 51.4222 38.4356 52.8232 35.0581 52.5771C33.6052 52.4635 32.2278 52.028 30.907 51.4411C30.7938 51.3843 30.473 51.1382 30.2466 51.2518C30.0202 51.3654 30.0391 51.8009 30.0391 51.9713C30.0579 53.6184 29.8504 55.2656 29.8315 56.9127C29.8315 57.3482 29.8315 57.3861 29.8315 57.7268C29.8315 60.8129 30.0957 73.1761 30.1523 76.016C29.9447 76.9058 29.1334 77.5306 28.2465 77.4928C27.4163 77.4549 26.7182 76.849 26.5295 76.016C26.888 69.9385 27.2465 63.8611 27.605 57.8026L27.5106 57.9351ZM18.6046 10.8869C18.4348 11.4549 18.3027 11.9093 18.1518 12.3447C16.5668 17.1916 15.4724 22.0952 15.8121 27.2449C15.9441 29.1761 16.2272 31.0315 17.8121 32.4136C18.7556 33.2277 19.7179 33.3224 20.7368 32.584C21.0953 32.3379 21.4161 32.0349 21.7934 31.8077C25.2087 29.7251 26.2653 25.9196 25.2841 22.2277C24.1332 17.8353 21.4727 14.3516 18.5858 10.868L18.6046 10.8869ZM15.8687 33.701C15.4158 32.9626 14.963 32.3189 14.6422 31.5995C13.4723 29.0057 13.5478 26.2604 13.661 23.5151C13.661 23.1365 13.7554 22.8146 13.2082 22.72C10.0571 22.0952 6.88717 21.6408 3.64175 21.6786C3.11343 21.6786 3.15117 21.849 3.37759 22.1898C4.45311 23.8938 5.41541 25.6735 6.62301 27.3017C8.18911 29.4411 10.0005 31.3344 12.3402 32.6219C13.4157 33.2088 14.5479 33.6253 15.8875 33.6821L15.8687 33.701ZM33.6241 21.4515C33.8128 21.4515 33.8317 21.3189 33.8694 21.2243C34.6241 19.6718 35.7374 18.4411 37.1526 17.4756C38.53 16.5289 40.0206 15.8095 41.5301 15.1279C42.3037 14.7871 42.3603 14.6167 42.0961 13.8026C41.7188 12.6287 41.3414 11.4738 40.9829 10.3C40.398 8.38777 39.6244 6.53235 38.6809 4.67693C38.1715 5.45318 37.6997 6.17263 37.2469 6.87314C35.4355 9.71307 33.8505 12.6477 33.2279 15.9988C32.8882 17.8542 32.8882 19.6718 33.6241 21.4325V21.4515ZM31.5674 46.5943C31.8504 46.7458 32.0391 46.5943 32.2278 46.4997C33.5298 45.8559 34.8128 45.2122 36.0959 44.5874C37.0582 44.1141 38.0205 43.6597 39.0017 43.2432C39.4923 43.016 40.0206 43.1107 40.4357 43.4325C40.7187 43.6408 40.681 44.0384 40.6055 44.3602C40.4923 44.8336 40.0772 45.0418 39.681 45.2311C37.6243 46.2346 35.5676 47.238 33.492 48.2604C32.7939 48.6012 32.1146 48.9609 31.3599 49.3396C31.9825 49.775 32.6241 49.9644 33.2467 50.1726C35.9638 51.0246 38.4168 50.6081 40.5489 48.6391C42.549 46.7836 43.6623 44.3981 44.5302 41.8611C44.7 41.3878 44.3415 41.4635 44.0962 41.4635C40.9452 41.3688 37.9262 41.899 35.1147 43.4325C33.6807 44.2088 32.4354 45.2122 31.5485 46.6322L31.5674 46.5943ZM8.98159 13.3103C8.98159 15.3551 8.98159 17.3241 8.98159 19.2742C8.98159 19.6339 9.20802 19.8232 9.54765 19.88C10.8496 20.0883 12.1704 20.3155 13.4723 20.5427C13.7554 20.5995 13.9063 20.5427 13.9629 20.2208C14.2271 18.8009 14.4913 17.3809 14.7931 15.9799C14.8686 15.6391 14.7365 15.5633 14.4913 15.4687C12.661 14.7682 10.8496 14.0487 8.96272 13.3103H8.98159ZM49.2474 11.9282C49.0964 10.1485 48.9266 8.44457 48.8134 6.75954C48.7757 6.24836 48.6625 6.21049 48.2473 6.43769C46.6435 7.27073 45.0208 8.08485 43.3981 8.89896C43.0773 9.05042 43.0207 9.22082 43.1151 9.56161C43.5113 10.849 43.8887 12.1554 44.266 13.4618C44.3604 13.8026 44.4925 13.9351 44.8698 13.8215C46.1152 13.4618 47.3416 13.121 48.587 12.7802C49.0776 12.6477 49.2474 12.3069 49.2474 11.9282Z" fill="#FCE6FB" stroke="#FCE6FB" stroke-width="0.25" stroke-miterlimit="10"/>
</svg>
