<svg width="206" height="162" viewBox="0 0 206 162" fill="none" xmlns="http://www.w3.org/2000/svg">
<path d="M106.776 119.719C106.776 119.493 106.814 119.304 106.852 119.077C107.115 116.056 107.077 113.186 106.852 110.429C105.274 111.071 103.847 111.751 102.344 112.28C92.2397 115.829 83.6003 112.884 77.3274 103.745C74.2848 99.326 72.1813 94.4543 70.9793 89.2426C70.3783 86.6746 71.1295 85.6927 73.7589 85.7682C78.642 85.8815 83.4876 86.2592 88.3332 86.6746C89.0845 86.7501 89.7606 86.9767 90.4367 87.2411C91.526 87.6565 92.1646 88.4496 91.9392 89.6958C91.7138 90.9798 90.8499 91.6596 89.4601 91.5086C86.9809 91.2064 84.5018 90.791 82.0227 90.3756C80.2948 90.0735 78.5669 90.3001 76.839 90.2623C76.2756 90.2623 75.9751 90.3756 76.2005 91.0554C78.1162 97.2111 80.8958 102.8 86.3048 106.652C91.188 110.127 98.3624 110.127 103.321 106.804C103.133 106.275 102.569 106.199 102.156 105.973C96.935 103.367 91.7138 100.761 86.4551 98.193C85.7414 97.8531 85.1028 97.4 84.6145 96.7957C84.0511 96.0404 83.7881 95.2096 84.3891 94.3787C84.9901 93.5479 85.8541 93.208 86.7931 93.5857C88.1454 94.1144 89.4601 94.7564 90.7748 95.3984C94.4559 97.1734 98.137 99.0239 101.856 100.799C102.306 101.025 102.795 101.403 103.584 101.025C101.555 99.1749 99.8649 97.1356 97.7239 95.5495C96.2589 94.4543 95.9209 93.5101 96.597 92.3016C97.3482 91.0176 98.5878 90.7155 99.8649 91.6219C101.443 92.7548 102.983 93.9633 104.711 95.2851C104.861 94.1899 104.635 93.2835 104.372 92.4527C102.382 85.4661 99.602 78.8194 95.8833 72.5503C95.1696 71.3796 94.4183 71.1153 93.1412 71.644C90.1738 72.8147 87.0936 73.7966 83.8633 73.8721C78.4918 73.9854 73.7965 72.0594 69.5519 68.8871C63.0536 63.9776 58.2831 57.5953 54.3015 50.5709C52.9868 48.2294 51.7096 45.8125 50.5076 43.4332C49.1178 40.7141 49.9442 39.279 52.9868 39.3168C55.9542 39.3168 58.9217 39.3923 61.8891 39.5434C63.2038 39.6189 63.4292 39.0525 63.4292 37.9573C63.3541 33.5387 63.3165 29.1579 63.2789 24.7394C63.2789 21.0006 64.4434 20.1698 67.8616 21.5293C72.1813 23.2288 76.501 24.966 80.8207 26.7032C81.4968 26.9675 81.7222 26.8542 81.91 26.1367C82.7364 23.3421 83.6379 20.5474 84.5394 17.7528C84.7272 17.1863 84.8774 16.6198 85.1779 16.0911C85.9668 14.656 87.1688 14.3917 88.4835 15.3736C89.9108 16.4688 90.9626 17.9038 92.127 19.2634C97.6863 25.6835 102.645 32.5568 105.462 40.6764C107.753 47.172 108.279 53.7432 105.199 60.2011C103.959 62.7313 102.306 64.9973 100.09 66.7722C98.9634 67.6408 98.7756 68.3206 99.5269 69.6802C103.584 76.7801 106.589 84.3331 109.218 92.0373C109.218 92.1128 109.293 92.1883 109.481 92.4905C109.969 90.5267 110.42 88.7895 110.871 87.0145C112.974 78.1396 116.092 69.6424 120.261 61.5606C121.088 59.9745 121.914 58.3883 122.928 56.9155C123.642 55.8958 123.379 55.4049 122.478 54.7251C118.796 51.9304 116.017 48.4183 114.627 43.9242C112.824 38.0328 113.65 32.2169 115.378 26.4766C117.632 19.0368 121.689 12.5789 126.084 6.30988C127.098 4.87479 128.074 3.47747 129.164 2.11792C130.478 0.49401 131.53 0.645072 132.394 2.53334C133.746 5.51681 135.099 8.53804 136.413 11.5593C137.24 13.4475 137.24 13.4853 139.118 12.5412C142.912 10.6151 146.668 8.6891 150.462 6.7253C150.95 6.46094 151.438 6.23435 151.964 6.04552C153.842 5.36574 155.044 6.04552 155.232 8.04708C155.683 12.4656 156.021 16.8842 156.397 21.3027C156.622 24.2107 156.584 24.2107 159.402 23.7575C161.956 23.3421 164.51 22.8889 167.102 22.549C169.694 22.2091 170.746 23.4931 169.882 25.9479C166.877 34.2185 163.12 42.0737 157.599 48.9847C157.185 49.4757 156.772 49.9666 156.322 50.4198C155.345 51.4017 154.406 51.4773 153.392 50.722C152.415 49.9667 152.152 48.9847 152.866 47.814C154.143 45.7369 155.533 43.7354 156.885 41.7338C159.627 37.6174 162.219 33.4254 164.022 28.7803C164.135 28.4404 164.398 28.1383 164.247 27.6473C159.665 28.2516 155.082 28.9691 150.574 30.0643C143.888 31.6882 137.428 33.9164 131.568 37.5418C128.45 39.5056 125.37 41.6205 124.018 45.397C123.004 48.1917 123.417 49.8911 125.933 51.515C129.352 53.7432 132.882 55.7448 137.165 55.6692C139.569 55.6315 141.822 54.7629 144.076 54.0831C144.677 53.8942 145.278 53.6299 145.879 53.4788C147.494 53.0634 148.509 53.4788 148.997 54.6496C149.485 55.858 148.997 56.8022 147.532 57.633C145.691 58.6527 143.701 59.3702 141.635 59.7856C137.428 60.6543 133.371 60.2388 129.464 58.5394C128.112 57.9351 127.436 58.1995 126.722 59.3702C124.393 63.0712 122.553 66.9988 120.862 71.002C118.759 76.0248 116.768 81.0853 115.679 86.448C115.529 87.1278 115.491 87.8076 115.341 88.7517C116.843 87.732 118.12 86.8257 119.435 86.0326C123.98 83.2002 128.976 81.7651 134.235 81.0853C137.69 80.6321 141.146 80.6321 144.602 80.821C147.457 80.972 148.133 81.9539 147.382 84.7108C145.804 90.7155 143.4 96.3048 139.418 101.101C134.948 106.464 129.389 109.372 122.327 108.843C119.322 108.616 116.43 107.71 113.688 106.464C113.463 106.35 112.786 105.822 112.298 106.086C111.81 106.35 111.847 107.219 111.847 107.597C111.885 111.033 111.434 114.47 111.434 117.944C111.434 118.888 111.434 118.926 111.434 119.644C111.434 126.102 111.998 151.933 112.11 157.9C111.66 159.788 109.969 161.072 108.129 160.997C106.401 160.921 104.936 159.637 104.523 157.9C105.274 145.211 106.025 132.522 106.776 119.795V119.719ZM88.2205 21.3405C87.8449 22.549 87.582 23.4554 87.2815 24.3617C83.9759 34.4828 81.6846 44.755 82.3983 55.5182C82.6612 59.5591 83.2622 63.4489 86.5678 66.3191C88.521 68.0185 90.5494 68.2073 92.6529 66.6967C93.4042 66.168 94.0803 65.5638 94.8691 65.0728C101.968 60.7298 104.185 52.7613 102.156 45.0572C99.7522 35.8802 94.2305 28.5914 88.183 21.3027L88.2205 21.3405ZM82.511 69.0759C81.5719 67.5275 80.6329 66.168 79.9567 64.6951C77.5152 59.2947 77.6654 53.5544 77.8908 47.814C77.8908 47.021 78.1162 46.3789 76.9517 46.1523C70.3783 44.8306 63.7297 43.8864 57.006 43.9997C55.9167 43.9997 55.9918 44.3774 56.4425 45.0949C58.6587 48.6826 60.7247 52.3459 63.2038 55.7825C66.4718 60.2766 70.228 64.2042 75.1112 66.9233C77.3274 68.1696 79.7314 69.0004 82.511 69.1515V69.0759ZM119.548 43.471C119.923 43.471 119.961 43.1689 120.074 42.9801C121.651 39.7322 123.98 37.1642 126.948 35.1249C129.802 33.1233 132.92 31.6127 136.075 30.2154C137.69 29.4978 137.803 29.1202 137.24 27.4585C136.451 25.0415 135.662 22.5868 134.911 20.132C133.671 16.1289 132.094 12.2768 130.103 8.38697C129.051 10.0109 128.037 11.4837 127.098 12.9943C123.304 18.9235 119.998 25.0415 118.721 32.0659C118.008 35.9557 118.008 39.7322 119.548 43.4332V43.471ZM115.266 96.0026C115.829 96.3048 116.242 96.0026 116.618 95.8138C119.322 94.492 121.989 93.1325 124.694 91.8107C126.685 90.8288 128.713 89.8847 130.779 88.9783C131.831 88.5251 132.882 88.7139 133.746 89.3937C134.347 89.8469 134.272 90.6777 134.084 91.3197C133.859 92.3016 132.995 92.7171 132.169 93.1325C127.887 95.2473 123.567 97.3244 119.285 99.4393C117.82 100.157 116.392 100.912 114.852 101.705C116.167 102.612 117.482 103.027 118.759 103.442C124.431 105.255 129.539 104.349 133.972 100.232C138.141 96.3425 140.47 91.3575 142.273 86.0704C142.611 85.0884 141.86 85.2395 141.372 85.2395C134.798 85.0507 128.488 86.1459 122.628 89.3559C119.66 90.9799 117.031 93.0569 115.19 96.0404L115.266 96.0026ZM68.1245 26.4388C68.1245 30.7063 68.1245 34.8227 68.1245 38.9392C68.1245 39.6945 68.5753 40.0721 69.3265 40.1854C72.0686 40.6386 74.8107 41.0918 77.5152 41.5827C78.1162 41.696 78.4167 41.5827 78.5294 40.903C79.0552 37.9195 79.6187 34.9738 80.2572 32.0281C80.4075 31.3483 80.1446 31.1595 79.6187 30.9329C75.8248 29.4601 71.9935 27.9494 68.0869 26.4388H68.1245ZM152.152 23.5309C151.814 19.8299 151.476 16.2799 151.251 12.6922C151.175 11.6348 150.95 11.5593 150.086 12.0124C146.743 13.7497 143.362 15.4869 139.944 17.1485C139.268 17.4884 139.155 17.8283 139.381 18.5459C140.207 21.265 140.996 23.9841 141.785 26.7032C141.973 27.4207 142.273 27.6851 143.024 27.4585C145.616 26.7032 148.208 25.9856 150.8 25.2681C151.814 25.0037 152.152 24.2862 152.19 23.4931L152.152 23.5309Z" fill="#FCE6FB" stroke="#FCE6FB" stroke-width="0.25" stroke-miterlimit="10"/>
<path d="M55.9541 102.838C59.7855 102.498 62.9408 105.972 62.152 109.749C61.7388 111.675 61.1753 113.487 60.4241 115.225C58.7713 119.039 56.5176 122.287 53.6628 124.93C50.808 127.574 47.5025 129.613 43.7087 131.011C39.9149 132.446 35.8957 133.125 31.6135 133.125C26.9558 133.125 22.7112 132.332 18.9549 130.746C15.1611 129.16 11.9683 126.932 9.30134 124.062C6.63439 121.229 4.60601 117.83 3.14107 113.903C1.71369 109.975 1 105.708 1 101.063C1 96.4175 1.75125 92.4144 3.29132 88.5245C4.79382 84.6347 6.93489 81.2358 9.6394 78.3656C12.3439 75.4577 15.5743 73.1918 19.3306 71.5301C23.0868 69.8684 27.1811 69.0376 31.6511 69.0376C34.7312 69.0376 37.6611 69.3397 40.4783 69.944C43.2955 70.5482 46 71.5679 48.5543 73.0407C51.1085 74.4758 53.5125 76.4018 55.7287 78.7811C55.9165 78.9699 56.1044 79.1587 56.2546 79.3853C59.2972 82.822 57.2688 88.2979 52.7237 88.9777C49.869 89.3931 47.0518 87.6937 46.3381 84.8613C46.1878 84.257 46 83.6528 45.7746 83.0486C45.061 81.0092 44.0468 79.272 42.7696 77.7992C41.4925 76.3263 39.9524 75.1934 38.1494 74.3625C36.3464 73.5317 34.318 73.1163 32.0643 73.1163C29.6603 73.1163 27.4816 73.5317 25.5284 74.3247C23.5751 75.1178 21.8848 76.2508 20.3823 77.6481C18.8798 79.0454 17.5651 80.6693 16.4758 82.5198C15.3865 84.3703 14.485 86.3341 13.8089 88.4112C13.0952 90.4883 12.6068 92.6032 12.2688 94.7558C11.9307 96.9462 11.7805 99.0233 11.7805 101.063C11.7805 103.215 11.9307 105.406 12.2312 107.634C12.5317 109.862 13.02 112.015 13.6586 114.092C14.3347 116.169 15.1611 118.133 16.2129 119.945C17.2646 121.758 18.5417 123.344 20.0442 124.704C21.5468 126.063 23.3122 127.121 25.2655 127.914C27.2563 128.707 29.51 129.085 32.0643 129.085C34.9566 129.085 37.5484 128.48 39.8773 127.272C42.1686 126.063 44.1219 124.477 45.7371 122.513C47.3523 120.55 48.5543 118.284 49.4182 115.753C50.2822 113.223 50.6953 110.655 50.6953 108.011V107.445C48.667 107.747 46.601 108.163 44.4975 108.653C43.0701 108.993 41.6428 109.447 40.2529 109.937C39.5392 110.202 39.0134 110.391 38.3372 110.655C35.9708 111.675 33.98 113.034 33.0409 113.676C31.7262 114.583 31.2755 114.998 30.374 115.149C29.9983 115.225 28.7963 115.413 27.8573 114.734C26.768 113.941 26.6928 112.543 26.6553 111.788C26.5426 109.862 27.4441 108.465 27.7446 107.974C29.0968 105.859 31.1628 105.141 31.8389 104.915C39.9149 104.235 47.9908 103.555 56.0668 102.875L55.9541 102.838Z" fill="#FCE6FB" stroke="#333333" stroke-width="0.25" stroke-miterlimit="10"/>
<path d="M198.504 104.349C198.242 104.5 197.979 104.575 196.213 104.538C194.373 104.5 193.095 104.349 192.194 104.273C190.767 104.198 189.264 104.16 187.724 104.122C186.184 104.122 184.681 104.047 183.254 104.047C181.827 104.047 180.474 104.009 179.235 103.971C178.258 103.971 177.206 103.971 176.117 103.971C174.727 103.971 172.812 103.971 170.445 104.084C170.257 104.122 169.844 104.273 169.506 104.689C168.943 105.293 168.98 106.048 169.018 106.237C169.018 109.598 169.055 112.959 169.093 116.283C169.281 124.364 169.318 127.537 169.281 128.67C169.281 128.858 169.281 129.689 169.281 130.784C169.281 131.502 169.281 132.22 169.356 132.937L162.895 133.05C160.979 133.05 159.402 131.54 159.402 129.652L158.538 72.588C158.538 70.6242 160.078 69.0381 161.994 69.0759L201.397 69.378C203.312 69.378 204.853 70.9641 204.815 72.8902C204.89 73.3433 205.716 77.7241 203.801 78.8571C203.312 79.1592 202.711 79.197 200.345 78.6305C197.603 77.9885 196.063 77.2709 194.485 76.8555C192.382 76.3268 190.128 75.8736 187.799 75.496C185.47 75.1183 183.216 74.7784 181 74.4763C178.784 74.2119 176.718 73.9476 174.802 73.7965C172.849 73.6077 171.196 73.4944 169.844 73.3811C169.694 77.7997 169.544 82.1804 169.469 86.5235C169.393 90.9042 169.318 95.285 169.281 99.6658H169.431C170.633 99.6658 172.06 99.6658 173.676 99.628C175.291 99.628 177.019 99.5525 178.859 99.477C180.7 99.4014 182.578 99.3637 184.494 99.2882C186.409 99.2126 188.287 99.1371 190.128 99.0238C191.856 98.9105 193.584 98.835 195.274 98.7217C198.091 98.5329 198.617 98.4196 199.105 98.8727C200.42 100.006 200.082 103.405 198.542 104.311L198.504 104.349Z" fill="#FCE6FB" stroke="#333333" stroke-width="0.25" stroke-miterlimit="10"/>
</svg>
