<svg width="112" height="40" viewBox="0 0 112 40" fill="none" xmlns="http://www.w3.org/2000/svg">
<path d="M71 0C71.31 0 71.56 0 71.81 0C80.6 0 89.39 0 98.18 0.02C101.98 0.03 105.3 1.33 107.93 4.11C110.88 7.22 112.04 10.94 111.49 15.21C111.42 15.76 111.19 15.85 110.72 15.85C107.94 15.84 105.16 15.85 102.38 15.85C97.95 15.85 93.51 15.99 89.08 15.83C79.61 15.49 72.37 8.18 71 0Z" fill="#FFA5CE"/>
<path d="M49.49 19.5218C49.49 25.7118 49.48 31.8918 49.51 38.0818C49.51 38.8218 49.29 39.0118 48.58 39.0018C45.12 38.9718 41.67 38.9718 38.21 39.0018C37.5 39.0118 37.2699 38.8218 37.2699 38.0818C37.2999 30.9718 37.2899 23.8518 37.2799 16.7418C37.2799 15.9318 37.06 15.6718 36.5 15.8818C36.27 15.9718 36.07 16.3218 35.98 16.6018C35.01 19.6718 34.07 22.7618 33.12 25.8418C31.85 29.9718 30.57 34.1018 29.33 38.2418C29.16 38.8218 28.8799 39.0218 28.2699 39.0118C25.9199 38.9718 23.56 38.9718 21.21 39.0118C20.55 39.0218 20.31 38.7718 20.13 38.1818C17.95 31.0418 15.7499 23.9018 13.5499 16.7618C13.5099 16.6218 13.4399 16.4818 13.4199 16.3318C13.3399 15.8618 12.9799 15.7618 12.6399 15.8818C12.4499 15.9518 12.25 16.2918 12.25 16.5218C12.22 18.8718 12.23 21.2318 12.23 23.5818C12.23 28.4418 12.22 33.3018 12.24 38.1618C12.24 38.8318 12.03 39.0118 11.38 39.0018C7.87 38.9718 4.36999 38.9718 0.859985 39.0018C0.209985 39.0118 0 38.8318 0 38.1618C0.02 25.7418 0.02 13.3118 0 0.891791C0 0.251791 0.149956 0.0217954 0.829956 0.0217954C4.50996 0.0517954 8.19 0.0217539 11.88 0.0417539C15.53 0.0617539 18.11 2.00179 19.13 5.51179C20.75 11.1018 22.35 16.7018 23.97 22.2918C24.06 22.6018 24.22 23.0318 24.47 23.1318C24.99 23.3418 25.3 23.0818 25.47 22.4918C27.04 16.9618 28.68 11.4618 30.22 5.92176C31.03 3.03176 32.64 1.01181 35.63 0.281805C36.28 0.121805 36.9699 0.0517636 37.6399 0.0517636C41.3199 0.0317636 44.9999 0.0617954 48.6899 0.0217954C49.3699 0.0117954 49.5299 0.241781 49.5199 0.881781C49.4799 7.09178 49.49 13.3118 49.49 19.5218Z" fill="#FCE6FB"/>
<path d="M110.75 17.9218C109.2 21.7518 106.57 24.2617 102.76 25.7917C105.69 30.1917 108.57 34.5318 111.51 38.9418C111.18 38.9618 110.97 38.9818 110.75 38.9818C106.62 38.9818 102.49 38.9718 98.35 38.9918C97.8 38.9918 97.5 38.8318 97.24 38.3318C95.36 34.6918 93.4199 31.0718 91.5499 27.4118C91.1899 26.7018 90.77 26.4518 89.99 26.4818C88.59 26.5418 87.1799 26.5318 85.7799 26.4818C85.0999 26.4618 84.9399 26.7018 84.9399 27.3418C84.9699 30.9218 84.94 34.5018 84.97 38.0818C84.98 38.7718 84.79 38.9818 84.09 38.9718C80.61 38.9318 77.1299 38.9418 73.6499 38.9718C72.9799 38.9818 72.74 38.8317 72.74 38.1017C72.77 31.6417 72.77 25.1818 72.74 18.7218C72.74 18.0218 72.95 17.8218 73.63 17.8218C85.7 17.8418 97.77 17.8318 109.84 17.8318C110.1 17.8618 110.35 17.8918 110.75 17.9218Z" fill="#FCE6FB"/>
<path d="M67.23 19.5219C67.23 25.7119 67.22 31.8919 67.25 38.0819C67.25 38.8119 67.0399 39.0119 66.3199 39.0019C62.8399 38.9719 59.36 38.9719 55.88 39.0019C55.23 39.0119 55.0199 38.8419 55.0199 38.1619C55.0399 25.7119 55.0399 13.2719 55.0199 0.821862C55.0199 0.191862 55.22 0.0118745 55.84 0.0218745C59.37 0.0518745 62.8999 0.0518745 66.4299 0.0218745C67.1299 0.0118745 67.25 0.271879 67.25 0.901879C67.22 7.10188 67.23 13.3119 67.23 19.5219Z" fill="#FCE6FB"/>
</svg>
