<svg width="64" height="64" viewBox="0 0 64 64" fill="none" xmlns="http://www.w3.org/2000/svg">
<path d="M64 32C64 14.3269 49.6731 0 32 0C14.3269 0 0 14.3269 0 32C0 49.6731 14.3269 64 32 64C49.6731 64 64 49.6731 64 32Z" fill="#4F4F4F"/>
<path d="M14.8389 30.0652C14.8389 30.0652 28.1074 23.4794 32.7092 21.1606C34.4731 20.2331 40.4554 17.2648 40.4554 17.2648C40.4554 17.2648 43.2164 15.9664 42.9864 19.1199C42.9096 20.4185 42.296 24.9635 41.6824 29.8795C40.7621 36.8363 39.765 44.4421 39.765 44.4421C39.765 44.4421 39.6118 46.5755 38.308 46.9466C37.004 47.3176 34.8566 45.6479 34.4731 45.2769C34.1664 44.9985 28.721 40.8246 26.727 38.7841C26.19 38.2276 25.5765 37.1144 26.8036 35.8158C29.5646 32.7551 32.8626 28.952 34.8566 26.5404C35.7769 25.4272 36.6973 22.83 32.8626 25.9837C27.4172 30.5287 22.0484 34.7956 22.0484 34.7956C22.0484 34.7956 20.8215 35.7231 18.5206 34.8883C16.2197 34.0535 13.5353 32.9405 13.5353 32.9405C13.5353 32.9405 11.6948 31.5489 14.8393 30.0652H14.8389Z" stroke="#FCE6FB" stroke-width="2"/>
</svg>
