<svg width="125" height="40" viewBox="0 0 125 40" fill="none" xmlns="http://www.w3.org/2000/svg">
<path d="M0 1H18.24C18.49 1.02 18.88 1.07 19.3 1.26C19.3 1.26 20.23 1.69 20.89 2.85C21.6 4.11 23.11 11.02 24.59 20.56C23.65 18.43 22.04 15.41 19.3 12.36C18.85 11.86 16.91 9.74 13.48 7.34C10.76 5.43 6.29 2.79 0 1Z" fill="#FFA5CE"/>
<path d="M124.46 39.3097C121.45 39.3097 118.51 39.3097 115.42 39.3097C115.11 37.7997 114.76 36.2696 114.49 34.7296C114.33 33.8396 113.96 33.5097 113 33.5297C109.43 33.5897 105.86 33.5796 102.3 33.5396C101.47 33.5296 101.01 33.7597 100.76 34.5897C100.34 35.9297 99.8499 37.2597 99.3199 38.5597C99.1899 38.8897 98.78 39.3397 98.49 39.3397C95.29 39.3997 92.08 39.3797 88.7 39.3797C89.83 36.6797 90.89 34.1297 91.96 31.5897C95.77 22.5097 99.62 13.4397 103.37 4.32967C104.35 1.94967 105.95 0.729659 108.47 0.689659C110.85 0.649659 113.23 0.719691 115.61 0.659691C116.51 0.639691 116.59 1.20965 116.71 1.80965C118.15 8.73965 119.59 15.6697 121.04 22.5897C122.13 27.8397 123.23 33.0897 124.32 38.3397C124.37 38.6397 124.41 38.9397 124.46 39.3097ZM104.05 25.6696C106.96 25.6696 109.69 25.6696 112.56 25.6696C111.56 20.8396 110.6 16.1397 109.63 11.4497C109.51 11.4497 109.39 11.4497 109.28 11.4497C107.55 16.1497 105.82 20.8596 104.05 25.6696Z" fill="#FCE6FB"/>
<path d="M90.64 1.66966C90.2 4.36966 89.7599 7.02965 89.3099 9.78965C86.4599 8.49965 83.63 7.71966 80.63 7.97966C79.34 8.08966 77.99 8.36967 76.84 8.92967C74.67 9.98967 74.45 12.1297 76.37 13.5697C77.83 14.6697 79.51 15.4897 81.1 16.4197C82.2 17.0697 83.33 17.6497 84.4 18.3497C91.76 23.1697 89.62 31.9697 85.26 35.6897C82.33 38.1897 78.89 39.3597 75.14 39.7497C70.26 40.2697 65.49 39.7197 60.7 37.9697C61.15 35.1497 61.59 32.3597 62.05 29.4397C62.97 29.8297 63.76 30.1797 64.55 30.5097C67.83 31.8397 71.22 32.4097 74.75 31.8397C75.05 31.7897 75.35 31.7097 75.64 31.6097C77.15 31.0897 78.5199 30.3697 78.8199 28.6097C79.1199 26.7897 77.91 25.7597 76.58 24.8997C75.62 24.2797 74.58 23.7897 73.59 23.2197C72.15 22.3797 70.63 21.6297 69.3 20.6497C63.75 16.5597 63.3 9.6297 68.21 4.7697C71.13 1.8797 74.8 0.599659 78.77 0.169659C82.48 -0.230341 86.16 0.039654 89.72 1.28965C90 1.38965 90.28 1.51966 90.64 1.66966Z" fill="#FCE6FB"/>
<path d="M11.39 5.75984C19.15 10.7598 24.85 17.1298 25.74 26.8798C25.86 26.8598 25.99 26.8498 26.11 26.8298C26.31 26.3498 26.53 25.8698 26.71 25.3898C29.64 17.5198 32.58 9.64985 35.47 1.76985C35.78 0.929852 36.1699 0.629857 37.0699 0.649857C40.0599 0.709857 43.05 0.669815 46.23 0.669815C46.07 1.16982 45.98 1.52983 45.84 1.86983C40.92 13.9698 35.99 26.0698 31.09 38.1798C30.72 39.0898 30.26 39.4299 29.25 39.3999C26.56 39.3199 23.8799 39.3498 21.1899 39.3798C20.4399 39.3898 20.02 39.2399 19.8 38.3999C16.96 27.5999 14.07 16.8199 11.2 6.02986C11.2 5.98986 11.26 5.93984 11.39 5.75984Z" fill="#FCE6FB"/>
<path d="M54.21 39.3198C50.89 39.3198 47.74 39.3198 44.35 39.3198C46.43 26.4398 48.5 13.6598 50.59 0.779785C53.86 0.779785 57.09 0.779785 60.46 0.779785C58.36 13.6598 56.29 26.4798 54.21 39.3198Z" fill="#FCE6FB"/>
</svg>
