<svg width="956" height="1462" viewBox="0 0 956 1462" fill="none" xmlns="http://www.w3.org/2000/svg">
<path d="M373 1226C373 1208.33 358.673 1194 341 1194C323.327 1194 309 1208.33 309 1226C309 1243.67 323.327 1258 341 1258C358.673 1258 373 1243.67 373 1226Z" fill="#4F4F4F"/>
<path d="M328.714 1213.71L328.207 1213.21L328.213 1213.21L328.714 1213.71ZM328.714 1238.29L328.212 1238.79L328.206 1238.79L328.714 1238.29ZM353.286 1238.29L353.793 1238.79L353.787 1238.79L353.286 1238.29ZM353.286 1213.71L353.788 1213.21L353.794 1213.21L353.286 1213.71ZM331.533 1220.41L330.819 1220.42C330.815 1220.23 330.889 1220.05 331.023 1219.91C331.157 1219.77 331.341 1219.7 331.533 1219.7V1220.41ZM342.295 1232.3H343.01C343.01 1232.69 342.69 1233.01 342.295 1233.01V1232.3ZM342.295 1228.05H341.581C341.581 1227.85 341.666 1227.65 341.816 1227.52C341.965 1227.38 342.165 1227.32 342.366 1227.34L342.295 1228.05ZM347.219 1232.3V1233.01C346.909 1233.01 346.634 1232.81 346.539 1232.51L347.219 1232.3ZM350.6 1232.3L351.29 1232.11C351.348 1232.32 351.302 1232.55 351.167 1232.73C351.032 1232.91 350.822 1233.01 350.6 1233.01V1232.3ZM345.714 1226.33L345.396 1226.97C345.163 1226.86 345.012 1226.62 345.001 1226.36C344.99 1226.1 345.121 1225.86 345.343 1225.72L345.714 1226.33ZM349.886 1220.4V1219.69C350.1 1219.69 350.303 1219.78 350.439 1219.95C350.575 1220.11 350.629 1220.33 350.586 1220.54L349.886 1220.4ZM346.819 1220.4L346.132 1220.21C346.219 1219.9 346.499 1219.69 346.819 1219.69V1220.4ZM342.295 1225.1L342.371 1225.81C342.17 1225.84 341.968 1225.77 341.818 1225.64C341.667 1225.5 341.581 1225.31 341.581 1225.1H342.295ZM342.295 1220.41V1219.7C342.69 1219.7 343.01 1220.02 343.01 1220.41H342.295ZM339.219 1220.41H338.505C338.505 1220.02 338.825 1219.7 339.219 1219.7V1220.41ZM339.219 1228.64H339.933C339.933 1228.86 339.832 1229.07 339.659 1229.2C339.485 1229.34 339.259 1229.38 339.046 1229.33L339.219 1228.64ZM334.81 1220.41V1219.7C335.199 1219.7 335.516 1220.01 335.524 1220.4L334.81 1220.41ZM326 1225.43C326 1222.22 325.999 1219.74 326.256 1217.81C326.517 1215.86 327.054 1214.38 328.207 1213.21L329.222 1214.22C328.375 1215.07 327.912 1216.21 327.672 1218C327.43 1219.81 327.429 1222.18 327.429 1225.43H326ZM326 1226.57V1225.43H327.429V1226.57H326ZM328.206 1238.79C327.054 1237.62 326.517 1236.13 326.256 1234.18C325.999 1232.26 326 1229.78 326 1226.57H327.429C327.429 1229.82 327.43 1232.19 327.672 1233.99C327.912 1235.78 328.375 1236.92 329.223 1237.78L328.206 1238.79ZM340.429 1241C337.215 1241 334.735 1241 332.809 1240.74C330.862 1240.48 329.376 1239.95 328.212 1238.79L329.217 1237.78C330.072 1238.63 331.209 1239.09 332.998 1239.33C334.808 1239.57 337.175 1239.57 340.429 1239.57V1241ZM341.571 1241H340.429V1239.57H341.571V1241ZM353.787 1238.79C352.619 1239.95 351.131 1240.48 349.184 1240.74C347.258 1241 344.78 1241 341.571 1241V1239.57C344.82 1239.57 347.185 1239.57 348.995 1239.33C350.783 1239.09 351.924 1238.63 352.784 1237.78L353.787 1238.79ZM356 1226.57C356 1229.78 356.002 1232.27 355.744 1234.19C355.483 1236.14 354.946 1237.62 353.793 1238.79L352.778 1237.78C353.625 1236.93 354.088 1235.79 354.328 1234C354.57 1232.19 354.571 1229.82 354.571 1226.57H356ZM356 1225.43V1226.57H354.571V1225.43H356ZM353.794 1213.21C354.946 1214.38 355.483 1215.87 355.744 1217.82C356.002 1219.74 356 1222.22 356 1225.43H354.571C354.571 1222.18 354.57 1219.81 354.328 1218.01C354.088 1216.22 353.625 1215.08 352.777 1214.22L353.794 1213.21ZM341.571 1211C344.785 1211 347.265 1211 349.191 1211.26C351.138 1211.52 352.624 1212.05 353.788 1213.21L352.783 1214.22C351.928 1213.37 350.791 1212.91 349.002 1212.67C347.192 1212.43 344.825 1212.43 341.571 1212.43V1211ZM340.429 1211H341.571V1212.43H340.429V1211ZM328.213 1213.21C329.381 1212.05 330.869 1211.52 332.816 1211.26C334.742 1211 337.22 1211 340.429 1211V1212.43C337.18 1212.43 334.815 1212.43 333.005 1212.67C331.217 1212.91 330.076 1213.37 329.216 1214.22L328.213 1213.21ZM341.914 1233.01C338.483 1233.01 335.715 1231.83 333.797 1229.6C331.894 1227.4 330.898 1224.25 330.819 1220.42L332.247 1220.39C332.321 1224 333.259 1226.79 334.879 1228.67C336.485 1230.53 338.832 1231.58 341.914 1231.58V1233.01ZM341.924 1233.01H341.914V1231.58H341.924V1233.01ZM342.295 1233.01H341.924V1231.58H342.295V1233.01ZM343.01 1228.05V1232.3H341.581V1228.05H343.01ZM346.539 1232.51C345.885 1230.47 344.279 1228.96 342.224 1228.76L342.366 1227.34C345.092 1227.61 347.106 1229.6 347.899 1232.08L346.539 1232.51ZM350.6 1233.01H347.219V1231.58H350.6V1233.01ZM349.349 1228.34C350.255 1229.44 350.916 1230.73 351.29 1232.11L349.911 1232.48C349.59 1231.3 349.022 1230.19 348.244 1229.24L349.349 1228.34ZM346.033 1225.69C347.312 1226.33 348.443 1227.23 349.349 1228.34L348.244 1229.24C347.466 1228.29 346.495 1227.52 345.396 1226.97L346.033 1225.69ZM349.003 1224.21C348.229 1225.31 347.236 1226.24 346.086 1226.94L345.343 1225.72C346.325 1225.13 347.173 1224.33 347.834 1223.39L349.003 1224.21ZM350.586 1220.54C350.316 1221.86 349.777 1223.11 349.003 1224.21L347.834 1223.39C348.495 1222.45 348.956 1221.38 349.186 1220.26L350.586 1220.54ZM346.819 1219.69H349.886V1221.11H346.819V1219.69ZM342.22 1224.39C342.929 1224.32 343.747 1223.86 344.493 1223.07C345.23 1222.3 345.831 1221.27 346.132 1220.21L347.507 1220.59C347.14 1221.89 346.418 1223.12 345.529 1224.06C344.649 1224.98 343.538 1225.69 342.371 1225.81L342.22 1224.39ZM343.01 1220.41V1225.1H341.581V1220.41H343.01ZM339.219 1219.7H342.295V1221.12H339.219V1219.7ZM338.505 1228.64V1220.41H339.933V1228.64H338.505ZM335.524 1220.4C335.625 1225.65 337.908 1227.57 339.392 1227.95L339.046 1229.33C336.721 1228.75 334.204 1226.07 334.095 1220.42L335.524 1220.4ZM331.533 1219.7H334.81V1221.12H331.533V1219.7Z" fill="#FCE6FB"/>
<path d="M328.207 1213.21L328.714 1213.71L328.213 1213.21M328.207 1213.21L328.213 1213.21M328.207 1213.21C327.054 1214.38 326.517 1215.86 326.256 1217.81C325.999 1219.74 326 1222.22 326 1225.43M328.207 1213.21L329.222 1214.22C328.375 1215.07 327.912 1216.21 327.672 1218C327.43 1219.81 327.429 1222.18 327.429 1225.43M328.213 1213.21C329.381 1212.05 330.869 1211.52 332.816 1211.26C334.742 1211 337.22 1211 340.429 1211M328.213 1213.21L329.216 1214.22C330.076 1213.37 331.217 1212.91 333.005 1212.67C334.815 1212.43 337.18 1212.43 340.429 1212.43M328.212 1238.79L328.714 1238.29L328.206 1238.79M328.212 1238.79L328.206 1238.79M328.212 1238.79C329.376 1239.95 330.862 1240.48 332.809 1240.74C334.735 1241 337.215 1241 340.429 1241M328.212 1238.79L329.217 1237.78C330.072 1238.63 331.209 1239.09 332.998 1239.33C334.808 1239.57 337.175 1239.57 340.429 1239.57M328.206 1238.79C327.054 1237.62 326.517 1236.13 326.256 1234.18C325.999 1232.26 326 1229.78 326 1226.57M328.206 1238.79L329.223 1237.78C328.375 1236.92 327.912 1235.78 327.672 1233.99C327.43 1232.19 327.429 1229.82 327.429 1226.57M353.793 1238.79L353.286 1238.29L353.787 1238.79M353.793 1238.79L353.787 1238.79M353.793 1238.79C354.946 1237.62 355.483 1236.14 355.744 1234.19C356.002 1232.27 356 1229.78 356 1226.57M353.793 1238.79L352.778 1237.78C353.625 1236.93 354.088 1235.79 354.328 1234C354.57 1232.19 354.571 1229.82 354.571 1226.57M353.787 1238.79C352.619 1239.95 351.131 1240.48 349.184 1240.74C347.258 1241 344.78 1241 341.571 1241M353.787 1238.79L352.784 1237.78C351.924 1238.63 350.783 1239.09 348.995 1239.33C347.185 1239.57 344.82 1239.57 341.571 1239.57M353.788 1213.21L353.286 1213.71L353.794 1213.21M353.788 1213.21L353.794 1213.21M353.788 1213.21C352.624 1212.05 351.138 1211.52 349.191 1211.26C347.265 1211 344.785 1211 341.571 1211M353.788 1213.21L352.783 1214.22C351.928 1213.37 350.791 1212.91 349.002 1212.67C347.192 1212.43 344.825 1212.43 341.571 1212.43M353.794 1213.21C354.946 1214.38 355.483 1215.87 355.744 1217.82C356.002 1219.74 356 1222.22 356 1225.43M353.794 1213.21L352.777 1214.22C353.625 1215.08 354.088 1216.22 354.328 1218.01C354.57 1219.81 354.571 1222.18 354.571 1225.43M330.819 1220.42L331.533 1220.41V1219.7M330.819 1220.42C330.815 1220.23 330.889 1220.05 331.023 1219.91C331.157 1219.77 331.341 1219.7 331.533 1219.7M330.819 1220.42C330.898 1224.25 331.894 1227.4 333.797 1229.6C335.715 1231.83 338.483 1233.01 341.914 1233.01M330.819 1220.42L332.247 1220.39C332.321 1224 333.259 1226.79 334.879 1228.67C336.485 1230.53 338.832 1231.58 341.914 1231.58M331.533 1219.7H334.81M331.533 1219.7V1221.12H334.81V1219.7M343.01 1232.3H342.295V1233.01M343.01 1232.3C343.01 1232.69 342.69 1233.01 342.295 1233.01M343.01 1232.3V1228.05H341.581M343.01 1232.3H341.581V1228.05M342.295 1233.01H341.924M342.295 1233.01V1231.58H341.924M341.581 1228.05H342.295L342.366 1227.34M341.581 1228.05C341.581 1227.85 341.666 1227.65 341.816 1227.52C341.965 1227.38 342.165 1227.32 342.366 1227.34M342.366 1227.34L342.224 1228.76C344.279 1228.96 345.885 1230.47 346.539 1232.51M342.366 1227.34C345.092 1227.61 347.106 1229.6 347.899 1232.08L346.539 1232.51M347.219 1233.01V1232.3L346.539 1232.51M347.219 1233.01C346.909 1233.01 346.634 1232.81 346.539 1232.51M347.219 1233.01H350.6M347.219 1233.01V1231.58H350.6V1233.01M351.29 1232.11L350.6 1232.3V1233.01M351.29 1232.11C351.348 1232.32 351.302 1232.55 351.167 1232.73C351.032 1232.91 350.822 1233.01 350.6 1233.01M351.29 1232.11C350.916 1230.73 350.255 1229.44 349.349 1228.34M351.29 1232.11L349.911 1232.48C349.59 1231.3 349.022 1230.19 348.244 1229.24M345.396 1226.97L345.714 1226.33L345.343 1225.72M345.396 1226.97C345.163 1226.86 345.012 1226.62 345.001 1226.36C344.99 1226.1 345.121 1225.86 345.343 1225.72M345.396 1226.97C346.495 1227.52 347.466 1228.29 348.244 1229.24M345.396 1226.97L346.033 1225.69C347.312 1226.33 348.443 1227.23 349.349 1228.34M345.343 1225.72L346.086 1226.94C347.236 1226.24 348.229 1225.31 349.003 1224.21M345.343 1225.72C346.325 1225.13 347.173 1224.33 347.834 1223.39M348.418 1223.8L349.003 1224.21M349.003 1224.21L347.834 1223.39M349.003 1224.21C349.777 1223.11 350.316 1221.86 350.586 1220.54M349.886 1219.69V1220.4L350.586 1220.54M349.886 1219.69C350.1 1219.69 350.303 1219.78 350.439 1219.95C350.575 1220.11 350.629 1220.33 350.586 1220.54M349.886 1219.69H346.819M349.886 1219.69V1221.11H346.819V1219.69M350.586 1220.54L349.186 1220.26C348.956 1221.38 348.495 1222.45 347.834 1223.39M346.132 1220.21L346.819 1220.4V1219.69M346.132 1220.21C346.219 1219.9 346.499 1219.69 346.819 1219.69M346.132 1220.21C345.831 1221.27 345.23 1222.3 344.493 1223.07C343.747 1223.86 342.929 1224.32 342.22 1224.39L342.371 1225.81M346.132 1220.21L347.507 1220.59C347.14 1221.89 346.418 1223.12 345.529 1224.06C344.649 1224.98 343.538 1225.69 342.371 1225.81M342.371 1225.81L342.295 1225.1H341.581M342.371 1225.81C342.17 1225.84 341.968 1225.77 341.818 1225.64C341.667 1225.5 341.581 1225.31 341.581 1225.1M341.581 1225.1H343.01V1220.41M341.581 1225.1V1220.41H343.01M342.295 1219.7V1220.41H343.01M342.295 1219.7C342.69 1219.7 343.01 1220.02 343.01 1220.41M342.295 1219.7H339.219M342.295 1219.7V1221.12H339.219V1219.7M338.505 1220.41H339.219V1219.7M338.505 1220.41C338.505 1220.02 338.825 1219.7 339.219 1219.7M338.505 1220.41V1228.64H339.933M338.505 1220.41H339.933V1228.64M339.933 1228.64H339.219L339.046 1229.33M339.933 1228.64C339.933 1228.86 339.832 1229.07 339.659 1229.2C339.485 1229.34 339.259 1229.38 339.046 1229.33M339.046 1229.33L339.392 1227.95C337.908 1227.57 335.625 1225.65 335.524 1220.4M339.046 1229.33C336.721 1228.75 334.204 1226.07 334.095 1220.42L335.524 1220.4M334.81 1219.7V1220.41L335.524 1220.4M334.81 1219.7C335.199 1219.7 335.516 1220.01 335.524 1220.4M326 1225.43H327.429M326 1225.43V1226.57M327.429 1225.43V1226.57M326 1226.57H327.429M340.429 1241V1239.57M340.429 1241H341.571M340.429 1239.57H341.571M341.571 1241V1239.57M356 1226.57H354.571M356 1226.57V1225.43M354.571 1226.57V1225.43M356 1225.43H354.571M341.571 1211V1212.43M341.571 1211H340.429M341.571 1212.43H340.429M340.429 1211V1212.43M341.914 1233.01V1231.58M341.914 1233.01H341.924M341.914 1231.58H341.924M341.924 1233.01V1231.58M349.349 1228.34L348.244 1229.24" stroke="#FCE6FB" stroke-width="0.00185"/>
</svg>
