<svg width="64" height="64" viewBox="0 0 64 64" fill="none" xmlns="http://www.w3.org/2000/svg">
<path d="M64 32C64 14.3269 49.6731 0 32 0C14.3269 0 0 14.3269 0 32C0 49.6731 14.3269 64 32 64C49.6731 64 64 49.6731 64 32Z" fill="#4F4F4F"/>
<path d="M34.1936 32.0254C33.5536 31.7299 33.5536 30.6012 33.5139 29.8153C33.3539 27.0157 34.1539 22.7416 33.1939 20.9245C32.5142 19.843 29.2336 19.942 27.2343 20.0898C26.6737 20.1888 25.994 20.335 25.514 20.6305C25.034 20.9261 24.554 21.4165 24.554 21.8582C24.554 22.4964 25.7546 22.3989 26.1937 23.2336C26.6737 24.1186 26.6737 26.0332 26.6737 27.6052C26.6737 29.4223 26.433 31.8305 25.834 31.9279C24.9137 31.9767 24.394 30.8465 23.914 30.0118C22.954 28.3911 21.994 26.3759 21.2734 24.411C20.9137 23.3798 20.7128 22.2496 20.1931 21.8079C19.3931 21.1194 17.9531 21.0707 16.5528 21.1194C15.2728 21.1681 13.4322 20.9716 13.0725 21.9054C12.7922 22.9365 13.3925 23.919 13.7125 24.7553C15.3522 29.1268 17.1122 32.9591 19.2728 36.5934C21.2734 39.9825 23.1524 42.6846 26.8324 44.1088C27.873 44.5017 32.4323 45.632 33.3526 44.1088C33.6726 43.5193 33.5932 42.1926 33.7532 41.2101C33.9132 40.2277 34.1129 39.2452 34.8732 39.1965C35.5132 39.1478 35.8729 39.8347 36.2735 40.3267C36.7138 40.8675 37.0735 41.3092 37.3935 41.8012C38.1538 42.7349 38.9538 44.0113 39.9138 44.5033C41.2335 45.1918 43.2738 44.9953 45.1937 44.8963C46.754 44.8476 47.874 44.4546 47.9943 43.3244C48.075 42.4394 47.2737 41.163 46.7937 40.4258C45.5931 38.6086 45.0337 38.0679 43.6731 36.3969C43.0728 35.6597 42.3125 34.8737 42.3125 33.9903C42.2728 33.4496 42.6325 32.9591 42.9525 32.4184C44.3528 29.864 45.7531 28.0469 47.0331 25.3935C47.3928 24.6075 48.2337 22.7904 47.9137 21.9054C47.554 20.9229 45.5534 21.2169 44.3131 21.2169C42.7131 21.2169 40.6332 21.0691 40.2325 21.4621C39.4722 22.1003 39.1522 23.133 38.7925 24.1155C37.9926 26.3759 36.9122 28.6835 35.7923 30.4032C35.3916 30.9926 34.6326 32.2203 34.1923 32.0238L34.1936 32.0254Z" stroke="#FCE6FB" stroke-width="2"/>
</svg>
