<svg width="64" height="64" viewBox="0 0 64 64" fill="none" xmlns="http://www.w3.org/2000/svg">
<path d="M64 32C64 14.3269 49.6731 0 32 0C14.3269 0 0 14.3269 0 32C0 49.6731 14.3269 64 32 64C49.6731 64 64 49.6731 64 32Z" fill="#4F4F4F"/>
<path d="M32.5781 14C29.5007 14.0008 26.4774 14.8093 23.8103 16.3447C21.1433 17.8801 18.9259 20.0886 17.3799 22.7495C15.8338 25.4104 15.0133 28.4305 15.0002 31.5079C14.9871 34.5853 15.7819 37.6122 17.3052 40.2862L15.7224 45.8262C15.6191 46.1879 15.6144 46.5706 15.7088 46.9348C15.8031 47.2989 15.9932 47.6312 16.2592 47.8972C16.5252 48.1631 16.8574 48.3531 17.2216 48.4475C17.5857 48.5418 17.9685 48.5371 18.3302 48.4337L23.8702 46.851C26.2091 48.1845 28.8231 48.9629 31.5105 49.1263C34.1979 49.2896 36.8869 48.8334 39.3701 47.793C41.8534 46.7526 44.0644 45.1557 45.8328 43.1255C47.6011 41.0953 48.8795 38.6861 49.5694 36.0836C50.2592 33.4811 50.3421 30.7549 49.8116 28.1153C49.2811 25.4758 48.1513 22.9933 46.5095 20.8595C44.8677 18.7256 42.7577 16.9974 40.3423 15.8081C37.9268 14.6188 35.2705 14.0002 32.5781 14ZM32.5781 47.75C29.6737 47.752 26.8224 46.9706 24.3247 45.4882C24.2424 45.4392 24.1509 45.4075 24.0559 45.3952C23.9608 45.3828 23.8643 45.3901 23.7722 45.4164L17.9437 47.0817C17.8232 47.1162 17.6956 47.1177 17.5742 47.0863C17.4528 47.0548 17.3421 46.9915 17.2534 46.9028C17.1648 46.8141 17.1014 46.7033 17.07 46.582C17.0386 46.4606 17.0402 46.333 17.0746 46.2124L18.7397 40.3842C18.766 40.292 18.7733 40.1955 18.7609 40.1005C18.7486 40.0055 18.7169 39.914 18.668 39.8316C16.8465 36.7628 16.091 33.1777 16.5194 29.6349C16.9478 26.092 18.5358 22.7902 21.0362 20.244C23.5367 17.6977 26.809 16.05 30.3435 15.5573C33.878 15.0647 37.4762 15.7548 40.5776 17.5203C43.679 19.2858 46.1094 22.0274 47.4902 25.3181C48.871 28.6088 49.1247 32.2638 48.2118 35.7138C47.2989 39.1637 45.2706 42.2148 42.4429 44.3919C39.6151 46.5689 36.1468 47.7496 32.5781 47.75ZM41.4571 34.8376L37.8607 32.7825C37.5353 32.5968 37.1663 32.501 36.7917 32.505C36.4171 32.509 36.0502 32.6126 35.7289 32.8052L33.3019 34.2614C31.8327 33.517 30.6392 32.3234 29.8949 30.8542L31.351 28.4273C31.5436 28.1059 31.6472 27.7391 31.6511 27.3645C31.6551 26.9899 31.5594 26.621 31.3737 26.2956L29.3186 22.6991C29.1508 22.4063 28.9088 22.1629 28.6169 21.9936C28.325 21.8242 27.9936 21.7348 27.6562 21.7344C26.1681 21.7347 24.7407 22.3246 23.6865 23.3749C22.6323 24.4252 22.0371 25.8503 22.0312 27.3384C22.0284 29.2792 22.4083 31.2015 23.1491 32.9954C23.89 34.7892 24.9771 36.4194 26.3485 37.7927C27.7199 39.1661 29.3485 40.2556 31.1413 40.9989C32.9341 41.7423 34.8558 42.125 36.7966 42.125H36.8177C38.3058 42.1191 39.731 41.5239 40.7812 40.4697C41.8315 39.4155 42.4214 37.9881 42.4218 36.5C42.4214 36.1625 42.332 35.8312 42.1626 35.5393C41.9932 35.2474 41.7499 35.0054 41.4571 34.8376ZM36.8158 40.7188H36.7967C35.0407 40.7187 33.302 40.3726 31.6799 39.7C30.0579 39.0275 28.5843 38.0417 27.3436 36.7992C26.1028 35.5567 25.1191 34.0817 24.4489 32.4587C23.7786 30.8357 23.4349 29.0965 23.4374 27.3405C23.4423 26.2248 23.8889 25.1566 24.6796 24.3694C25.4702 23.5823 26.5405 23.1405 27.6562 23.1406C27.7458 23.1407 27.8338 23.1645 27.9113 23.2094C27.9888 23.2544 28.0531 23.319 28.0977 23.3967L30.1527 26.9934C30.2146 27.1019 30.2465 27.2248 30.2452 27.3497C30.2439 27.4745 30.2093 27.5968 30.1452 27.7039L28.4947 30.4546C28.4364 30.5518 28.4024 30.6617 28.3957 30.7749C28.389 30.8881 28.4098 31.0013 28.4564 31.1047C29.3741 33.1472 31.009 34.7822 33.0516 35.6999C33.155 35.7464 33.2682 35.7672 33.3814 35.7606C33.4946 35.7539 33.6045 35.7198 33.7017 35.6614L36.4523 34.0111C36.5594 33.9469 36.6817 33.9123 36.8066 33.911C36.9314 33.9096 37.0544 33.9415 37.1629 34.0034L40.7595 36.0587C40.8372 36.1032 40.9018 36.1675 40.9468 36.245C40.9917 36.3224 41.0155 36.4104 41.0155 36.5C41.0157 37.6156 40.5738 38.6859 39.7868 39.4766C38.9997 40.2672 37.9314 40.7139 36.8158 40.7188Z" fill="#FCE6FB" stroke="#FCE6FB" stroke-width="0.25"/>
</svg>
