<svg width="56" height="48" viewBox="0 0 56 48" fill="none" xmlns="http://www.w3.org/2000/svg">
<path d="M28.7044 47.2898C21.8261 47.2898 14.9478 47.2954 8.06957 47.2898C6.05284 47.2898 4.06991 47.0909 2.36865 45.8751C1.02793 44.919 0.199829 43.6756 0.199829 41.979C0.211096 34.6067 0.199829 27.24 0.199829 19.8678C0.199829 17.9723 1.12369 16.5243 2.67285 15.5351C3.94035 14.7227 5.32051 14.054 6.70631 13.4572C14.3451 10.1634 22.0007 6.90287 29.6564 3.65334C31.9999 2.65859 34.3433 1.65831 36.7431 0.818295C38.4613 0.215917 40.1231 0.56408 41.5371 1.77989C42.1793 2.33253 42.4553 3.05096 42.4609 3.86887C42.4666 11.534 42.4835 19.2046 42.4553 26.8698C42.444 29.5114 40.7484 31.5341 37.7515 32.4846C34.2532 33.5954 30.7211 34.6178 27.2003 35.6678C21.7754 37.2815 16.3393 38.8731 10.9257 40.52C10.2609 40.7245 9.61873 41.1334 9.0892 41.5921C8.58783 42.0232 8.72866 42.4819 9.38213 42.5537C10.4187 42.6698 11.5115 42.7913 12.5143 42.6034C18.4743 41.4705 24.4174 40.2492 30.3662 39.061C34.2025 38.2929 38.0388 37.5468 41.8751 36.7731C43.4242 36.4581 44.7931 35.7673 45.9311 34.6841C46.9789 33.6894 47.6211 32.5343 47.6042 31.0256C47.5647 26.7924 47.6042 22.5536 47.5816 18.3149C47.576 17.0493 47.8295 16.7178 49.097 16.7399C50.1504 16.7564 51.2095 16.7786 52.2516 16.9112C53.998 17.1322 54.888 17.9557 55.2486 19.6468C55.4176 20.4315 55.5077 21.2439 55.5133 22.0397C55.5415 28.6714 55.5359 35.3031 55.5471 41.9347C55.5471 42.2829 55.5471 42.6256 55.5471 42.9737C55.519 45.1953 54.6007 46.4056 52.4094 46.9638C51.6432 47.1572 50.8377 47.2733 50.049 47.2788C42.9341 47.3009 35.8193 47.2898 28.71 47.2898H28.7044ZM28.8002 20.1939C30.2986 20.1607 31.7745 19.4423 32.9068 18.0386C33.5096 17.287 33.8082 16.4525 33.38 15.5406C32.935 14.5956 32.09 14.1646 31.0647 14.1259C29.448 14.0651 28.034 14.6122 26.806 15.6235C25.8145 16.4359 25.3413 17.812 25.6906 18.757C26.0398 19.6965 27.0144 20.1994 28.8058 20.1994L28.8002 20.1939Z" fill="#FCE6FB"/>
</svg>
