<svg width="1920" height="900" viewBox="0 0 1920 2836" fill="none" xmlns="http://www.w3.org/2000/svg">
<path d="M1920 0H0V2836H1920V0Z" fill="#FEFDFC"/>
<path d="M71.4317 280.303C69.1225 278.497 66.8424 276.824 64.6782 274.998C60.659 271.6 57.0842 267.766 54.5915 262.948C51.0457 256.091 51.123 249.275 55.0263 242.631C59.0069 235.845 64.2048 230.357 71.1418 226.899C78.4266 223.257 86.011 222.862 93.7885 224.738C94.2137 224.84 94.6388 224.941 95.0639 225.042C95.2281 223.166 95.3344 221.36 95.5663 219.575C96.4358 212.891 99.8464 208.124 105.489 204.939C111.373 201.612 117.527 199.624 124.251 200.06C129.034 200.374 133.633 201.541 137.855 203.995C144.435 207.819 147.758 213.865 148.57 221.573C148.695 222.76 148.734 223.957 148.811 225.286C149.12 225.184 149.41 225.093 149.7 224.992C155.188 223.004 160.792 221.908 166.618 222.517C175.603 223.45 182.366 228.167 187.245 236.017C189.371 239.436 191.1 243.057 191.969 247.063C193.544 254.336 191.67 260.605 186.704 265.798C184.897 267.695 182.723 269.206 180.714 270.89C180.463 271.093 180.182 271.255 179.893 271.448C180.926 273.182 181.97 274.846 182.917 276.56C185.129 280.587 186.83 284.827 187.38 289.472C188.25 296.775 185.747 302.648 180.414 307.304C172.067 314.607 162.637 316.108 152.357 313.106C152.135 313.045 151.913 312.984 151.603 312.903C151.526 314.343 151.497 315.743 151.372 317.133C150.85 323.137 149.111 328.665 145.149 333.139C139.807 339.174 133.15 342.359 125.256 342.318C120.88 342.298 117.16 340.3 113.894 337.358C109.904 333.768 107.151 329.223 104.822 324.355C104.706 324.111 104.581 323.858 104.455 323.624C104.426 323.574 104.368 323.553 104.291 323.503C103.199 324.243 102.126 325.034 100.996 325.744C96.4938 328.564 91.663 330.116 86.3588 329.802C82.3589 329.568 78.6682 328.26 75.248 326.109C70.6587 323.208 66.8521 319.405 63.9053 314.729C59.4899 307.71 59.4706 300.366 62.7556 292.87C64.7265 288.377 67.5863 284.532 70.823 280.982C71.0259 280.759 71.2191 280.536 71.422 280.303H71.4317ZM124.367 212.019C122.454 212.282 120.512 212.404 118.628 212.83C112.822 214.128 108.909 217.618 107.527 223.856C106.909 226.665 106.822 229.526 107.141 232.386C107.44 235.013 106.474 237.032 104.561 238.563C102.668 240.085 100.6 240.105 98.4261 239.121C96.088 238.066 93.7499 236.981 91.3248 236.19C87.0737 234.79 82.7357 234.415 78.4749 236.149C73.8277 238.046 69.8858 241.048 66.7844 245.167C62.9295 250.299 62.8715 255.442 66.4849 260.777C68.3303 263.495 70.6587 265.717 73.3446 267.441C76.8904 269.723 80.5425 271.803 84.156 273.953C86.4554 275.322 87.3926 277.584 86.7453 280.272C86.3491 281.915 85.4989 283.234 84.2622 284.309C83.4507 285.009 82.6101 285.689 81.8082 286.399C78.6875 289.178 75.8277 292.211 73.847 296.025C70.852 301.776 71.5573 307.06 76.0402 311.625C77.3156 312.923 78.7358 314.1 80.2333 315.104C85.296 318.502 90.4263 318.461 95.5276 315.124C98.1652 313.4 100.378 311.179 102.445 308.765C103.643 307.365 105.131 306.665 106.919 306.939C109.373 307.314 111.102 308.754 112.049 311.168C112.377 312.02 112.619 312.913 112.909 313.785C114.213 317.711 115.633 321.575 117.971 324.994C120.764 329.071 124.319 330.958 129.208 329.741C135.42 328.199 139.198 323.949 139.981 317.285C140.473 313.126 139.884 309.079 139.043 305.032C138.821 303.957 138.783 302.729 139.053 301.685C139.971 298.084 143.836 296.39 147.178 297.982C149.12 298.915 151.033 299.93 153.024 300.751C156.869 302.334 160.821 303.389 165.023 302.831C171.709 301.948 176.743 295.01 175.622 288.164C175.149 285.283 173.864 282.747 172.192 280.465C170.588 278.274 168.888 276.154 167.139 274.085C163.98 270.312 164.888 265.818 169.197 263.779C171.912 262.491 174.666 261.223 177.197 259.59C180.743 257.298 182.018 253.687 180.936 249.457C179.197 242.681 174.936 238.158 168.878 235.51C164.328 233.522 159.7 234.029 155.12 235.561C151.352 236.829 147.922 238.807 144.541 240.917C141.961 242.519 139.005 241.87 137.179 239.375C135.952 237.701 135.662 235.845 136.155 233.796C137.053 230.053 137.613 226.27 137.159 222.385C136.56 217.283 133.826 213.875 129.16 212.708C127.604 212.323 125.981 212.242 124.358 212.008L124.367 212.019Z" fill="#5D77F4" fill-opacity="0.7"/>
<path d="M144.464 271.235C144.415 283.701 134.744 293.803 122.947 293.722C111.054 293.641 101.441 283.477 101.537 271.103C101.644 258.647 111.218 248.636 123.015 248.656C134.879 248.676 144.512 258.819 144.464 271.224V271.235Z" fill="#333333" fill-opacity="0.9"/>
<path d="M173.69 562.365C176.927 565.915 179.777 569.76 181.758 574.253C185.052 581.749 185.023 589.093 180.608 596.112C177.661 600.788 173.854 604.602 169.265 607.492C165.845 609.643 162.154 610.951 158.154 611.185C152.86 611.499 148.029 609.937 143.517 607.127C142.387 606.427 141.314 605.636 140.222 604.886C140.145 604.936 140.087 604.957 140.058 605.007C139.933 605.251 139.807 605.494 139.691 605.738C137.363 610.606 134.599 615.151 130.619 618.741C127.353 621.683 123.633 623.681 119.257 623.701C111.363 623.742 104.706 620.547 99.3636 614.522C95.4024 610.049 93.6536 604.51 93.1416 598.516C93.0256 597.126 92.987 595.726 92.9097 594.286C92.6005 594.367 92.3783 594.428 92.1561 594.489C81.8762 597.501 72.4465 595.99 64.0989 588.687C58.7657 584.031 56.2633 578.158 57.1329 570.855C57.6836 566.199 59.384 561.96 61.5965 557.943C62.5433 556.229 63.5965 554.565 64.6206 552.831C64.3307 552.638 64.0409 552.476 63.7993 552.273C61.7897 550.589 59.6159 549.078 57.8092 547.181C52.8431 541.977 50.9688 535.709 52.5436 528.446C53.4132 524.44 55.1426 520.819 57.2681 517.4C62.1569 509.55 68.9103 504.833 77.8956 503.9C83.7215 503.291 89.3252 504.387 94.813 506.375C95.0932 506.476 95.383 506.567 95.7019 506.669C95.7888 505.34 95.8178 504.143 95.9434 502.956C96.7453 495.248 100.079 489.202 106.658 485.378C110.88 482.924 115.479 481.747 120.262 481.443C126.986 481.007 133.15 482.995 139.015 486.311C144.647 489.486 148.068 494.254 148.937 500.948C149.169 502.733 149.266 504.549 149.44 506.415C149.874 506.314 150.299 506.212 150.715 506.111C158.492 504.235 166.077 504.63 173.362 508.272C180.299 511.73 185.497 517.228 189.477 524.004C193.38 530.647 193.458 537.474 189.912 544.321C187.419 549.128 183.844 552.973 179.825 556.371C177.661 558.196 175.381 559.87 173.072 561.676C173.275 561.909 173.468 562.132 173.671 562.355L173.69 562.365ZM115.363 494.101C110.706 495.268 107.962 498.676 107.363 503.778C106.909 507.663 107.47 511.446 108.368 515.189C108.861 517.238 108.571 519.094 107.344 520.768C105.518 523.263 102.552 523.912 99.982 522.31C96.6004 520.21 93.1705 518.222 89.4025 516.954C84.8229 515.412 80.1854 514.915 75.6444 516.903C69.5866 519.551 65.3259 524.075 63.5868 530.85C62.5047 535.08 63.78 538.691 67.3258 540.983C69.8572 542.616 72.6107 543.884 75.3256 545.173C79.6347 547.211 80.5429 551.715 77.3835 555.478C75.6444 557.557 73.9343 559.667 72.3305 561.858C70.6591 564.14 69.3741 566.676 68.9007 569.557C67.7799 576.404 72.8233 583.341 79.4994 584.224C83.7022 584.782 87.6538 583.727 91.4991 582.145C93.4894 581.323 95.3927 580.309 97.3443 579.375C100.697 577.773 104.552 579.477 105.47 583.078C105.74 584.123 105.702 585.35 105.479 586.425C104.639 590.472 104.059 594.529 104.542 598.678C105.325 605.332 109.112 609.582 115.315 611.134C120.204 612.351 123.769 610.464 126.551 606.387C128.889 602.979 130.31 599.104 131.614 595.179C131.904 594.306 132.136 593.414 132.474 592.562C133.421 590.148 135.15 588.707 137.604 588.332C139.392 588.058 140.879 588.758 142.077 590.158C144.145 592.562 146.358 594.793 148.995 596.518C154.096 599.855 159.227 599.895 164.289 596.497C165.787 595.493 167.207 594.316 168.483 593.018C172.956 588.454 173.671 583.169 170.676 577.418C168.685 573.604 165.835 570.571 162.715 567.792C161.913 567.072 161.072 566.402 160.261 565.702C159.034 564.637 158.174 563.309 157.778 561.665C157.121 558.988 158.067 556.716 160.367 555.346C163.98 553.196 167.642 551.116 171.178 548.834C173.864 547.11 176.192 544.889 178.038 542.17C181.651 536.825 181.593 531.692 177.738 526.56C174.647 522.442 170.695 519.439 166.048 517.542C161.797 515.808 157.449 516.193 153.198 517.583C150.773 518.374 148.435 519.459 146.097 520.514C143.923 521.498 141.855 521.478 139.962 519.957C138.049 518.425 137.082 516.396 137.382 513.779C137.701 510.919 137.614 508.059 136.995 505.249C135.624 499.011 131.711 495.511 125.894 494.223C124.01 493.807 122.078 493.675 120.155 493.412C118.532 493.635 116.909 493.716 115.354 494.112L115.363 494.101Z" fill="#E86795" fill-opacity="0.7"/>
<path d="M100.069 552.618C100.117 565.084 109.789 575.186 121.585 575.105C133.479 575.024 143.092 564.861 142.995 552.486C142.889 540.03 133.315 530.019 121.518 530.039C109.653 530.059 100.021 540.202 100.069 552.608V552.618Z" fill="#333333" fill-opacity="0.9"/>
<path d="M72.1277 830.055C69.8186 828.249 67.5384 826.576 65.3743 824.75C61.355 821.352 57.7803 817.518 55.2876 812.7C51.7418 805.843 51.8191 799.027 55.7223 792.383C59.7029 785.597 64.9008 780.11 71.8379 776.651C79.1227 773.009 86.707 772.614 94.4846 774.49C94.9097 774.592 95.3348 774.693 95.7599 774.795C95.9242 772.918 96.0304 771.113 96.2623 769.327C97.1319 762.643 100.542 757.876 106.185 754.691C112.059 751.374 118.223 749.386 124.938 749.822C129.72 750.136 134.319 751.303 138.541 753.758C145.121 757.582 148.444 763.627 149.256 771.336C149.382 772.523 149.42 773.719 149.498 775.048C149.807 774.947 150.097 774.855 150.386 774.754C155.874 772.766 161.478 771.671 167.304 772.279C176.289 773.212 183.052 777.929 187.931 785.78C190.057 789.198 191.786 792.819 192.656 796.826C194.231 804.098 192.356 810.367 187.39 815.56C185.584 817.457 183.41 818.968 181.4 820.652C181.149 820.855 180.869 821.017 180.579 821.21C181.613 822.944 182.656 824.608 183.603 826.322C185.815 830.349 187.516 834.589 188.067 839.234C188.936 846.538 186.434 852.41 181.101 857.066C172.753 864.369 163.323 865.871 153.043 862.868C152.821 862.807 152.599 862.746 152.29 862.665C152.213 864.106 152.184 865.505 152.058 866.895C151.536 872.9 149.797 878.428 145.836 882.901C140.493 888.936 133.836 892.121 125.943 892.081C121.566 892.06 117.846 890.062 114.581 887.121C110.59 883.53 107.837 878.986 105.508 874.117C105.393 873.874 105.267 873.62 105.141 873.387C105.112 873.336 105.054 873.316 104.977 873.265C103.885 874.005 102.813 874.797 101.682 875.507C97.1802 878.326 92.3494 879.878 87.0452 879.564C83.0453 879.331 79.3546 878.022 75.9344 875.872C71.3451 872.971 67.5385 869.167 64.5917 864.491C60.1763 857.472 60.157 850.128 63.4419 842.632C65.4129 838.139 68.2727 834.295 71.5094 830.745C71.7122 830.521 71.9055 830.298 72.1084 830.065L72.1277 830.055ZM125.054 761.771C123.141 762.034 121.199 762.156 119.315 762.582C113.508 763.881 109.595 767.37 108.214 773.608C107.595 776.418 107.508 779.278 107.827 782.138C108.127 784.765 107.161 786.784 105.248 788.316C103.354 789.837 101.286 789.857 99.1125 788.873C96.7744 787.818 94.4363 786.733 92.0112 785.942C87.7601 784.542 83.4221 784.167 79.1613 785.901C74.5141 787.798 70.5722 790.801 67.4708 794.919C63.6158 800.051 63.5579 805.194 67.1713 810.529C69.0167 813.248 71.3451 815.469 74.031 817.193C77.5768 819.475 81.2289 821.555 84.8423 823.705C87.1418 825.075 88.079 827.336 87.4316 830.024C87.0355 831.668 86.1853 832.986 84.9486 834.061C84.137 834.761 83.2965 835.441 82.4946 836.151C79.3739 838.93 76.5141 841.963 74.5334 845.777C71.5383 851.528 72.2436 856.813 76.7266 861.377C78.0019 862.675 79.4222 863.852 80.9197 864.856C85.9824 868.254 91.1127 868.214 96.214 864.876C98.8516 863.152 101.064 860.931 103.132 858.517C104.33 857.117 105.818 856.417 107.605 856.691C110.059 857.066 111.788 858.507 112.735 860.921C113.064 861.773 113.305 862.665 113.595 863.538C114.899 867.463 116.32 871.328 118.658 874.746C121.45 878.823 125.006 880.71 129.894 879.493C136.107 877.951 139.884 873.701 140.667 867.037C141.16 862.878 140.57 858.831 139.73 854.784C139.508 853.709 139.469 852.481 139.739 851.437C140.657 847.836 144.522 846.142 147.865 847.734C149.807 848.668 151.72 849.682 153.71 850.504C157.555 852.086 161.507 853.141 165.71 852.583C172.396 851.7 177.429 844.762 176.308 837.916C175.835 835.035 174.55 832.499 172.879 830.217C171.275 828.026 169.574 825.906 167.826 823.837C164.666 820.064 165.574 815.57 169.884 813.532C172.598 812.243 175.352 810.975 177.883 809.342C181.429 807.05 182.704 803.439 181.622 799.209C179.883 792.434 175.622 787.91 169.565 785.262C165.014 783.274 160.386 783.781 155.807 785.313C152.039 786.581 148.609 788.559 145.227 790.669C142.648 792.271 139.691 791.622 137.865 789.127C136.638 787.453 136.348 785.597 136.841 783.548C137.739 779.805 138.3 776.022 137.846 772.137C137.247 767.035 134.512 763.627 129.846 762.46C128.29 762.075 126.667 761.994 125.044 761.761L125.054 761.771Z" fill="#5D77F4" fill-opacity="0.7"/>
<path d="M145.15 820.987C145.101 833.453 135.43 843.555 123.633 843.474C111.74 843.393 102.127 833.23 102.223 820.855C102.33 808.399 111.904 798.388 123.701 798.408C135.565 798.428 145.198 808.571 145.15 820.977V820.987Z" fill="#333333" fill-opacity="0.9"/>
<path d="M174.376 1112.12C177.613 1115.67 180.463 1119.51 182.444 1124.01C185.738 1131.5 185.709 1138.84 181.294 1145.86C178.347 1150.54 174.54 1154.35 169.951 1157.24C166.531 1159.39 162.84 1160.7 158.84 1160.94C153.546 1161.25 148.715 1159.69 144.203 1156.88C143.073 1156.18 142 1155.39 140.908 1154.64C140.831 1154.69 140.773 1154.71 140.744 1154.76C140.619 1155 140.493 1155.25 140.377 1155.49C138.049 1160.36 135.285 1164.9 131.305 1168.49C128.039 1171.44 124.32 1173.43 119.943 1173.45C112.049 1173.49 105.392 1170.3 100.05 1164.27C96.0884 1159.8 94.3397 1154.26 93.8276 1148.27C93.7117 1146.88 93.673 1145.48 93.5957 1144.04C93.2865 1144.12 93.0643 1144.18 92.8421 1144.24C82.5622 1147.25 73.1325 1145.74 64.7849 1138.44C59.4517 1133.78 56.9494 1127.91 57.8189 1120.61C58.3696 1115.95 60.07 1111.71 62.2825 1107.7C63.2294 1105.98 64.2825 1104.32 65.3066 1102.58C65.0168 1102.39 64.7269 1102.23 64.4854 1102.02C62.4758 1100.34 60.3019 1098.83 58.4952 1096.93C53.5292 1091.73 51.6548 1085.46 53.2296 1078.2C54.0992 1074.19 55.8286 1070.57 57.9542 1067.15C62.8429 1059.3 69.5964 1054.59 78.5816 1053.65C84.4076 1053.04 90.0113 1054.14 95.499 1056.13C95.7792 1056.23 96.0691 1056.32 96.3879 1056.42C96.4749 1055.09 96.5038 1053.9 96.6294 1052.71C97.4314 1045 100.765 1038.95 107.344 1035.13C111.566 1032.68 116.165 1031.5 120.948 1031.19C127.672 1030.76 133.836 1032.75 139.701 1036.06C145.333 1039.24 148.754 1044.01 149.623 1050.7C149.855 1052.49 149.952 1054.3 150.126 1056.17C150.56 1056.07 150.985 1055.96 151.401 1055.86C159.178 1053.99 166.763 1054.38 174.048 1058.02C180.985 1061.48 186.183 1066.98 190.163 1073.76C194.066 1080.4 194.144 1087.23 190.598 1094.07C188.105 1098.88 184.53 1102.72 180.511 1106.12C178.347 1107.95 176.067 1109.62 173.758 1111.43C173.961 1111.66 174.154 1111.88 174.357 1112.11L174.376 1112.12ZM116.049 1043.85C111.392 1045.02 108.648 1048.43 108.049 1053.53C107.595 1057.42 108.156 1061.2 109.054 1064.94C109.547 1066.99 109.257 1068.85 108.03 1070.52C106.204 1073.02 103.238 1073.66 100.668 1072.06C97.2864 1069.96 93.8566 1067.97 90.0886 1066.71C85.509 1065.16 80.8714 1064.67 76.3305 1066.66C70.2727 1069.3 66.0119 1073.83 64.2728 1080.6C63.1907 1084.83 64.4661 1088.44 68.0119 1090.74C70.5432 1092.37 73.2967 1093.64 76.0116 1094.92C80.3207 1096.96 81.2289 1101.47 78.0696 1105.23C76.3305 1107.31 74.6204 1109.42 73.0166 1111.61C71.3451 1113.89 70.0601 1116.43 69.5867 1119.31C68.466 1126.16 73.5093 1133.09 80.1854 1133.98C84.3882 1134.53 88.3398 1133.48 92.1851 1131.9C94.1754 1131.08 96.0787 1130.06 98.0304 1129.13C101.383 1127.53 105.238 1129.23 106.156 1132.83C106.426 1133.87 106.388 1135.1 106.165 1136.18C105.325 1140.22 104.745 1144.28 105.228 1148.43C106.011 1155.08 109.798 1159.33 116.001 1160.89C120.89 1162.1 124.455 1160.22 127.237 1156.14C129.575 1152.73 130.996 1148.86 132.3 1144.93C132.59 1144.06 132.822 1143.17 133.16 1142.31C134.107 1139.9 135.836 1138.46 138.29 1138.08C140.078 1137.81 141.565 1138.51 142.763 1139.91C144.831 1142.31 147.044 1144.55 149.681 1146.27C154.782 1149.61 159.913 1149.65 164.975 1146.25C166.473 1145.25 167.893 1144.07 169.169 1142.77C173.642 1138.21 174.357 1132.92 171.362 1127.17C169.371 1123.36 166.521 1120.32 163.401 1117.54C162.599 1116.82 161.758 1116.15 160.947 1115.45C159.72 1114.39 158.86 1113.06 158.464 1111.42C157.807 1108.74 158.753 1106.47 161.053 1105.1C164.666 1102.95 168.328 1100.87 171.864 1098.59C174.55 1096.86 176.878 1094.64 178.724 1091.92C182.337 1086.58 182.279 1081.44 178.424 1076.31C175.333 1072.19 171.381 1069.19 166.734 1067.29C162.483 1065.56 158.135 1065.95 153.884 1067.34C151.459 1068.13 149.121 1069.21 146.783 1070.27C144.609 1071.25 142.541 1071.23 140.648 1069.71C138.735 1068.18 137.768 1066.15 138.068 1063.53C138.387 1060.67 138.3 1057.81 137.681 1055C136.31 1048.76 132.397 1045.26 126.58 1043.98C124.696 1043.56 122.764 1043.43 120.841 1043.16C119.218 1043.39 117.595 1043.47 116.04 1043.86L116.049 1043.85Z" fill="#E86795" fill-opacity="0.7"/>
<path d="M100.755 1102.37C100.803 1114.84 110.474 1124.94 122.271 1124.86C134.164 1124.78 143.778 1114.61 143.681 1102.24C143.575 1089.78 134 1079.77 122.203 1079.79C110.339 1079.81 100.706 1089.95 100.755 1102.36V1102.37Z" fill="#333333" fill-opacity="0.9"/>
<path d="M1739.99 280.303C1737.68 278.497 1735.4 276.824 1733.23 274.998C1729.21 271.6 1725.64 267.766 1723.15 262.948C1719.6 256.091 1719.68 249.275 1723.58 242.631C1727.56 235.845 1732.76 230.357 1739.7 226.899C1746.98 223.257 1754.57 222.862 1762.34 224.738C1762.77 224.84 1763.19 224.941 1763.62 225.042C1763.78 223.166 1763.89 221.36 1764.12 219.575C1764.99 212.891 1768.4 208.124 1774.04 204.939C1779.93 201.612 1786.08 199.624 1792.81 200.06C1797.59 200.374 1802.19 201.541 1806.41 203.995C1812.99 207.819 1816.31 213.865 1817.12 221.573C1817.25 222.76 1817.29 223.957 1817.37 225.286C1817.68 225.184 1817.96 225.093 1818.25 224.992C1823.74 223.004 1829.35 221.908 1835.17 222.517C1844.16 223.45 1850.92 228.167 1855.8 236.017C1857.93 239.436 1859.65 243.057 1860.52 247.063C1862.1 254.336 1860.22 260.605 1855.26 265.798C1853.45 267.695 1851.28 269.206 1849.27 270.89C1849.02 271.093 1848.74 271.255 1848.45 271.448C1849.48 273.182 1850.52 274.846 1851.47 276.56C1853.68 280.587 1855.38 284.827 1855.93 289.472C1856.8 296.775 1854.3 302.648 1848.97 307.304C1840.62 314.607 1831.19 316.108 1820.91 313.106C1820.69 313.045 1820.47 312.984 1820.16 312.903C1820.08 314.343 1820.05 315.743 1819.93 317.133C1819.4 323.137 1817.67 328.665 1813.7 333.139C1808.36 339.174 1801.7 342.359 1793.81 342.318C1789.43 342.298 1785.71 340.3 1782.45 337.358C1778.46 333.768 1775.71 329.223 1773.38 324.355C1773.26 324.111 1773.14 323.858 1773.01 323.624C1772.98 323.574 1772.92 323.553 1772.85 323.503C1771.75 324.243 1770.68 325.034 1769.55 325.744C1765.05 328.564 1760.22 330.116 1754.91 329.802C1750.91 329.568 1747.22 328.26 1743.8 326.109C1739.21 323.208 1735.41 319.405 1732.46 314.729C1728.04 307.71 1728.03 300.366 1731.31 292.87C1733.28 288.377 1736.14 284.532 1739.38 280.982C1739.58 280.759 1739.77 280.536 1739.98 280.303H1739.99ZM1792.92 212.019C1791.01 212.282 1789.07 212.404 1787.18 212.83C1781.38 214.128 1777.46 217.618 1776.08 223.856C1775.46 226.665 1775.38 229.526 1775.7 232.386C1776 235.013 1775.03 237.032 1773.12 238.563C1771.22 240.085 1769.15 240.105 1766.98 239.121C1764.64 238.066 1762.3 236.981 1759.88 236.19C1755.63 234.79 1751.29 234.415 1747.03 236.149C1742.38 238.046 1738.44 241.048 1735.34 245.167C1731.48 250.299 1731.43 255.442 1735.04 260.777C1736.88 263.495 1739.21 265.717 1741.9 267.441C1745.45 269.723 1749.1 271.803 1752.71 273.953C1755.01 275.322 1755.95 277.584 1755.3 280.272C1754.9 281.915 1754.05 283.234 1752.82 284.309C1752.01 285.009 1751.16 285.689 1750.36 286.399C1747.24 289.178 1744.38 292.211 1742.4 296.025C1739.41 301.776 1740.11 307.06 1744.59 311.625C1745.87 312.923 1747.29 314.1 1748.79 315.104C1753.85 318.502 1758.98 318.461 1764.08 315.124C1766.72 313.4 1768.93 311.179 1771 308.765C1772.2 307.365 1773.69 306.665 1775.47 306.939C1777.93 307.314 1779.66 308.754 1780.6 311.168C1780.93 312.02 1781.17 312.913 1781.46 313.785C1782.77 317.711 1784.19 321.575 1786.53 324.994C1789.32 329.071 1792.87 330.958 1797.76 329.741C1803.97 328.199 1807.75 323.949 1808.54 317.285C1809.03 313.126 1808.44 309.079 1807.6 305.032C1807.38 303.957 1807.34 302.729 1807.61 301.685C1808.53 298.084 1812.39 296.39 1815.73 297.982C1817.68 298.915 1819.59 299.93 1821.58 300.751C1825.42 302.334 1829.38 303.389 1833.58 302.831C1840.26 301.948 1845.3 295.01 1844.18 288.164C1843.7 285.283 1842.42 282.747 1840.75 280.465C1839.14 278.274 1837.44 276.154 1835.69 274.085C1832.53 270.312 1833.44 265.818 1837.75 263.779C1840.47 262.491 1843.22 261.223 1845.75 259.59C1849.3 257.298 1850.57 253.687 1849.49 249.457C1847.75 242.681 1843.49 238.158 1837.43 235.51C1832.88 233.522 1828.25 234.029 1823.67 235.561C1819.91 236.829 1816.48 238.807 1813.1 240.917C1810.52 242.519 1807.56 241.87 1805.73 239.375C1804.51 237.701 1804.22 235.845 1804.71 233.796C1805.61 230.053 1806.17 226.27 1805.71 222.385C1805.12 217.283 1802.38 213.875 1797.71 212.708C1796.16 212.323 1794.54 212.242 1792.91 212.008L1792.92 212.019Z" fill="#5D77F4" fill-opacity="0.7"/>
<path d="M1813.02 271.235C1812.97 283.701 1803.3 293.803 1791.5 293.722C1779.61 293.641 1770 283.477 1770.09 271.103C1770.2 258.647 1779.77 248.636 1791.57 248.656C1803.43 248.676 1813.07 258.819 1813.02 271.224V271.235Z" fill="#333333" fill-opacity="0.9"/>
<path d="M1842.24 562.365C1845.48 565.915 1848.33 569.76 1850.31 574.253C1853.61 581.749 1853.58 589.093 1849.16 596.112C1846.21 600.788 1842.41 604.602 1837.82 607.492C1834.4 609.643 1830.71 610.951 1826.71 611.185C1821.41 611.499 1816.58 609.937 1812.07 607.127C1810.94 606.427 1809.87 605.636 1808.78 604.886C1808.7 604.936 1808.64 604.957 1808.61 605.007C1808.49 605.251 1808.36 605.494 1808.24 605.738C1805.92 610.606 1803.15 615.151 1799.17 618.741C1795.91 621.683 1792.19 623.681 1787.81 623.701C1779.92 623.742 1773.26 620.547 1767.92 614.522C1763.96 610.049 1762.21 604.51 1761.7 598.516C1761.58 597.126 1761.54 595.726 1761.46 594.286C1761.15 594.367 1760.93 594.428 1760.71 594.489C1750.43 597.501 1741 595.99 1732.65 588.687C1727.32 584.031 1724.82 578.158 1725.69 570.855C1726.24 566.199 1727.94 561.96 1730.15 557.943C1731.1 556.229 1732.15 554.565 1733.17 552.831C1732.88 552.638 1732.59 552.476 1732.35 552.273C1730.34 550.589 1728.17 549.078 1726.36 547.181C1721.4 541.977 1719.52 535.709 1721.1 528.446C1721.97 524.44 1723.7 520.819 1725.82 517.4C1730.71 509.55 1737.46 504.833 1746.45 503.9C1752.28 503.291 1757.88 504.387 1763.37 506.375C1763.65 506.476 1763.94 506.567 1764.26 506.669C1764.34 505.34 1764.37 504.143 1764.5 502.956C1765.3 495.248 1768.63 489.202 1775.21 485.378C1779.43 482.924 1784.03 481.747 1788.82 481.443C1795.54 481.007 1801.7 482.995 1807.57 486.311C1813.2 489.486 1816.62 494.254 1817.49 500.948C1817.72 502.733 1817.82 504.549 1817.99 506.415C1818.43 506.314 1818.85 506.212 1819.27 506.111C1827.05 504.235 1834.63 504.63 1841.92 508.272C1848.85 511.73 1854.05 517.228 1858.03 524.004C1861.93 530.647 1862.01 537.474 1858.47 544.321C1855.97 549.128 1852.4 552.973 1848.38 556.371C1846.21 558.196 1843.93 559.87 1841.63 561.676C1841.83 561.909 1842.02 562.132 1842.22 562.355L1842.24 562.365ZM1783.92 494.101C1779.26 495.268 1776.52 498.676 1775.92 503.778C1775.46 507.663 1776.02 511.446 1776.92 515.189C1777.41 517.238 1777.12 519.094 1775.9 520.768C1774.07 523.263 1771.11 523.912 1768.54 522.31C1765.15 520.21 1761.72 518.222 1757.96 516.954C1753.38 515.412 1748.74 514.915 1744.2 516.903C1738.14 519.551 1733.88 524.075 1732.14 530.85C1731.06 535.08 1732.33 538.691 1735.88 540.983C1738.41 542.616 1741.16 543.884 1743.88 545.173C1748.19 547.211 1749.1 551.715 1745.94 555.478C1744.2 557.557 1742.49 559.667 1740.88 561.858C1739.21 564.14 1737.93 566.676 1737.45 569.557C1736.33 576.404 1741.38 583.341 1748.05 584.224C1752.26 584.782 1756.21 583.727 1760.05 582.145C1762.04 581.323 1763.95 580.309 1765.9 579.375C1769.25 577.773 1773.11 579.477 1774.02 583.078C1774.29 584.123 1774.26 585.35 1774.03 586.425C1773.19 590.472 1772.61 594.529 1773.1 598.678C1773.88 605.332 1777.67 609.582 1783.87 611.134C1788.76 612.351 1792.32 610.464 1795.11 606.387C1797.44 602.979 1798.86 599.104 1800.17 595.179C1800.46 594.306 1800.69 593.414 1801.03 592.562C1801.97 590.148 1803.7 588.707 1806.16 588.332C1807.95 588.058 1809.43 588.758 1810.63 590.158C1812.7 592.562 1814.91 594.793 1817.55 596.518C1822.65 599.855 1827.78 599.895 1832.84 596.497C1834.34 595.493 1835.76 594.316 1837.04 593.018C1841.51 588.454 1842.22 583.169 1839.23 577.418C1837.24 573.604 1834.39 570.571 1831.27 567.792C1830.47 567.072 1829.63 566.402 1828.81 565.702C1827.59 564.637 1826.73 563.309 1826.33 561.665C1825.67 558.988 1826.62 556.716 1828.92 555.346C1832.53 553.196 1836.2 551.116 1839.73 548.834C1842.42 547.11 1844.75 544.889 1846.59 542.17C1850.2 536.825 1850.15 531.692 1846.29 526.56C1843.2 522.442 1839.25 519.439 1834.6 517.542C1830.35 515.808 1826 516.193 1821.75 517.583C1819.33 518.374 1816.99 519.459 1814.65 520.514C1812.48 521.498 1810.41 521.478 1808.52 519.957C1806.6 518.425 1805.64 516.396 1805.94 513.779C1806.25 510.919 1806.17 508.059 1805.55 505.249C1804.18 499.011 1800.26 495.511 1794.45 494.223C1792.56 493.807 1790.63 493.675 1788.71 493.412C1787.09 493.635 1785.46 493.716 1783.91 494.112L1783.92 494.101Z" fill="#E86795" fill-opacity="0.7"/>
<path d="M1768.62 552.618C1768.67 565.084 1778.34 575.186 1790.14 575.105C1802.03 575.024 1811.65 564.861 1811.55 552.486C1811.44 540.03 1801.87 530.019 1790.07 530.039C1778.21 530.059 1768.57 540.202 1768.62 552.608V552.618Z" fill="#333333" fill-opacity="0.9"/>
<path d="M1740.68 830.055C1738.37 828.249 1736.09 826.576 1733.93 824.75C1729.91 821.352 1726.33 817.518 1723.84 812.7C1720.3 805.843 1720.37 799.027 1724.28 792.383C1728.26 785.597 1733.45 780.11 1740.39 776.651C1747.68 773.009 1755.26 772.614 1763.04 774.49C1763.46 774.592 1763.89 774.693 1764.31 774.795C1764.48 772.918 1764.58 771.113 1764.82 769.327C1765.69 762.643 1769.1 757.876 1774.74 754.691C1780.61 751.374 1786.78 749.386 1793.49 749.822C1798.27 750.136 1802.87 751.303 1807.1 753.758C1813.67 757.582 1817 763.627 1817.81 771.336C1817.94 772.523 1817.97 773.719 1818.05 775.048C1818.36 774.947 1818.65 774.855 1818.94 774.754C1824.43 772.766 1830.03 771.671 1835.86 772.279C1844.84 773.212 1851.61 777.929 1856.49 785.78C1858.61 789.198 1860.34 792.819 1861.21 796.826C1862.78 804.098 1860.91 810.367 1855.94 815.56C1854.14 817.457 1851.96 818.968 1849.95 820.652C1849.7 820.855 1849.42 821.017 1849.13 821.21C1850.17 822.944 1851.21 824.608 1852.16 826.322C1854.37 830.349 1856.07 834.589 1856.62 839.234C1857.49 846.538 1854.99 852.41 1849.65 857.066C1841.31 864.369 1831.88 865.871 1821.6 862.868C1821.38 862.807 1821.15 862.746 1820.84 862.665C1820.77 864.106 1820.74 865.505 1820.61 866.895C1820.09 872.9 1818.35 878.428 1814.39 882.901C1809.05 888.936 1802.39 892.121 1794.5 892.081C1790.12 892.06 1786.4 890.062 1783.13 887.121C1779.14 883.53 1776.39 878.986 1774.06 874.117C1773.95 873.874 1773.82 873.62 1773.7 873.387C1773.67 873.336 1773.61 873.316 1773.53 873.265C1772.44 874.005 1771.37 874.797 1770.24 875.507C1765.73 878.326 1760.9 879.878 1755.6 879.564C1751.6 879.331 1747.91 878.022 1744.49 875.872C1739.9 872.971 1736.09 869.167 1733.15 864.491C1728.73 857.472 1728.71 850.128 1732 842.632C1733.97 838.139 1736.83 834.295 1740.06 830.745C1740.27 830.521 1740.46 830.298 1740.66 830.065L1740.68 830.055ZM1793.61 761.771C1791.69 762.034 1789.75 762.156 1787.87 762.582C1782.06 763.881 1778.15 767.37 1776.77 773.608C1776.15 776.418 1776.06 779.278 1776.38 782.138C1776.68 784.765 1775.71 786.784 1773.8 788.316C1771.91 789.837 1769.84 789.857 1767.67 788.873C1765.33 787.818 1762.99 786.733 1760.57 785.942C1756.31 784.542 1751.98 784.167 1747.72 785.901C1743.07 787.798 1739.13 790.801 1736.02 794.919C1732.17 800.051 1732.11 805.194 1735.73 810.529C1737.57 813.248 1739.9 815.469 1742.58 817.193C1746.13 819.475 1749.78 821.555 1753.4 823.705C1755.7 825.075 1756.63 827.336 1755.99 830.024C1755.59 831.668 1754.74 832.986 1753.5 834.061C1752.69 834.761 1751.85 835.441 1751.05 836.151C1747.93 838.93 1745.07 841.963 1743.09 845.777C1740.09 851.528 1740.8 856.813 1745.28 861.377C1746.56 862.675 1747.98 863.852 1749.47 864.856C1754.54 868.254 1759.67 868.214 1764.77 864.876C1767.41 863.152 1769.62 860.931 1771.69 858.517C1772.88 857.117 1774.37 856.417 1776.16 856.691C1778.61 857.066 1780.34 858.507 1781.29 860.921C1781.62 861.773 1781.86 862.665 1782.15 863.538C1783.45 867.463 1784.87 871.328 1787.21 874.746C1790 878.823 1793.56 880.71 1798.45 879.493C1804.66 877.951 1808.44 873.701 1809.22 867.037C1809.71 862.878 1809.12 858.831 1808.28 854.784C1808.06 853.709 1808.02 852.481 1808.29 851.437C1809.21 847.836 1813.08 846.142 1816.42 847.734C1818.36 848.668 1820.27 849.682 1822.26 850.504C1826.11 852.086 1830.06 853.141 1834.26 852.583C1840.95 851.7 1845.98 844.762 1844.86 837.916C1844.39 835.035 1843.1 832.499 1841.43 830.217C1839.83 828.026 1838.13 825.906 1836.38 823.837C1833.22 820.064 1834.13 815.57 1838.44 813.532C1841.15 812.243 1843.91 810.975 1846.44 809.342C1849.98 807.05 1851.26 803.439 1850.18 799.209C1848.44 792.434 1844.18 787.91 1838.12 785.262C1833.57 783.274 1828.94 783.781 1824.36 785.313C1820.59 786.581 1817.16 788.559 1813.78 790.669C1811.2 792.271 1808.25 791.622 1806.42 789.127C1805.19 787.453 1804.9 785.597 1805.39 783.548C1806.29 779.805 1806.85 776.022 1806.4 772.137C1805.8 767.035 1803.07 763.627 1798.4 762.46C1796.84 762.075 1795.22 761.994 1793.6 761.761L1793.61 761.771Z" fill="#5D77F4" fill-opacity="0.7"/>
<path d="M1813.7 820.987C1813.66 833.453 1803.98 843.555 1792.19 843.474C1780.29 843.393 1770.68 833.23 1770.78 820.855C1770.88 808.399 1780.46 798.388 1792.26 798.408C1804.12 798.428 1813.75 808.571 1813.7 820.977V820.987Z" fill="#333333" fill-opacity="0.9"/>
<path d="M1842.93 1112.12C1846.17 1115.67 1849.02 1119.51 1851 1124.01C1854.29 1131.5 1854.26 1138.84 1849.85 1145.86C1846.9 1150.54 1843.09 1154.35 1838.51 1157.24C1835.09 1159.39 1831.39 1160.7 1827.39 1160.94C1822.1 1161.25 1817.27 1159.69 1812.76 1156.88C1811.63 1156.18 1810.55 1155.39 1809.46 1154.64C1809.39 1154.69 1809.33 1154.71 1809.3 1154.76C1809.17 1155 1809.05 1155.25 1808.93 1155.49C1806.6 1160.36 1803.84 1164.9 1799.86 1168.49C1796.59 1171.44 1792.87 1173.43 1788.5 1173.45C1780.6 1173.49 1773.95 1170.3 1768.6 1164.27C1764.64 1159.8 1762.89 1154.26 1762.38 1148.27C1762.27 1146.88 1762.23 1145.48 1762.15 1144.04C1761.84 1144.12 1761.62 1144.18 1761.4 1144.24C1751.12 1147.25 1741.69 1145.74 1733.34 1138.44C1728.01 1133.78 1725.5 1127.91 1726.37 1120.61C1726.92 1115.95 1728.62 1111.71 1730.84 1107.7C1731.78 1105.98 1732.84 1104.32 1733.86 1102.58C1733.57 1102.39 1733.28 1102.23 1733.04 1102.02C1731.03 1100.34 1728.86 1098.83 1727.05 1096.93C1722.08 1091.73 1720.21 1085.46 1721.78 1078.2C1722.65 1074.19 1724.38 1070.57 1726.51 1067.15C1731.4 1059.3 1738.15 1054.59 1747.14 1053.65C1752.96 1053.04 1758.57 1054.14 1764.05 1056.13C1764.33 1056.23 1764.62 1056.32 1764.94 1056.42C1765.03 1055.09 1765.06 1053.9 1765.18 1052.71C1765.99 1045 1769.32 1038.95 1775.9 1035.13C1780.12 1032.68 1784.72 1031.5 1789.5 1031.19C1796.23 1030.76 1802.39 1032.75 1808.25 1036.06C1813.89 1039.24 1817.31 1044.01 1818.18 1050.7C1818.41 1052.49 1818.51 1054.3 1818.68 1056.17C1819.11 1056.07 1819.54 1055.96 1819.96 1055.86C1827.73 1053.99 1835.32 1054.38 1842.6 1058.02C1849.54 1061.48 1854.74 1066.98 1858.72 1073.76C1862.62 1080.4 1862.7 1087.23 1859.15 1094.07C1856.66 1098.88 1853.08 1102.72 1849.07 1106.12C1846.9 1107.95 1844.62 1109.62 1842.31 1111.43C1842.51 1111.66 1842.71 1111.88 1842.91 1112.11L1842.93 1112.12ZM1784.6 1043.85C1779.95 1045.02 1777.2 1048.43 1776.6 1053.53C1776.15 1057.42 1776.71 1061.2 1777.61 1064.94C1778.1 1066.99 1777.81 1068.85 1776.58 1070.52C1774.76 1073.02 1771.79 1073.66 1769.22 1072.06C1765.84 1069.96 1762.41 1067.97 1758.64 1066.71C1754.06 1065.16 1749.43 1064.67 1744.88 1066.66C1738.83 1069.3 1734.57 1073.83 1732.83 1080.6C1731.74 1084.83 1733.02 1088.44 1736.57 1090.74C1739.1 1092.37 1741.85 1093.64 1744.57 1094.92C1748.87 1096.96 1749.78 1101.47 1746.62 1105.23C1744.88 1107.31 1743.17 1109.42 1741.57 1111.61C1739.9 1113.89 1738.61 1116.43 1738.14 1119.31C1737.02 1126.16 1742.06 1133.09 1748.74 1133.98C1752.94 1134.53 1756.89 1133.48 1760.74 1131.9C1762.73 1131.08 1764.63 1130.06 1766.58 1129.13C1769.94 1127.53 1773.79 1129.23 1774.71 1132.83C1774.98 1133.87 1774.94 1135.1 1774.72 1136.18C1773.88 1140.22 1773.3 1144.28 1773.78 1148.43C1774.57 1155.08 1778.35 1159.33 1784.56 1160.89C1789.44 1162.1 1793.01 1160.22 1795.79 1156.14C1798.13 1152.73 1799.55 1148.86 1800.85 1144.93C1801.14 1144.06 1801.38 1143.17 1801.71 1142.31C1802.66 1139.9 1804.39 1138.46 1806.84 1138.08C1808.63 1137.81 1810.12 1138.51 1811.32 1139.91C1813.39 1142.31 1815.6 1144.55 1818.24 1146.27C1823.34 1149.61 1828.47 1149.65 1833.53 1146.25C1835.03 1145.25 1836.45 1144.07 1837.72 1142.77C1842.2 1138.21 1842.91 1132.92 1839.92 1127.17C1837.93 1123.36 1835.08 1120.32 1831.95 1117.54C1831.15 1116.82 1830.31 1116.15 1829.5 1115.45C1828.27 1114.39 1827.41 1113.06 1827.02 1111.42C1826.36 1108.74 1827.31 1106.47 1829.61 1105.1C1833.22 1102.95 1836.88 1100.87 1840.42 1098.59C1843.1 1096.86 1845.43 1094.64 1847.28 1091.92C1850.89 1086.58 1850.83 1081.44 1846.98 1076.31C1843.89 1072.19 1839.94 1069.19 1835.29 1067.29C1831.04 1065.56 1826.69 1065.95 1822.44 1067.34C1820.01 1068.13 1817.67 1069.21 1815.34 1070.27C1813.16 1071.25 1811.1 1071.23 1809.2 1069.71C1807.29 1068.18 1806.32 1066.15 1806.62 1063.53C1806.94 1060.67 1806.85 1057.81 1806.24 1055C1804.86 1048.76 1800.95 1045.26 1795.13 1043.98C1793.25 1043.56 1791.32 1043.43 1789.4 1043.16C1787.77 1043.39 1786.15 1043.47 1784.59 1043.86L1784.6 1043.85Z" fill="#E86795" fill-opacity="0.7"/>
<path d="M1769.31 1102.37C1769.36 1114.84 1779.03 1124.94 1790.83 1124.86C1802.72 1124.78 1812.33 1114.61 1812.24 1102.24C1812.13 1089.78 1802.55 1079.77 1790.76 1079.79C1778.89 1079.81 1769.26 1089.95 1769.31 1102.36V1102.37Z" fill="#333333" fill-opacity="0.9"/>
<path d="M72.3985 1376.3C70.0893 1374.5 67.8092 1372.82 65.645 1371C61.6258 1367.6 58.051 1363.77 55.5583 1358.95C52.0125 1352.09 52.0898 1345.27 55.9931 1338.63C59.9737 1331.84 65.1716 1326.36 72.1086 1322.9C79.3934 1319.26 86.9778 1318.86 94.7553 1320.74C95.1805 1320.84 95.6056 1320.94 96.0307 1321.04C96.1949 1319.17 96.3012 1317.36 96.5331 1315.58C97.4026 1308.89 100.813 1304.12 106.456 1300.94C112.339 1297.61 118.494 1295.62 125.218 1296.06C130.001 1296.37 134.6 1297.54 138.822 1300C145.401 1303.82 148.725 1309.86 149.536 1317.57C149.662 1318.76 149.701 1319.96 149.778 1321.29C150.087 1321.18 150.377 1321.09 150.667 1320.99C156.155 1319 161.758 1317.91 167.584 1318.52C176.57 1319.45 183.333 1324.17 188.212 1332.02C190.337 1335.44 192.067 1339.06 192.936 1343.06C194.511 1350.34 192.637 1356.6 187.671 1361.8C185.864 1363.69 183.69 1365.21 181.681 1366.89C181.429 1367.09 181.149 1367.25 180.859 1367.45C181.893 1369.18 182.937 1370.85 183.883 1372.56C186.096 1376.59 187.796 1380.83 188.347 1385.47C189.217 1392.78 186.714 1398.65 181.381 1403.3C173.033 1410.61 163.604 1412.11 153.324 1409.11C153.102 1409.04 152.879 1408.98 152.57 1408.9C152.493 1410.34 152.464 1411.74 152.338 1413.13C151.817 1419.14 150.078 1424.67 146.116 1429.14C140.773 1435.17 134.117 1438.36 126.223 1438.32C121.846 1438.3 118.127 1436.3 114.861 1433.36C110.871 1429.77 108.117 1425.22 105.789 1420.35C105.673 1420.11 105.547 1419.86 105.422 1419.62C105.393 1419.57 105.335 1419.55 105.257 1419.5C104.166 1420.24 103.093 1421.03 101.963 1421.74C97.4606 1424.56 92.6298 1426.12 87.3256 1425.8C83.3257 1425.57 79.635 1424.26 76.2148 1422.11C71.6255 1419.21 67.8189 1415.4 64.8721 1410.73C60.4567 1403.71 60.4374 1396.37 63.7224 1388.87C65.6933 1384.38 68.5531 1380.53 71.7898 1376.98C71.9927 1376.76 72.1859 1376.54 72.3888 1376.3H72.3985ZM125.334 1308.02C123.421 1308.28 121.479 1308.4 119.595 1308.83C113.789 1310.13 109.876 1313.62 108.494 1319.86C107.876 1322.67 107.789 1325.53 108.108 1328.39C108.407 1331.01 107.441 1333.03 105.528 1334.56C103.634 1336.08 101.567 1336.11 99.3929 1335.12C97.0548 1334.07 94.7167 1332.98 92.2916 1332.19C88.0405 1330.79 83.7025 1330.41 79.4417 1332.15C74.7945 1334.05 70.8526 1337.05 67.7512 1341.17C63.8963 1346.3 63.8383 1351.44 67.4517 1356.78C69.2971 1359.5 71.6255 1361.72 74.3114 1363.44C77.8572 1365.72 81.5093 1367.8 85.1227 1369.95C87.4222 1371.32 88.3594 1373.58 87.7121 1376.27C87.3159 1377.92 86.4657 1379.23 85.229 1380.31C84.4175 1381.01 83.5769 1381.69 82.775 1382.4C79.6543 1385.18 76.7945 1388.21 74.8138 1392.02C71.8188 1397.78 72.5241 1403.06 77.007 1407.62C78.2824 1408.92 79.7026 1410.1 81.2001 1411.1C86.2628 1414.5 91.3931 1414.46 96.4944 1411.12C99.132 1409.4 101.345 1407.18 103.412 1404.76C104.61 1403.36 106.098 1402.66 107.885 1402.94C110.339 1403.31 112.069 1404.75 113.016 1407.17C113.344 1408.02 113.586 1408.91 113.876 1409.79C115.18 1413.71 116.6 1417.58 118.938 1420.99C121.73 1425.07 125.286 1426.96 130.175 1425.74C136.387 1424.2 140.165 1419.95 140.947 1413.28C141.44 1409.13 140.851 1405.08 140.01 1401.03C139.788 1399.96 139.749 1398.73 140.02 1397.68C140.938 1394.08 144.802 1392.39 148.145 1393.98C150.087 1394.92 152 1395.93 153.99 1396.75C157.836 1398.33 161.787 1399.39 165.99 1398.83C172.676 1397.95 177.71 1391.01 176.589 1384.16C176.115 1381.28 174.83 1378.75 173.159 1376.46C171.555 1374.27 169.855 1372.15 168.106 1370.08C164.947 1366.31 165.855 1361.82 170.164 1359.78C172.879 1358.49 175.632 1357.22 178.164 1355.59C181.71 1353.3 182.985 1349.69 181.903 1345.46C180.164 1338.68 175.903 1334.16 169.845 1331.51C165.295 1329.52 160.667 1330.03 156.087 1331.56C152.319 1332.83 148.889 1334.81 145.508 1336.92C142.928 1338.52 139.972 1337.87 138.145 1335.37C136.918 1333.7 136.629 1331.84 137.121 1329.8C138.02 1326.05 138.58 1322.27 138.126 1318.38C137.527 1313.28 134.793 1309.87 130.126 1308.71C128.571 1308.32 126.948 1308.24 125.325 1308.01L125.334 1308.02Z" fill="#5D77F4" fill-opacity="0.7"/>
<path d="M145.43 1367.23C145.382 1379.7 135.71 1389.8 123.914 1389.72C112.02 1389.64 102.407 1379.48 102.504 1367.1C102.61 1354.65 112.185 1344.64 123.981 1344.66C135.846 1344.68 145.478 1354.82 145.43 1367.22V1367.23Z" fill="#333333" fill-opacity="0.9"/>
<path d="M174.656 1658.37C177.893 1661.92 180.743 1665.76 182.724 1670.25C186.018 1677.75 185.989 1685.09 181.574 1692.11C178.627 1696.79 174.82 1700.6 170.231 1703.49C166.811 1705.64 163.12 1706.95 159.12 1707.18C153.826 1707.5 148.995 1705.94 144.483 1703.13C143.353 1702.43 142.28 1701.64 141.188 1700.89C141.111 1700.94 141.053 1700.96 141.024 1701.01C140.899 1701.25 140.773 1701.49 140.657 1701.74C138.329 1706.61 135.565 1711.15 131.585 1714.74C128.319 1717.68 124.6 1719.68 120.223 1719.7C112.329 1719.74 105.673 1716.55 100.33 1710.52C96.3684 1706.05 94.6197 1700.51 94.1076 1694.52C93.9917 1693.13 93.953 1691.73 93.8757 1690.29C93.5666 1690.37 93.3444 1690.43 93.1221 1690.49C82.8422 1693.5 73.4125 1691.99 65.0649 1684.69C59.7317 1680.03 57.2294 1674.16 58.0989 1666.86C58.6496 1662.2 60.3501 1657.96 62.5626 1653.94C63.5094 1652.23 64.5625 1650.57 65.5866 1648.83C65.2968 1648.64 65.007 1648.48 64.7654 1648.27C62.7558 1646.59 60.582 1645.08 58.7752 1643.18C53.8092 1637.98 51.9348 1631.71 53.5097 1624.45C54.3792 1620.44 56.1086 1616.82 58.2342 1613.4C63.1229 1605.55 69.8764 1600.83 78.8617 1599.9C84.6876 1599.29 90.2913 1600.39 95.7791 1602.37C96.0593 1602.48 96.3491 1602.57 96.6679 1602.67C96.7549 1601.34 96.7839 1600.14 96.9095 1598.96C97.7114 1591.25 101.045 1585.2 107.624 1581.38C111.846 1578.92 116.445 1577.75 121.228 1577.44C127.952 1577.01 134.116 1578.99 139.981 1582.31C145.613 1585.49 149.034 1590.25 149.903 1596.95C150.135 1598.73 150.232 1600.55 150.406 1602.42C150.84 1602.31 151.266 1602.21 151.681 1602.11C159.459 1600.23 167.043 1600.63 174.328 1604.27C181.265 1607.73 186.463 1613.23 190.443 1620C194.346 1626.65 194.424 1633.47 190.878 1640.32C188.385 1645.13 184.81 1648.97 180.791 1652.37C178.627 1654.2 176.347 1655.87 174.038 1657.68C174.241 1657.91 174.434 1658.13 174.637 1658.36L174.656 1658.37ZM116.329 1590.1C111.672 1591.27 108.928 1594.68 108.329 1599.78C107.875 1603.66 108.436 1607.45 109.334 1611.19C109.827 1613.24 109.537 1615.09 108.31 1616.77C106.484 1619.26 103.518 1619.91 100.948 1618.31C97.5665 1616.21 94.1366 1614.22 90.3686 1612.95C85.789 1611.41 81.1514 1610.92 76.6105 1612.9C70.5527 1615.55 66.2919 1620.07 64.5529 1626.85C63.4708 1631.08 64.7461 1634.69 68.2919 1636.98C70.8232 1638.62 73.5768 1639.88 76.2917 1641.17C80.6007 1643.21 81.5089 1647.71 78.3496 1651.48C76.6105 1653.56 74.9004 1655.67 73.2966 1657.86C71.6251 1660.14 70.3401 1662.68 69.8667 1665.56C68.746 1672.4 73.7893 1679.34 80.4655 1680.22C84.6683 1680.78 88.6198 1679.73 92.4651 1678.14C94.4554 1677.32 96.3588 1676.31 98.3104 1675.38C101.663 1673.77 105.518 1675.48 106.436 1679.08C106.706 1680.12 106.668 1681.35 106.445 1682.43C105.605 1686.47 105.025 1690.53 105.508 1694.68C106.291 1701.33 110.078 1705.58 116.281 1707.13C121.17 1708.35 124.735 1706.46 127.517 1702.39C129.855 1698.98 131.276 1695.1 132.58 1691.18C132.87 1690.31 133.102 1689.41 133.44 1688.56C134.387 1686.15 136.116 1684.71 138.57 1684.33C140.358 1684.06 141.845 1684.76 143.044 1686.16C145.111 1688.56 147.324 1690.79 149.961 1692.52C155.063 1695.85 160.193 1695.9 165.255 1692.5C166.753 1691.49 168.173 1690.32 169.449 1689.02C173.922 1684.45 174.637 1679.17 171.642 1673.42C169.651 1669.6 166.801 1666.57 163.681 1663.79C162.879 1663.07 162.038 1662.4 161.227 1661.7C160 1660.64 159.14 1659.31 158.744 1657.67C158.087 1654.99 159.033 1652.72 161.333 1651.35C164.946 1649.2 168.608 1647.12 172.144 1644.83C174.83 1643.11 177.159 1640.89 179.004 1638.17C182.617 1632.82 182.559 1627.69 178.704 1622.56C175.613 1618.44 171.661 1615.44 167.014 1613.54C162.763 1611.81 158.415 1612.19 154.164 1613.58C151.739 1614.37 149.401 1615.46 147.063 1616.51C144.889 1617.5 142.821 1617.48 140.928 1615.96C139.015 1614.42 138.048 1612.4 138.348 1609.78C138.667 1606.92 138.58 1604.06 137.962 1601.25C136.59 1595.01 132.677 1591.51 126.86 1590.22C124.976 1589.81 123.044 1589.68 121.121 1589.41C119.498 1589.63 117.875 1589.72 116.32 1590.11L116.329 1590.1Z" fill="#E86795" fill-opacity="0.7"/>
<path d="M101.035 1648.62C101.083 1661.08 110.755 1671.19 122.551 1671.11C134.445 1671.02 144.058 1660.86 143.961 1648.49C143.855 1636.03 134.281 1626.02 122.484 1626.04C110.619 1626.06 100.987 1636.2 101.035 1648.61V1648.62Z" fill="#333333" fill-opacity="0.9"/>
<path d="M73.0938 1926.05C70.7846 1924.25 68.5045 1922.58 66.3403 1920.75C62.3211 1917.35 58.7463 1913.52 56.2536 1908.7C52.7078 1901.84 52.7851 1895.03 56.6884 1888.38C60.669 1881.6 65.8669 1876.11 72.8039 1872.65C80.0887 1869.01 87.6731 1868.61 95.4506 1870.49C95.8758 1870.59 96.3009 1870.69 96.726 1870.79C96.8902 1868.92 96.9965 1867.11 97.2284 1865.33C98.0979 1858.64 101.508 1853.88 107.151 1850.69C113.025 1847.37 119.189 1845.39 125.904 1845.82C130.686 1846.14 135.285 1847.3 139.507 1849.76C146.087 1853.58 149.411 1859.63 150.222 1867.34C150.348 1868.52 150.386 1869.72 150.464 1871.05C150.773 1870.95 151.063 1870.86 151.353 1870.75C156.84 1868.77 162.444 1867.67 168.27 1868.28C177.255 1869.21 184.018 1873.93 188.897 1881.78C191.023 1885.2 192.752 1888.82 193.622 1892.83C195.197 1900.1 193.322 1906.37 188.356 1911.56C186.55 1913.46 184.376 1914.97 182.366 1916.65C182.115 1916.85 181.835 1917.02 181.545 1917.21C182.579 1918.94 183.622 1920.61 184.569 1922.32C186.782 1926.35 188.482 1930.59 189.033 1935.23C189.902 1942.54 187.4 1948.41 182.067 1953.07C173.719 1960.37 164.289 1961.87 154.009 1958.87C153.787 1958.81 153.565 1958.75 153.256 1958.67C153.179 1960.11 153.15 1961.51 153.024 1962.89C152.502 1968.9 150.763 1974.43 146.802 1978.9C141.459 1984.94 134.802 1988.12 126.909 1988.08C122.532 1988.06 118.812 1986.06 115.547 1983.12C111.556 1979.53 108.803 1974.99 106.475 1970.12C106.359 1969.87 106.233 1969.62 106.107 1969.39C106.078 1969.34 106.02 1969.32 105.943 1969.26C104.851 1970.01 103.779 1970.8 102.649 1971.51C98.1462 1974.33 93.3154 1975.88 88.0112 1975.56C84.0113 1975.33 80.3206 1974.02 76.9004 1971.87C72.3112 1968.97 68.5045 1965.17 65.5577 1960.49C61.1424 1953.47 61.1231 1946.13 64.408 1938.63C66.379 1934.14 69.2388 1930.29 72.4754 1926.74C72.6783 1926.52 72.8715 1926.3 73.0744 1926.06L73.0938 1926.05ZM126.02 1857.77C124.107 1858.03 122.165 1858.16 120.281 1858.58C114.474 1859.88 110.561 1863.37 109.18 1869.61C108.561 1872.42 108.474 1875.28 108.793 1878.14C109.093 1880.77 108.127 1882.78 106.214 1884.32C104.32 1885.84 102.252 1885.86 100.079 1884.87C97.7404 1883.82 95.4023 1882.73 92.9773 1881.94C88.7262 1880.54 84.3881 1880.17 80.1274 1881.9C75.4802 1883.8 71.5382 1886.8 68.4369 1890.92C64.5819 1896.05 64.5239 1901.19 68.1374 1906.53C69.9827 1909.25 72.3112 1911.47 74.9971 1913.19C78.5429 1915.48 82.195 1917.55 85.8084 1919.71C88.1079 1921.07 89.045 1923.34 88.3977 1926.02C88.0016 1927.67 87.1514 1928.99 85.9147 1930.06C85.1031 1930.76 84.2625 1931.44 83.4606 1932.15C80.3399 1934.93 77.4801 1937.96 75.4995 1941.78C72.5044 1947.53 73.2097 1952.81 77.6927 1957.38C78.968 1958.68 80.3883 1959.85 81.8858 1960.86C86.9485 1964.25 92.0788 1964.21 97.1801 1960.88C99.8177 1959.15 102.03 1956.93 104.098 1954.52C105.296 1953.12 106.784 1952.42 108.571 1952.69C111.025 1953.07 112.755 1954.51 113.701 1956.92C114.03 1957.77 114.271 1958.67 114.561 1959.54C115.866 1963.46 117.286 1967.33 119.624 1970.75C122.416 1974.82 125.972 1976.71 130.86 1975.49C137.073 1973.95 140.85 1969.7 141.633 1963.04C142.126 1958.88 141.536 1954.83 140.696 1950.78C140.474 1949.71 140.435 1948.48 140.705 1947.44C141.623 1943.84 145.488 1942.14 148.831 1943.73C150.773 1944.67 152.686 1945.68 154.676 1946.5C158.521 1948.09 162.473 1949.14 166.676 1948.58C173.362 1947.7 178.395 1940.76 177.275 1933.92C176.801 1931.04 175.516 1928.5 173.845 1926.22C172.241 1924.03 170.54 1921.91 168.792 1919.84C165.632 1916.06 166.541 1911.57 170.85 1909.53C173.564 1908.24 176.318 1906.98 178.849 1905.34C182.395 1903.05 183.67 1899.44 182.588 1895.21C180.849 1888.43 176.589 1883.91 170.531 1881.26C165.98 1879.27 161.352 1879.78 156.773 1881.31C153.005 1882.58 149.575 1884.56 146.193 1886.67C143.614 1888.27 140.657 1887.62 138.831 1885.13C137.604 1883.45 137.314 1881.6 137.807 1879.55C138.706 1875.81 139.266 1872.02 138.812 1868.14C138.213 1863.03 135.479 1859.63 130.812 1858.46C129.257 1858.07 127.633 1857.99 126.01 1857.76L126.02 1857.77Z" fill="#5D77F4" fill-opacity="0.7"/>
<path d="M146.116 1916.99C146.068 1929.45 136.397 1939.56 124.6 1939.47C112.706 1939.39 103.093 1929.23 103.19 1916.85C103.296 1904.4 112.871 1894.39 124.667 1894.41C136.532 1894.43 146.164 1904.57 146.116 1916.98V1916.99Z" fill="#333333" fill-opacity="0.9"/>
<path d="M175.342 2208.12C178.579 2211.67 181.429 2215.51 183.41 2220.01C186.704 2227.5 186.675 2234.84 182.26 2241.86C179.313 2246.54 175.506 2250.35 170.917 2253.24C167.497 2255.39 163.806 2256.7 159.806 2256.94C154.512 2257.25 149.681 2255.69 145.169 2252.88C144.039 2252.18 142.966 2251.39 141.875 2250.64C141.797 2250.69 141.739 2250.71 141.71 2250.76C141.585 2251 141.459 2251.25 141.343 2251.49C139.015 2256.36 136.251 2260.9 132.271 2264.49C129.005 2267.44 125.286 2269.43 120.909 2269.45C113.015 2269.49 106.359 2266.3 101.016 2260.27C97.0545 2255.8 95.3057 2250.26 94.7937 2244.27C94.6777 2242.88 94.6391 2241.48 94.5618 2240.04C94.2526 2240.12 94.0304 2240.18 93.8082 2240.24C83.5283 2243.25 74.0986 2241.74 65.751 2234.44C60.4178 2229.78 57.9154 2223.91 58.785 2216.61C59.3357 2211.95 61.0361 2207.71 63.2486 2203.7C64.1954 2201.98 65.2486 2200.32 66.2727 2198.58C65.9828 2198.39 65.693 2198.23 65.4514 2198.02C63.4418 2196.34 61.268 2194.83 59.4613 2192.93C54.4952 2187.73 52.6209 2181.46 54.1957 2174.2C55.0653 2170.19 56.7947 2166.57 58.9202 2163.15C63.809 2155.3 70.5624 2150.59 79.5477 2149.65C85.3736 2149.04 90.9773 2150.14 96.4651 2152.13C96.7453 2152.23 97.0351 2152.32 97.354 2152.42C97.4409 2151.09 97.4699 2149.9 97.5955 2148.71C98.3974 2141 101.731 2134.95 108.31 2131.13C112.532 2128.68 117.131 2127.5 121.914 2127.19C128.638 2126.76 134.802 2128.75 140.667 2132.06C146.3 2135.24 149.72 2140.01 150.589 2146.7C150.821 2148.49 150.918 2150.3 151.092 2152.17C151.526 2152.07 151.952 2151.96 152.367 2151.86C160.145 2149.99 167.729 2150.38 175.014 2154.02C181.951 2157.48 187.149 2162.98 191.129 2169.76C195.033 2176.4 195.11 2183.23 191.564 2190.07C189.071 2194.88 185.497 2198.72 181.477 2202.12C179.313 2203.95 177.033 2205.62 174.724 2207.43C174.927 2207.66 175.12 2207.88 175.323 2208.11L175.342 2208.12ZM117.015 2139.85C112.358 2141.02 109.615 2144.43 109.015 2149.53C108.561 2153.42 109.122 2157.2 110.02 2160.94C110.513 2162.99 110.223 2164.85 108.996 2166.52C107.17 2169.02 104.204 2169.66 101.634 2168.06C98.2525 2165.96 94.8226 2163.97 91.0546 2162.71C86.475 2161.16 81.8375 2160.67 77.2965 2162.66C71.2387 2165.3 66.978 2169.83 65.2389 2176.6C64.1568 2180.83 65.4321 2184.44 68.9779 2186.74C71.5093 2188.37 74.2628 2189.64 76.9777 2190.92C81.2868 2192.96 82.195 2197.47 79.0356 2201.23C77.2965 2203.31 75.5864 2205.42 73.9826 2207.61C72.3112 2209.89 71.0262 2212.43 70.5528 2215.31C69.432 2222.16 74.4754 2229.09 81.1515 2229.98C85.3543 2230.53 89.3059 2229.48 93.1512 2227.9C95.1415 2227.08 97.0448 2226.06 98.9964 2225.13C102.349 2223.53 106.204 2225.23 107.122 2228.83C107.392 2229.87 107.354 2231.1 107.131 2232.18C106.291 2236.22 105.711 2240.28 106.194 2244.43C106.977 2251.08 110.764 2255.33 116.967 2256.89C121.856 2258.1 125.421 2256.22 128.203 2252.14C130.541 2248.73 131.962 2244.86 133.266 2240.93C133.556 2240.06 133.788 2239.17 134.126 2238.31C135.073 2235.9 136.802 2234.46 139.256 2234.08C141.044 2233.81 142.532 2234.51 143.73 2235.91C145.797 2238.31 148.01 2240.55 150.647 2242.27C155.749 2245.61 160.879 2245.65 165.942 2242.25C167.439 2241.25 168.859 2240.07 170.135 2238.77C174.608 2234.21 175.323 2228.92 172.328 2223.17C170.338 2219.36 167.487 2216.32 164.367 2213.54C163.565 2212.82 162.724 2212.15 161.913 2211.45C160.686 2210.39 159.826 2209.06 159.43 2207.42C158.773 2204.74 159.719 2202.47 162.019 2201.1C165.632 2198.95 169.294 2196.87 172.83 2194.59C175.516 2192.86 177.845 2190.64 179.69 2187.92C183.303 2182.58 183.245 2177.44 179.39 2172.31C176.299 2168.19 172.347 2165.19 167.7 2163.29C163.449 2161.56 159.101 2161.95 154.85 2163.34C152.425 2164.13 150.087 2165.21 147.749 2166.27C145.575 2167.25 143.507 2167.23 141.614 2165.71C139.701 2164.18 138.735 2162.15 139.034 2159.53C139.353 2156.67 139.266 2153.81 138.648 2151C137.276 2144.76 133.363 2141.26 127.546 2139.98C125.662 2139.56 123.73 2139.43 121.807 2139.16C120.184 2139.39 118.561 2139.47 117.006 2139.86L117.015 2139.85Z" fill="#E86795" fill-opacity="0.7"/>
<path d="M101.721 2198.37C101.769 2210.84 111.44 2220.94 123.237 2220.86C135.131 2220.78 144.744 2210.61 144.647 2198.24C144.541 2185.78 134.966 2175.77 123.17 2175.79C111.305 2175.81 101.673 2185.95 101.721 2198.36V2198.37Z" fill="#333333" fill-opacity="0.9"/>
<path d="M73.3738 2476.29C71.0647 2474.49 68.7845 2472.81 66.6203 2470.99C62.6011 2467.59 59.0264 2463.76 56.5337 2458.94C52.9879 2452.08 53.0652 2445.26 56.9684 2438.62C60.949 2431.83 66.1469 2426.35 73.0839 2422.89C80.3688 2419.25 87.9531 2418.85 95.7307 2420.73C96.1558 2420.83 96.5809 2420.93 97.006 2421.03C97.1703 2419.16 97.2765 2417.35 97.5084 2415.57C98.3779 2408.88 101.788 2404.11 107.431 2400.93C113.305 2397.61 119.469 2395.62 126.184 2396.06C130.966 2396.37 135.565 2397.54 139.787 2400C146.367 2403.82 149.691 2409.86 150.502 2417.57C150.628 2418.76 150.666 2419.96 150.744 2421.29C151.053 2421.18 151.343 2421.09 151.633 2420.99C157.12 2419 162.724 2417.91 168.55 2418.52C177.535 2419.45 184.298 2424.17 189.177 2432.02C191.303 2435.44 193.032 2439.06 193.902 2443.06C195.477 2450.34 193.602 2456.6 188.636 2461.8C186.83 2463.69 184.656 2465.21 182.646 2466.89C182.395 2467.09 182.115 2467.25 181.825 2467.45C182.859 2469.18 183.902 2470.85 184.849 2472.56C187.062 2476.59 188.762 2480.83 189.313 2485.47C190.182 2492.78 187.68 2498.65 182.347 2503.3C173.999 2510.61 164.569 2512.11 154.289 2509.11C154.067 2509.04 153.845 2508.98 153.536 2508.9C153.459 2510.34 153.43 2511.74 153.304 2513.13C152.782 2519.14 151.043 2524.67 147.082 2529.14C141.739 2535.17 135.082 2538.36 127.189 2538.32C122.812 2538.3 119.092 2536.3 115.827 2533.36C111.837 2529.77 109.083 2525.22 106.755 2520.35C106.639 2520.11 106.513 2519.86 106.387 2519.62C106.358 2519.57 106.3 2519.55 106.223 2519.5C105.131 2520.24 104.059 2521.03 102.929 2521.74C98.4263 2524.56 93.5955 2526.12 88.2913 2525.8C84.2914 2525.57 80.6007 2524.26 77.1805 2522.11C72.5912 2519.21 68.7845 2515.4 65.8378 2510.73C61.4224 2503.71 61.4031 2496.37 64.688 2488.87C66.659 2484.38 69.5188 2480.53 72.7555 2476.98C72.9583 2476.76 73.1516 2476.54 73.3545 2476.3L73.3738 2476.29ZM126.3 2408.01C124.387 2408.27 122.445 2408.39 120.561 2408.82C114.754 2410.12 110.841 2413.61 109.46 2419.85C108.841 2422.66 108.754 2425.52 109.073 2428.38C109.373 2431 108.407 2433.02 106.494 2434.55C104.6 2436.07 102.532 2436.09 100.359 2435.11C98.0205 2434.06 95.6824 2432.97 93.2573 2432.18C89.0062 2430.78 84.6682 2430.4 80.4074 2432.14C75.7602 2434.04 71.8183 2437.04 68.7169 2441.16C64.8619 2446.29 64.804 2451.43 68.4174 2456.77C70.2628 2459.49 72.5912 2461.71 75.2771 2463.43C78.8229 2465.71 82.475 2467.79 86.0884 2469.94C88.3879 2471.31 89.3251 2473.57 88.6777 2476.26C88.2816 2477.91 87.4314 2479.22 86.1947 2480.3C85.3831 2481 84.5426 2481.68 83.7407 2482.39C80.62 2485.17 77.7601 2488.2 75.7795 2492.01C72.7844 2497.77 73.4897 2503.05 77.9727 2507.61C79.248 2508.91 80.6683 2510.09 82.1658 2511.09C87.2285 2514.49 92.3588 2514.45 97.4601 2511.11C100.098 2509.39 102.31 2507.17 104.378 2504.75C105.576 2503.35 107.064 2502.65 108.851 2502.93C111.305 2503.3 113.035 2504.74 113.981 2507.16C114.31 2508.01 114.551 2508.9 114.841 2509.78C116.146 2513.7 117.566 2517.57 119.904 2520.98C122.696 2525.06 126.252 2526.95 131.14 2525.73C137.353 2524.19 141.13 2519.94 141.913 2513.27C142.406 2509.12 141.816 2505.07 140.976 2501.02C140.754 2499.95 140.715 2498.72 140.986 2497.67C141.903 2494.07 145.768 2492.38 149.111 2493.97C151.053 2494.91 152.966 2495.92 154.956 2496.74C158.801 2498.32 162.753 2499.38 166.956 2498.82C173.642 2497.94 178.675 2491 177.555 2484.15C177.081 2481.27 175.796 2478.74 174.125 2476.45C172.521 2474.26 170.82 2472.14 169.072 2470.07C165.912 2466.3 166.821 2461.81 171.13 2459.77C173.845 2458.48 176.598 2457.21 179.129 2455.58C182.675 2453.29 183.951 2449.68 182.868 2445.45C181.129 2438.67 176.869 2434.15 170.811 2431.5C166.26 2429.51 161.632 2430.02 157.053 2431.55C153.285 2432.82 149.855 2434.8 146.473 2436.91C143.894 2438.51 140.937 2437.86 139.111 2435.36C137.884 2433.69 137.594 2431.83 138.087 2429.79C138.986 2426.04 139.546 2422.26 139.092 2418.37C138.493 2413.27 135.759 2409.86 131.092 2408.7C129.537 2408.31 127.913 2408.23 126.29 2408L126.3 2408.01Z" fill="#5D77F4" fill-opacity="0.7"/>
<path d="M146.396 2467.22C146.348 2479.69 136.677 2489.79 124.88 2489.71C112.987 2489.63 103.373 2479.47 103.47 2467.09C103.576 2454.64 113.151 2444.63 124.948 2444.65C136.812 2444.67 146.445 2454.81 146.396 2467.21V2467.22Z" fill="#333333" fill-opacity="0.9"/>
<path d="M175.622 2758.36C178.859 2761.91 181.709 2765.75 183.69 2770.24C186.985 2777.74 186.956 2785.08 182.54 2792.1C179.593 2796.78 175.787 2800.59 171.197 2803.48C167.777 2805.63 164.087 2806.94 160.087 2807.17C154.792 2807.49 149.961 2805.93 145.449 2803.12C144.319 2802.42 143.247 2801.63 142.155 2800.88C142.077 2800.93 142.02 2800.95 141.991 2801C141.865 2801.24 141.739 2801.48 141.623 2801.73C139.295 2806.6 136.532 2811.14 132.551 2814.73C129.286 2817.67 125.566 2819.67 121.189 2819.69C113.296 2819.73 106.639 2816.54 101.296 2810.51C97.3347 2806.04 95.586 2800.5 95.0739 2794.51C94.958 2793.12 94.9193 2791.72 94.8421 2790.28C94.5329 2790.36 94.3107 2790.42 94.0884 2790.48C83.8085 2793.49 74.3788 2791.98 66.0312 2784.68C60.698 2780.02 58.1957 2774.15 59.0652 2766.85C59.6159 2762.19 61.3164 2757.95 63.5289 2753.93C64.4757 2752.22 65.5288 2750.56 66.553 2748.82C66.2631 2748.63 65.9733 2748.47 65.7317 2748.26C63.7221 2746.58 61.5483 2745.07 59.7415 2743.17C54.7755 2737.97 52.9011 2731.7 54.476 2724.44C55.3455 2720.43 57.0749 2716.81 59.2005 2713.39C64.0893 2705.54 70.8427 2700.82 79.828 2699.89C85.6539 2699.28 91.2576 2700.38 96.7454 2702.36C97.0256 2702.47 97.3154 2702.56 97.6342 2702.66C97.7212 2701.33 97.7502 2700.13 97.8758 2698.95C98.6777 2691.24 102.011 2685.19 108.59 2681.37C112.813 2678.91 117.411 2677.74 122.194 2677.43C128.918 2677 135.083 2678.98 140.947 2682.3C146.58 2685.48 150 2690.24 150.87 2696.94C151.101 2698.72 151.198 2700.54 151.372 2702.41C151.807 2702.3 152.232 2702.2 152.647 2702.1C160.425 2700.22 168.009 2700.62 175.294 2704.26C182.231 2707.72 187.429 2713.22 191.41 2719.99C195.313 2726.64 195.39 2733.46 191.844 2740.31C189.352 2745.12 185.777 2748.96 181.758 2752.36C179.593 2754.19 177.313 2755.86 175.004 2757.67C175.207 2757.9 175.4 2758.12 175.603 2758.35L175.622 2758.36ZM117.296 2690.09C112.639 2691.26 109.895 2694.67 109.296 2699.77C108.842 2703.65 109.402 2707.44 110.301 2711.18C110.793 2713.23 110.503 2715.08 109.276 2716.76C107.45 2719.25 104.484 2719.9 101.914 2718.3C98.5328 2716.2 95.1029 2714.21 91.3349 2712.94C86.7553 2711.4 82.1178 2710.91 77.5768 2712.89C71.519 2715.54 67.2583 2720.06 65.5192 2726.84C64.4371 2731.07 65.7124 2734.68 69.2582 2736.97C71.7895 2738.61 74.5431 2739.87 77.258 2741.16C81.567 2743.2 82.4752 2747.7 79.3159 2751.47C77.5768 2753.55 75.8667 2755.66 74.2629 2757.85C72.5914 2760.13 71.3065 2762.67 70.833 2765.55C69.7123 2772.39 74.7556 2779.33 81.4318 2780.21C85.6346 2780.77 89.5862 2779.72 93.4315 2778.13C95.4217 2777.31 97.3251 2776.3 99.2767 2775.37C102.629 2773.76 106.484 2775.47 107.402 2779.07C107.673 2780.11 107.634 2781.34 107.412 2782.42C106.571 2786.46 105.992 2790.52 106.475 2794.67C107.257 2801.32 111.045 2805.57 117.247 2807.12C122.136 2808.34 125.701 2806.45 128.484 2802.38C130.822 2798.97 132.242 2795.09 133.546 2791.17C133.836 2790.3 134.068 2789.4 134.406 2788.55C135.353 2786.14 137.082 2784.7 139.537 2784.32C141.324 2784.05 142.812 2784.75 144.01 2786.15C146.077 2788.55 148.29 2790.78 150.927 2792.51C156.029 2795.84 161.159 2795.89 166.222 2792.49C167.719 2791.48 169.14 2790.31 170.415 2789.01C174.888 2784.44 175.603 2779.16 172.608 2773.41C170.618 2769.59 167.768 2766.56 164.647 2763.78C163.845 2763.06 163.004 2762.39 162.193 2761.69C160.966 2760.63 160.106 2759.3 159.71 2757.66C159.053 2754.98 160 2752.71 162.299 2751.34C165.913 2749.19 169.574 2747.11 173.11 2744.82C175.796 2743.1 178.125 2740.88 179.97 2738.16C183.584 2732.81 183.526 2727.68 179.671 2722.55C176.579 2718.43 172.627 2715.43 167.98 2713.53C163.729 2711.8 159.381 2712.18 155.13 2713.57C152.705 2714.36 150.367 2715.45 148.029 2716.5C145.855 2717.49 143.788 2717.47 141.894 2715.95C139.981 2714.41 139.015 2712.39 139.314 2709.77C139.633 2706.91 139.546 2704.05 138.928 2701.24C137.556 2695 133.643 2691.5 127.827 2690.21C125.943 2689.8 124.01 2689.67 122.088 2689.4C120.465 2689.62 118.841 2689.71 117.286 2690.1L117.296 2690.09Z" fill="#E86795" fill-opacity="0.7"/>
<path d="M102.001 2748.61C102.049 2761.07 111.721 2771.18 123.517 2771.1C135.411 2771.01 145.024 2760.85 144.928 2748.48C144.821 2736.02 135.247 2726.01 123.45 2726.03C111.585 2726.05 101.953 2736.19 102.001 2748.6V2748.61Z" fill="#333333" fill-opacity="0.9"/>
<path d="M1741.93 2476.29C1739.62 2474.49 1737.34 2472.81 1735.17 2470.99C1731.16 2467.59 1727.58 2463.76 1725.09 2458.94C1721.54 2452.08 1721.62 2445.26 1725.52 2438.62C1729.5 2431.83 1734.7 2426.35 1741.64 2422.89C1748.92 2419.25 1756.51 2418.85 1764.29 2420.73C1764.71 2420.83 1765.14 2420.93 1765.56 2421.03C1765.72 2419.16 1765.83 2417.35 1766.06 2415.57C1766.93 2408.88 1770.34 2404.11 1775.99 2400.93C1781.86 2397.61 1788.02 2395.62 1794.74 2396.06C1799.52 2396.37 1804.12 2397.54 1808.34 2400C1814.92 2403.82 1818.25 2409.86 1819.06 2417.57C1819.18 2418.76 1819.22 2419.96 1819.3 2421.29C1819.61 2421.18 1819.9 2421.09 1820.19 2420.99C1825.67 2419 1831.28 2417.91 1837.1 2418.52C1846.09 2419.45 1852.85 2424.17 1857.73 2432.02C1859.86 2435.44 1861.59 2439.06 1862.46 2443.06C1864.03 2450.34 1862.16 2456.6 1857.19 2461.8C1855.38 2463.69 1853.21 2465.21 1851.2 2466.89C1850.95 2467.09 1850.67 2467.25 1850.38 2467.45C1851.41 2469.18 1852.46 2470.85 1853.4 2472.56C1855.62 2476.59 1857.32 2480.83 1857.87 2485.47C1858.74 2492.78 1856.23 2498.65 1850.9 2503.3C1842.55 2510.61 1833.12 2512.11 1822.84 2509.11C1822.62 2509.04 1822.4 2508.98 1822.09 2508.9C1822.01 2510.34 1821.98 2511.74 1821.86 2513.13C1821.34 2519.14 1819.6 2524.67 1815.64 2529.14C1810.29 2535.17 1803.64 2538.36 1795.74 2538.32C1791.37 2538.3 1787.65 2536.3 1784.38 2533.36C1780.39 2529.77 1777.64 2525.22 1775.31 2520.35C1775.19 2520.11 1775.07 2519.86 1774.94 2519.62C1774.91 2519.57 1774.85 2519.55 1774.78 2519.5C1773.69 2520.24 1772.61 2521.03 1771.48 2521.74C1766.98 2524.56 1762.15 2526.12 1756.85 2525.8C1752.85 2525.57 1749.16 2524.26 1745.73 2522.11C1741.15 2519.21 1737.34 2515.4 1734.39 2510.73C1729.98 2503.71 1729.96 2496.37 1733.24 2488.87C1735.21 2484.38 1738.07 2480.53 1741.31 2476.98C1741.51 2476.76 1741.71 2476.54 1741.91 2476.3L1741.93 2476.29ZM1794.85 2408.01C1792.94 2408.27 1791 2408.39 1789.12 2408.82C1783.31 2410.12 1779.4 2413.61 1778.01 2419.85C1777.4 2422.66 1777.31 2425.52 1777.63 2428.38C1777.93 2431 1776.96 2433.02 1775.05 2434.55C1773.15 2436.07 1771.09 2436.09 1768.91 2435.11C1766.57 2434.06 1764.24 2432.97 1761.81 2432.18C1757.56 2430.78 1753.22 2430.4 1748.96 2432.14C1744.31 2434.04 1740.37 2437.04 1737.27 2441.16C1733.42 2446.29 1733.36 2451.43 1736.97 2456.77C1738.82 2459.49 1741.15 2461.71 1743.83 2463.43C1747.38 2465.71 1751.03 2467.79 1754.64 2469.94C1756.94 2471.31 1757.88 2473.57 1757.23 2476.26C1756.84 2477.91 1755.99 2479.22 1754.75 2480.3C1753.94 2481 1753.1 2481.68 1752.3 2482.39C1749.17 2485.17 1746.31 2488.2 1744.33 2492.01C1741.34 2497.77 1742.04 2503.05 1746.53 2507.61C1747.8 2508.91 1749.22 2510.09 1750.72 2511.09C1755.78 2514.49 1760.91 2514.45 1766.01 2511.11C1768.65 2509.39 1770.86 2507.17 1772.93 2504.75C1774.13 2503.35 1775.62 2502.65 1777.41 2502.93C1779.86 2503.3 1781.59 2504.74 1782.54 2507.16C1782.86 2508.01 1783.11 2508.9 1783.4 2509.78C1784.7 2513.7 1786.12 2517.57 1788.46 2520.98C1791.25 2525.06 1794.81 2526.95 1799.69 2525.73C1805.91 2524.19 1809.68 2519.94 1810.47 2513.27C1810.96 2509.12 1810.37 2505.07 1809.53 2501.02C1809.31 2499.95 1809.27 2498.72 1809.54 2497.67C1810.46 2494.07 1814.32 2492.38 1817.67 2493.97C1819.61 2494.91 1821.52 2495.92 1823.51 2496.74C1827.36 2498.32 1831.31 2499.38 1835.51 2498.82C1842.2 2497.94 1847.23 2491 1846.11 2484.15C1845.64 2481.27 1844.35 2478.74 1842.68 2476.45C1841.08 2474.26 1839.37 2472.14 1837.63 2470.07C1834.47 2466.3 1835.37 2461.81 1839.68 2459.77C1842.4 2458.48 1845.15 2457.21 1847.68 2455.58C1851.23 2453.29 1852.5 2449.68 1851.42 2445.45C1849.68 2438.67 1845.42 2434.15 1839.37 2431.5C1834.81 2429.51 1830.19 2430.02 1825.61 2431.55C1821.84 2432.82 1818.41 2434.8 1815.03 2436.91C1812.45 2438.51 1809.49 2437.86 1807.67 2435.36C1806.44 2433.69 1806.15 2431.83 1806.64 2429.79C1807.54 2426.04 1808.1 2422.26 1807.65 2418.37C1807.05 2413.27 1804.31 2409.86 1799.65 2408.7C1798.09 2408.31 1796.47 2408.23 1794.84 2408L1794.85 2408.01Z" fill="#5D77F4" fill-opacity="0.7"/>
<path d="M1814.95 2467.22C1814.9 2479.69 1805.23 2489.79 1793.43 2489.71C1781.54 2489.63 1771.93 2479.47 1772.02 2467.09C1772.13 2454.64 1781.71 2444.63 1793.5 2444.65C1805.37 2444.67 1815 2454.81 1814.95 2467.21V2467.22Z" fill="#333333" fill-opacity="0.9"/>
<path d="M1844.18 2758.36C1847.41 2761.91 1850.26 2765.75 1852.24 2770.24C1855.54 2777.74 1855.51 2785.08 1851.09 2792.1C1848.15 2796.78 1844.34 2800.59 1839.75 2803.48C1836.33 2805.63 1832.64 2806.94 1828.64 2807.17C1823.35 2807.49 1818.51 2805.93 1814 2803.12C1812.87 2802.42 1811.8 2801.63 1810.71 2800.88C1810.63 2800.93 1810.57 2800.95 1810.54 2801C1810.42 2801.24 1810.29 2801.48 1810.18 2801.73C1807.85 2806.6 1805.09 2811.14 1801.1 2814.73C1797.84 2817.67 1794.12 2819.67 1789.74 2819.69C1781.85 2819.73 1775.19 2816.54 1769.85 2810.51C1765.89 2806.04 1764.14 2800.5 1763.63 2794.51C1763.51 2793.12 1763.47 2791.72 1763.4 2790.28C1763.09 2790.36 1762.86 2790.42 1762.64 2790.48C1752.36 2793.49 1742.93 2791.98 1734.58 2784.68C1729.25 2780.02 1726.75 2774.15 1727.62 2766.85C1728.17 2762.19 1729.87 2757.95 1732.08 2753.93C1733.03 2752.22 1734.08 2750.56 1735.11 2748.82C1734.82 2748.63 1734.53 2748.47 1734.29 2748.26C1732.28 2746.58 1730.1 2745.07 1728.3 2743.17C1723.33 2737.97 1721.45 2731.7 1723.03 2724.44C1723.9 2720.43 1725.63 2716.81 1727.75 2713.39C1732.64 2705.54 1739.4 2700.82 1748.38 2699.89C1754.21 2699.28 1759.81 2700.38 1765.3 2702.36C1765.58 2702.47 1765.87 2702.56 1766.19 2702.66C1766.27 2701.33 1766.3 2700.13 1766.43 2698.95C1767.23 2691.24 1770.56 2685.19 1777.14 2681.37C1781.37 2678.91 1785.96 2677.74 1790.75 2677.43C1797.47 2677 1803.64 2678.98 1809.5 2682.3C1815.13 2685.48 1818.55 2690.24 1819.42 2696.94C1819.65 2698.72 1819.75 2700.54 1819.93 2702.41C1820.36 2702.3 1820.79 2702.2 1821.2 2702.1C1828.98 2700.22 1836.56 2700.62 1843.85 2704.26C1850.78 2707.72 1855.98 2713.22 1859.96 2719.99C1863.87 2726.64 1863.94 2733.46 1860.4 2740.31C1857.91 2745.12 1854.33 2748.96 1850.31 2752.36C1848.15 2754.19 1845.87 2755.86 1843.56 2757.67C1843.76 2757.9 1843.95 2758.12 1844.16 2758.35L1844.18 2758.36ZM1785.85 2690.09C1781.19 2691.26 1778.45 2694.67 1777.85 2699.77C1777.4 2703.65 1777.96 2707.44 1778.85 2711.18C1779.35 2713.23 1779.06 2715.08 1777.83 2716.76C1776 2719.25 1773.04 2719.9 1770.47 2718.3C1767.09 2716.2 1763.66 2714.21 1759.89 2712.94C1755.31 2711.4 1750.67 2710.91 1746.13 2712.89C1740.07 2715.54 1735.81 2720.06 1734.07 2726.84C1732.99 2731.07 1734.27 2734.68 1737.81 2736.97C1740.34 2738.61 1743.1 2739.87 1745.81 2741.16C1750.12 2743.2 1751.03 2747.7 1747.87 2751.47C1746.13 2753.55 1744.42 2755.66 1742.82 2757.85C1741.14 2760.13 1739.86 2762.67 1739.39 2765.55C1738.27 2772.39 1743.31 2779.33 1749.99 2780.21C1754.19 2780.77 1758.14 2779.72 1761.98 2778.13C1763.98 2777.31 1765.88 2776.3 1767.83 2775.37C1771.18 2773.76 1775.04 2775.47 1775.96 2779.07C1776.23 2780.11 1776.19 2781.34 1775.97 2782.42C1775.12 2786.46 1774.54 2790.52 1775.03 2794.67C1775.81 2801.32 1779.6 2805.57 1785.8 2807.12C1790.69 2808.34 1794.25 2806.45 1797.04 2802.38C1799.38 2798.97 1800.8 2795.09 1802.1 2791.17C1802.39 2790.3 1802.62 2789.4 1802.96 2788.55C1803.91 2786.14 1805.64 2784.7 1808.09 2784.32C1809.88 2784.05 1811.37 2784.75 1812.56 2786.15C1814.63 2788.55 1816.84 2790.78 1819.48 2792.51C1824.58 2795.84 1829.71 2795.89 1834.78 2792.49C1836.27 2791.48 1837.69 2790.31 1838.97 2789.01C1843.44 2784.44 1844.16 2779.16 1841.16 2773.41C1839.17 2769.59 1836.32 2766.56 1833.2 2763.78C1832.4 2763.06 1831.56 2762.39 1830.75 2761.69C1829.52 2760.63 1828.66 2759.3 1828.26 2757.66C1827.61 2754.98 1828.55 2752.71 1830.85 2751.34C1834.47 2749.19 1838.13 2747.11 1841.66 2744.82C1844.35 2743.1 1846.68 2740.88 1848.52 2738.16C1852.14 2732.81 1852.08 2727.68 1848.22 2722.55C1845.13 2718.43 1841.18 2715.43 1836.53 2713.53C1832.28 2711.8 1827.93 2712.18 1823.68 2713.57C1821.26 2714.36 1818.92 2715.45 1816.58 2716.5C1814.41 2717.49 1812.34 2717.47 1810.45 2715.95C1808.53 2714.41 1807.57 2712.39 1807.87 2709.77C1808.19 2706.91 1808.1 2704.05 1807.48 2701.24C1806.11 2695 1802.2 2691.5 1796.38 2690.21C1794.5 2689.8 1792.56 2689.67 1790.64 2689.4C1789.02 2689.62 1787.39 2689.71 1785.84 2690.1L1785.85 2690.09Z" fill="#E86795" fill-opacity="0.7"/>
<path d="M1770.56 2748.61C1770.6 2761.07 1780.27 2771.18 1792.07 2771.1C1803.97 2771.01 1813.58 2760.85 1813.48 2748.48C1813.38 2736.02 1803.8 2726.01 1792 2726.03C1780.14 2726.05 1770.51 2736.19 1770.56 2748.6V2748.61Z" fill="#333333" fill-opacity="0.9"/>
<path d="M1740.95 1376.3C1738.64 1374.5 1736.36 1372.82 1734.2 1371C1730.18 1367.6 1726.61 1363.77 1724.11 1358.95C1720.57 1352.09 1720.64 1345.27 1724.55 1338.63C1728.53 1331.84 1733.73 1326.36 1740.66 1322.9C1747.95 1319.26 1755.53 1318.86 1763.31 1320.74C1763.74 1320.84 1764.16 1320.94 1764.59 1321.04C1764.75 1319.17 1764.86 1317.36 1765.09 1315.58C1765.96 1308.89 1769.37 1304.12 1775.01 1300.94C1780.89 1297.61 1787.05 1295.62 1793.77 1296.06C1798.56 1296.37 1803.15 1297.54 1807.38 1300C1813.96 1303.82 1817.28 1309.86 1818.09 1317.57C1818.22 1318.76 1818.26 1319.96 1818.33 1321.29C1818.64 1321.18 1818.93 1321.09 1819.22 1320.99C1824.71 1319 1830.31 1317.91 1836.14 1318.52C1845.12 1319.45 1851.89 1324.17 1856.77 1332.02C1858.89 1335.44 1860.62 1339.06 1861.49 1343.06C1863.07 1350.34 1861.19 1356.6 1856.23 1361.8C1854.42 1363.69 1852.24 1365.21 1850.24 1366.89C1849.98 1367.09 1849.7 1367.25 1849.41 1367.45C1850.45 1369.18 1851.49 1370.85 1852.44 1372.56C1854.65 1376.59 1856.35 1380.83 1856.9 1385.47C1857.77 1392.78 1855.27 1398.65 1849.94 1403.3C1841.59 1410.61 1832.16 1412.11 1821.88 1409.11C1821.66 1409.04 1821.43 1408.98 1821.12 1408.9C1821.05 1410.34 1821.02 1411.74 1820.89 1413.13C1820.37 1419.14 1818.63 1424.67 1814.67 1429.14C1809.33 1435.17 1802.67 1438.36 1794.78 1438.32C1790.4 1438.3 1786.68 1436.3 1783.42 1433.36C1779.43 1429.77 1776.67 1425.22 1774.34 1420.35C1774.23 1420.11 1774.1 1419.86 1773.98 1419.62C1773.95 1419.57 1773.89 1419.55 1773.81 1419.5C1772.72 1420.24 1771.65 1421.03 1770.52 1421.74C1766.02 1424.56 1761.18 1426.12 1755.88 1425.8C1751.88 1425.57 1748.19 1424.26 1744.77 1422.11C1740.18 1419.21 1736.37 1415.4 1733.43 1410.73C1729.01 1403.71 1728.99 1396.37 1732.28 1388.87C1734.25 1384.38 1737.11 1380.53 1740.34 1376.98C1740.55 1376.76 1740.74 1376.54 1740.94 1376.3H1740.95ZM1793.89 1308.02C1791.98 1308.28 1790.03 1308.4 1788.15 1308.83C1782.34 1310.13 1778.43 1313.62 1777.05 1319.86C1776.43 1322.67 1776.34 1325.53 1776.66 1328.39C1776.96 1331.01 1776 1333.03 1774.08 1334.56C1772.19 1336.08 1770.12 1336.11 1767.95 1335.12C1765.61 1334.07 1763.27 1332.98 1760.85 1332.19C1756.6 1330.79 1752.26 1330.41 1748 1332.15C1743.35 1334.05 1739.41 1337.05 1736.31 1341.17C1732.45 1346.3 1732.39 1351.44 1736.01 1356.78C1737.85 1359.5 1740.18 1361.72 1742.87 1363.44C1746.41 1365.72 1750.06 1367.8 1753.68 1369.95C1755.98 1371.32 1756.91 1373.58 1756.27 1376.27C1755.87 1377.92 1755.02 1379.23 1753.78 1380.31C1752.97 1381.01 1752.13 1381.69 1751.33 1382.4C1748.21 1385.18 1745.35 1388.21 1743.37 1392.02C1740.37 1397.78 1741.08 1403.06 1745.56 1407.62C1746.84 1408.92 1748.26 1410.1 1749.75 1411.1C1754.82 1414.5 1759.95 1414.46 1765.05 1411.12C1767.69 1409.4 1769.9 1407.18 1771.97 1404.76C1773.16 1403.36 1774.65 1402.66 1776.44 1402.94C1778.89 1403.31 1780.62 1404.75 1781.57 1407.17C1781.9 1408.02 1782.14 1408.91 1782.43 1409.79C1783.73 1413.71 1785.15 1417.58 1787.49 1420.99C1790.29 1425.07 1793.84 1426.96 1798.73 1425.74C1804.94 1424.2 1808.72 1419.95 1809.5 1413.28C1809.99 1409.13 1809.41 1405.08 1808.56 1401.03C1808.34 1399.96 1808.3 1398.73 1808.57 1397.68C1809.49 1394.08 1813.36 1392.39 1816.7 1393.98C1818.64 1394.92 1820.55 1395.93 1822.55 1396.75C1826.39 1398.33 1830.34 1399.39 1834.54 1398.83C1841.23 1397.95 1846.26 1391.01 1845.14 1384.16C1844.67 1381.28 1843.39 1378.75 1841.71 1376.46C1840.11 1374.27 1838.41 1372.15 1836.66 1370.08C1833.5 1366.31 1834.41 1361.82 1838.72 1359.78C1841.43 1358.49 1844.19 1357.22 1846.72 1355.59C1850.26 1353.3 1851.54 1349.69 1850.46 1345.46C1848.72 1338.68 1844.46 1334.16 1838.4 1331.51C1833.85 1329.52 1829.22 1330.03 1824.64 1331.56C1820.87 1332.83 1817.44 1334.81 1814.06 1336.92C1811.48 1338.52 1808.53 1337.87 1806.7 1335.37C1805.47 1333.7 1805.18 1331.84 1805.68 1329.8C1806.57 1326.05 1807.13 1322.27 1806.68 1318.38C1806.08 1313.28 1803.35 1309.87 1798.68 1308.71C1797.13 1308.32 1795.5 1308.24 1793.88 1308.01L1793.89 1308.02Z" fill="#5D77F4" fill-opacity="0.7"/>
<path d="M1813.98 1367.23C1813.94 1379.7 1804.26 1389.8 1792.47 1389.72C1780.57 1389.64 1770.96 1379.48 1771.06 1367.1C1771.16 1354.65 1780.74 1344.64 1792.54 1344.66C1804.4 1344.68 1814.03 1354.82 1813.98 1367.22V1367.23Z" fill="#333333" fill-opacity="0.9"/>
<path d="M1843.21 1658.37C1846.45 1661.92 1849.3 1665.76 1851.28 1670.25C1854.57 1677.75 1854.54 1685.09 1850.13 1692.11C1847.18 1696.79 1843.37 1700.6 1838.79 1703.49C1835.37 1705.64 1831.67 1706.95 1827.67 1707.18C1822.38 1707.5 1817.55 1705.94 1813.04 1703.13C1811.91 1702.43 1810.83 1701.64 1809.74 1700.89C1809.67 1700.94 1809.61 1700.96 1809.58 1701.01C1809.45 1701.25 1809.33 1701.49 1809.21 1701.74C1806.88 1706.61 1804.12 1711.15 1800.14 1714.74C1796.87 1717.68 1793.15 1719.68 1788.78 1719.7C1780.88 1719.74 1774.23 1716.55 1768.88 1710.52C1764.92 1706.05 1763.17 1700.51 1762.66 1694.52C1762.55 1693.13 1762.51 1691.73 1762.43 1690.29C1762.12 1690.37 1761.9 1690.43 1761.68 1690.49C1751.4 1693.5 1741.97 1691.99 1733.62 1684.69C1728.29 1680.03 1725.78 1674.16 1726.65 1666.86C1727.2 1662.2 1728.9 1657.96 1731.12 1653.94C1732.06 1652.23 1733.12 1650.57 1734.14 1648.83C1733.85 1648.64 1733.56 1648.48 1733.32 1648.27C1731.31 1646.59 1729.14 1645.08 1727.33 1643.18C1722.36 1637.98 1720.49 1631.71 1722.06 1624.45C1722.93 1620.44 1724.66 1616.82 1726.79 1613.4C1731.68 1605.55 1738.43 1600.83 1747.42 1599.9C1753.24 1599.29 1758.85 1600.39 1764.33 1602.37C1764.61 1602.48 1764.9 1602.57 1765.22 1602.67C1765.31 1601.34 1765.34 1600.14 1765.46 1598.96C1766.27 1591.25 1769.6 1585.2 1776.18 1581.38C1780.4 1578.92 1785 1577.75 1789.78 1577.44C1796.51 1577.01 1802.67 1578.99 1808.54 1582.31C1814.17 1585.49 1817.59 1590.25 1818.46 1596.95C1818.69 1598.73 1818.79 1600.55 1818.96 1602.42C1819.39 1602.31 1819.82 1602.21 1820.24 1602.11C1828.01 1600.23 1835.6 1600.63 1842.88 1604.27C1849.82 1607.73 1855.02 1613.23 1859 1620C1862.9 1626.65 1862.98 1633.47 1859.43 1640.32C1856.94 1645.13 1853.36 1648.97 1849.35 1652.37C1847.18 1654.2 1844.9 1655.87 1842.59 1657.68C1842.8 1657.91 1842.99 1658.13 1843.19 1658.36L1843.21 1658.37ZM1784.88 1590.1C1780.23 1591.27 1777.48 1594.68 1776.88 1599.78C1776.43 1603.66 1776.99 1607.45 1777.89 1611.19C1778.38 1613.24 1778.09 1615.09 1776.86 1616.77C1775.04 1619.26 1772.07 1619.91 1769.5 1618.31C1766.12 1616.21 1762.69 1614.22 1758.92 1612.95C1754.34 1611.41 1749.71 1610.92 1745.16 1612.9C1739.11 1615.55 1734.85 1620.07 1733.11 1626.85C1732.03 1631.08 1733.3 1634.69 1736.85 1636.98C1739.38 1638.62 1742.13 1639.88 1744.85 1641.17C1749.16 1643.21 1750.06 1647.71 1746.9 1651.48C1745.16 1653.56 1743.45 1655.67 1741.85 1657.86C1740.18 1660.14 1738.89 1662.68 1738.42 1665.56C1737.3 1672.4 1742.34 1679.34 1749.02 1680.22C1753.22 1680.78 1757.17 1679.73 1761.02 1678.14C1763.01 1677.32 1764.91 1676.31 1766.86 1675.38C1770.22 1673.77 1774.07 1675.48 1774.99 1679.08C1775.26 1680.12 1775.22 1681.35 1775 1682.43C1774.16 1686.47 1773.58 1690.53 1774.06 1694.68C1774.85 1701.33 1778.63 1705.58 1784.84 1707.13C1789.72 1708.35 1793.29 1706.46 1796.07 1702.39C1798.41 1698.98 1799.83 1695.1 1801.13 1691.18C1801.42 1690.31 1801.66 1689.41 1801.99 1688.56C1802.94 1686.15 1804.67 1684.71 1807.12 1684.33C1808.91 1684.06 1810.4 1684.76 1811.6 1686.16C1813.67 1688.56 1815.88 1690.79 1818.52 1692.52C1823.62 1695.85 1828.75 1695.9 1833.81 1692.5C1835.31 1691.49 1836.73 1690.32 1838 1689.02C1842.48 1684.45 1843.19 1679.17 1840.2 1673.42C1838.21 1669.6 1835.36 1666.57 1832.24 1663.79C1831.43 1663.07 1830.59 1662.4 1829.78 1661.7C1828.55 1660.64 1827.69 1659.31 1827.3 1657.67C1826.64 1654.99 1827.59 1652.72 1829.89 1651.35C1833.5 1649.2 1837.16 1647.12 1840.7 1644.83C1843.38 1643.11 1845.71 1640.89 1847.56 1638.17C1851.17 1632.82 1851.11 1627.69 1847.26 1622.56C1844.17 1618.44 1840.22 1615.44 1835.57 1613.54C1831.32 1611.81 1826.97 1612.19 1822.72 1613.58C1820.29 1614.37 1817.96 1615.46 1815.62 1616.51C1813.44 1617.5 1811.38 1617.48 1809.48 1615.96C1807.57 1614.42 1806.6 1612.4 1806.9 1609.78C1807.22 1606.92 1807.13 1604.06 1806.52 1601.25C1805.14 1595.01 1801.23 1591.51 1795.41 1590.22C1793.53 1589.81 1791.6 1589.68 1789.68 1589.41C1788.05 1589.63 1786.43 1589.72 1784.87 1590.11L1784.88 1590.1Z" fill="#E86795" fill-opacity="0.7"/>
<path d="M1769.59 1648.62C1769.64 1661.08 1779.31 1671.19 1791.11 1671.11C1803 1671.02 1812.61 1660.86 1812.52 1648.49C1812.41 1636.03 1802.84 1626.02 1791.04 1626.04C1779.17 1626.06 1769.54 1636.2 1769.59 1648.61V1648.62Z" fill="#333333" fill-opacity="0.9"/>
<path d="M1741.65 1926.05C1739.34 1924.25 1737.06 1922.58 1734.89 1920.75C1730.88 1917.35 1727.3 1913.52 1724.81 1908.7C1721.26 1901.84 1721.34 1895.03 1725.24 1888.38C1729.22 1881.6 1734.42 1876.11 1741.36 1872.65C1748.64 1869.01 1756.23 1868.61 1764 1870.49C1764.43 1870.59 1764.86 1870.69 1765.28 1870.79C1765.44 1868.92 1765.55 1867.11 1765.78 1865.33C1766.65 1858.64 1770.06 1853.88 1775.71 1850.69C1781.58 1847.37 1787.74 1845.39 1794.46 1845.82C1799.24 1846.14 1803.84 1847.3 1808.06 1849.76C1814.64 1853.58 1817.96 1859.63 1818.78 1867.34C1818.9 1868.52 1818.94 1869.72 1819.02 1871.05C1819.33 1870.95 1819.62 1870.86 1819.91 1870.75C1825.39 1868.77 1831 1867.67 1836.82 1868.28C1845.81 1869.21 1852.57 1873.93 1857.45 1881.78C1859.58 1885.2 1861.31 1888.82 1862.18 1892.83C1863.75 1900.1 1861.88 1906.37 1856.91 1911.56C1855.1 1913.46 1852.93 1914.97 1850.92 1916.65C1850.67 1916.85 1850.39 1917.02 1850.1 1917.21C1851.13 1918.94 1852.18 1920.61 1853.12 1922.32C1855.34 1926.35 1857.04 1930.59 1857.59 1935.23C1858.46 1942.54 1855.95 1948.41 1850.62 1953.07C1842.27 1960.37 1832.84 1961.87 1822.56 1958.87C1822.34 1958.81 1822.12 1958.75 1821.81 1958.67C1821.73 1960.11 1821.7 1961.51 1821.58 1962.89C1821.06 1968.9 1819.32 1974.43 1815.36 1978.9C1810.01 1984.94 1803.36 1988.12 1795.46 1988.08C1791.09 1988.06 1787.37 1986.06 1784.1 1983.12C1780.11 1979.53 1777.36 1974.99 1775.03 1970.12C1774.91 1969.87 1774.79 1969.62 1774.66 1969.39C1774.63 1969.34 1774.57 1969.32 1774.5 1969.26C1773.41 1970.01 1772.33 1970.8 1771.2 1971.51C1766.7 1974.33 1761.87 1975.88 1756.57 1975.56C1752.57 1975.33 1748.87 1974.02 1745.45 1971.87C1740.87 1968.97 1737.06 1965.17 1734.11 1960.49C1729.7 1953.47 1729.68 1946.13 1732.96 1938.63C1734.93 1934.14 1737.79 1930.29 1741.03 1926.74C1741.23 1926.52 1741.43 1926.3 1741.63 1926.06L1741.65 1926.05ZM1794.57 1857.77C1792.66 1858.03 1790.72 1858.16 1788.84 1858.58C1783.03 1859.88 1779.12 1863.37 1777.73 1869.61C1777.12 1872.42 1777.03 1875.28 1777.35 1878.14C1777.65 1880.77 1776.68 1882.78 1774.77 1884.32C1772.87 1885.84 1770.81 1885.86 1768.63 1884.87C1766.29 1883.82 1763.96 1882.73 1761.53 1881.94C1757.28 1880.54 1752.94 1880.17 1748.68 1881.9C1744.03 1883.8 1740.09 1886.8 1736.99 1890.92C1733.14 1896.05 1733.08 1901.19 1736.69 1906.53C1738.54 1909.25 1740.87 1911.47 1743.55 1913.19C1747.1 1915.48 1750.75 1917.55 1754.36 1919.71C1756.66 1921.07 1757.6 1923.34 1756.95 1926.02C1756.56 1927.67 1755.71 1928.99 1754.47 1930.06C1753.66 1930.76 1752.82 1931.44 1752.01 1932.15C1748.89 1934.93 1746.03 1937.96 1744.05 1941.78C1741.06 1947.53 1741.76 1952.81 1746.25 1957.38C1747.52 1958.68 1748.94 1959.85 1750.44 1960.86C1755.5 1964.25 1760.63 1964.21 1765.73 1960.88C1768.37 1959.15 1770.58 1956.93 1772.65 1954.52C1773.85 1953.12 1775.34 1952.42 1777.13 1952.69C1779.58 1953.07 1781.31 1954.51 1782.26 1956.92C1782.58 1957.77 1782.83 1958.67 1783.12 1959.54C1784.42 1963.46 1785.84 1967.33 1788.18 1970.75C1790.97 1974.82 1794.53 1976.71 1799.41 1975.49C1805.63 1973.95 1809.4 1969.7 1810.19 1963.04C1810.68 1958.88 1810.09 1954.83 1809.25 1950.78C1809.03 1949.71 1808.99 1948.48 1809.26 1947.44C1810.18 1943.84 1814.04 1942.14 1817.39 1943.73C1819.33 1944.67 1821.24 1945.68 1823.23 1946.5C1827.08 1948.09 1831.03 1949.14 1835.23 1948.58C1841.92 1947.7 1846.95 1940.76 1845.83 1933.92C1845.36 1931.04 1844.07 1928.5 1842.4 1926.22C1840.8 1924.03 1839.09 1921.91 1837.35 1919.84C1834.19 1916.06 1835.09 1911.57 1839.4 1909.53C1842.12 1908.24 1844.87 1906.98 1847.4 1905.34C1850.95 1903.05 1852.22 1899.44 1851.14 1895.21C1849.4 1888.43 1845.14 1883.91 1839.08 1881.26C1834.53 1879.27 1829.91 1879.78 1825.33 1881.31C1821.56 1882.58 1818.13 1884.56 1814.75 1886.67C1812.17 1888.27 1809.21 1887.62 1807.39 1885.13C1806.16 1883.45 1805.87 1881.6 1806.36 1879.55C1807.26 1875.81 1807.82 1872.02 1807.37 1868.14C1806.77 1863.03 1804.03 1859.63 1799.37 1858.46C1797.81 1858.07 1796.19 1857.99 1794.56 1857.76L1794.57 1857.77Z" fill="#5D77F4" fill-opacity="0.7"/>
<path d="M1814.67 1916.99C1814.62 1929.45 1804.95 1939.56 1793.15 1939.47C1781.26 1939.39 1771.65 1929.23 1771.74 1916.85C1771.85 1904.4 1781.42 1894.39 1793.22 1894.41C1805.09 1894.43 1814.72 1904.57 1814.67 1916.98V1916.99Z" fill="#333333" fill-opacity="0.9"/>
<path d="M1843.9 2208.12C1847.13 2211.67 1849.98 2215.51 1851.96 2220.01C1855.26 2227.5 1855.23 2234.84 1850.81 2241.86C1847.87 2246.54 1844.06 2250.35 1839.47 2253.24C1836.05 2255.39 1832.36 2256.7 1828.36 2256.94C1823.07 2257.25 1818.24 2255.69 1813.72 2252.88C1812.59 2252.18 1811.52 2251.39 1810.43 2250.64C1810.35 2250.69 1810.29 2250.71 1810.26 2250.76C1810.14 2251 1810.01 2251.25 1809.9 2251.49C1807.57 2256.36 1804.81 2260.9 1800.82 2264.49C1797.56 2267.44 1793.84 2269.43 1789.46 2269.45C1781.57 2269.49 1774.91 2266.3 1769.57 2260.27C1765.61 2255.8 1763.86 2250.26 1763.35 2244.27C1763.23 2242.88 1763.19 2241.48 1763.12 2240.04C1762.81 2240.12 1762.58 2240.18 1762.36 2240.24C1752.08 2243.25 1742.65 2241.74 1734.3 2234.44C1728.97 2229.78 1726.47 2223.91 1727.34 2216.61C1727.89 2211.95 1729.59 2207.71 1731.8 2203.7C1732.75 2201.98 1733.8 2200.32 1734.83 2198.58C1734.54 2198.39 1734.25 2198.23 1734.01 2198.02C1732 2196.34 1729.82 2194.83 1728.02 2192.93C1723.05 2187.73 1721.17 2181.46 1722.75 2174.2C1723.62 2170.19 1725.35 2166.57 1727.47 2163.15C1732.36 2155.3 1739.12 2150.59 1748.1 2149.65C1753.93 2149.04 1759.53 2150.14 1765.02 2152.13C1765.3 2152.23 1765.59 2152.32 1765.91 2152.42C1765.99 2151.09 1766.02 2149.9 1766.15 2148.71C1766.95 2141 1770.28 2134.95 1776.86 2131.13C1781.09 2128.68 1785.69 2127.5 1790.47 2127.19C1797.19 2126.76 1803.36 2128.75 1809.22 2132.06C1814.85 2135.24 1818.27 2140.01 1819.14 2146.7C1819.38 2148.49 1819.47 2150.3 1819.65 2152.17C1820.08 2152.07 1820.51 2151.96 1820.92 2151.86C1828.7 2149.99 1836.28 2150.38 1843.57 2154.02C1850.5 2157.48 1855.7 2162.98 1859.68 2169.76C1863.59 2176.4 1863.66 2183.23 1860.12 2190.07C1857.63 2194.88 1854.05 2198.72 1850.03 2202.12C1847.87 2203.95 1845.59 2205.62 1843.28 2207.43C1843.48 2207.66 1843.67 2207.88 1843.88 2208.11L1843.9 2208.12ZM1785.57 2139.85C1780.91 2141.02 1778.17 2144.43 1777.57 2149.53C1777.12 2153.42 1777.68 2157.2 1778.57 2160.94C1779.07 2162.99 1778.78 2164.85 1777.55 2166.52C1775.72 2169.02 1772.76 2169.66 1770.19 2168.06C1766.81 2165.96 1763.38 2163.97 1759.61 2162.71C1755.03 2161.16 1750.39 2160.67 1745.85 2162.66C1739.79 2165.3 1735.53 2169.83 1733.79 2176.6C1732.71 2180.83 1733.99 2184.44 1737.53 2186.74C1740.06 2188.37 1742.82 2189.64 1745.53 2190.92C1749.84 2192.96 1750.75 2197.47 1747.59 2201.23C1745.85 2203.31 1744.14 2205.42 1742.54 2207.61C1740.87 2209.89 1739.58 2212.43 1739.11 2215.31C1737.99 2222.16 1743.03 2229.09 1749.71 2229.98C1753.91 2230.53 1757.86 2229.48 1761.71 2227.9C1763.7 2227.08 1765.6 2226.06 1767.55 2225.13C1770.9 2223.53 1774.76 2225.23 1775.68 2228.83C1775.95 2229.87 1775.91 2231.1 1775.69 2232.18C1774.84 2236.22 1774.27 2240.28 1774.75 2244.43C1775.53 2251.08 1779.32 2255.33 1785.52 2256.89C1790.41 2258.1 1793.97 2256.22 1796.76 2252.14C1799.1 2248.73 1800.52 2244.86 1801.82 2240.93C1802.11 2240.06 1802.34 2239.17 1802.68 2238.31C1803.63 2235.9 1805.36 2234.46 1807.81 2234.08C1809.6 2233.81 1811.09 2234.51 1812.28 2235.91C1814.35 2238.31 1816.56 2240.55 1819.2 2242.27C1824.3 2245.61 1829.43 2245.65 1834.5 2242.25C1835.99 2241.25 1837.41 2240.07 1838.69 2238.77C1843.16 2234.21 1843.88 2228.92 1840.88 2223.17C1838.89 2219.36 1836.04 2216.32 1832.92 2213.54C1832.12 2212.82 1831.28 2212.15 1830.47 2211.45C1829.24 2210.39 1828.38 2209.06 1827.98 2207.42C1827.33 2204.74 1828.27 2202.47 1830.57 2201.1C1834.19 2198.95 1837.85 2196.87 1841.38 2194.59C1844.07 2192.86 1846.4 2190.64 1848.24 2187.92C1851.86 2182.58 1851.8 2177.44 1847.94 2172.31C1844.85 2168.19 1840.9 2165.19 1836.25 2163.29C1832 2161.56 1827.66 2161.95 1823.4 2163.34C1820.98 2164.13 1818.64 2165.21 1816.3 2166.27C1814.13 2167.25 1812.06 2167.23 1810.17 2165.71C1808.25 2164.18 1807.29 2162.15 1807.59 2159.53C1807.91 2156.67 1807.82 2153.81 1807.2 2151C1805.83 2144.76 1801.92 2141.26 1796.1 2139.98C1794.22 2139.56 1792.28 2139.43 1790.36 2139.16C1788.74 2139.39 1787.12 2139.47 1785.56 2139.86L1785.57 2139.85Z" fill="#E86795" fill-opacity="0.7"/>
<path d="M1770.28 2198.37C1770.32 2210.84 1779.99 2220.94 1791.79 2220.86C1803.68 2220.78 1813.3 2210.61 1813.2 2198.24C1813.1 2185.78 1803.52 2175.77 1791.72 2175.79C1779.86 2175.81 1770.23 2185.95 1770.28 2198.36V2198.37Z" fill="#333333" fill-opacity="0.9"/>
</svg>
