<svg width="1920" height="900" viewBox="0 0 1920 900" fill="none" xmlns="http://www.w3.org/2000/svg">
<path d="M1920 0H0V900H1920V0Z" fill="#FEFDFC"/>
<path d="M1760.11 237.303C1757.72 235.497 1755.36 233.824 1753.12 231.998C1748.96 228.6 1745.26 224.766 1742.68 219.948C1739.01 213.091 1739.09 206.275 1743.13 199.631C1747.25 192.845 1752.63 187.357 1759.81 183.899C1767.35 180.257 1775.2 179.862 1783.25 181.738C1783.69 181.84 1784.13 181.941 1784.57 182.042C1784.74 180.166 1784.85 178.36 1785.09 176.575C1785.99 169.891 1789.52 165.124 1795.36 161.939C1801.45 158.612 1807.82 156.624 1814.78 157.06C1819.73 157.374 1824.49 158.541 1828.86 160.995C1835.67 164.819 1839.11 170.865 1839.95 178.573C1840.08 179.76 1840.12 180.957 1840.2 182.286C1840.52 182.184 1840.82 182.093 1841.12 181.992C1846.8 180.004 1852.6 178.908 1858.63 179.517C1867.93 180.45 1874.93 185.167 1879.98 193.017C1882.18 196.436 1883.97 200.057 1884.87 204.063C1886.5 211.336 1884.56 217.605 1879.42 222.798C1877.55 224.695 1875.3 226.206 1873.22 227.89C1872.96 228.093 1872.67 228.255 1872.37 228.448C1873.44 230.182 1874.52 231.846 1875.5 233.56C1877.79 237.587 1879.55 241.827 1880.12 246.472C1881.02 253.775 1878.43 259.648 1872.91 264.304C1864.27 271.607 1854.51 273.108 1843.87 270.106C1843.64 270.045 1843.41 269.984 1843.09 269.903C1843.01 271.343 1842.98 272.743 1842.85 274.133C1842.31 280.137 1840.51 285.665 1836.41 290.139C1830.88 296.174 1823.99 299.359 1815.82 299.318C1811.29 299.298 1807.44 297.3 1804.06 294.358C1799.93 290.768 1797.08 286.223 1794.67 281.355C1794.55 281.111 1794.42 280.858 1794.29 280.624C1794.26 280.574 1794.2 280.553 1794.12 280.503C1792.99 281.243 1791.88 282.034 1790.71 282.744C1786.05 285.564 1781.05 287.116 1775.56 286.802C1771.42 286.568 1767.6 285.26 1764.06 283.109C1759.31 280.208 1755.37 276.405 1752.32 271.729C1747.75 264.71 1747.73 257.366 1751.13 249.87C1753.17 245.377 1756.13 241.532 1759.48 237.982C1759.69 237.759 1759.89 237.536 1760.1 237.303H1760.11ZM1814.9 169.019C1812.92 169.282 1810.91 169.404 1808.96 169.83C1802.95 171.128 1798.9 174.618 1797.47 180.856C1796.83 183.665 1796.74 186.526 1797.07 189.386C1797.38 192.013 1796.38 194.032 1794.4 195.563C1792.44 197.085 1790.3 197.105 1788.05 196.121C1785.63 195.066 1783.21 193.981 1780.7 193.19C1776.3 191.79 1771.81 191.415 1767.4 193.149C1762.59 195.046 1758.51 198.048 1755.3 202.167C1751.31 207.299 1751.25 212.442 1754.99 217.777C1756.9 220.495 1759.31 222.717 1762.09 224.441C1765.76 226.723 1769.54 228.803 1773.28 230.953C1775.66 232.322 1776.63 234.584 1775.96 237.272C1775.55 238.915 1774.67 240.234 1773.39 241.309C1772.55 242.009 1771.68 242.689 1770.85 243.399C1767.62 246.178 1764.66 249.211 1762.61 253.025C1759.51 258.776 1760.24 264.06 1764.88 268.625C1766.2 269.923 1767.67 271.1 1769.22 272.104C1774.46 275.502 1779.77 275.461 1785.05 272.124C1787.78 270.4 1790.07 268.179 1792.21 265.765C1793.45 264.365 1794.99 263.665 1796.84 263.939C1799.38 264.314 1801.17 265.754 1802.15 268.168C1802.49 269.02 1802.74 269.913 1803.04 270.785C1804.39 274.711 1805.86 278.575 1808.28 281.994C1811.17 286.071 1814.85 287.958 1819.91 286.741C1826.34 285.199 1830.25 280.949 1831.06 274.285C1831.57 270.126 1830.96 266.079 1830.09 262.032C1829.86 260.957 1829.82 259.729 1830.1 258.685C1831.05 255.084 1835.05 253.39 1838.51 254.982C1840.52 255.915 1842.5 256.93 1844.56 257.751C1848.54 259.334 1852.63 260.389 1856.98 259.831C1863.9 258.948 1869.11 252.01 1867.95 245.164C1867.46 242.283 1866.13 239.747 1864.4 237.465C1862.74 235.274 1860.98 233.154 1859.17 231.085C1855.9 227.312 1856.84 222.818 1861.3 220.779C1864.11 219.491 1866.96 218.223 1869.58 216.59C1873.25 214.298 1874.57 210.687 1873.45 206.457C1871.65 199.681 1867.24 195.158 1860.97 192.51C1856.26 190.522 1851.47 191.029 1846.73 192.561C1842.83 193.829 1839.28 195.807 1835.78 197.917C1833.11 199.519 1830.05 198.87 1828.16 196.375C1826.89 194.701 1826.59 192.845 1827.1 190.796C1828.03 187.053 1828.61 183.27 1828.14 179.385C1827.52 174.283 1824.69 170.875 1819.86 169.708C1818.25 169.323 1816.57 169.242 1814.89 169.008L1814.9 169.019Z" fill="#EF94B4"/>
<path d="M1835.7 228.235C1835.65 240.701 1825.64 250.803 1813.43 250.722C1801.12 250.641 1791.17 240.477 1791.27 228.103C1791.38 215.647 1801.29 205.636 1813.5 205.656C1825.78 205.676 1835.75 215.819 1835.7 228.224V228.235Z" fill="#333333" fill-opacity="0.9"/>
<path d="M1865.95 519.365C1869.3 522.915 1872.25 526.759 1874.3 531.253C1877.71 538.749 1877.68 546.092 1873.11 553.112C1870.06 557.788 1866.12 561.601 1861.37 564.492C1857.83 566.643 1854.01 567.951 1849.87 568.184C1844.39 568.499 1839.39 566.937 1834.72 564.127C1833.55 563.427 1832.44 562.636 1831.31 561.885C1831.23 561.936 1831.17 561.956 1831.14 562.007C1831.01 562.251 1830.88 562.494 1830.76 562.737C1828.35 567.606 1825.49 572.15 1821.37 575.741C1817.99 578.683 1814.14 580.681 1809.61 580.701C1801.44 580.742 1794.55 577.547 1789.02 571.521C1784.92 567.048 1783.11 561.51 1782.58 555.516C1782.46 554.126 1782.42 552.726 1782.34 551.286C1782.02 551.367 1781.79 551.428 1781.56 551.489C1770.92 554.501 1761.16 552.99 1752.52 545.687C1747 541.031 1744.41 535.158 1745.31 527.855C1745.88 523.199 1747.64 518.959 1749.93 514.943C1750.91 513.228 1752 511.565 1753.06 509.83C1752.76 509.638 1752.46 509.475 1752.21 509.273C1750.13 507.589 1747.88 506.077 1746.01 504.181C1740.87 498.977 1738.93 492.709 1740.56 485.446C1741.46 481.44 1743.25 477.818 1745.45 474.4C1750.51 466.549 1757.5 461.833 1766.8 460.9C1772.83 460.291 1778.63 461.386 1784.31 463.374C1784.6 463.476 1784.9 463.567 1785.23 463.669C1785.32 462.34 1785.35 461.143 1785.48 459.956C1786.31 452.247 1789.76 446.202 1796.57 442.378C1800.94 439.923 1805.7 438.747 1810.65 438.442C1817.61 438.006 1823.99 439.994 1830.06 443.311C1835.89 446.486 1839.43 451.253 1840.33 457.948C1840.57 459.733 1840.67 461.549 1840.85 463.415C1841.3 463.314 1841.74 463.212 1842.17 463.111C1850.22 461.234 1858.07 461.63 1865.61 465.271C1872.79 468.73 1878.17 474.228 1882.29 481.003C1886.33 487.647 1886.41 494.474 1882.74 501.32C1880.16 506.128 1876.46 509.972 1872.3 513.37C1870.06 515.196 1867.7 516.87 1865.31 518.675C1865.52 518.909 1865.72 519.132 1865.93 519.355L1865.95 519.365ZM1805.58 451.101C1800.76 452.268 1797.92 455.676 1797.3 460.778C1796.83 464.663 1797.41 468.446 1798.34 472.189C1798.85 474.238 1798.55 476.094 1797.28 477.768C1795.39 480.263 1792.32 480.912 1789.66 479.31C1786.16 477.21 1782.61 475.222 1778.71 473.954C1773.97 472.412 1769.17 471.915 1764.47 473.903C1758.2 476.551 1753.79 481.074 1751.99 487.85C1750.87 492.08 1752.19 495.691 1755.86 497.983C1758.48 499.616 1761.33 500.884 1764.14 502.172C1768.6 504.211 1769.54 508.715 1766.27 512.478C1764.47 514.557 1762.7 516.667 1761.04 518.858C1759.31 521.14 1757.98 523.676 1757.49 526.557C1756.33 533.403 1761.55 540.341 1768.46 541.224C1772.81 541.782 1776.9 540.727 1780.88 539.144C1782.94 538.323 1784.91 537.308 1786.93 536.375C1790.4 534.773 1794.39 536.477 1795.34 540.078C1795.62 541.122 1795.58 542.35 1795.35 543.425C1794.48 547.472 1793.88 551.529 1794.38 555.678C1795.19 562.332 1799.11 566.582 1805.53 568.134C1810.59 569.351 1814.28 567.464 1817.16 563.387C1819.58 559.978 1821.05 556.104 1822.4 552.178C1822.7 551.306 1822.94 550.413 1823.29 549.561C1824.27 547.147 1826.06 545.707 1828.6 545.332C1830.45 545.058 1831.99 545.758 1833.23 547.157C1835.37 549.561 1837.66 551.793 1840.39 553.517C1845.67 556.854 1850.98 556.895 1856.22 553.497C1857.77 552.493 1859.24 551.316 1860.56 550.018C1865.19 545.453 1865.93 540.169 1862.83 534.418C1860.77 530.604 1857.82 527.571 1854.59 524.792C1853.76 524.072 1852.89 523.402 1852.05 522.702C1850.78 521.637 1849.89 520.308 1849.48 518.665C1848.8 515.987 1849.78 513.715 1852.16 512.346C1855.9 510.196 1859.69 508.116 1863.35 505.834C1866.13 504.11 1868.54 501.888 1870.45 499.17C1874.19 493.824 1874.13 488.692 1870.14 483.56C1866.94 479.441 1862.85 476.439 1858.04 474.542C1853.64 472.808 1849.14 473.193 1844.74 474.583C1842.23 475.374 1839.81 476.459 1837.39 477.514C1835.14 478.498 1833 478.478 1831.04 476.956C1829.06 475.425 1828.06 473.396 1828.37 470.779C1828.7 467.919 1828.61 465.058 1827.97 462.249C1826.55 456.011 1822.5 452.511 1816.48 451.223C1814.53 450.807 1812.53 450.675 1810.54 450.411C1808.86 450.635 1807.18 450.716 1805.57 451.111L1805.58 451.101Z" fill="#8D9FF6"/>
<path d="M1789.75 509.617C1789.8 522.083 1799.81 532.186 1812.02 532.105C1824.33 532.024 1834.28 521.86 1834.18 509.486C1834.07 497.03 1824.16 487.018 1811.95 487.039C1799.67 487.059 1789.7 497.202 1789.75 509.607V509.617Z" fill="#333333" fill-opacity="0.9"/>
<path d="M1760.83 787.055C1758.44 785.249 1756.08 783.576 1753.84 781.75C1749.68 778.352 1745.98 774.518 1743.4 769.7C1739.73 762.843 1739.81 756.027 1743.85 749.383C1747.97 742.597 1753.35 737.11 1760.53 733.651C1768.07 730.009 1775.92 729.614 1783.97 731.49C1784.41 731.592 1784.85 731.693 1785.29 731.794C1785.46 729.918 1785.57 728.112 1785.81 726.327C1786.71 719.643 1790.24 714.876 1796.08 711.691C1802.16 708.374 1808.54 706.386 1815.49 706.822C1820.44 707.136 1825.2 708.303 1829.57 710.757C1836.38 714.581 1839.82 720.627 1840.66 728.336C1840.79 729.522 1840.83 730.719 1840.91 732.048C1841.23 731.947 1841.53 731.855 1841.83 731.754C1847.51 729.766 1853.31 728.67 1859.34 729.279C1868.64 730.212 1875.64 734.929 1880.69 742.78C1882.89 746.198 1884.68 749.819 1885.58 753.826C1887.21 761.098 1885.27 767.367 1880.13 772.56C1878.26 774.457 1876.01 775.968 1873.93 777.652C1873.67 777.855 1873.38 778.017 1873.08 778.21C1874.15 779.944 1875.23 781.608 1876.21 783.322C1878.5 787.349 1880.26 791.589 1880.83 796.234C1881.73 803.537 1879.14 809.41 1873.62 814.066C1864.98 821.369 1855.22 822.87 1844.58 819.868C1844.35 819.807 1844.12 819.746 1843.8 819.665C1843.72 821.105 1843.69 822.505 1843.56 823.895C1843.02 829.9 1841.22 835.428 1837.12 839.901C1831.59 845.936 1824.7 849.121 1816.53 849.08C1812 849.06 1808.15 847.062 1804.77 844.12C1800.64 840.53 1797.79 835.986 1795.38 831.117C1795.26 830.873 1795.13 830.62 1795 830.387C1794.97 830.336 1794.91 830.316 1794.83 830.265C1793.7 831.005 1792.59 831.796 1791.42 832.506C1786.76 835.326 1781.76 836.878 1776.27 836.564C1772.13 836.33 1768.31 835.022 1764.77 832.872C1760.02 829.971 1756.08 826.167 1753.03 821.491C1748.46 814.472 1748.44 807.128 1751.84 799.632C1753.88 795.139 1756.84 791.295 1760.19 787.744C1760.4 787.521 1760.6 787.298 1760.81 787.065L1760.83 787.055ZM1815.61 718.771C1813.63 719.034 1811.62 719.156 1809.67 719.582C1803.66 720.88 1799.61 724.37 1798.18 730.608C1797.54 733.417 1797.45 736.278 1797.78 739.138C1798.09 741.765 1797.09 743.784 1795.11 745.315C1793.15 746.837 1791.01 746.857 1788.76 745.873C1786.34 744.818 1783.92 743.733 1781.41 742.942C1777.01 741.542 1772.52 741.167 1768.11 742.901C1763.3 744.798 1759.22 747.8 1756.01 751.919C1752.02 757.051 1751.96 762.194 1755.7 767.529C1757.61 770.247 1760.02 772.469 1762.8 774.193C1766.47 776.475 1770.25 778.555 1773.99 780.705C1776.37 782.074 1777.34 784.336 1776.67 787.024C1776.26 788.668 1775.38 789.986 1774.1 791.061C1773.26 791.761 1772.39 792.441 1771.56 793.151C1768.33 795.93 1765.37 798.963 1763.32 802.777C1760.22 808.528 1760.95 813.813 1765.59 818.377C1766.91 819.675 1768.38 820.852 1769.93 821.856C1775.17 825.254 1780.48 825.213 1785.76 821.876C1788.49 820.152 1790.78 817.931 1792.92 815.517C1794.16 814.117 1795.7 813.417 1797.55 813.691C1800.09 814.066 1801.88 815.506 1802.86 817.921C1803.2 818.773 1803.45 819.665 1803.75 820.537C1805.1 824.463 1806.57 828.327 1808.99 831.746C1811.88 835.823 1815.56 837.71 1820.62 836.493C1827.05 834.951 1830.96 830.701 1831.77 824.037C1832.28 819.878 1831.67 815.831 1830.8 811.784C1830.57 810.709 1830.53 809.481 1830.81 808.437C1831.76 804.836 1835.76 803.142 1839.22 804.734C1841.23 805.668 1843.21 806.682 1845.27 807.503C1849.25 809.086 1853.34 810.141 1857.69 809.583C1864.61 808.7 1869.82 801.762 1868.66 794.916C1868.17 792.035 1866.84 789.499 1865.11 787.217C1863.45 785.026 1861.69 782.906 1859.88 780.837C1856.61 777.064 1857.55 772.57 1862.01 770.531C1864.82 769.243 1867.67 767.975 1870.29 766.342C1873.96 764.05 1875.28 760.439 1874.16 756.209C1872.36 749.434 1867.95 744.91 1861.68 742.262C1856.97 740.274 1852.18 740.781 1847.44 742.313C1843.54 743.581 1839.99 745.559 1836.49 747.669C1833.82 749.271 1830.76 748.622 1828.87 746.127C1827.6 744.453 1827.3 742.597 1827.81 740.548C1828.74 736.805 1829.32 733.022 1828.85 729.137C1828.23 724.035 1825.4 720.627 1820.57 719.46C1818.96 719.075 1817.28 718.994 1815.6 718.76L1815.61 718.771Z" fill="#EF94B4"/>
<path d="M1836.41 777.987C1836.36 790.453 1826.35 800.556 1814.14 800.475C1801.83 800.393 1791.88 790.23 1791.98 777.855C1792.09 765.399 1802 755.388 1814.21 755.408C1826.49 755.429 1836.46 765.572 1836.41 777.977V777.987Z" fill="#333333" fill-opacity="0.9"/>
<path d="M28.1126 236.303C25.7226 234.497 23.3626 232.824 21.1226 230.998C16.9626 227.6 13.2626 223.766 10.6826 218.948C7.01261 212.091 7.09261 205.275 11.1326 198.631C15.2526 191.845 20.6326 186.357 27.8126 182.899C35.3526 179.257 43.2026 178.862 51.2526 180.738C51.6926 180.84 52.1326 180.941 52.5726 181.042C52.7426 179.166 52.8526 177.36 53.0926 175.575C53.9926 168.891 57.5226 164.124 63.3626 160.939C69.4526 157.612 75.8226 155.624 82.7826 156.06C87.7326 156.374 92.4926 157.541 96.8626 159.995C103.673 163.819 107.113 169.865 107.953 177.573C108.083 178.76 108.123 179.957 108.203 181.286C108.523 181.184 108.823 181.093 109.123 180.992C114.803 179.004 120.603 177.908 126.633 178.517C135.933 179.45 142.933 184.167 147.983 192.017C150.183 195.436 151.973 199.057 152.873 203.063C154.503 210.336 152.563 216.605 147.423 221.798C145.553 223.695 143.303 225.206 141.223 226.89C140.963 227.093 140.673 227.255 140.373 227.448C141.443 229.182 142.523 230.846 143.503 232.56C145.793 236.587 147.553 240.827 148.123 245.472C149.023 252.775 146.433 258.648 140.913 263.304C132.273 270.607 122.513 272.108 111.873 269.106C111.643 269.045 111.413 268.984 111.093 268.903C111.013 270.343 110.983 271.743 110.853 273.133C110.313 279.137 108.513 284.665 104.413 289.139C98.8826 295.174 91.9926 298.359 83.8226 298.318C79.2926 298.298 75.4426 296.3 72.0626 293.358C67.9326 289.768 65.0826 285.223 62.6726 280.355C62.5526 280.111 62.4226 279.858 62.2926 279.624C62.2626 279.574 62.2026 279.553 62.1226 279.503C60.9926 280.243 59.8826 281.034 58.7126 281.744C54.0526 284.564 49.0526 286.116 43.5626 285.802C39.4226 285.568 35.6026 284.26 32.0626 282.109C27.3126 279.208 23.3726 275.405 20.3226 270.729C15.7526 263.71 15.7326 256.366 19.1326 248.87C21.1726 244.377 24.1326 240.532 27.4826 236.982C27.6926 236.759 27.8926 236.536 28.1026 236.303H28.1126ZM82.9026 168.019C80.9226 168.282 78.9126 168.404 76.9626 168.83C70.9526 170.128 66.9026 173.618 65.4726 179.856C64.8326 182.665 64.7426 185.526 65.0726 188.386C65.3826 191.013 64.3826 193.032 62.4026 194.563C60.4426 196.085 58.3026 196.105 56.0526 195.121C53.6326 194.066 51.2126 192.981 48.7026 192.19C44.3026 190.79 39.8126 190.415 35.4026 192.149C30.5926 194.046 26.5126 197.048 23.3026 201.167C19.3126 206.299 19.2526 211.442 22.9926 216.777C24.9026 219.495 27.3126 221.717 30.0926 223.441C33.7626 225.723 37.5426 227.803 41.2826 229.953C43.6626 231.322 44.6326 233.584 43.9626 236.272C43.5526 237.915 42.6726 239.234 41.3926 240.309C40.5526 241.009 39.6826 241.689 38.8526 242.399C35.6226 245.178 32.6626 248.211 30.6126 252.025C27.5126 257.776 28.2426 263.06 32.8826 267.625C34.2026 268.923 35.6726 270.1 37.2226 271.104C42.4626 274.502 47.7726 274.461 53.0526 271.124C55.7826 269.4 58.0726 267.179 60.2126 264.765C61.4526 263.365 62.9926 262.665 64.8426 262.939C67.3826 263.314 69.1726 264.754 70.1526 267.168C70.4926 268.02 70.7426 268.913 71.0426 269.785C72.3926 273.711 73.8626 277.575 76.2826 280.994C79.1726 285.071 82.8526 286.958 87.9126 285.741C94.3426 284.199 98.2526 279.949 99.0626 273.285C99.5726 269.126 98.9626 265.079 98.0926 261.032C97.8626 259.957 97.8226 258.729 98.1026 257.685C99.0526 254.084 103.053 252.39 106.513 253.982C108.523 254.915 110.503 255.93 112.563 256.751C116.543 258.334 120.633 259.389 124.983 258.831C131.903 257.948 137.113 251.01 135.953 244.164C135.463 241.283 134.133 238.747 132.403 236.465C130.743 234.274 128.983 232.154 127.173 230.085C123.903 226.312 124.843 221.818 129.303 219.779C132.113 218.491 134.963 217.223 137.583 215.59C141.253 213.298 142.573 209.687 141.453 205.457C139.653 198.681 135.243 194.158 128.973 191.51C124.263 189.522 119.473 190.029 114.733 191.561C110.833 192.829 107.283 194.807 103.783 196.917C101.113 198.519 98.0526 197.87 96.1626 195.375C94.8926 193.701 94.5926 191.845 95.1026 189.796C96.0326 186.053 96.6126 182.27 96.1426 178.385C95.5226 173.283 92.6926 169.875 87.8626 168.708C86.2526 168.323 84.5726 168.242 82.8926 168.008L82.9026 168.019Z" fill="#EF94B4"/>
<path d="M103.703 227.235C103.653 239.701 93.6427 249.803 81.4327 249.722C69.1227 249.641 59.1727 239.477 59.2727 227.103C59.3827 214.647 69.2927 204.636 81.5027 204.656C93.7827 204.676 103.753 214.819 103.703 227.224V227.235Z" fill="#333333" fill-opacity="0.9"/>
<path d="M133.953 518.365C137.303 521.915 140.253 525.759 142.303 530.253C145.713 537.749 145.683 545.092 141.113 552.112C138.063 556.788 134.123 560.601 129.373 563.492C125.833 565.643 122.013 566.951 117.873 567.184C112.393 567.499 107.393 565.937 102.723 563.127C101.553 562.427 100.443 561.636 99.3127 560.885C99.2327 560.936 99.1727 560.956 99.1427 561.007C99.0127 561.251 98.8827 561.494 98.7627 561.737C96.3527 566.606 93.4927 571.15 89.3727 574.741C85.9927 577.683 82.1427 579.681 77.6127 579.701C69.4427 579.742 62.5527 576.547 57.0227 570.521C52.9227 566.048 51.1127 560.51 50.5827 554.516C50.4627 553.126 50.4227 551.726 50.3427 550.286C50.0227 550.367 49.7927 550.428 49.5627 550.489C38.9227 553.501 29.1627 551.99 20.5227 544.687C15.0027 540.031 12.4127 534.158 13.3127 526.855C13.8827 522.199 15.6427 517.959 17.9327 513.943C18.9127 512.228 20.0027 510.565 21.0627 508.83C20.7627 508.638 20.4627 508.475 20.2127 508.273C18.1327 506.589 15.8827 505.077 14.0127 503.181C8.87265 497.977 6.93265 491.709 8.56265 484.446C9.46265 480.44 11.2527 476.818 13.4527 473.4C18.5127 465.549 25.5027 460.833 34.8027 459.9C40.8327 459.291 46.6327 460.386 52.3127 462.374C52.6027 462.476 52.9027 462.567 53.2327 462.669C53.3227 461.34 53.3527 460.143 53.4827 458.956C54.3127 451.247 57.7627 445.202 64.5727 441.378C68.9427 438.923 73.7027 437.747 78.6527 437.442C85.6127 437.006 91.9927 438.994 98.0627 442.311C103.893 445.486 107.433 450.253 108.333 456.948C108.573 458.733 108.673 460.549 108.853 462.415C109.303 462.314 109.743 462.212 110.173 462.111C118.223 460.234 126.073 460.63 133.613 464.271C140.793 467.73 146.173 473.228 150.293 480.003C154.333 486.647 154.413 493.474 150.743 500.32C148.163 505.128 144.463 508.972 140.303 512.37C138.063 514.196 135.703 515.87 133.313 517.675C133.523 517.909 133.723 518.132 133.933 518.355L133.953 518.365ZM73.5827 450.101C68.7627 451.268 65.9227 454.676 65.3027 459.778C64.8327 463.663 65.4127 467.446 66.3427 471.189C66.8527 473.238 66.5527 475.094 65.2827 476.768C63.3927 479.263 60.3227 479.912 57.6627 478.31C54.1627 476.21 50.6127 474.222 46.7127 472.954C41.9727 471.412 37.1727 470.915 32.4727 472.903C26.2027 475.551 21.7927 480.074 19.9927 486.85C18.8727 491.08 20.1927 494.691 23.8627 496.983C26.4827 498.616 29.3327 499.884 32.1427 501.172C36.6027 503.211 37.5427 507.715 34.2727 511.478C32.4727 513.557 30.7027 515.667 29.0427 517.858C27.3127 520.14 25.9827 522.676 25.4927 525.557C24.3327 532.403 29.5527 539.341 36.4627 540.224C40.8127 540.782 44.9027 539.727 48.8827 538.144C50.9427 537.323 52.9127 536.308 54.9327 535.375C58.4027 533.773 62.3927 535.477 63.3427 539.078C63.6227 540.122 63.5827 541.35 63.3527 542.425C62.4827 546.472 61.8827 550.529 62.3827 554.678C63.1927 561.332 67.1127 565.582 73.5327 567.134C78.5927 568.351 82.2827 566.464 85.1627 562.387C87.5827 558.978 89.0527 555.104 90.4027 551.178C90.7027 550.306 90.9427 549.413 91.2927 548.561C92.2727 546.147 94.0627 544.707 96.6027 544.332C98.4527 544.058 99.9927 544.758 101.233 546.157C103.373 548.561 105.663 550.793 108.393 552.517C113.673 555.854 118.983 555.895 124.223 552.497C125.773 551.493 127.243 550.316 128.563 549.018C133.193 544.453 133.933 539.169 130.833 533.418C128.773 529.604 125.823 526.571 122.593 523.792C121.763 523.072 120.893 522.402 120.053 521.702C118.783 520.637 117.893 519.308 117.483 517.665C116.803 514.987 117.783 512.715 120.163 511.346C123.903 509.196 127.693 507.116 131.353 504.834C134.133 503.11 136.543 500.888 138.453 498.17C142.193 492.824 142.133 487.692 138.143 482.56C134.943 478.441 130.853 475.439 126.043 473.542C121.643 471.808 117.143 472.193 112.743 473.583C110.233 474.374 107.813 475.459 105.393 476.514C103.143 477.498 101.003 477.478 99.0427 475.956C97.0627 474.425 96.0627 472.396 96.3727 469.779C96.7027 466.919 96.6127 464.058 95.9727 461.249C94.5527 455.011 90.5027 451.511 84.4827 450.223C82.5327 449.807 80.5327 449.675 78.5427 449.411C76.8627 449.635 75.1827 449.716 73.5727 450.111L73.5827 450.101Z" fill="#8D9FF6"/>
<path d="M57.7526 508.617C57.8026 521.083 67.8126 531.186 80.0226 531.105C92.3326 531.024 102.283 520.86 102.183 508.486C102.073 496.03 92.1626 486.018 79.9526 486.039C67.6726 486.059 57.7026 496.202 57.7526 508.607V508.617Z" fill="#333333" fill-opacity="0.9"/>
<path d="M28.8326 786.055C26.4426 784.249 24.0826 782.576 21.8426 780.75C17.6826 777.352 13.9826 773.518 11.4026 768.7C7.73258 761.843 7.81258 755.027 11.8526 748.383C15.9726 741.597 21.3526 736.11 28.5326 732.651C36.0726 729.009 43.9226 728.614 51.9726 730.49C52.4126 730.592 52.8526 730.693 53.2926 730.794C53.4626 728.918 53.5726 727.112 53.8126 725.327C54.7126 718.643 58.2426 713.876 64.0826 710.691C70.1626 707.374 76.5426 705.386 83.4926 705.822C88.4426 706.136 93.2026 707.303 97.5726 709.757C104.383 713.581 107.823 719.627 108.663 727.336C108.793 728.522 108.833 729.719 108.913 731.048C109.233 730.947 109.533 730.855 109.833 730.754C115.513 728.766 121.313 727.67 127.343 728.279C136.643 729.212 143.643 733.929 148.693 741.78C150.893 745.198 152.683 748.819 153.583 752.826C155.213 760.098 153.273 766.367 148.133 771.56C146.263 773.457 144.013 774.968 141.933 776.652C141.673 776.855 141.383 777.017 141.083 777.21C142.153 778.944 143.233 780.608 144.213 782.322C146.503 786.349 148.263 790.589 148.833 795.234C149.733 802.537 147.143 808.41 141.623 813.066C132.983 820.369 123.223 821.87 112.583 818.868C112.353 818.807 112.123 818.746 111.803 818.665C111.723 820.105 111.693 821.505 111.563 822.895C111.023 828.9 109.223 834.428 105.123 838.901C99.5926 844.936 92.7026 848.121 84.5326 848.08C80.0026 848.06 76.1526 846.062 72.7726 843.12C68.6426 839.53 65.7926 834.986 63.3826 830.117C63.2626 829.873 63.1326 829.62 63.0026 829.387C62.9726 829.336 62.9126 829.316 62.8326 829.265C61.7026 830.005 60.5926 830.796 59.4226 831.506C54.7626 834.326 49.7626 835.878 44.2726 835.564C40.1326 835.33 36.3126 834.022 32.7726 831.872C28.0226 828.971 24.0826 825.167 21.0326 820.491C16.4626 813.472 16.4426 806.128 19.8426 798.632C21.8826 794.139 24.8426 790.295 28.1926 786.744C28.4026 786.521 28.6026 786.298 28.8126 786.065L28.8326 786.055ZM83.6126 717.771C81.6326 718.034 79.6226 718.156 77.6726 718.582C71.6626 719.88 67.6126 723.37 66.1826 729.608C65.5426 732.417 65.4526 735.278 65.7826 738.138C66.0926 740.765 65.0926 742.784 63.1126 744.315C61.1526 745.837 59.0126 745.857 56.7626 744.873C54.3426 743.818 51.9226 742.733 49.4126 741.942C45.0126 740.542 40.5226 740.167 36.1126 741.901C31.3026 743.798 27.2226 746.8 24.0126 750.919C20.0226 756.051 19.9626 761.194 23.7026 766.529C25.6126 769.247 28.0226 771.469 30.8026 773.193C34.4726 775.475 38.2526 777.555 41.9926 779.705C44.3726 781.074 45.3426 783.336 44.6726 786.024C44.2626 787.668 43.3826 788.986 42.1026 790.061C41.2626 790.761 40.3926 791.441 39.5626 792.151C36.3326 794.93 33.3726 797.963 31.3226 801.777C28.2226 807.528 28.9526 812.813 33.5926 817.377C34.9126 818.675 36.3826 819.852 37.9326 820.856C43.1726 824.254 48.4826 824.213 53.7626 820.876C56.4926 819.152 58.7826 816.931 60.9226 814.517C62.1626 813.117 63.7026 812.417 65.5526 812.691C68.0926 813.066 69.8826 814.506 70.8626 816.921C71.2026 817.773 71.4526 818.665 71.7526 819.537C73.1026 823.463 74.5726 827.327 76.9926 830.746C79.8826 834.823 83.5626 836.71 88.6226 835.493C95.0526 833.951 98.9626 829.701 99.7726 823.037C100.283 818.878 99.6726 814.831 98.8026 810.784C98.5726 809.709 98.5326 808.481 98.8126 807.437C99.7626 803.836 103.763 802.142 107.223 803.734C109.233 804.668 111.213 805.682 113.273 806.503C117.253 808.086 121.343 809.141 125.693 808.583C132.613 807.7 137.823 800.762 136.663 793.916C136.173 791.035 134.843 788.499 133.113 786.217C131.453 784.026 129.693 781.906 127.883 779.837C124.613 776.064 125.553 771.57 130.013 769.531C132.823 768.243 135.673 766.975 138.293 765.342C141.963 763.05 143.283 759.439 142.163 755.209C140.363 748.434 135.953 743.91 129.683 741.262C124.973 739.274 120.183 739.781 115.443 741.313C111.543 742.581 107.993 744.559 104.493 746.669C101.823 748.271 98.7626 747.622 96.8726 745.127C95.6026 743.453 95.3026 741.597 95.8126 739.548C96.7426 735.805 97.3226 732.022 96.8526 728.137C96.2326 723.035 93.4026 719.627 88.5726 718.46C86.9626 718.075 85.2826 717.994 83.6026 717.76L83.6126 717.771Z" fill="#EF94B4"/>
<path d="M104.413 776.987C104.363 789.453 94.3527 799.556 82.1427 799.475C69.8327 799.393 59.8827 789.23 59.9827 776.855C60.0927 764.399 70.0027 754.388 82.2127 754.408C94.4927 754.429 104.463 764.572 104.413 776.977V776.987Z" fill="#333333" fill-opacity="0.9"/>
</svg>
