<svg width="1896" height="896" viewBox="0 0 1896 896" fill="none" xmlns="http://www.w3.org/2000/svg">
<rect width="1896" height="896" fill="white"/>
<path d="M1760.11 178.202C1757.72 176.396 1755.36 174.722 1753.12 172.897C1748.96 169.499 1745.26 165.665 1742.68 160.847C1739.01 153.99 1739.09 147.173 1743.13 140.53C1747.25 133.744 1752.63 128.256 1759.81 124.798C1767.35 121.156 1775.2 120.761 1783.25 122.637C1783.69 122.738 1784.13 122.84 1784.57 122.941C1784.74 121.065 1784.85 119.259 1785.09 117.474C1785.99 110.79 1789.52 106.022 1795.36 102.837C1801.45 99.5105 1807.82 97.5224 1814.78 97.9586C1819.73 98.273 1824.49 99.4395 1828.86 101.894C1835.67 105.718 1839.11 111.764 1839.95 119.472C1840.08 120.659 1840.12 121.856 1840.2 123.185C1840.52 123.083 1840.82 122.992 1841.12 122.891C1846.8 120.903 1852.6 119.807 1858.63 120.416C1867.93 121.349 1874.93 126.065 1879.98 133.916C1882.18 137.335 1883.97 140.956 1884.87 144.962C1886.5 152.235 1884.56 158.503 1879.42 163.697C1877.55 165.594 1875.3 167.105 1873.22 168.789C1872.96 168.992 1872.67 169.154 1872.37 169.347C1873.44 171.081 1874.52 172.745 1875.5 174.459C1877.79 178.486 1879.55 182.725 1880.12 187.371C1881.02 194.674 1878.43 200.547 1872.91 205.203C1864.27 212.506 1854.51 214.007 1843.87 211.005C1843.64 210.944 1843.41 210.883 1843.09 210.802C1843.01 212.242 1842.98 213.642 1842.85 215.032C1842.31 221.036 1840.51 226.564 1836.41 231.038C1830.88 237.073 1823.99 240.258 1815.82 240.217C1811.29 240.197 1807.44 238.199 1804.06 235.257C1799.93 231.667 1797.08 227.122 1794.67 222.254C1794.55 222.01 1794.42 221.757 1794.29 221.523C1794.26 221.473 1794.2 221.452 1794.12 221.402C1792.99 222.142 1791.88 222.933 1790.71 223.643C1786.05 226.463 1781.05 228.015 1775.56 227.701C1771.42 227.467 1767.6 226.159 1764.06 224.008C1759.31 221.107 1755.37 217.304 1752.32 212.628C1747.75 205.609 1747.73 198.265 1751.13 190.769C1753.17 186.276 1756.13 182.431 1759.48 178.881C1759.69 178.658 1759.89 178.435 1760.1 178.202H1760.11ZM1814.9 109.917C1812.92 110.181 1810.91 110.303 1808.96 110.729C1802.95 112.027 1798.9 115.517 1797.47 121.755C1796.83 124.564 1796.74 127.425 1797.07 130.285C1797.38 132.912 1796.38 134.931 1794.4 136.462C1792.44 137.984 1790.3 138.004 1788.05 137.02C1785.63 135.965 1783.21 134.88 1780.7 134.089C1776.3 132.689 1771.81 132.314 1767.4 134.048C1762.59 135.945 1758.51 138.947 1755.3 143.065C1751.31 148.198 1751.25 153.341 1754.99 158.676C1756.9 161.394 1759.31 163.616 1762.09 165.34C1765.76 167.622 1769.54 169.702 1773.28 171.852C1775.66 173.221 1776.63 175.483 1775.96 178.171C1775.55 179.814 1774.67 181.133 1773.39 182.208C1772.55 182.908 1771.68 183.588 1770.85 184.298C1767.62 187.077 1764.66 190.11 1762.61 193.924C1759.51 199.675 1760.24 204.959 1764.88 209.524C1766.2 210.822 1767.67 211.999 1769.22 213.003C1774.46 216.401 1779.77 216.36 1785.05 213.023C1787.78 211.299 1790.07 209.078 1792.21 206.663C1793.45 205.264 1794.99 204.564 1796.84 204.838C1799.38 205.213 1801.17 206.653 1802.15 209.067C1802.49 209.919 1802.74 210.812 1803.04 211.684C1804.39 215.61 1805.86 219.474 1808.28 222.893C1811.17 226.97 1814.85 228.857 1819.91 227.64C1826.34 226.098 1830.25 221.848 1831.06 215.184C1831.57 211.025 1830.96 206.978 1830.09 202.931C1829.86 201.856 1829.82 200.628 1830.1 199.584C1831.05 195.983 1835.05 194.289 1838.51 195.881C1840.52 196.814 1842.5 197.829 1844.56 198.65C1848.54 200.233 1852.63 201.288 1856.98 200.73C1863.9 199.847 1869.11 192.909 1867.95 186.063C1867.46 183.182 1866.13 180.646 1864.4 178.364C1862.74 176.173 1860.98 174.053 1859.17 171.984C1855.9 168.211 1856.84 163.717 1861.3 161.678C1864.11 160.39 1866.96 159.122 1869.58 157.489C1873.25 155.197 1874.57 151.586 1873.45 147.356C1871.65 140.58 1867.24 136.057 1860.97 133.409C1856.26 131.421 1851.47 131.928 1846.73 133.46C1842.83 134.728 1839.28 136.706 1835.78 138.815C1833.11 140.418 1830.05 139.769 1828.16 137.274C1826.89 135.6 1826.59 133.744 1827.1 131.695C1828.03 127.952 1828.61 124.169 1828.14 120.284C1827.52 115.182 1824.69 111.774 1819.86 110.607C1818.25 110.222 1816.57 110.141 1814.89 109.907L1814.9 109.917Z" fill="#EF94B4"/>
<path d="M1835.7 169.134C1835.65 181.6 1825.64 191.703 1813.43 191.622C1801.12 191.54 1791.17 181.377 1791.27 169.002C1791.38 156.546 1801.29 146.535 1813.5 146.555C1825.78 146.575 1835.75 156.719 1835.7 169.124V169.134Z" fill="#333333" fill-opacity="0.9"/>
<path d="M1865.95 460.265C1869.3 463.815 1872.25 467.659 1874.3 472.152C1877.71 479.648 1877.68 486.992 1873.11 494.011C1870.06 498.687 1866.12 502.501 1861.37 505.392C1857.83 507.542 1854.01 508.851 1849.87 509.084C1844.39 509.398 1839.39 507.836 1834.72 505.027C1833.55 504.327 1832.44 503.536 1831.31 502.785C1831.23 502.836 1831.17 502.856 1831.14 502.907C1831.01 503.15 1830.88 503.394 1830.76 503.637C1828.35 508.506 1825.49 513.05 1821.37 516.641C1817.99 519.582 1814.14 521.58 1809.61 521.601C1801.44 521.641 1794.55 518.446 1789.02 512.421C1784.92 507.948 1783.11 502.41 1782.58 496.415C1782.46 495.025 1782.42 493.626 1782.34 492.185C1782.02 492.266 1781.79 492.327 1781.56 492.388C1770.92 495.401 1761.16 493.889 1752.52 486.586C1747 481.93 1744.41 476.058 1745.31 468.754C1745.88 464.099 1747.64 459.859 1749.93 455.842C1750.91 454.128 1752 452.464 1753.06 450.73C1752.76 450.537 1752.46 450.375 1752.21 450.172C1750.13 448.488 1747.88 446.977 1746.01 445.08C1740.87 439.877 1738.93 433.608 1740.56 426.346C1741.46 422.339 1743.25 418.718 1745.45 415.3C1750.51 407.449 1757.5 402.732 1766.8 401.799C1772.83 401.19 1778.63 402.286 1784.31 404.274C1784.6 404.375 1784.9 404.467 1785.23 404.568C1785.32 403.239 1785.35 402.042 1785.48 400.856C1786.31 393.147 1789.76 387.101 1796.57 383.277C1800.94 380.823 1805.7 379.646 1810.65 379.342C1817.61 378.906 1823.99 380.894 1830.06 384.211C1835.89 387.385 1839.43 392.153 1840.33 398.847C1840.57 400.633 1840.67 402.448 1840.85 404.315C1841.3 404.213 1841.74 404.112 1842.17 404.01C1850.22 402.134 1858.07 402.529 1865.61 406.171C1872.79 409.63 1878.17 415.127 1882.29 421.903C1886.33 428.547 1886.41 435.373 1882.74 442.22C1880.16 447.028 1876.46 450.872 1872.3 454.27C1870.06 456.096 1867.7 457.769 1865.31 459.575C1865.52 459.808 1865.72 460.031 1865.93 460.254L1865.95 460.265ZM1805.58 392.001C1800.76 393.167 1797.92 396.575 1797.3 401.677C1796.83 405.562 1797.41 409.346 1798.34 413.088C1798.85 415.137 1798.55 416.994 1797.28 418.667C1795.39 421.162 1792.32 421.812 1789.66 420.209C1786.16 418.109 1782.61 416.121 1778.71 414.853C1773.97 413.312 1769.17 412.815 1764.47 414.803C1758.2 417.45 1753.79 421.974 1751.99 428.75C1750.87 432.979 1752.19 436.59 1755.86 438.883C1758.48 440.516 1761.33 441.784 1764.14 443.072C1768.6 445.111 1769.54 449.614 1766.27 453.377C1764.47 455.457 1762.7 457.566 1761.04 459.757C1759.31 462.04 1757.98 464.575 1757.49 467.456C1756.33 474.303 1761.55 481.241 1768.46 482.123C1772.81 482.681 1776.9 481.626 1780.88 480.044C1782.94 479.222 1784.91 478.208 1786.93 477.275C1790.4 475.672 1794.39 477.376 1795.34 480.977C1795.62 482.022 1795.58 483.249 1795.35 484.324C1794.48 488.371 1793.88 492.429 1794.38 496.577C1795.19 503.231 1799.11 507.481 1805.53 509.033C1810.59 510.25 1814.28 508.364 1817.16 504.286C1819.58 500.878 1821.05 497.003 1822.4 493.078C1822.7 492.206 1822.94 491.313 1823.29 490.461C1824.27 488.047 1826.06 486.606 1828.6 486.231C1830.45 485.957 1831.99 486.657 1833.23 488.057C1835.37 490.461 1837.66 492.692 1840.39 494.417C1845.67 497.754 1850.98 497.794 1856.22 494.396C1857.77 493.392 1859.24 492.216 1860.56 490.917C1865.19 486.353 1865.93 481.068 1862.83 475.317C1860.77 471.503 1857.82 468.47 1854.59 465.691C1853.76 464.971 1852.89 464.302 1852.05 463.602C1850.78 462.537 1849.89 461.208 1849.48 459.565C1848.8 456.887 1849.78 454.615 1852.16 453.245C1855.9 451.095 1859.69 449.016 1863.35 446.733C1866.13 445.009 1868.54 442.788 1870.45 440.069C1874.19 434.724 1874.13 429.591 1870.14 424.459C1866.94 420.341 1862.85 417.338 1858.04 415.442C1853.64 413.707 1849.14 414.093 1844.74 415.482C1842.23 416.273 1839.81 417.359 1837.39 418.414C1835.14 419.397 1833 419.377 1831.04 417.856C1829.06 416.324 1828.06 414.295 1828.37 411.678C1828.7 408.818 1828.61 405.958 1827.97 403.148C1826.55 396.91 1822.5 393.411 1816.48 392.122C1814.53 391.706 1812.53 391.575 1810.54 391.311C1808.86 391.534 1807.18 391.615 1805.57 392.011L1805.58 392.001Z" fill="#8D9FF6"/>
<path d="M1789.75 450.518C1789.8 462.984 1799.81 473.086 1812.02 473.005C1824.33 472.924 1834.28 462.761 1834.18 450.386C1834.07 437.93 1824.16 427.919 1811.95 427.939C1799.67 427.959 1789.7 438.103 1789.75 450.508V450.518Z" fill="#333333" fill-opacity="0.9"/>
<path d="M1760.83 727.954C1758.44 726.148 1756.08 724.475 1753.84 722.649C1749.68 719.251 1745.98 715.417 1743.4 710.599C1739.73 703.742 1739.81 696.926 1743.85 690.282C1747.97 683.496 1753.35 678.008 1760.53 674.55C1768.07 670.908 1775.92 670.513 1783.97 672.389C1784.41 672.491 1784.85 672.592 1785.29 672.693C1785.46 670.817 1785.57 669.011 1785.81 667.226C1786.71 660.542 1790.24 655.775 1796.08 652.59C1802.16 649.273 1808.54 647.285 1815.49 647.721C1820.44 648.035 1825.2 649.202 1829.57 651.656C1836.38 655.48 1839.82 661.526 1840.66 669.235C1840.79 670.421 1840.83 671.618 1840.91 672.947C1841.23 672.846 1841.53 672.754 1841.83 672.653C1847.51 670.665 1853.31 669.569 1859.34 670.178C1868.64 671.111 1875.64 675.828 1880.69 683.679C1882.89 687.097 1884.68 690.718 1885.58 694.725C1887.21 701.997 1885.27 708.266 1880.13 713.459C1878.26 715.356 1876.01 716.867 1873.93 718.551C1873.67 718.754 1873.38 718.916 1873.08 719.109C1874.15 720.843 1875.23 722.507 1876.21 724.221C1878.5 728.248 1880.26 732.488 1880.83 737.133C1881.73 744.436 1879.14 750.309 1873.62 754.965C1864.98 762.268 1855.22 763.769 1844.58 760.767C1844.35 760.706 1844.12 760.645 1843.8 760.564C1843.72 762.004 1843.69 763.404 1843.56 764.794C1843.02 770.799 1841.22 776.327 1837.12 780.8C1831.59 786.835 1824.7 790.02 1816.53 789.979C1812 789.959 1808.15 787.961 1804.77 785.019C1800.64 781.429 1797.79 776.885 1795.38 772.016C1795.26 771.772 1795.13 771.519 1795 771.286C1794.97 771.235 1794.91 771.215 1794.83 771.164C1793.7 771.904 1792.59 772.695 1791.42 773.405C1786.76 776.225 1781.76 777.777 1776.27 777.463C1772.13 777.229 1768.31 775.921 1764.77 773.771C1760.02 770.87 1756.08 767.066 1753.03 762.39C1748.46 755.371 1748.44 748.027 1751.84 740.531C1753.88 736.038 1756.84 732.194 1760.19 728.643C1760.4 728.42 1760.6 728.197 1760.81 727.964L1760.83 727.954ZM1815.61 659.67C1813.63 659.933 1811.62 660.055 1809.67 660.481C1803.66 661.779 1799.61 665.269 1798.18 671.507C1797.54 674.316 1797.45 677.177 1797.78 680.037C1798.09 682.664 1797.09 684.683 1795.11 686.214C1793.15 687.736 1791.01 687.756 1788.76 686.772C1786.34 685.717 1783.92 684.632 1781.41 683.841C1777.01 682.441 1772.52 682.066 1768.11 683.8C1763.3 685.697 1759.22 688.699 1756.01 692.818C1752.02 697.95 1751.96 703.093 1755.7 708.428C1757.61 711.146 1760.02 713.368 1762.8 715.092C1766.47 717.374 1770.25 719.454 1773.99 721.604C1776.37 722.973 1777.34 725.235 1776.67 727.923C1776.26 729.566 1775.38 730.885 1774.1 731.96C1773.26 732.66 1772.39 733.34 1771.56 734.05C1768.33 736.829 1765.37 739.862 1763.32 743.676C1760.22 749.427 1760.95 754.711 1765.59 759.276C1766.91 760.574 1768.38 761.751 1769.93 762.755C1775.17 766.153 1780.48 766.112 1785.76 762.775C1788.49 761.051 1790.78 758.83 1792.92 756.416C1794.16 755.016 1795.7 754.316 1797.55 754.59C1800.09 754.965 1801.88 756.405 1802.86 758.82C1803.2 759.672 1803.45 760.564 1803.75 761.436C1805.1 765.362 1806.57 769.226 1808.99 772.645C1811.88 776.722 1815.56 778.609 1820.62 777.392C1827.05 775.85 1830.96 771.6 1831.77 764.936C1832.28 760.777 1831.67 756.73 1830.8 752.683C1830.57 751.608 1830.53 750.38 1830.81 749.336C1831.76 745.735 1835.76 744.041 1839.22 745.633C1841.23 746.567 1843.21 747.581 1845.27 748.402C1849.25 749.985 1853.34 751.04 1857.69 750.482C1864.61 749.599 1869.82 742.661 1868.66 735.815C1868.17 732.934 1866.84 730.398 1865.11 728.116C1863.45 725.925 1861.69 723.805 1859.88 721.736C1856.61 717.963 1857.55 713.469 1862.01 711.43C1864.82 710.142 1867.67 708.874 1870.29 707.241C1873.96 704.949 1875.28 701.338 1874.16 697.108C1872.36 690.332 1867.95 685.809 1861.68 683.161C1856.97 681.173 1852.18 681.68 1847.44 683.212C1843.54 684.48 1839.99 686.458 1836.49 688.568C1833.82 690.17 1830.76 689.521 1828.87 687.026C1827.6 685.352 1827.3 683.496 1827.81 681.447C1828.74 677.704 1829.32 673.921 1828.85 670.036C1828.23 664.934 1825.4 661.526 1820.57 660.359C1818.96 659.974 1817.28 659.893 1815.6 659.659L1815.61 659.67Z" fill="#EF94B4"/>
<path d="M1836.41 718.886C1836.36 731.352 1826.35 741.455 1814.14 741.374C1801.83 741.293 1791.88 731.129 1791.98 718.755C1792.09 706.299 1802 696.287 1814.21 696.308C1826.49 696.328 1836.46 706.471 1836.41 718.876V718.886Z" fill="#333333" fill-opacity="0.9"/>
<path d="M28.1099 177.209C25.7199 175.403 23.3599 173.73 21.1199 171.904C16.9599 168.506 13.2599 164.672 10.6799 159.854C7.0099 152.997 7.0899 146.181 11.1299 139.537C15.2499 132.751 20.6299 127.264 27.8099 123.805C35.3499 120.163 43.1999 119.768 51.2499 121.644C51.6899 121.746 52.1299 121.847 52.5699 121.949C52.7399 120.072 52.8499 118.267 53.0899 116.481C53.9899 109.797 57.5199 105.03 63.3599 101.845C69.4499 98.5178 75.8199 96.5298 82.7799 96.9659C87.7299 97.2804 92.49 98.4468 96.86 100.901C103.67 104.725 107.11 110.771 107.95 118.48C108.08 119.666 108.12 120.863 108.2 122.192C108.52 122.091 108.82 121.999 109.12 121.898C114.8 119.91 120.6 118.814 126.63 119.423C135.93 120.356 142.93 125.073 147.98 132.924C150.18 136.342 151.97 139.963 152.87 143.97C154.5 151.242 152.56 157.511 147.42 162.704C145.55 164.601 143.3 166.112 141.22 167.796C140.96 167.999 140.67 168.161 140.37 168.354C141.44 170.088 142.52 171.752 143.5 173.466C145.79 177.493 147.55 181.733 148.12 186.378C149.02 193.682 146.43 199.554 140.91 204.21C132.27 211.513 122.51 213.015 111.87 210.012C111.64 209.951 111.41 209.89 111.09 209.809C111.01 211.25 110.98 212.649 110.85 214.039C110.31 220.044 108.51 225.572 104.41 230.045C98.88 236.08 91.99 239.265 83.8199 239.225C79.2899 239.204 75.4399 237.206 72.0599 234.265C67.9299 230.674 65.0799 226.13 62.6699 221.261C62.5499 221.018 62.4199 220.764 62.2899 220.531C62.2599 220.48 62.1999 220.46 62.1199 220.409C60.9899 221.149 59.8799 221.941 58.7099 222.651C54.0499 225.47 49.0499 227.022 43.5599 226.708C39.4199 226.475 35.5999 225.166 32.0599 223.016C27.3099 220.115 23.3699 216.311 20.3199 211.635C15.7499 204.616 15.7299 197.272 19.1299 189.776C21.1699 185.283 24.1299 181.439 27.4799 177.889C27.6899 177.665 27.8899 177.442 28.0999 177.209H28.1099ZM82.8999 108.925C80.9199 109.188 78.9099 109.31 76.9599 109.736C70.9499 111.035 66.8999 114.524 65.4699 120.762C64.8299 123.572 64.7399 126.432 65.0699 129.292C65.3799 131.919 64.3799 133.938 62.3999 135.47C60.4399 136.991 58.2999 137.011 56.0499 136.027C53.6299 134.973 51.2099 133.887 48.6999 133.096C44.2999 131.696 39.8099 131.321 35.3999 133.055C30.5899 134.952 26.5099 137.955 23.2999 142.073C19.3099 147.205 19.2499 152.348 22.9899 157.683C24.8999 160.402 27.3099 162.623 30.0899 164.347C33.7599 166.63 37.5399 168.709 41.2799 170.859C43.6599 172.229 44.6299 174.491 43.9599 177.179C43.5499 178.822 42.6699 180.14 41.3899 181.216C40.5499 181.915 39.6799 182.595 38.8499 183.305C35.6199 186.084 32.6599 189.117 30.6099 192.931C27.5099 198.682 28.2399 203.967 32.8799 208.531C34.1999 209.83 35.6699 211.006 37.2199 212.01C42.4599 215.408 47.7699 215.368 53.0499 212.031C55.7799 210.306 58.0699 208.085 60.2099 205.671C61.4499 204.271 62.9899 203.571 64.8399 203.845C67.3799 204.22 69.1699 205.661 70.1499 208.075C70.4899 208.927 70.7399 209.819 71.0399 210.692C72.3899 214.617 73.8599 218.482 76.2799 221.9C79.1699 225.978 82.8499 227.864 87.91 226.647C94.34 225.105 98.25 220.855 99.06 214.191C99.57 210.032 98.96 205.985 98.09 201.938C97.86 200.863 97.82 199.636 98.1 198.591C99.05 194.99 103.05 193.296 106.51 194.889C108.52 195.822 110.5 196.836 112.56 197.658C116.54 199.24 120.63 200.295 124.98 199.737C131.9 198.855 137.11 191.917 135.95 185.07C135.46 182.189 134.13 179.653 132.4 177.371C130.74 175.18 128.98 173.06 127.17 170.991C123.9 167.218 124.84 162.724 129.3 160.686C132.11 159.397 134.96 158.13 137.58 156.496C141.25 154.204 142.57 150.593 141.45 146.363C139.65 139.588 135.24 135.064 128.97 132.416C124.26 130.428 119.47 130.936 114.73 132.467C110.83 133.735 107.28 135.713 103.78 137.823C101.11 139.425 98.05 138.776 96.16 136.281C94.89 134.607 94.59 132.751 95.1 130.702C96.03 126.959 96.61 123.176 96.14 119.291C95.52 114.189 92.69 110.781 87.8599 109.615C86.2499 109.229 84.5699 109.148 82.8899 108.915L82.8999 108.925Z" fill="#EF94B4"/>
<path d="M103.7 168.142C103.65 180.608 93.6398 190.71 81.4298 190.629C69.1198 190.548 59.1698 180.385 59.2698 168.01C59.3798 155.554 69.2898 145.543 81.4998 145.563C93.7798 145.583 103.75 155.727 103.7 168.132V168.142Z" fill="#333333" fill-opacity="0.9"/>
<path d="M133.95 459.272C137.3 462.822 140.25 466.666 142.3 471.16C145.71 478.656 145.68 485.999 141.11 493.018C138.06 497.694 134.12 501.508 129.37 504.399C125.83 506.549 122.01 507.858 117.87 508.091C112.39 508.406 107.39 506.844 102.72 504.034C101.55 503.334 100.44 502.543 99.3102 501.792C99.2302 501.843 99.1702 501.863 99.1402 501.914C99.0102 502.157 98.8802 502.401 98.7602 502.644C96.3502 507.513 93.4902 512.057 89.3702 515.648C85.9902 518.589 82.1402 520.588 77.6102 520.608C69.4402 520.648 62.5502 517.453 57.0202 511.428C52.9202 506.955 51.1102 501.417 50.5802 495.422C50.4602 494.033 50.4202 492.633 50.3402 491.193C50.0202 491.274 49.7902 491.335 49.5602 491.395C38.9201 494.408 29.1601 492.897 20.5201 485.594C15.0001 480.938 12.4101 475.065 13.3101 467.762C13.8801 463.106 15.6401 458.866 17.9301 454.849C18.9101 453.135 20.0001 451.472 21.0601 449.737C20.7601 449.545 20.4601 449.382 20.2101 449.179C18.1301 447.496 15.8801 445.984 14.0101 444.087C8.87014 438.884 6.93014 432.615 8.56014 425.353C9.46014 421.346 11.2501 417.725 13.4501 414.307C18.5101 406.456 25.5001 401.739 34.8002 400.806C40.8302 400.198 46.6302 401.293 52.3102 403.281C52.6002 403.383 52.9002 403.474 53.2302 403.575C53.3202 402.247 53.3502 401.05 53.4802 399.863C54.3102 392.154 57.7602 386.109 64.5702 382.285C68.9402 379.83 73.7002 378.654 78.6502 378.349C85.6102 377.913 91.9902 379.901 98.0602 383.218C103.89 386.393 107.43 391.16 108.33 397.855C108.57 399.64 108.67 401.455 108.85 403.322C109.3 403.22 109.74 403.119 110.17 403.018C118.22 401.141 126.07 401.537 133.61 405.178C140.79 408.637 146.17 414.135 150.29 420.91C154.33 427.554 154.41 434.38 150.74 441.227C148.16 446.035 144.46 449.879 140.3 453.277C138.06 455.103 135.7 456.777 133.31 458.582C133.52 458.815 133.72 459.039 133.93 459.262L133.95 459.272ZM73.5802 391.008C68.7602 392.174 65.9202 395.583 65.3002 400.685C64.8302 404.569 65.4102 408.353 66.3402 412.096C66.8502 414.145 66.5502 416.001 65.2802 417.674C63.3902 420.17 60.3202 420.819 57.6602 419.216C54.1602 417.117 50.6102 415.129 46.7102 413.861C41.9702 412.319 37.1702 411.822 32.4701 413.81C26.2001 416.457 21.7901 420.981 19.9901 427.757C18.8701 431.987 20.1901 435.598 23.8601 437.89C26.4801 439.523 29.3301 440.791 32.1401 442.079C36.6002 444.118 37.5402 448.621 34.2702 452.385C32.4701 454.464 30.7001 456.574 29.0401 458.765C27.3101 461.047 25.9801 463.583 25.4901 466.463C24.3301 473.31 29.5501 480.248 36.4602 481.13C40.8102 481.688 44.9002 480.633 48.8802 479.051C50.9402 478.23 52.9102 477.215 54.9302 476.282C58.4002 474.679 62.3902 476.383 63.3402 479.984C63.6202 481.029 63.5802 482.256 63.3502 483.332C62.4802 487.379 61.8802 491.436 62.3802 495.585C63.1902 502.239 67.1102 506.489 73.5302 508.04C78.5902 509.258 82.2802 507.371 85.1602 503.293C87.5802 499.885 89.0502 496.011 90.4002 492.085C90.7002 491.213 90.9402 490.32 91.2902 489.468C92.2702 487.054 94.0602 485.614 96.6002 485.238C98.4502 484.965 99.9902 485.664 101.23 487.064C103.37 489.468 105.66 491.7 108.39 493.424C113.67 496.761 118.98 496.802 124.22 493.404C125.77 492.4 127.24 491.223 128.56 489.925C133.19 485.36 133.93 480.076 130.83 474.324C128.77 470.511 125.82 467.478 122.59 464.698C121.76 463.978 120.89 463.309 120.05 462.609C118.78 461.544 117.89 460.215 117.48 458.572C116.8 455.894 117.78 453.622 120.16 452.253C123.9 450.102 127.69 448.023 131.35 445.741C134.13 444.016 136.54 441.795 138.45 439.077C142.19 433.731 142.13 428.599 138.14 423.466C134.94 419.348 130.85 416.346 126.04 414.449C121.64 412.714 117.14 413.1 112.74 414.49C110.23 415.281 107.81 416.366 105.39 417.421C103.14 418.405 101 418.385 99.0402 416.863C97.0602 415.331 96.0602 413.303 96.3702 410.686C96.7002 407.825 96.6102 404.965 95.9702 402.155C94.5502 395.917 90.5002 392.418 84.4802 391.13C82.5302 390.714 80.5302 390.582 78.5402 390.318C76.8602 390.541 75.1802 390.623 73.5702 391.018L73.5802 391.008Z" fill="#8D9FF6"/>
<path d="M57.7492 449.526C57.7992 461.992 67.8092 472.094 80.0192 472.013C92.3292 471.932 102.279 461.768 102.179 449.394C102.069 436.938 92.1592 426.927 79.9492 426.947C67.6692 426.967 57.6992 437.11 57.7492 449.515V449.526Z" fill="#333333" fill-opacity="0.9"/>
<path d="M28.8299 726.961C26.4399 725.156 24.0799 723.482 21.8399 721.657C17.6799 718.259 13.9798 714.424 11.3998 709.606C7.72985 702.75 7.80985 695.933 11.8498 689.29C15.9698 682.504 21.3499 677.016 28.5299 673.557C36.0699 669.916 43.9199 669.52 51.9699 671.397C52.4099 671.498 52.8499 671.6 53.2899 671.701C53.4599 669.825 53.5699 668.019 53.8099 666.234C54.7099 659.55 58.2399 654.782 64.0799 651.597C70.1599 648.281 76.5399 646.292 83.4899 646.729C88.4399 647.043 93.1999 648.21 97.5699 650.664C104.38 654.488 107.82 660.534 108.66 668.242C108.79 669.429 108.83 670.626 108.91 671.955C109.23 671.853 109.53 671.762 109.83 671.661C115.51 669.673 121.31 668.577 127.34 669.186C136.64 670.119 143.64 674.835 148.69 682.686C150.89 686.105 152.68 689.726 153.58 693.732C155.21 701.005 153.27 707.274 148.13 712.467C146.26 714.364 144.01 715.875 141.93 717.559C141.67 717.762 141.38 717.924 141.08 718.117C142.15 719.851 143.23 721.515 144.21 723.229C146.5 727.256 148.26 731.496 148.83 736.141C149.73 743.444 147.14 749.317 141.62 753.973C132.98 761.276 123.22 762.777 112.58 759.775C112.35 759.714 112.12 759.653 111.8 759.572C111.72 761.012 111.69 762.412 111.56 763.802C111.02 769.806 109.22 775.335 105.12 779.808C99.5899 785.843 92.6999 789.028 84.5299 788.987C79.9999 788.967 76.1499 786.969 72.7699 784.027C68.6399 780.437 65.7899 775.892 63.3799 771.024C63.2599 770.78 63.1299 770.527 62.9999 770.293C62.9699 770.243 62.9099 770.222 62.8299 770.172C61.6999 770.912 60.5899 771.703 59.4199 772.413C54.7599 775.233 49.7599 776.785 44.2699 776.471C40.1299 776.237 36.3099 774.929 32.7699 772.778C28.0199 769.877 24.0799 766.074 21.0299 761.398C16.4598 754.379 16.4398 747.035 19.8399 739.539C21.8799 735.046 24.8399 731.201 28.1899 727.651C28.3999 727.428 28.5999 727.205 28.8099 726.972L28.8299 726.961ZM83.6099 658.677C81.6299 658.941 79.6199 659.063 77.6699 659.489C71.6599 660.787 67.6099 664.276 66.1799 670.514C65.5399 673.324 65.4499 676.185 65.7799 679.045C66.0899 681.672 65.0899 683.691 63.1099 685.222C61.1499 686.744 59.0099 686.764 56.7599 685.78C54.3399 684.725 51.9199 683.64 49.4099 682.849C45.0099 681.449 40.5199 681.074 36.1099 682.808C31.2999 684.705 27.2199 687.707 24.0099 691.825C20.0199 696.958 19.9599 702.1 23.6999 707.436C25.6099 710.154 28.0199 712.376 30.7999 714.1C34.4699 716.382 38.2499 718.462 41.9899 720.612C44.3699 721.981 45.3399 724.243 44.6699 726.931C44.2599 728.574 43.3799 729.893 42.0999 730.968C41.2599 731.668 40.3899 732.348 39.5599 733.058C36.3299 735.837 33.3699 738.87 31.3199 742.683C28.2199 748.435 28.9499 753.719 33.5899 758.284C34.9099 759.582 36.3799 760.759 37.9299 761.763C43.1699 765.161 48.4799 765.12 53.7599 761.783C56.4899 760.059 58.7799 757.837 60.9199 755.423C62.1599 754.024 63.6999 753.324 65.5499 753.598C68.0899 753.973 69.8799 755.413 70.8599 757.827C71.1999 758.679 71.4499 759.572 71.7499 760.444C73.0999 764.37 74.5699 768.234 76.9899 771.653C79.8799 775.73 83.5599 777.617 88.6199 776.4C95.0499 774.858 98.9599 770.608 99.7699 763.944C100.28 759.785 99.6699 755.738 98.7999 751.691C98.5699 750.615 98.5299 749.388 98.8099 748.343C99.7599 744.743 103.76 743.049 107.22 744.641C109.23 745.574 111.21 746.589 113.27 747.41C117.25 748.993 121.34 750.047 125.69 749.49C132.61 748.607 137.82 741.669 136.66 734.822C136.17 731.942 134.84 729.406 133.11 727.124C131.45 724.933 129.69 722.813 127.88 720.744C124.61 716.97 125.55 712.477 130.01 710.438C132.82 709.15 135.67 707.882 138.29 706.249C141.96 703.957 143.28 700.346 142.16 696.116C140.36 689.34 135.95 684.816 129.68 682.169C124.97 680.181 120.18 680.688 115.44 682.22C111.54 683.488 107.99 685.466 104.49 687.575C101.82 689.178 98.7599 688.529 96.8699 686.034C95.5999 684.36 95.2999 682.504 95.8099 680.455C96.7399 676.712 97.3199 672.929 96.8499 669.044C96.2299 663.942 93.3999 660.534 88.5699 659.367C86.9599 658.982 85.2799 658.901 83.5999 658.667L83.6099 658.677Z" fill="#EF94B4"/>
<path d="M104.41 717.894C104.36 730.36 94.3501 740.463 82.14 740.382C69.83 740.301 59.88 730.137 59.98 717.762C60.09 705.307 70 695.295 82.21 695.315C94.49 695.336 104.46 705.479 104.41 717.884V717.894Z" fill="#333333" fill-opacity="0.9"/>
</svg>
