<svg width="78" height="81" viewBox="0 0 78 81" fill="none" xmlns="http://www.w3.org/2000/svg">
<path d="M10.4744 46.3617C8.70052 48.3573 7.13842 50.5183 6.05289 53.0441C4.2472 57.2577 4.26308 61.3857 6.68302 65.3313C8.29809 67.9597 10.3844 70.1036 12.8997 71.7286C14.7742 72.9373 16.797 73.6729 18.9893 73.804C21.8911 73.9807 24.5387 73.1027 27.0116 71.5233C27.6312 71.1299 28.219 70.6852 28.8173 70.2632C28.8597 70.2917 28.8915 70.3032 28.9073 70.3317C28.9762 70.4685 29.045 70.6053 29.1086 70.7422C30.3847 73.479 31.8992 76.0333 34.0808 78.0517C35.8706 79.7052 37.9093 80.8285 40.3081 80.8399C44.6343 80.8627 48.2828 79.0667 51.2111 75.6798C53.3822 73.1654 54.3406 70.0523 54.6213 66.6826C54.6848 65.9015 54.706 65.1146 54.7483 64.305C54.9178 64.3506 55.0396 64.3848 55.1614 64.419C60.7956 66.1124 65.9638 65.2629 70.5389 61.1576C73.4619 58.5406 74.8334 55.2393 74.3568 51.1341C74.055 48.517 73.123 46.1337 71.9104 43.8758C71.3914 42.9122 70.8142 41.9771 70.2529 41.0022C70.4118 40.8938 70.5707 40.8026 70.703 40.6885C71.8045 39.7421 72.9959 38.8925 73.9861 37.8263C76.7079 34.9013 77.7352 31.3777 76.8721 27.2953C76.3955 25.0431 75.4476 23.0076 74.2827 21.0861C71.6032 16.673 67.9018 14.0217 62.9772 13.4972C59.7842 13.1551 56.7129 13.7709 53.7052 14.8884C53.5516 14.9454 53.3928 14.9967 53.218 15.0537C53.1704 14.3068 53.1545 13.634 53.0856 12.9669C52.6461 8.63363 50.8192 5.23543 47.2132 3.08589C44.8991 1.70608 42.3786 1.04468 39.7574 0.873634C36.0719 0.628461 32.6935 1.74599 29.4792 3.61044C26.3921 5.39507 24.5175 8.07488 24.041 11.838C23.9139 12.8415 23.8609 13.8621 23.7656 14.9112C23.5273 14.8542 23.2943 14.7972 23.0666 14.7402C18.8039 13.6853 14.6471 13.9077 10.6545 15.9546C6.85247 17.8989 4.00361 20.9892 1.82195 24.7979C-0.317345 28.5325 -0.359703 32.3698 1.58366 36.2184C2.94985 38.921 4.90911 41.082 7.11195 42.992C8.29809 44.0183 9.54777 44.9591 10.8133 45.974C10.7021 46.1052 10.5962 46.2306 10.485 46.356L10.4744 46.3617ZM42.4421 7.98935C44.9944 8.64505 46.4983 10.5608 46.8266 13.4288C47.0755 15.6125 46.7683 17.7392 46.2759 19.8432C46.0058 20.9949 46.1647 22.0383 46.8372 22.9791C47.838 24.3817 49.4636 24.7466 50.8722 23.8458C52.7255 22.6655 54.6054 21.548 56.6705 20.8353C59.1805 19.9686 61.7222 19.6892 64.211 20.8067C67.5312 22.2949 69.8664 24.8378 70.8195 28.6466C71.4126 31.0242 70.7136 33.054 68.7703 34.3426C67.3829 35.2605 65.8737 35.9732 64.3858 36.6974C62.0241 37.8434 61.5263 40.375 63.2579 42.4903C64.211 43.6591 65.1483 44.8451 66.0273 46.0767C66.9434 47.3595 67.6477 48.785 67.9071 50.4042C68.5214 54.2529 65.7572 58.1528 62.0982 58.6489C59.7948 58.9625 57.629 58.3695 55.5215 57.48C54.4306 57.0182 53.3875 56.448 52.3178 55.9235C50.4803 55.0226 48.3675 55.9805 47.8645 58.0046C47.7162 58.5919 47.7374 59.2818 47.8592 59.8862C48.3199 62.1611 48.6376 64.4418 48.3728 66.7738C47.9439 70.5141 45.8681 72.9031 42.4686 73.7755C39.7892 74.4597 37.8352 73.3992 36.3102 71.1071C35.0287 69.1913 34.2503 67.0133 33.5354 64.8067C33.3766 64.3164 33.2495 63.8146 33.0641 63.3357C32.5452 61.9787 31.5974 61.169 30.2523 60.9581C29.2727 60.8041 28.4572 61.1975 27.8006 61.9844C26.6674 63.3357 25.4548 64.5901 24.0092 65.5593C21.2133 67.4352 18.4015 67.458 15.6268 65.5479C14.806 64.9835 14.0276 64.3221 13.3286 63.5923C10.8769 61.0265 10.485 58.0559 12.1266 54.823C13.2174 52.6792 14.7795 50.9744 16.4899 49.4121C16.9294 49.0073 17.3901 48.631 17.8349 48.2376C18.5074 47.6389 18.9787 46.892 19.1958 45.9683C19.5559 44.4631 19.0369 43.1859 17.7766 42.4162C15.7962 41.2074 13.7893 40.0386 11.8512 38.7557C10.3791 37.7864 9.10297 36.5377 8.09157 35.0097C6.11113 32.0049 6.14291 29.1198 8.25572 26.2348C9.95022 23.9199 12.116 22.2322 14.663 21.166C16.9929 20.191 19.3758 20.4076 21.7057 21.1888C23.0349 21.6335 24.3163 22.2436 25.5978 22.8365C26.7892 23.3896 27.9224 23.3782 28.9603 22.523C30.0088 21.662 30.5383 20.5217 30.3741 19.0506C30.1994 17.4428 30.2471 15.8349 30.5859 14.2555C31.3379 10.749 33.4825 8.78188 36.6702 8.05777C37.7028 7.824 38.7619 7.74987 39.8156 7.60162C40.7052 7.72706 41.5949 7.77268 42.4474 7.99504L42.4421 7.98935Z" fill="#8D9FF6"/>
<path d="M51.1699 40.8643C51.1429 47.503 45.7358 52.883 39.1404 52.8398C32.491 52.7966 27.1164 47.3841 27.1704 40.7941C27.2298 34.1608 32.5828 28.8293 39.1783 28.8401C45.8115 28.8509 51.1969 34.2526 51.1699 40.8589V40.8643Z" fill="#333333" fill-opacity="0.9"/>
</svg>
