<svg width="1920" height="1080" viewBox="0 0 1920 1080" fill="none" xmlns="http://www.w3.org/2000/svg">
<path d="M1920.3 0H0V1080H1920.3V0Z" fill="#FCE6FB"/>
<path d="M27.1127 114.303C24.7227 112.497 22.3627 110.824 20.1227 108.998C15.9627 105.6 12.2627 101.766 9.68265 96.9476C6.01265 90.0908 6.09265 83.2745 10.1327 76.6307C14.2527 69.8449 19.6327 64.3575 26.8127 60.8986C34.3526 57.2572 42.2027 56.8616 50.2527 58.7381C50.6927 58.8395 51.1327 58.941 51.5727 59.0424C51.7427 57.1659 51.8527 55.3604 52.0927 53.5752C52.9927 46.8908 56.5227 42.1235 62.3627 38.9386C68.4527 35.6116 74.8226 33.6235 81.7826 34.0597C86.7326 34.3741 91.4926 35.5406 95.8626 37.9952C102.673 41.8192 106.113 47.8646 106.953 55.5734C107.083 56.7602 107.123 57.9571 107.203 59.2858C107.523 59.1844 107.823 59.0931 108.123 58.9917C113.803 57.0036 119.603 55.9082 125.633 56.5168C134.933 57.4499 141.933 62.1665 146.983 70.0174C149.183 73.4356 150.973 77.0568 151.873 81.0633C153.503 88.336 151.563 94.6045 146.423 99.7979C144.553 101.695 142.303 103.206 140.223 104.89C139.963 105.093 139.673 105.255 139.373 105.448C140.443 107.182 141.523 108.846 142.503 110.56C144.793 114.587 146.553 118.827 147.123 123.472C148.023 130.775 145.433 136.648 139.913 141.304C131.273 148.607 121.513 150.108 110.873 147.106C110.643 147.045 110.413 146.984 110.093 146.903C110.013 148.343 109.983 149.743 109.853 151.133C109.313 157.137 107.513 162.665 103.413 167.139C97.8827 173.174 90.9926 176.359 82.8226 176.318C78.2926 176.298 74.4426 174.3 71.0627 171.358C66.9327 167.768 64.0827 163.223 61.6727 158.355C61.5527 158.111 61.4227 157.858 61.2927 157.624C61.2627 157.574 61.2027 157.553 61.1227 157.503C59.9927 158.243 58.8827 159.034 57.7127 159.744C53.0527 162.564 48.0527 164.116 42.5627 163.802C38.4227 163.568 34.6026 162.26 31.0627 160.109C26.3127 157.208 22.3727 153.405 19.3227 148.729C14.7527 141.71 14.7327 134.366 18.1327 126.87C20.1727 122.377 23.1327 118.532 26.4827 114.982C26.6926 114.759 26.8927 114.536 27.1027 114.303H27.1127ZM81.9026 46.0185C79.9226 46.2822 77.9126 46.404 75.9626 46.83C69.9526 48.1283 65.9027 51.6176 64.4727 57.8557C63.8327 60.6653 63.7427 63.5257 64.0727 66.3861C64.3827 69.0132 63.3827 71.0317 61.4027 72.5633C59.4427 74.0848 57.3027 74.1051 55.0527 73.1212C52.6327 72.0663 50.2127 70.981 47.7027 70.1898C43.3027 68.79 38.8127 68.4147 34.4027 70.1492C29.5927 72.046 25.5127 75.0484 22.3027 79.1665C18.3127 84.299 18.2527 89.4416 21.9927 94.777C23.9027 97.4953 26.3127 99.7167 29.0927 101.441C32.7627 103.723 36.5427 105.803 40.2827 107.953C42.6627 109.322 43.6327 111.584 42.9627 114.272C42.5527 115.915 41.6727 117.234 40.3927 118.309C39.5527 119.009 38.6827 119.689 37.8527 120.399C34.6227 123.178 31.6627 126.211 29.6127 130.025C26.5127 135.776 27.2427 141.06 31.8827 145.625C33.2027 146.923 34.6727 148.1 36.2227 149.104C41.4627 152.502 46.7727 152.461 52.0527 149.124C54.7827 147.4 57.0727 145.179 59.2127 142.765C60.4527 141.365 61.9927 140.665 63.8427 140.939C66.3827 141.314 68.1727 142.754 69.1527 145.168C69.4927 146.02 69.7427 146.913 70.0427 147.785C71.3927 151.711 72.8626 155.575 75.2826 158.994C78.1726 163.071 81.8527 164.958 86.9127 163.741C93.3427 162.199 97.2527 157.949 98.0627 151.285C98.5727 147.126 97.9627 143.079 97.0927 139.032C96.8626 137.957 96.8226 136.729 97.1026 135.685C98.0526 132.084 102.053 130.39 105.513 131.982C107.523 132.915 109.503 133.93 111.563 134.751C115.543 136.334 119.633 137.389 123.983 136.831C130.903 135.948 136.113 129.01 134.953 122.164C134.463 119.283 133.133 116.747 131.403 114.465C129.743 112.274 127.983 110.154 126.173 108.085C122.903 104.312 123.843 99.8181 128.303 97.7794C131.113 96.4912 133.963 95.2233 136.583 93.5902C140.253 91.2978 141.573 87.6868 140.453 83.4571C138.653 76.6815 134.243 72.1576 127.973 69.5102C123.263 67.5221 118.473 68.0293 113.733 69.5609C109.833 70.8288 106.283 72.8068 102.783 74.9165C100.113 76.5192 97.0527 75.87 95.1627 73.3748C93.8927 71.7011 93.5926 69.8449 94.1026 67.796C95.0326 64.0532 95.6126 60.2697 95.1426 56.3849C94.5226 51.2828 91.6926 47.8747 86.8626 46.7083C85.2526 46.3228 83.5726 46.2417 81.8926 46.0084L81.9026 46.0185Z" fill="#5D77F4" fill-opacity="0.7"/>
<path d="M102.703 105.235C102.653 117.701 92.6427 127.803 80.4327 127.722C68.1227 127.641 58.1727 117.477 58.2727 105.103C58.3827 92.6469 68.2927 82.6355 80.5027 82.6558C92.7826 82.6761 102.753 92.8193 102.703 105.224V105.235Z" fill="#333333" fill-opacity="0.9"/>
<path d="M132.953 396.365C136.303 399.915 139.253 403.76 141.303 408.253C144.713 415.749 144.683 423.093 140.113 430.112C137.063 434.788 133.123 438.602 128.373 441.492C124.833 443.643 121.013 444.951 116.873 445.185C111.393 445.499 106.393 443.937 101.723 441.127C100.553 440.427 99.4427 439.636 98.3127 438.886C98.2327 438.936 98.1727 438.957 98.1427 439.007C98.0127 439.251 97.8827 439.494 97.7627 439.738C95.3527 444.606 92.4927 449.151 88.3727 452.741C84.9927 455.683 81.1427 457.681 76.6127 457.701C68.4427 457.742 61.5527 454.547 56.0227 448.522C51.9227 444.049 50.1127 438.51 49.5827 432.516C49.4627 431.126 49.4227 429.726 49.3427 428.286C49.0227 428.367 48.7927 428.428 48.5627 428.489C37.9227 431.501 28.1627 429.99 19.5227 422.687C14.0027 418.031 11.4127 412.158 12.3127 404.855C12.8827 400.199 14.6427 395.96 16.9327 391.943C17.9127 390.229 19.0027 388.565 20.0627 386.831C19.7627 386.638 19.4627 386.476 19.2127 386.273C17.1327 384.589 14.8827 383.078 13.0127 381.181C7.87265 375.977 5.93265 369.709 7.56265 362.446C8.46265 358.44 10.2527 354.819 12.4527 351.4C17.5127 343.55 24.5027 338.833 33.8027 337.9C39.8327 337.291 45.6327 338.387 51.3127 340.375C51.6027 340.476 51.9027 340.567 52.2327 340.669C52.3227 339.34 52.3527 338.143 52.4827 336.956C53.3127 329.248 56.7627 323.202 63.5727 319.378C67.9427 316.924 72.7027 315.747 77.6527 315.443C84.6127 315.007 90.9927 316.995 97.0627 320.311C102.893 323.486 106.433 328.254 107.333 334.948C107.573 336.733 107.673 338.549 107.853 340.415C108.303 340.314 108.743 340.212 109.173 340.111C117.223 338.235 125.073 338.63 132.613 342.272C139.793 345.73 145.173 351.228 149.293 358.004C153.333 364.647 153.413 371.474 149.743 378.321C147.163 383.128 143.463 386.973 139.303 390.371C137.063 392.196 134.703 393.87 132.313 395.676C132.523 395.909 132.723 396.132 132.933 396.355L132.953 396.365ZM72.5827 328.101C67.7627 329.268 64.9227 332.676 64.3027 337.778C63.8327 341.663 64.4127 345.446 65.3427 349.189C65.8527 351.238 65.5527 353.094 64.2827 354.768C62.3927 357.263 59.3227 357.912 56.6627 356.31C53.1627 354.21 49.6127 352.222 45.7127 350.954C40.9727 349.412 36.1727 348.915 31.4727 350.903C25.2027 353.551 20.7927 358.075 18.9927 364.85C17.8727 369.08 19.1927 372.691 22.8627 374.983C25.4827 376.616 28.3327 377.884 31.1427 379.173C35.6027 381.211 36.5427 385.715 33.2727 389.478C31.4727 391.557 29.7027 393.667 28.0427 395.858C26.3127 398.14 24.9827 400.676 24.4927 403.557C23.3327 410.404 28.5527 417.341 35.4627 418.224C39.8127 418.782 43.9027 417.727 47.8827 416.145C49.9427 415.323 51.9127 414.309 53.9327 413.375C57.4027 411.773 61.3927 413.477 62.3427 417.078C62.6227 418.123 62.5827 419.35 62.3527 420.425C61.4827 424.472 60.8827 428.529 61.3827 432.678C62.1927 439.332 66.1127 443.582 72.5327 445.134C77.5927 446.351 81.2827 444.464 84.1627 440.387C86.5827 436.979 88.0527 433.104 89.4027 429.179C89.7027 428.306 89.9427 427.414 90.2927 426.562C91.2727 424.148 93.0627 422.707 95.6027 422.332C97.4527 422.058 98.9927 422.758 100.233 424.158C102.373 426.562 104.663 428.793 107.393 430.518C112.673 433.855 117.983 433.895 123.223 430.497C124.773 429.493 126.243 428.316 127.563 427.018C132.193 422.454 132.933 417.169 129.833 411.418C127.773 407.604 124.823 404.571 121.593 401.792C120.763 401.072 119.893 400.402 119.053 399.702C117.783 398.637 116.893 397.309 116.483 395.665C115.803 392.988 116.783 390.716 119.163 389.346C122.903 387.196 126.693 385.116 130.353 382.834C133.133 381.11 135.543 378.889 137.453 376.17C141.193 370.825 141.133 365.692 137.143 360.56C133.943 356.442 129.853 353.439 125.043 351.542C120.643 349.808 116.143 350.193 111.743 351.583C109.233 352.374 106.813 353.459 104.393 354.514C102.143 355.498 100.003 355.478 98.0427 353.957C96.0627 352.425 95.0627 350.396 95.3727 347.779C95.7027 344.919 95.6127 342.059 94.9727 339.249C93.5527 333.011 89.5027 329.511 83.4827 328.223C81.5327 327.807 79.5327 327.675 77.5427 327.412C75.8627 327.635 74.1827 327.716 72.5727 328.112L72.5827 328.101Z" fill="#E86795" fill-opacity="0.7"/>
<path d="M56.7527 386.618C56.8027 399.084 66.8127 409.186 79.0227 409.105C91.3327 409.024 101.283 398.861 101.183 386.486C101.073 374.03 91.1627 364.019 78.9527 364.039C66.6727 364.059 56.7027 374.202 56.7527 386.608V386.618Z" fill="#333333" fill-opacity="0.9"/>
<path d="M27.8327 664.055C25.4427 662.249 23.0827 660.576 20.8427 658.75C16.6827 655.352 12.9827 651.518 10.4027 646.7C6.73265 639.843 6.81265 633.027 10.8527 626.383C14.9727 619.597 20.3527 614.11 27.5327 610.651C35.0727 607.009 42.9227 606.614 50.9727 608.49C51.4127 608.592 51.8527 608.693 52.2927 608.794C52.4627 606.918 52.5727 605.112 52.8127 603.327C53.7127 596.643 57.2427 591.876 63.0827 588.691C69.1627 585.374 75.5427 583.386 82.4927 583.822C87.4426 584.136 92.2026 585.303 96.5726 587.757C103.383 591.581 106.823 597.627 107.663 605.336C107.793 606.522 107.833 607.719 107.913 609.048C108.233 608.947 108.533 608.855 108.833 608.754C114.513 606.766 120.313 605.67 126.343 606.279C135.643 607.212 142.643 611.929 147.693 619.78C149.893 623.198 151.683 626.819 152.583 630.826C154.213 638.098 152.273 644.367 147.133 649.56C145.263 651.457 143.013 652.968 140.933 654.652C140.673 654.855 140.383 655.017 140.083 655.21C141.153 656.944 142.233 658.608 143.213 660.322C145.503 664.349 147.263 668.589 147.833 673.234C148.733 680.537 146.143 686.41 140.623 691.066C131.983 698.369 122.223 699.87 111.583 696.868C111.353 696.807 111.123 696.746 110.803 696.665C110.723 698.105 110.693 699.505 110.563 700.895C110.023 706.9 108.223 712.428 104.123 716.901C98.5927 722.936 91.7026 726.121 83.5326 726.08C79.0026 726.06 75.1526 724.062 71.7727 721.12C67.6427 717.53 64.7927 712.986 62.3827 708.117C62.2627 707.873 62.1327 707.62 62.0027 707.387C61.9727 707.336 61.9127 707.316 61.8327 707.265C60.7027 708.005 59.5927 708.796 58.4227 709.506C53.7627 712.326 48.7626 713.878 43.2727 713.564C39.1327 713.33 35.3127 712.022 31.7727 709.872C27.0227 706.971 23.0827 703.167 20.0327 698.491C15.4627 691.472 15.4427 684.128 18.8427 676.632C20.8827 672.139 23.8427 668.295 27.1927 664.744C27.4027 664.521 27.6027 664.298 27.8127 664.065L27.8327 664.055ZM82.6126 595.771C80.6326 596.034 78.6227 596.156 76.6727 596.582C70.6627 597.88 66.6127 601.37 65.1827 607.608C64.5427 610.417 64.4527 613.278 64.7827 616.138C65.0927 618.765 64.0927 620.784 62.1127 622.315C60.1527 623.837 58.0127 623.857 55.7627 622.873C53.3427 621.818 50.9227 620.733 48.4127 619.942C44.0127 618.542 39.5227 618.167 35.1127 619.901C30.3027 621.798 26.2227 624.8 23.0127 628.919C19.0227 634.051 18.9627 639.194 22.7027 644.529C24.6127 647.247 27.0227 649.469 29.8027 651.193C33.4727 653.475 37.2527 655.555 40.9927 657.705C43.3727 659.074 44.3427 661.336 43.6727 664.024C43.2627 665.668 42.3827 666.986 41.1027 668.061C40.2627 668.761 39.3927 669.441 38.5627 670.151C35.3327 672.93 32.3727 675.963 30.3227 679.777C27.2227 685.528 27.9527 690.813 32.5927 695.377C33.9127 696.675 35.3827 697.852 36.9327 698.856C42.1727 702.254 47.4827 702.213 52.7627 698.876C55.4927 697.152 57.7827 694.931 59.9227 692.517C61.1627 691.117 62.7027 690.417 64.5527 690.691C67.0927 691.066 68.8827 692.506 69.8627 694.921C70.2027 695.773 70.4527 696.665 70.7527 697.537C72.1027 701.463 73.5727 705.327 75.9927 708.746C78.8827 712.823 82.5627 714.71 87.6227 713.493C94.0527 711.951 97.9627 707.701 98.7727 701.037C99.2827 696.878 98.6727 692.831 97.8027 688.784C97.5726 687.709 97.5327 686.481 97.8127 685.437C98.7626 681.836 102.763 680.142 106.223 681.734C108.233 682.668 110.213 683.682 112.273 684.503C116.253 686.086 120.343 687.141 124.693 686.583C131.613 685.7 136.823 678.762 135.663 671.916C135.173 669.035 133.843 666.499 132.113 664.217C130.453 662.026 128.693 659.906 126.883 657.837C123.613 654.064 124.553 649.57 129.013 647.531C131.823 646.243 134.673 644.975 137.293 643.342C140.963 641.05 142.283 637.439 141.163 633.209C139.363 626.434 134.953 621.91 128.683 619.262C123.973 617.274 119.183 617.781 114.443 619.313C110.543 620.581 106.993 622.559 103.493 624.669C100.823 626.271 97.7626 625.622 95.8727 623.127C94.6027 621.453 94.3027 619.597 94.8127 617.548C95.7427 613.805 96.3226 610.022 95.8526 606.137C95.2326 601.035 92.4026 597.627 87.5726 596.46C85.9626 596.075 84.2826 595.994 82.6026 595.76L82.6126 595.771Z" fill="#5D77F4" fill-opacity="0.7"/>
<path d="M103.413 654.987C103.363 667.453 93.3526 677.555 81.1427 677.474C68.8327 677.393 58.8827 667.23 58.9827 654.855C59.0927 642.399 69.0027 632.388 81.2127 632.408C93.4926 632.428 103.463 642.571 103.413 654.977V654.987Z" fill="#333333" fill-opacity="0.9"/>
<path d="M133.663 946.117C137.013 949.668 139.963 953.512 142.013 958.005C145.423 965.501 145.393 972.845 140.823 979.864C137.773 984.54 133.833 988.354 129.083 991.245C125.543 993.395 121.723 994.703 117.583 994.937C112.103 995.251 107.103 993.689 102.433 990.879C101.263 990.18 100.153 989.388 99.0227 988.638C98.9427 988.689 98.8827 988.709 98.8527 988.76C98.7227 989.003 98.5927 989.246 98.4727 989.49C96.0627 994.359 93.2027 998.903 89.0827 1002.49C85.7027 1005.44 81.8527 1007.43 77.3227 1007.45C69.1527 1007.49 62.2627 1004.3 56.7327 998.274C52.6327 993.801 50.8227 988.263 50.2927 982.268C50.1727 980.878 50.1327 979.479 50.0527 978.038C49.7327 978.119 49.5027 978.18 49.2727 978.241C38.6327 981.254 28.8727 979.742 20.2327 972.439C14.7127 967.783 12.1227 961.91 13.0227 954.607C13.5927 949.952 15.3527 945.712 17.6427 941.695C18.6227 939.981 19.7127 938.317 20.7727 936.583C20.4727 936.39 20.1727 936.228 19.9227 936.025C17.8427 934.341 15.5927 932.83 13.7227 930.933C8.58265 925.73 6.64265 919.461 8.27265 912.199C9.17265 908.192 10.9627 904.571 13.1627 901.153C18.2227 893.302 25.2127 888.585 34.5127 887.652C40.5427 887.043 46.3427 888.139 52.0227 890.127C52.3127 890.228 52.6127 890.32 52.9427 890.421C53.0327 889.092 53.0627 887.895 53.1927 886.709C54.0227 879 57.4727 872.954 64.2827 869.131C68.6527 866.676 73.4127 865.499 78.3627 865.195C85.3227 864.759 91.7027 866.747 97.7727 870.064C103.603 873.238 107.143 878.006 108.043 884.7C108.283 886.486 108.383 888.301 108.563 890.168C109.013 890.066 109.453 889.965 109.883 889.863C117.933 887.987 125.783 888.382 133.323 892.024C140.503 895.483 145.883 900.98 150.003 907.756C154.043 914.4 154.123 921.226 150.453 928.073C147.873 932.881 144.173 936.725 140.013 940.123C137.773 941.949 135.413 943.622 133.023 945.428C133.233 945.661 133.433 945.884 133.643 946.107L133.663 946.117ZM73.2927 877.854C68.4727 879.02 65.6327 882.428 65.0127 887.53C64.5427 891.415 65.1227 895.199 66.0527 898.941C66.5627 900.99 66.2627 902.847 64.9927 904.52C63.1027 907.015 60.0327 907.665 57.3727 906.062C53.8727 903.962 50.3227 901.974 46.4227 900.706C41.6827 899.165 36.8827 898.668 32.1827 900.656C25.9127 903.303 21.5027 907.827 19.7027 914.602C18.5827 918.832 19.9027 922.443 23.5727 924.736C26.1927 926.369 29.0427 927.637 31.8527 928.925C36.3127 930.963 37.2527 935.467 33.9827 939.23C32.1827 941.31 30.4127 943.419 28.7527 945.61C27.0227 947.893 25.6927 950.428 25.2027 953.309C24.0427 960.156 29.2627 967.094 36.1727 967.976C40.5227 968.534 44.6127 967.479 48.5927 965.897C50.6527 965.075 52.6227 964.061 54.6427 963.128C58.1127 961.525 62.1027 963.229 63.0527 966.83C63.3327 967.875 63.2927 969.102 63.0627 970.177C62.1927 974.224 61.5927 978.282 62.0927 982.43C62.9027 989.084 66.8227 993.334 73.2427 994.886C78.3027 996.103 81.9927 994.217 84.8727 990.139C87.2927 986.731 88.7627 982.856 90.1127 978.931C90.4127 978.059 90.6527 977.166 91.0027 976.314C91.9827 973.9 93.7727 972.459 96.3127 972.084C98.1627 971.81 99.7027 972.51 100.943 973.91C103.083 976.314 105.373 978.545 108.103 980.27C113.383 983.607 118.693 983.647 123.933 980.249C125.483 979.245 126.953 978.069 128.273 976.77C132.903 972.206 133.643 966.921 130.543 961.17C128.483 957.356 125.533 954.323 122.303 951.544C121.473 950.824 120.603 950.155 119.763 949.455C118.493 948.39 117.603 947.061 117.193 945.418C116.513 942.74 117.493 940.468 119.873 939.098C123.613 936.948 127.403 934.869 131.063 932.586C133.843 930.862 136.253 928.641 138.163 925.922C141.903 920.577 141.843 915.444 137.853 910.312C134.653 906.194 130.563 903.191 125.753 901.295C121.353 899.56 116.853 899.946 112.453 901.335C109.943 902.126 107.523 903.212 105.103 904.267C102.853 905.25 100.713 905.23 98.7527 903.709C96.7727 902.177 95.7727 900.148 96.0827 897.532C96.4127 894.671 96.3227 891.811 95.6827 889.001C94.2627 882.763 90.2127 879.264 84.1927 877.975C82.2427 877.559 80.2427 877.428 78.2527 877.164C76.5727 877.387 74.8927 877.468 73.2827 877.864L73.2927 877.854Z" fill="#E86795" fill-opacity="0.7"/>
<path d="M57.4627 936.37C57.5127 948.836 67.5227 958.938 79.7327 958.857C92.0427 958.776 101.993 948.613 101.893 936.238C101.783 923.782 91.8727 913.771 79.6627 913.791C67.3827 913.811 57.4127 923.955 57.4627 936.36V936.37Z" fill="#333333" fill-opacity="0.9"/>
<path d="M1754.11 114.303C1751.72 112.497 1749.36 110.824 1747.12 108.998C1742.96 105.6 1739.26 101.766 1736.68 96.9476C1733.01 90.0908 1733.09 83.2745 1737.13 76.6307C1741.25 69.8449 1746.63 64.3575 1753.81 60.8986C1761.35 57.2572 1769.2 56.8616 1777.25 58.7381C1777.69 58.8395 1778.13 58.941 1778.57 59.0424C1778.74 57.1659 1778.85 55.3604 1779.09 53.5752C1779.99 46.8908 1783.52 42.1235 1789.36 38.9386C1795.45 35.6116 1801.82 33.6235 1808.78 34.0597C1813.73 34.3741 1818.49 35.5406 1822.86 37.9952C1829.67 41.8192 1833.11 47.8646 1833.95 55.5734C1834.08 56.7602 1834.12 57.9571 1834.2 59.2858C1834.52 59.1844 1834.82 59.0931 1835.12 58.9917C1840.8 57.0036 1846.6 55.9082 1852.63 56.5168C1861.93 57.4499 1868.93 62.1665 1873.98 70.0174C1876.18 73.4356 1877.97 77.0568 1878.87 81.0633C1880.5 88.336 1878.56 94.6045 1873.42 99.7979C1871.55 101.695 1869.3 103.206 1867.22 104.89C1866.96 105.093 1866.67 105.255 1866.37 105.448C1867.44 107.182 1868.52 108.846 1869.5 110.56C1871.79 114.587 1873.55 118.827 1874.12 123.472C1875.02 130.775 1872.43 136.648 1866.91 141.304C1858.27 148.607 1848.51 150.108 1837.87 147.106C1837.64 147.045 1837.41 146.984 1837.09 146.903C1837.01 148.343 1836.98 149.743 1836.85 151.133C1836.31 157.137 1834.51 162.665 1830.41 167.139C1824.88 173.174 1817.99 176.359 1809.82 176.318C1805.29 176.298 1801.44 174.3 1798.06 171.358C1793.93 167.768 1791.08 163.223 1788.67 158.355C1788.55 158.111 1788.42 157.858 1788.29 157.624C1788.26 157.574 1788.2 157.553 1788.12 157.503C1786.99 158.243 1785.88 159.034 1784.71 159.744C1780.05 162.564 1775.05 164.116 1769.56 163.802C1765.42 163.568 1761.6 162.26 1758.06 160.109C1753.31 157.208 1749.37 153.405 1746.32 148.729C1741.75 141.71 1741.73 134.366 1745.13 126.87C1747.17 122.377 1750.13 118.532 1753.48 114.982C1753.69 114.759 1753.89 114.536 1754.1 114.303H1754.11ZM1808.9 46.0185C1806.92 46.2822 1804.91 46.404 1802.96 46.83C1796.95 48.1283 1792.9 51.6176 1791.47 57.8557C1790.83 60.6653 1790.74 63.5257 1791.07 66.3861C1791.38 69.0132 1790.38 71.0317 1788.4 72.5633C1786.44 74.0848 1784.3 74.1051 1782.05 73.1212C1779.63 72.0663 1777.21 70.981 1774.7 70.1898C1770.3 68.79 1765.81 68.4147 1761.4 70.1492C1756.59 72.046 1752.51 75.0484 1749.3 79.1665C1745.31 84.299 1745.25 89.4416 1748.99 94.777C1750.9 97.4953 1753.31 99.7167 1756.09 101.441C1759.76 103.723 1763.54 105.803 1767.28 107.953C1769.66 109.322 1770.63 111.584 1769.96 114.272C1769.55 115.915 1768.67 117.234 1767.39 118.309C1766.55 119.009 1765.68 119.689 1764.85 120.399C1761.62 123.178 1758.66 126.211 1756.61 130.025C1753.51 135.776 1754.24 141.06 1758.88 145.625C1760.2 146.923 1761.67 148.1 1763.22 149.104C1768.46 152.502 1773.77 152.461 1779.05 149.124C1781.78 147.4 1784.07 145.179 1786.21 142.765C1787.45 141.365 1788.99 140.665 1790.84 140.939C1793.38 141.314 1795.17 142.754 1796.15 145.168C1796.49 146.02 1796.74 146.913 1797.04 147.785C1798.39 151.711 1799.86 155.575 1802.28 158.994C1805.17 163.071 1808.85 164.958 1813.91 163.741C1820.34 162.199 1824.25 157.949 1825.06 151.285C1825.57 147.126 1824.96 143.079 1824.09 139.032C1823.86 137.957 1823.82 136.729 1824.1 135.685C1825.05 132.084 1829.05 130.39 1832.51 131.982C1834.52 132.915 1836.5 133.93 1838.56 134.751C1842.54 136.334 1846.63 137.389 1850.98 136.831C1857.9 135.948 1863.11 129.01 1861.95 122.164C1861.46 119.283 1860.13 116.747 1858.4 114.465C1856.74 112.274 1854.98 110.154 1853.17 108.085C1849.9 104.312 1850.84 99.8181 1855.3 97.7794C1858.11 96.4912 1860.96 95.2233 1863.58 93.5902C1867.25 91.2978 1868.57 87.6868 1867.45 83.4571C1865.65 76.6815 1861.24 72.1576 1854.97 69.5102C1850.26 67.5221 1845.47 68.0293 1840.73 69.5609C1836.83 70.8288 1833.28 72.8068 1829.78 74.9165C1827.11 76.5192 1824.05 75.87 1822.16 73.3748C1820.89 71.7011 1820.59 69.8449 1821.1 67.796C1822.03 64.0532 1822.61 60.2697 1822.14 56.3849C1821.52 51.2828 1818.69 47.8747 1813.86 46.7083C1812.25 46.3228 1810.57 46.2417 1808.89 46.0084L1808.9 46.0185Z" fill="#5D77F4" fill-opacity="0.7"/>
<path d="M1829.7 105.235C1829.65 117.701 1819.64 127.803 1807.43 127.722C1795.12 127.641 1785.17 117.477 1785.27 105.103C1785.38 92.6469 1795.29 82.6355 1807.5 82.6558C1819.78 82.6761 1829.75 92.8193 1829.7 105.224V105.235Z" fill="#333333" fill-opacity="0.9"/>
<path d="M1859.95 396.365C1863.3 399.915 1866.25 403.76 1868.3 408.253C1871.71 415.749 1871.68 423.093 1867.11 430.112C1864.06 434.788 1860.12 438.602 1855.37 441.492C1851.83 443.643 1848.01 444.951 1843.87 445.185C1838.39 445.499 1833.39 443.937 1828.72 441.127C1827.55 440.427 1826.44 439.636 1825.31 438.886C1825.23 438.936 1825.17 438.957 1825.14 439.007C1825.01 439.251 1824.88 439.494 1824.76 439.738C1822.35 444.606 1819.49 449.151 1815.37 452.741C1811.99 455.683 1808.14 457.681 1803.61 457.701C1795.44 457.742 1788.55 454.547 1783.02 448.522C1778.92 444.049 1777.11 438.51 1776.58 432.516C1776.46 431.126 1776.42 429.726 1776.34 428.286C1776.02 428.367 1775.79 428.428 1775.56 428.489C1764.92 431.501 1755.16 429.99 1746.52 422.687C1741 418.031 1738.41 412.158 1739.31 404.855C1739.88 400.199 1741.64 395.96 1743.93 391.943C1744.91 390.229 1746 388.565 1747.06 386.831C1746.76 386.638 1746.46 386.476 1746.21 386.273C1744.13 384.589 1741.88 383.078 1740.01 381.181C1734.87 375.977 1732.93 369.709 1734.56 362.446C1735.46 358.44 1737.25 354.819 1739.45 351.4C1744.51 343.55 1751.5 338.833 1760.8 337.9C1766.83 337.291 1772.63 338.387 1778.31 340.375C1778.6 340.476 1778.9 340.567 1779.23 340.669C1779.32 339.34 1779.35 338.143 1779.48 336.956C1780.31 329.248 1783.76 323.202 1790.57 319.378C1794.94 316.924 1799.7 315.747 1804.65 315.443C1811.61 315.007 1817.99 316.995 1824.06 320.311C1829.89 323.486 1833.43 328.254 1834.33 334.948C1834.57 336.733 1834.67 338.549 1834.85 340.415C1835.3 340.314 1835.74 340.212 1836.17 340.111C1844.22 338.235 1852.07 338.63 1859.61 342.272C1866.79 345.73 1872.17 351.228 1876.29 358.004C1880.33 364.647 1880.41 371.474 1876.74 378.321C1874.16 383.128 1870.46 386.973 1866.3 390.371C1864.06 392.196 1861.7 393.87 1859.31 395.676C1859.52 395.909 1859.72 396.132 1859.93 396.355L1859.95 396.365ZM1799.58 328.101C1794.76 329.268 1791.92 332.676 1791.3 337.778C1790.83 341.663 1791.41 345.446 1792.34 349.189C1792.85 351.238 1792.55 353.094 1791.28 354.768C1789.39 357.263 1786.32 357.912 1783.66 356.31C1780.16 354.21 1776.61 352.222 1772.71 350.954C1767.97 349.412 1763.17 348.915 1758.47 350.903C1752.2 353.551 1747.79 358.075 1745.99 364.85C1744.87 369.08 1746.19 372.691 1749.86 374.983C1752.48 376.616 1755.33 377.884 1758.14 379.173C1762.6 381.211 1763.54 385.715 1760.27 389.478C1758.47 391.557 1756.7 393.667 1755.04 395.858C1753.31 398.14 1751.98 400.676 1751.49 403.557C1750.33 410.404 1755.55 417.341 1762.46 418.224C1766.81 418.782 1770.9 417.727 1774.88 416.145C1776.94 415.323 1778.91 414.309 1780.93 413.375C1784.4 411.773 1788.39 413.477 1789.34 417.078C1789.62 418.123 1789.58 419.35 1789.35 420.425C1788.48 424.472 1787.88 428.529 1788.38 432.678C1789.19 439.332 1793.11 443.582 1799.53 445.134C1804.59 446.351 1808.28 444.464 1811.16 440.387C1813.58 436.979 1815.05 433.104 1816.4 429.179C1816.7 428.306 1816.94 427.414 1817.29 426.562C1818.27 424.148 1820.06 422.707 1822.6 422.332C1824.45 422.058 1825.99 422.758 1827.23 424.158C1829.37 426.562 1831.66 428.793 1834.39 430.518C1839.67 433.855 1844.98 433.895 1850.22 430.497C1851.77 429.493 1853.24 428.316 1854.56 427.018C1859.19 422.454 1859.93 417.169 1856.83 411.418C1854.77 407.604 1851.82 404.571 1848.59 401.792C1847.76 401.072 1846.89 400.402 1846.05 399.702C1844.78 398.637 1843.89 397.309 1843.48 395.665C1842.8 392.988 1843.78 390.716 1846.16 389.346C1849.9 387.196 1853.69 385.116 1857.35 382.834C1860.13 381.11 1862.54 378.889 1864.45 376.17C1868.19 370.825 1868.13 365.692 1864.14 360.56C1860.94 356.442 1856.85 353.439 1852.04 351.542C1847.64 349.808 1843.14 350.193 1838.74 351.583C1836.23 352.374 1833.81 353.459 1831.39 354.514C1829.14 355.498 1827 355.478 1825.04 353.957C1823.06 352.425 1822.06 350.396 1822.37 347.779C1822.7 344.919 1822.61 342.059 1821.97 339.249C1820.55 333.011 1816.5 329.511 1810.48 328.223C1808.53 327.807 1806.53 327.675 1804.54 327.412C1802.86 327.635 1801.18 327.716 1799.57 328.112L1799.58 328.101Z" fill="#E86795" fill-opacity="0.7"/>
<path d="M1783.75 386.618C1783.8 399.084 1793.81 409.186 1806.02 409.105C1818.33 409.024 1828.28 398.861 1828.18 386.486C1828.07 374.03 1818.16 364.019 1805.95 364.039C1793.67 364.059 1783.7 374.202 1783.75 386.608V386.618Z" fill="#333333" fill-opacity="0.9"/>
<path d="M1754.83 664.055C1752.44 662.249 1750.08 660.576 1747.84 658.75C1743.68 655.352 1739.98 651.518 1737.4 646.7C1733.73 639.843 1733.81 633.027 1737.85 626.383C1741.97 619.597 1747.35 614.11 1754.53 610.651C1762.07 607.009 1769.92 606.614 1777.97 608.49C1778.41 608.592 1778.85 608.693 1779.29 608.794C1779.46 606.918 1779.57 605.112 1779.81 603.327C1780.71 596.643 1784.24 591.876 1790.08 588.691C1796.16 585.374 1802.54 583.386 1809.49 583.822C1814.44 584.136 1819.2 585.303 1823.57 587.757C1830.38 591.581 1833.82 597.627 1834.66 605.336C1834.79 606.522 1834.83 607.719 1834.91 609.048C1835.23 608.947 1835.53 608.855 1835.83 608.754C1841.51 606.766 1847.31 605.67 1853.34 606.279C1862.64 607.212 1869.64 611.929 1874.69 619.78C1876.89 623.198 1878.68 626.819 1879.58 630.826C1881.21 638.098 1879.27 644.367 1874.13 649.56C1872.26 651.457 1870.01 652.968 1867.93 654.652C1867.67 654.855 1867.38 655.017 1867.08 655.21C1868.15 656.944 1869.23 658.608 1870.21 660.322C1872.5 664.349 1874.26 668.589 1874.83 673.234C1875.73 680.537 1873.14 686.41 1867.62 691.066C1858.98 698.369 1849.22 699.87 1838.58 696.868C1838.35 696.807 1838.12 696.746 1837.8 696.665C1837.72 698.105 1837.69 699.505 1837.56 700.895C1837.02 706.9 1835.22 712.428 1831.12 716.901C1825.59 722.936 1818.7 726.121 1810.53 726.08C1806 726.06 1802.15 724.062 1798.77 721.12C1794.64 717.53 1791.79 712.986 1789.38 708.117C1789.26 707.873 1789.13 707.62 1789 707.387C1788.97 707.336 1788.91 707.316 1788.83 707.265C1787.7 708.005 1786.59 708.796 1785.42 709.506C1780.76 712.326 1775.76 713.878 1770.27 713.564C1766.13 713.33 1762.31 712.022 1758.77 709.872C1754.02 706.971 1750.08 703.167 1747.03 698.491C1742.46 691.472 1742.44 684.128 1745.84 676.632C1747.88 672.139 1750.84 668.295 1754.19 664.744C1754.4 664.521 1754.6 664.298 1754.81 664.065L1754.83 664.055ZM1809.61 595.771C1807.63 596.034 1805.62 596.156 1803.67 596.582C1797.66 597.88 1793.61 601.37 1792.18 607.608C1791.54 610.417 1791.45 613.278 1791.78 616.138C1792.09 618.765 1791.09 620.784 1789.11 622.315C1787.15 623.837 1785.01 623.857 1782.76 622.873C1780.34 621.818 1777.92 620.733 1775.41 619.942C1771.01 618.542 1766.52 618.167 1762.11 619.901C1757.3 621.798 1753.22 624.8 1750.01 628.919C1746.02 634.051 1745.96 639.194 1749.7 644.529C1751.61 647.247 1754.02 649.469 1756.8 651.193C1760.47 653.475 1764.25 655.555 1767.99 657.705C1770.37 659.074 1771.34 661.336 1770.67 664.024C1770.26 665.668 1769.38 666.986 1768.1 668.061C1767.26 668.761 1766.39 669.441 1765.56 670.151C1762.33 672.93 1759.37 675.963 1757.32 679.777C1754.22 685.528 1754.95 690.813 1759.59 695.377C1760.91 696.675 1762.38 697.852 1763.93 698.856C1769.17 702.254 1774.48 702.213 1779.76 698.876C1782.49 697.152 1784.78 694.931 1786.92 692.517C1788.16 691.117 1789.7 690.417 1791.55 690.691C1794.09 691.066 1795.88 692.506 1796.86 694.921C1797.2 695.773 1797.45 696.665 1797.75 697.537C1799.1 701.463 1800.57 705.327 1802.99 708.746C1805.88 712.823 1809.56 714.71 1814.62 713.493C1821.05 711.951 1824.96 707.701 1825.77 701.037C1826.28 696.878 1825.67 692.831 1824.8 688.784C1824.57 687.709 1824.53 686.481 1824.81 685.437C1825.76 681.836 1829.76 680.142 1833.22 681.734C1835.23 682.668 1837.21 683.682 1839.27 684.503C1843.25 686.086 1847.34 687.141 1851.69 686.583C1858.61 685.7 1863.82 678.762 1862.66 671.916C1862.17 669.035 1860.84 666.499 1859.11 664.217C1857.45 662.026 1855.69 659.906 1853.88 657.837C1850.61 654.064 1851.55 649.57 1856.01 647.531C1858.82 646.243 1861.67 644.975 1864.29 643.342C1867.96 641.05 1869.28 637.439 1868.16 633.209C1866.36 626.434 1861.95 621.91 1855.68 619.262C1850.97 617.274 1846.18 617.781 1841.44 619.313C1837.54 620.581 1833.99 622.559 1830.49 624.669C1827.82 626.271 1824.76 625.622 1822.87 623.127C1821.6 621.453 1821.3 619.597 1821.81 617.548C1822.74 613.805 1823.32 610.022 1822.85 606.137C1822.23 601.035 1819.4 597.627 1814.57 596.46C1812.96 596.075 1811.28 595.994 1809.6 595.76L1809.61 595.771Z" fill="#5D77F4" fill-opacity="0.7"/>
<path d="M1830.41 654.987C1830.36 667.453 1820.35 677.555 1808.14 677.474C1795.83 677.393 1785.88 667.23 1785.98 654.855C1786.09 642.399 1796 632.388 1808.21 632.408C1820.49 632.428 1830.46 642.571 1830.41 654.977V654.987Z" fill="#333333" fill-opacity="0.9"/>
<path d="M1860.66 946.117C1864.01 949.668 1866.96 953.512 1869.01 958.005C1872.42 965.501 1872.39 972.845 1867.82 979.864C1864.77 984.54 1860.83 988.354 1856.08 991.245C1852.54 993.395 1848.72 994.703 1844.58 994.937C1839.1 995.251 1834.1 993.689 1829.43 990.879C1828.26 990.18 1827.15 989.388 1826.02 988.638C1825.94 988.689 1825.88 988.709 1825.85 988.76C1825.72 989.003 1825.59 989.246 1825.47 989.49C1823.06 994.359 1820.2 998.903 1816.08 1002.49C1812.7 1005.44 1808.85 1007.43 1804.32 1007.45C1796.15 1007.49 1789.26 1004.3 1783.73 998.274C1779.63 993.801 1777.82 988.263 1777.29 982.268C1777.17 980.878 1777.13 979.479 1777.05 978.038C1776.73 978.119 1776.5 978.18 1776.27 978.241C1765.63 981.254 1755.87 979.742 1747.23 972.439C1741.71 967.783 1739.12 961.91 1740.02 954.607C1740.59 949.952 1742.35 945.712 1744.64 941.695C1745.62 939.981 1746.71 938.317 1747.77 936.583C1747.47 936.39 1747.17 936.228 1746.92 936.025C1744.84 934.341 1742.59 932.83 1740.72 930.933C1735.58 925.73 1733.64 919.461 1735.27 912.199C1736.17 908.192 1737.96 904.571 1740.16 901.153C1745.22 893.302 1752.21 888.585 1761.51 887.652C1767.54 887.043 1773.34 888.139 1779.02 890.127C1779.31 890.228 1779.61 890.32 1779.94 890.421C1780.03 889.092 1780.06 887.895 1780.19 886.709C1781.02 879 1784.47 872.954 1791.28 869.131C1795.65 866.676 1800.41 865.499 1805.36 865.195C1812.32 864.759 1818.7 866.747 1824.77 870.064C1830.6 873.238 1834.14 878.006 1835.04 884.7C1835.28 886.486 1835.38 888.301 1835.56 890.168C1836.01 890.066 1836.45 889.965 1836.88 889.863C1844.93 887.987 1852.78 888.382 1860.32 892.024C1867.5 895.483 1872.88 900.98 1877 907.756C1881.04 914.4 1881.12 921.226 1877.45 928.073C1874.87 932.881 1871.17 936.725 1867.01 940.123C1864.77 941.949 1862.41 943.622 1860.02 945.428C1860.23 945.661 1860.43 945.884 1860.64 946.107L1860.66 946.117ZM1800.29 877.854C1795.47 879.02 1792.63 882.428 1792.01 887.53C1791.54 891.415 1792.12 895.199 1793.05 898.941C1793.56 900.99 1793.26 902.847 1791.99 904.52C1790.1 907.015 1787.03 907.665 1784.37 906.062C1780.87 903.962 1777.32 901.974 1773.42 900.706C1768.68 899.165 1763.88 898.668 1759.18 900.656C1752.91 903.303 1748.5 907.827 1746.7 914.602C1745.58 918.832 1746.9 922.443 1750.57 924.736C1753.19 926.369 1756.04 927.637 1758.85 928.925C1763.31 930.963 1764.25 935.467 1760.98 939.23C1759.18 941.31 1757.41 943.419 1755.75 945.61C1754.02 947.893 1752.69 950.428 1752.2 953.309C1751.04 960.156 1756.26 967.094 1763.17 967.976C1767.52 968.534 1771.61 967.479 1775.59 965.897C1777.65 965.075 1779.62 964.061 1781.64 963.128C1785.11 961.525 1789.1 963.229 1790.05 966.83C1790.33 967.875 1790.29 969.102 1790.06 970.177C1789.19 974.224 1788.59 978.282 1789.09 982.43C1789.9 989.084 1793.82 993.334 1800.24 994.886C1805.3 996.103 1808.99 994.217 1811.87 990.139C1814.29 986.731 1815.76 982.856 1817.11 978.931C1817.41 978.059 1817.65 977.166 1818 976.314C1818.98 973.9 1820.77 972.459 1823.31 972.084C1825.16 971.81 1826.7 972.51 1827.94 973.91C1830.08 976.314 1832.37 978.545 1835.1 980.27C1840.38 983.607 1845.69 983.647 1850.93 980.249C1852.48 979.245 1853.95 978.069 1855.27 976.77C1859.9 972.206 1860.64 966.921 1857.54 961.17C1855.48 957.356 1852.53 954.323 1849.3 951.544C1848.47 950.824 1847.6 950.155 1846.76 949.455C1845.49 948.39 1844.6 947.061 1844.19 945.418C1843.51 942.74 1844.49 940.468 1846.87 939.098C1850.61 936.948 1854.4 934.869 1858.06 932.586C1860.84 930.862 1863.25 928.641 1865.16 925.922C1868.9 920.577 1868.84 915.444 1864.85 910.312C1861.65 906.194 1857.56 903.191 1852.75 901.295C1848.35 899.56 1843.85 899.946 1839.45 901.335C1836.94 902.126 1834.52 903.212 1832.1 904.267C1829.85 905.25 1827.71 905.23 1825.75 903.709C1823.77 902.177 1822.77 900.148 1823.08 897.532C1823.41 894.671 1823.32 891.811 1822.68 889.001C1821.26 882.763 1817.21 879.264 1811.19 877.975C1809.24 877.559 1807.24 877.428 1805.25 877.164C1803.57 877.387 1801.89 877.468 1800.28 877.864L1800.29 877.854Z" fill="#E86795" fill-opacity="0.7"/>
<path d="M1784.46 936.37C1784.51 948.836 1794.52 958.938 1806.73 958.857C1819.04 958.776 1828.99 948.613 1828.89 936.238C1828.78 923.782 1818.87 913.771 1806.66 913.791C1794.38 913.811 1784.41 923.955 1784.46 936.36V936.37Z" fill="#333333" fill-opacity="0.9"/>
</svg>
