<svg width="350" height="140" viewBox="0 0 350 140" fill="none" xmlns="http://www.w3.org/2000/svg">
<path d="M24.8059 33.4869C22.0984 30.3588 20.1136 27.8385 15.7665 27.7501C6.81335 27.5843 0.3089 20.3221 0.0500144 11.1807C-0.00392015 9.29056 -0.0363915 7.38932 0.0714777 5.49915C0.276429 2.28255 2.26128 0.0939612 5.38948 0.0718539C16.4029 -0.0276287 27.4272 -0.0165858 38.4406 0.0607895C41.256 0.0828968 43.4241 1.90673 43.6722 4.60381C44.2979 11.4239 44.1793 18.1335 38.6132 23.2181C37.3188 24.4009 35.8841 25.4289 34.1474 26.8327C37.5237 29.7287 39.3036 34.1612 45.3227 33.7522C55.3653 33.0669 65.5913 34.3713 75.4074 31.4642C82.8396 29.2645 90.0883 26.3684 97.3047 23.4945C108.329 19.1062 119.235 14.3863 130.248 9.96486C138.263 6.74825 146.677 5.57656 155.263 5.59866C167.118 5.62077 178.962 5.64287 190.817 5.5876C197.645 5.55444 203.933 7.65465 210.05 10.4512C225.259 17.4261 238.959 26.91 252.129 37.2341C253.92 38.6379 255.678 39.268 257.944 39.2348C266.552 39.1132 275.159 39.1243 283.778 39.2017C307.175 39.3896 325.027 49.7468 337.141 70.1628C342.729 79.5805 345.167 90.0262 345.188 101.047C345.199 105.877 345.123 110.708 345.264 115.527C345.285 116.411 345.986 117.594 346.731 118.091C349.255 119.772 350.463 121.96 349.837 124.425C349.158 127.111 347.216 128.681 344.023 128.703C334.39 128.769 324.769 128.802 315.136 128.692C312.86 128.67 311.166 129.311 309.408 130.825C295.115 143.139 274.491 143.05 260.22 130.604C258.602 129.189 257.027 128.703 254.977 128.703C200.072 128.747 145.166 128.747 90.2718 128.703C88.2223 128.703 86.6689 129.189 85.04 130.604C68.4713 144.974 43.9204 142.465 30.3396 125.21C29.3041 123.895 27.7616 122.723 26.2191 122.17C13.7494 117.649 5.01201 107.336 5.45427 92.3475C5.8426 78.7294 5.87494 65.0782 5.43267 51.4601C5.06592 39.9644 13.1021 32.5805 22.8642 33.5754C23.3065 33.6196 23.7596 33.5422 24.8059 33.4869ZM319.893 117.362C324.801 117.362 329.45 117.362 334.239 117.362C334.239 111.105 334.477 105.048 334.196 99.0239C333.085 75.4023 317.649 56.3569 295.051 51.5707C283.12 49.0505 270.877 50.1447 258.796 50.8411C253.424 51.1506 249.034 54.2014 245.873 58.7666C244.374 60.9441 242.41 61.74 239.886 61.4858C235.011 60.9994 230.124 60.5683 225.238 60.093C192.909 56.9096 160.581 53.704 128.252 50.5317C121.877 49.9016 119.655 46.2539 122.719 40.4728C126.343 33.6196 130.442 27.0317 134.207 20.5432C133.84 20.6758 132.902 20.9521 132.006 21.3169C120.691 25.9705 109.214 30.2814 98.0923 35.3882C83.0985 42.2635 67.5546 45.3806 51.1692 44.8832C41.3639 44.5848 31.5478 44.8169 21.7317 44.839C17.8915 44.8501 16.4893 46.2207 16.4893 50.1116C16.4569 64.9677 16.4677 79.8347 16.5001 94.6908C16.5001 95.9178 16.6187 97.1668 16.8776 98.3496C17.6434 101.787 19.2614 104.694 22.3573 107.137C18.5603 80.1553 40.3607 59.7282 63.1643 61.6847C74.1022 62.6243 83.2818 67.3884 90.0992 76.2534C99.7642 88.8324 100.843 102.705 95.2014 117.351C146.925 117.351 198.4 117.351 249.95 117.351C243.672 95.5309 247.944 79.7574 263.003 68.6596C275.71 59.2971 293.896 59.3746 306.798 68.5601C318.361 76.8061 328.781 95.0335 319.893 117.362ZM135.253 39.876C137.454 40.1302 139.093 40.3513 140.744 40.506C151.606 41.5672 162.469 42.6173 173.331 43.6784C193.492 45.6459 213.674 47.4256 233.792 49.7579C238.624 50.3216 240.922 47.7683 243.802 44.7948C232.141 36.173 220.567 27.8938 207.73 21.6595C202.175 18.9625 196.49 16.7849 190.234 16.7628C182.09 16.7407 173.946 16.6523 165.812 16.8181C163.073 16.8734 160.225 17.1829 157.636 18.0451C146.979 21.5822 140.895 30.1709 135.253 39.876ZM284.922 128.692C299.948 128.714 312.364 116.046 312.32 100.737C312.277 85.4611 299.743 72.7052 284.857 72.7936C269.906 72.882 257.771 85.3284 257.674 100.671C257.566 116.08 269.809 128.67 284.922 128.692ZM60.3381 128.703C75.3859 128.681 87.7368 115.991 87.6289 100.671C87.521 85.3837 75.2779 72.871 60.3812 72.8047C45.4736 72.7383 32.9285 85.4943 32.8961 100.759C32.8638 116.024 45.3335 128.725 60.3381 128.703ZM11.3223 11.3686C11.689 14.7289 13.2316 16.4865 16.4245 16.6633C20.1136 16.8623 23.8243 16.8623 27.5027 16.6523C30.7172 16.4754 32.2596 14.6958 32.5725 11.3686C25.4855 11.3686 18.4201 11.3686 11.3223 11.3686Z" fill="#333333"/>
<path d="M156.59 106.352C141.693 106.352 126.807 106.352 111.91 106.352C110.983 106.352 110.055 106.386 109.138 106.275C106.377 105.943 104.327 103.722 104.208 101.014C104.101 98.416 105.794 96.0615 108.437 95.4425C109.677 95.1551 111.004 95.133 112.288 95.133C141.057 95.122 169.825 95.0114 198.594 95.1883C206.975 95.2436 212.919 91.8722 216.932 84.4442C219.391 79.9012 222.131 75.5128 224.774 71.0693C226.996 67.3553 229.919 66.2499 232.81 67.9632C235.69 69.6765 236.316 73.0369 234.256 76.6403C231.171 82.0235 228.118 87.4397 224.817 92.6791C219.132 101.688 210.977 106.341 200.428 106.352C185.822 106.375 171.206 106.352 156.59 106.352Z" fill="#333333"/>
<path d="M263.132 100.859C263.078 88.9541 272.139 79.1606 283.832 78.4752C287.413 78.2652 290.056 80.3101 290.369 83.5378C290.66 86.5112 288.406 89.0204 284.965 89.5399C278.007 90.59 274.016 94.6909 274.027 100.792C274.038 106.264 278.083 111.072 283.336 111.868C288.622 112.664 293.821 109.304 295.363 104.02C295.708 102.848 295.827 101.61 296.011 100.406C296.507 97.1227 298.998 94.9119 301.857 95.2436C304.845 95.5862 306.862 98.1065 306.797 101.411C306.56 113.349 296.518 123.276 284.803 123.154C272.829 123.021 263.186 113.117 263.132 100.859Z" fill="#333333"/>
<path d="M59.9713 123.508C48.0841 122.8 38.7319 113.228 38.4082 101.157C38.0954 89.573 47.0162 79.5915 58.6229 78.5304C62.5817 78.1656 65.2353 79.9674 65.6128 83.2503C66.0119 86.7543 63.9194 89.0424 59.7772 89.6061C53.7473 90.4351 49.864 94.3039 49.411 99.9523C48.9903 105.225 52.2371 109.945 57.3501 111.525C63.5203 113.427 70.2081 108.983 71.1035 102.373C71.2329 101.445 71.2976 100.483 71.5242 99.5765C72.2361 96.7799 74.6954 94.945 77.2195 95.2434C80.0997 95.5861 82.0953 97.9737 82.1492 101.135C82.2895 109.79 76.0762 118.92 68.0184 121.628C65.4188 122.502 62.6572 122.9 59.9713 123.508Z" fill="#333333"/>
</svg>
