<svg width="36" height="36" viewBox="0 0 36 36" fill="none" xmlns="http://www.w3.org/2000/svg">
<path d="M31.0239 20.3103C31.6156 19.8536 32.1999 19.4302 32.7544 18.9684C33.7843 18.1088 34.7003 17.139 35.3391 15.9202C36.2477 14.1858 36.2278 12.4616 35.2277 10.781C34.2077 9.06454 32.8757 7.67646 31.0982 6.80154C29.2315 5.88043 27.288 5.78036 25.2951 6.25503C25.1861 6.28069 25.0772 6.30634 24.9683 6.332C24.9262 5.85733 24.899 5.40062 24.8395 4.94905C24.6167 3.25821 23.7428 2.05231 22.297 1.24666C20.7917 0.407654 19.2122 -0.0952322 17.4916 0.0150955C16.2661 0.0946341 15.0877 0.389698 14.0058 1.01061C12.3198 1.9779 11.4682 3.5071 11.2602 5.45708C11.228 5.75728 11.2181 6.06003 11.1983 6.39614C11.1191 6.37049 11.0448 6.3474 10.9706 6.32174C9.56436 5.81885 8.12844 5.54175 6.63559 5.6957C4.33317 5.93175 2.60017 7.12482 1.34993 9.11072C0.805267 9.97539 0.36211 10.8914 0.139297 11.9048C-0.264244 13.7445 0.216049 15.3301 1.48857 16.6438C1.95153 17.1236 2.50856 17.5059 3.02351 17.9318C3.08788 17.9831 3.15967 18.0242 3.23394 18.0729C2.96904 18.5117 2.70167 18.9325 2.45905 19.3661C1.89211 20.3847 1.45638 21.4572 1.31527 22.6323C1.09245 24.4796 1.73367 25.9652 3.10026 27.1429C5.23928 28.9902 7.65558 29.37 10.2897 28.6105C10.3467 28.5951 10.4036 28.5797 10.4829 28.5592C10.5027 28.9235 10.5101 29.2776 10.5423 29.6291C10.676 31.148 11.1216 32.5464 12.1366 33.6779C13.5057 35.2045 15.2115 36.0102 17.2341 35.9999C18.3556 35.9948 19.3088 35.4893 20.1456 34.7452C21.1681 33.837 21.8736 32.6875 22.4703 31.4559C22.5 31.3944 22.5322 31.3302 22.5644 31.2712C22.5718 31.2584 22.5866 31.2532 22.6064 31.2404C22.8862 31.4277 23.161 31.6278 23.4507 31.8074C24.6044 32.5207 25.8422 32.9133 27.2014 32.8337C28.2263 32.7747 29.1721 32.4438 30.0485 31.8998C31.2244 31.166 32.1999 30.2038 32.9549 29.021C34.0864 27.2455 34.0913 25.3879 33.2496 23.4918C32.7445 22.3552 32.0117 21.3828 31.1823 20.4848C31.1303 20.4283 31.0808 20.3718 31.0288 20.3128L31.0239 20.3103ZM17.4619 3.03757C17.9521 3.10428 18.4497 3.13507 18.9325 3.24283C20.4204 3.57125 21.4231 4.45387 21.7771 6.03181C21.9355 6.74253 21.9578 7.46606 21.8761 8.18961C21.7994 8.85414 22.0469 9.36473 22.5371 9.75216C23.0224 10.137 23.5522 10.1422 24.1092 9.89328C24.7083 9.62644 25.3075 9.3519 25.9289 9.15177C27.0182 8.79769 28.1298 8.70277 29.2216 9.14151C30.4124 9.62131 31.4225 10.3808 32.2172 11.4225C33.205 12.7208 33.2199 14.0216 32.2939 15.3712C31.8211 16.0588 31.2244 16.6207 30.5362 17.0569C29.6276 17.6342 28.6918 18.1602 27.7658 18.7041C27.1766 19.0505 26.9365 19.6226 27.1023 20.3026C27.2039 20.7182 27.4217 21.0518 27.7386 21.3237C27.9466 21.5008 28.162 21.6727 28.3674 21.8523C29.1671 22.5553 29.8999 23.3225 30.4074 24.2872C31.1749 25.742 30.9942 27.0787 29.8454 28.2333C29.5187 28.5618 29.1547 28.8594 28.771 29.1134C27.4737 29.9729 26.1591 29.9627 24.8519 29.1185C24.1761 28.6824 23.6091 28.1204 23.0793 27.5098C22.7723 27.1557 22.3911 26.9787 21.933 27.048C21.3042 27.1429 20.8611 27.5072 20.6184 28.1179C20.5343 28.3334 20.4724 28.5592 20.3981 28.7798C20.0639 29.7728 19.7 30.7503 19.1008 31.615C18.3853 32.6464 17.4743 33.1237 16.2216 32.8158C14.6297 32.4258 13.6617 31.3507 13.4611 29.665C13.3349 28.6131 13.4859 27.5893 13.7013 26.5656C13.7582 26.2936 13.7681 25.9832 13.6988 25.7189C13.4636 24.808 12.4733 24.3796 11.6167 24.7824C11.1191 25.0185 10.6289 25.275 10.1189 25.4828C9.13358 25.8831 8.12102 26.1499 7.04408 26.0088C5.33088 25.7856 4.04103 24.0306 4.32822 22.2987C4.44953 21.5701 4.7788 20.9286 5.2071 20.3513C5.61807 19.7971 6.05379 19.2609 6.5019 18.7375C7.31145 17.783 7.07874 16.6464 5.97457 16.1306C5.27889 15.8048 4.57331 15.4841 3.92467 15.071C3.01609 14.4911 2.68929 13.5777 2.96657 12.5078C3.4122 10.7939 4.50399 9.64953 6.05627 8.97987C7.22233 8.47698 8.4082 8.60526 9.58169 8.99269C10.5472 9.31341 11.4261 9.81374 12.2926 10.3474C12.9536 10.7528 13.7112 10.5886 14.1791 9.95742C14.4935 9.53407 14.5678 9.06454 14.4415 8.54625C14.2113 7.59949 14.0677 6.64246 14.1841 5.65977C14.3375 4.36919 15.0382 3.5071 16.2339 3.21204C16.6325 3.11454 17.0485 3.09401 17.4644 3.035L17.4619 3.03757Z" fill="#EF94B4"/>
<path d="M17.9889 12.8957C14.9249 12.9114 12.4449 15.3176 12.4687 18.2489C12.4925 21.2041 14.9937 23.5898 18.0352 23.5621C21.0967 23.532 23.5543 21.1499 23.5455 18.2186C23.5366 15.2705 21.0404 12.88 17.9913 12.8957L17.9889 12.8957Z" fill="#333333" fill-opacity="0.9"/>
</svg>
