<svg width="169" height="206" viewBox="0 0 169 206" fill="none" xmlns="http://www.w3.org/2000/svg">
<path d="M46.9575 206C44.0578 204.477 43.719 203.701 44.7155 200.735C49.6578 186.045 54.8394 171.405 59.3832 156.646C60.6586 152.506 60.1106 148.007 60.2202 143.668C60.2301 143.12 59.3134 142.454 58.6458 142.006C41.9155 130.909 28.1645 117.891 18.1802 102.455C10.1189 89.9841 4.97725 76.817 3.50251 62.804C3.08401 58.8031 5.05697 57.4495 10.2285 58.3851C32.4194 62.3959 51.9895 70.4574 68.9789 82.47C69.6764 82.9577 70.3441 83.4752 71.0316 83.9728C71.1512 84.0624 71.3106 84.1122 71.8587 83.9828C69.1882 80.5492 66.5875 77.0757 63.8074 73.6919C61.4558 70.8256 58.9746 68.029 56.3739 65.3119C55.7362 64.6451 54.4109 64.1376 53.3347 64.048C51.1625 63.849 48.9504 64.0182 46.7482 63.9783C44.0479 63.9286 42.4735 62.8736 42.3838 61.1418C42.2941 59.3305 43.8884 58.1362 46.6685 57.967C47.386 57.9172 48.1034 57.8874 49.2294 57.8277C47.645 56.2552 46.2899 54.9215 45.144 53.787C41.776 54.2149 38.6372 54.9614 35.5283 54.9216C28.7823 54.832 23.4015 52.3737 19.4157 48.0345C13.3972 41.4758 7.37868 34.9171 1.40001 28.3386C-1.25053 25.4225 -0.0846931 23.1732 4.44913 22.6855C8.71392 22.2277 13.0186 21.8893 17.3132 21.7998C19.5752 21.75 20.462 21.0832 21.1894 19.4808C22.6243 16.3359 24.3382 13.2705 26.1019 10.235C28.0051 6.97061 31.1638 6.72175 33.7944 9.56816C39.8329 16.1169 45.8415 22.6855 51.8201 29.2641C57.0415 35.0167 58.0978 42.5308 50.9732 49.8458C61.7946 60.4054 71.9085 71.4028 80.0694 83.4652C80.2786 83.4254 80.4779 83.3856 80.6872 83.3558C80.6872 80.9871 80.3384 78.5786 80.7569 76.2597C81.7135 70.8654 79.611 66.7352 74.1106 63.411C71.1811 61.6395 68.7697 59.3106 66.1789 57.2007C64.1362 55.5387 63.9768 53.6874 65.6608 52.4235C67.3547 51.1595 69.4074 51.279 71.48 52.9112C74.3398 55.1704 77.1199 57.4993 80.5676 59.6192C80.6075 58.8727 80.6872 58.1163 80.6872 57.3699C80.6971 53.5481 80.6672 49.7264 80.7071 45.8947C80.717 44.9293 80.468 44.362 79.1128 44.0037C69.5668 41.4659 64.5746 36.0915 64.4451 28.0499C64.3156 20.068 64.3853 12.0861 64.4252 4.10426C64.4451 0.252656 67.1455 -1.02127 71.3505 0.859746C75.1669 2.57157 78.9235 4.3929 82.5904 6.30378C83.9854 7.03031 84.9121 7.09995 86.3669 6.34357C90.2431 4.32322 94.2189 2.40239 98.2744 0.620897C101.652 -0.862021 104.522 0.401969 104.532 3.44742C104.582 12.4345 104.642 21.4215 104.273 30.3987C104.024 36.5095 98.1349 42.063 90.6815 43.7947C88.7783 44.2326 88.1506 44.9094 88.2701 46.4421C88.4395 48.6416 88.31 50.851 88.31 53.6377C90.4822 51.9557 92.1662 50.6221 93.9 49.3283C95.2652 48.3131 97.0388 47.8454 98.4737 48.8307C99.4502 49.5074 100.118 50.7913 100.208 51.8463C100.267 52.5927 99.2509 53.5084 98.4737 54.1553C95.5541 56.5737 92.4851 58.8926 89.5755 61.321C88.9477 61.8485 88.3797 62.6745 88.3697 63.3712C88.2801 69.7408 88.3199 76.1203 88.3299 82.4899C88.3299 82.7885 88.4594 83.0771 88.6089 83.734C91.4787 79.8625 94.2189 76.3592 96.6602 72.7265C97.268 71.8209 96.9491 70.4972 96.9691 69.3626C97.0089 66.8844 96.9492 64.3963 96.989 61.9182C97.0289 59.4599 98.2944 58.1163 100.596 58.0267C102.938 57.9272 104.363 59.2907 104.592 61.8485C104.622 62.1769 104.662 62.5053 104.741 63.3115C109.345 58.604 113.64 54.2149 117.645 50.1245C116.181 47.497 114.437 45.1682 113.57 42.6402C111.906 37.8233 113.49 33.3347 117.107 29.3338C123.116 22.6856 129.174 16.0671 135.272 9.46866C137.813 6.72177 141.022 6.99046 142.845 10.1255C144.649 13.2207 146.363 16.3657 147.848 19.5605C148.555 21.0832 149.382 21.7201 151.554 21.7799C156.018 21.8993 160.492 22.2476 164.917 22.7353C168.952 23.1732 170.158 25.4722 167.806 28.0698C161.698 34.8275 155.62 41.5952 149.322 48.2435C143.214 54.6827 134.416 56.4543 124.232 53.4387C122.857 54.7524 121.432 56.1258 119.708 57.7779C121.043 57.8575 121.99 57.8775 122.926 57.9869C125.298 58.2557 126.803 59.5495 126.564 61.2115C126.304 63.0229 124.87 63.9186 122.608 63.9485C120.156 63.9883 117.705 63.9086 115.254 63.9982C114.516 64.0281 113.49 64.2769 113.112 64.7148C107.641 71.0545 102.26 77.4341 96.8495 83.8036C97.0488 83.9231 97.2481 84.0325 97.4474 84.152C100.895 81.8828 104.243 79.5042 107.8 77.3445C122.847 68.2479 139.527 61.8684 158.001 58.5144C158.659 58.395 159.317 58.2855 159.984 58.196C163.89 57.6983 165.953 59.022 165.445 62.1769C164.568 67.6209 163.791 73.1147 162.117 78.4193C154.045 104.037 136.06 124.668 110.86 141.558C109.295 142.603 108.767 143.648 108.568 145.25C107.472 154.138 111.447 162.289 114.168 170.619C117.466 180.731 120.944 190.813 124.322 200.904C125.238 203.631 124.82 204.497 122 205.97C96.999 206 71.9782 206 46.9575 206ZM84.095 138.682C81.2551 132.69 78.8936 127.047 75.9242 121.613C71.5896 113.681 65.312 106.704 57.8785 100.375C55.8657 98.6627 55.9155 96.8115 57.7091 95.6073C59.4529 94.4428 61.5056 94.7016 63.4785 96.3537C70.7327 102.425 76.7213 109.212 81.4445 116.697C85.4701 123.066 88.5093 129.724 90.6815 136.631C90.9107 137.368 91.6281 138.522 92.236 138.572C94.7669 138.791 97.3577 138.662 99.9883 138.662C90.0139 97.9461 51.6507 72.5076 11.2847 64.9736C11.9823 68.0987 12.5004 71.1441 13.3474 74.1298C20.751 100.215 38.7169 120.996 64.3853 137.885C64.9832 138.283 65.86 138.642 66.6074 138.642C72.0878 138.711 77.5783 138.682 84.095 138.682ZM107.282 136.164C134.874 116.995 152.67 93.9253 157.692 64.7546C129.274 70.7958 106.445 82.6293 89.0872 101.171C97.7961 111.88 103.615 123.504 107.282 136.164ZM92.1662 199.869C92.0765 198.625 91.8872 197.491 91.937 196.366C92.0168 194.724 93.2723 193.758 95.2652 193.579C97.1783 193.41 98.5634 194.196 99.1214 195.64C99.51 196.655 99.4502 197.779 99.8488 198.784C100.038 199.252 100.835 199.889 101.383 199.899C106.186 199.989 110.989 199.949 116.111 199.949C114.666 195.63 113.281 191.509 111.896 187.379C108.747 178.004 105.618 168.619 102.4 159.263C102.19 158.646 101.363 157.741 100.746 157.701C98.2545 157.522 95.7335 157.631 93.0232 157.631C93.1527 158.666 93.2224 159.452 93.352 160.229C94.6075 167.663 95.8929 175.098 97.1086 182.532C97.4872 184.831 96.1819 186.354 93.8502 186.603C91.648 186.832 89.9342 185.488 89.5456 183.199C88.8481 179.079 88.1804 174.968 87.4829 170.848C86.7456 166.489 85.9783 162.12 85.2011 157.621C79.7605 157.621 74.5391 157.691 69.3177 157.581C67.4743 157.541 66.8864 158.089 66.4579 159.403C63.7277 167.763 60.8978 176.093 58.0977 184.433C56.3839 189.529 54.67 194.624 52.9063 199.859C66.0593 199.869 78.9533 199.869 92.1662 199.869ZM72.0081 8.0355C72.0081 10.3047 71.9882 12.1459 72.0081 13.997C72.0779 19.3614 71.9483 24.7258 72.3071 30.0802C72.5661 34.0015 76.243 37.1365 81.1854 38.1915C86.2374 39.2663 90.6317 38.2114 93.9498 35.0465C97.258 31.8916 98.0154 28.2987 95.3947 24.5865C90.1036 17.0922 81.2253 12.7928 72.0081 8.0355ZM30.7952 16.4453C29.5895 18.9434 28.4635 21.0135 27.5866 23.1533C25.2549 28.8262 22.983 34.519 24.0891 40.6298C24.8264 44.7302 27.9852 47.6363 32.788 48.5719C37.9596 49.587 42.3838 48.4525 45.682 45.1682C48.9902 41.8739 49.7276 38.0024 46.8578 34.4792C41.9055 28.4281 36.3852 22.6756 30.7952 16.4453ZM138.162 16.5051C132.702 22.5462 127.41 28.1893 122.438 34.0015C119.449 37.5048 119.977 41.7445 123.176 45.0885C126.185 48.2235 131.376 49.6069 136.299 48.5619C141.959 47.3676 145.366 43.4763 145.247 38.1616C145.087 30.6575 141.929 23.7604 138.162 16.5051ZM68.0921 144.802C68.0921 147.141 68.0921 149.251 68.0921 151.47C79.0829 151.47 89.9043 151.47 100.855 151.47C100.855 149.191 100.855 147.032 100.855 144.802C89.8744 144.802 79.1028 144.802 68.0921 144.802ZM96.8395 19.3714C97.1883 15.3307 97.5271 11.29 97.8758 7.24927C95.1057 8.86157 92.3456 10.4838 89.5755 12.0961C90.8509 13.0416 92.2658 14.2359 93.7206 15.7287C94.9463 16.9827 95.9726 18.2268 96.8395 19.3714ZM19.0172 37.5545C19.1766 36.201 19.4855 34.5389 20.0535 32.7076C20.6812 30.6972 21.4485 29.075 22.1261 27.8608C18.2997 27.9703 14.4833 28.0897 10.657 28.1992C13.457 31.3143 16.2371 34.4294 19.0172 37.5545ZM147.678 27.8608C148.047 28.9655 148.396 30.1797 148.714 31.4935C149.243 33.7029 149.561 35.7431 149.751 37.5545C152.611 34.4195 155.48 31.2944 158.34 28.1594C154.783 28.0598 151.236 27.9603 147.678 27.8608Z" fill="#333333"/>
<path d="M51.6109 88.9088C51.571 91.5559 48.6913 93.0885 46.26 91.954C43.1511 90.511 40.2016 88.8192 37.3318 87.0876C35.7076 86.1123 35.6379 84.6395 36.7041 83.3059C37.7304 82.0122 39.524 81.4848 41.0884 82.2212C44.4066 83.7736 47.5354 85.5849 50.6443 87.3961C51.2721 87.7643 51.4415 88.6301 51.6109 88.9088Z" fill="#333333"/>
</svg>
