<svg width="36" height="36" viewBox="0 0 36 36" fill="none" xmlns="http://www.w3.org/2000/svg">
<path d="M17.8681 19.627C17.7526 19.6105 17.6041 19.6105 17.4721 19.627C14.5681 19.528 12.2581 17.152 12.2581 14.2315C12.2581 11.245 14.6671 8.81952 17.6701 8.81952C20.6566 8.81952 23.0821 11.245 23.0821 14.2315C23.0656 17.152 20.7721 19.528 17.8681 19.627Z" stroke="#333333" stroke-width="2" stroke-linecap="round" stroke-linejoin="round"/>
<path d="M28.7911 30.517C25.8541 33.2065 21.9601 34.84 17.6701 34.84C13.3801 34.84 9.48607 33.2065 6.54907 30.517C6.71407 28.966 7.70407 27.448 9.46957 26.2601C13.9906 23.2571 21.3826 23.2571 25.8706 26.2601C27.6361 27.448 28.6261 28.966 28.7911 30.517Z" stroke="#333333" stroke-width="2" stroke-linecap="round" stroke-linejoin="round"/>
<path d="M17.67 34.8398C26.7827 34.8398 34.17 27.4525 34.17 18.3399C34.17 9.22728 26.7827 1.84003 17.67 1.84003C8.55734 1.84003 1.17004 9.22728 1.17004 18.3399C1.17004 27.4525 8.55734 34.8398 17.67 34.8398Z" stroke="#333333" stroke-width="2" stroke-linecap="round" stroke-linejoin="round"/>
</svg>
