<svg width="77" height="81" viewBox="0 0 77 81" fill="none" xmlns="http://www.w3.org/2000/svg">
<path d="M66.3574 45.7039C67.6229 44.6763 68.8725 43.7238 70.0585 42.6846C72.2612 40.7507 74.2203 38.5685 75.5864 35.8263C77.5297 31.9238 77.4873 28.0444 75.3482 24.2631C73.1667 20.401 70.318 17.2778 66.5162 15.3092C62.5239 13.2367 58.3673 13.0116 54.1049 14.0796C53.872 14.1373 53.639 14.195 53.406 14.2528C53.316 13.1848 53.2577 12.1572 53.1307 11.1411C52.6541 7.33676 50.785 4.62347 47.6928 2.81076C44.4682 0.917224 41.0953 -0.214277 37.41 0.0339603C34.7891 0.212922 32.2687 0.876813 29.9548 2.27387C26.3489 4.45028 24.5275 7.89097 24.0827 12.2784C24.0139 12.9539 23.9927 13.6351 23.9503 14.3913C23.7809 14.3336 23.6221 14.2816 23.4632 14.2239C20.4557 13.0924 17.3846 12.4689 14.1918 12.8153C9.26752 13.3464 5.56107 16.0308 2.88714 20.4991C1.72225 22.4446 0.77446 24.5056 0.29792 26.7859C-0.565155 30.9251 0.462059 34.4928 3.18365 37.4485C4.17381 38.5281 5.36516 39.3883 6.4665 40.3466C6.60417 40.462 6.75773 40.5544 6.91657 40.6641C6.35001 41.6513 5.77816 42.598 5.25926 43.5737C4.04672 45.8655 3.11482 48.2786 2.81301 50.9226C2.33646 55.0792 3.70786 58.4217 6.63065 61.0715C11.2055 65.2281 16.3733 66.0824 22.0071 64.3736C22.1289 64.339 22.2507 64.3044 22.4201 64.2582C22.4625 65.0779 22.4784 65.8746 22.5472 66.6655C22.8331 70.0831 23.7862 73.2294 25.9571 75.7752C28.8852 79.2102 32.5334 81.0229 36.8594 80.9998C39.258 80.9882 41.2965 79.851 43.0862 78.1768C45.273 76.1332 46.782 73.5469 48.0581 70.7759C48.1217 70.6373 48.1905 70.493 48.2593 70.3602C48.2752 70.3313 48.307 70.3198 48.3493 70.2909C48.9477 70.7124 49.5354 71.1627 50.1549 71.5668C52.6223 73.1716 55.2698 74.0549 58.1767 73.8759C60.3688 73.7432 62.3915 72.9985 64.2659 71.7746C66.781 70.1235 68.8672 67.9587 70.4821 65.2973C72.9019 61.3024 72.9125 57.1228 71.1122 52.8566C70.0321 50.2992 68.4648 48.1112 66.691 46.0907C66.5798 45.9637 66.4739 45.8367 66.3627 45.7039H66.3574ZM37.3465 6.84029C38.3949 6.99038 39.4592 7.05966 40.4917 7.30212C43.6739 8.04106 45.8184 10.027 46.5755 13.5773C46.9144 15.1764 46.9621 16.8044 46.7873 18.4324C46.6232 19.9276 47.1527 21.0764 48.2011 21.9481C49.2389 22.8141 50.372 22.8256 51.5634 22.2656C52.8447 21.6653 54.1261 21.0476 55.4551 20.5973C57.7849 19.8006 60.1623 19.587 62.4974 20.5742C65.0442 21.6537 67.2046 23.3625 68.9042 25.7063C71.0169 28.6275 71.0487 31.5543 69.0684 34.5909C68.0571 36.1381 66.781 37.4024 65.309 38.3838C63.3657 39.6827 61.3643 40.8661 59.384 42.09C58.1238 42.8694 57.6102 44.1567 57.9649 45.6866C58.182 46.6218 58.648 47.3723 59.3257 47.9842C59.7705 48.3825 60.2312 48.7693 60.6706 49.1734C62.3809 50.7552 63.9482 52.4813 65.0337 54.652C66.6751 57.9252 66.2885 60.933 63.8317 63.5308C63.1328 64.2697 62.3544 64.9394 61.5337 65.5109C58.7592 67.4449 55.9476 67.4218 53.1518 65.5225C51.7063 64.5411 50.4938 63.2768 49.3607 61.9028C48.7041 61.1062 47.8887 60.7078 46.9091 60.8637C45.5642 61.0773 44.6164 61.897 44.0975 63.271C43.9175 63.7559 43.7851 64.264 43.6263 64.7604C42.9115 66.9946 42.1331 69.1941 40.8517 71.1396C39.3215 73.4603 37.373 74.5341 34.6937 73.8413C31.2891 72.9638 29.2188 70.5449 28.7899 66.7521C28.5199 64.3852 28.8428 62.0818 29.3035 59.7784C29.4253 59.1664 29.4465 58.4679 29.2982 57.8733C28.7952 55.8239 26.6772 54.8598 24.8452 55.7662C23.7809 56.2973 22.7325 56.8746 21.6418 57.3422C19.5344 58.2428 17.3688 58.8431 15.0655 58.5256C11.4014 58.0234 8.64272 54.0747 9.25693 50.1779C9.51638 48.5384 10.2206 47.0952 11.1366 45.7962C12.0156 44.5493 12.9475 43.3427 13.9059 42.1651C15.6373 40.0175 15.1396 37.4601 12.7781 36.2997C11.2902 35.5666 9.78112 34.8449 8.39385 33.9155C6.45061 32.6108 5.75169 30.5556 6.34472 28.1483C7.29781 24.292 9.63287 21.7172 12.9528 20.2105C15.4467 19.079 17.983 19.3676 20.4928 20.2393C22.5578 20.961 24.4375 22.0867 26.2907 23.2875C27.7044 24.1996 29.3247 23.8301 30.3254 22.41C30.9979 21.4574 31.1567 20.401 30.8867 19.2348C30.3943 17.1046 30.0872 14.9513 30.336 12.7403C30.6643 9.83645 32.1628 7.89674 34.7202 7.23285C35.5727 7.01347 36.4622 6.96729 37.3518 6.83451L37.3465 6.84029Z" fill="#EF94B4"/>
<path d="M27.0001 41.0242C27.0271 47.6629 32.4342 53.043 39.0296 52.9997C45.679 52.9565 51.0536 47.544 50.9996 40.954C50.9402 34.3207 45.5872 28.9892 38.9917 29C32.3585 29.0108 26.9731 34.4125 27.0001 41.0188V41.0242Z" fill="#333333" fill-opacity="0.9"/>
</svg>
