<svg width="107" height="84" viewBox="0 0 107 84" fill="none" xmlns="http://www.w3.org/2000/svg">
<path d="M55.4706 62.2558C55.4706 62.1375 55.4902 62.0389 55.5098 61.9206C55.6471 60.3435 55.6274 58.8453 55.5098 57.4062C54.6863 57.7413 53.9412 58.0962 53.1569 58.3722C47.8824 60.2253 43.3725 58.6876 40.098 53.9169C38.5098 51.6104 37.4118 49.0673 36.7843 46.3468C36.4706 45.0063 36.8627 44.4938 38.2353 44.5332C40.7843 44.5923 43.3137 44.7895 45.8431 45.0063C46.2353 45.0457 46.5882 45.164 46.9412 45.302C47.5098 45.5189 47.8431 45.9328 47.7255 46.5834C47.6078 47.2537 47.1569 47.6085 46.4314 47.5297C45.1373 47.3719 43.8431 47.1551 42.549 46.9382C41.6471 46.7805 40.7451 46.8988 39.8431 46.8791C39.549 46.8791 39.3922 46.9382 39.5098 47.2931C40.5098 50.5064 41.9608 53.424 44.7843 55.4348C47.3333 57.2485 51.0784 57.2485 53.6667 55.5137C53.5686 55.2377 53.2745 55.1983 53.0588 55.08C50.3333 53.7198 47.6078 52.3595 44.8627 51.019C44.4902 50.8416 44.1569 50.605 43.902 50.2896C43.6078 49.8953 43.4706 49.4616 43.7843 49.0279C44.098 48.5942 44.549 48.4168 45.0392 48.6139C45.7451 48.8899 46.4314 49.225 47.1176 49.5602C49.0392 50.4867 50.9608 51.4527 52.902 52.3792C53.1373 52.4975 53.3922 52.6946 53.8039 52.4975C52.7451 51.5315 51.8627 50.467 50.7451 49.639C49.9804 49.0673 49.8039 48.5745 50.1569 47.9436C50.549 47.2734 51.1961 47.1157 51.8627 47.5888C52.6863 48.1802 53.4902 48.811 54.3922 49.501C54.4706 48.9293 54.3529 48.4562 54.2157 48.0225C53.1765 44.3755 51.7255 40.9059 49.7843 37.6334C49.4118 37.0223 49.0196 36.8843 48.3529 37.1603C46.8039 37.7714 45.1961 38.2839 43.5098 38.3234C40.7059 38.3825 38.2549 37.3771 36.0392 35.7212C32.6471 33.1584 30.1569 29.8268 28.0784 26.16C27.3922 24.9378 26.7255 23.6761 26.098 22.4341C25.3725 21.0148 25.8039 20.2656 27.3922 20.2853C28.9412 20.2853 30.4902 20.3248 32.0392 20.4036C32.7255 20.4431 32.8431 20.1474 32.8431 19.5757C32.8039 17.2692 32.7843 14.9824 32.7647 12.6759C32.7647 10.7242 33.3725 10.2905 35.1569 11.0002C37.4118 11.8873 39.6667 12.7941 41.9216 13.701C42.2745 13.839 42.3922 13.7798 42.4902 13.4053C42.9216 11.9465 43.3922 10.4876 43.8627 9.02884C43.9608 8.73313 44.0392 8.43743 44.1961 8.16143C44.6078 7.41231 45.2353 7.27432 45.9216 7.78688C46.6667 8.35857 47.2157 9.10769 47.8235 9.81738C50.7255 13.1687 53.3137 16.7566 54.7843 20.995C55.9804 24.3858 56.2549 27.816 54.6471 31.187C54 32.5078 53.1373 33.6907 51.9804 34.6172C51.3922 35.0706 51.2941 35.4255 51.6863 36.1351C53.8039 39.8413 55.3725 43.7841 56.7451 47.8056C56.7451 47.8451 56.7843 47.8845 56.8824 48.0422C57.1373 47.0171 57.3725 46.1103 57.6078 45.1837C58.7059 40.551 60.3333 36.1154 62.5098 31.8967C62.9412 31.0687 63.3725 30.2408 63.902 29.4719C64.2745 28.9397 64.1373 28.6834 63.6667 28.3285C61.7451 26.8697 60.2941 25.0363 59.5686 22.6904C58.6274 19.6151 59.0588 16.5792 59.9608 13.5827C61.1373 9.6991 63.2549 6.32806 65.549 3.05559C66.0784 2.30647 66.5882 1.57707 67.1569 0.867373C67.8431 0.0196846 68.3922 0.0985394 68.8431 1.08422C69.549 2.6416 70.2549 4.2187 70.9412 5.79579C71.3726 6.78148 71.3726 6.80119 72.3529 6.30835C74.3333 5.30295 76.2941 4.29755 78.2745 3.27244C78.5294 3.13445 78.7843 3.01616 79.0588 2.9176C80.0392 2.56275 80.6667 2.9176 80.7647 3.96242C81 6.26892 81.1765 8.57542 81.3725 10.8819C81.4902 12.3999 81.4706 12.3999 82.9412 12.1633C84.2745 11.9465 85.6078 11.7099 86.9608 11.5325C88.3137 11.3551 88.8627 12.0253 88.4118 13.3067C86.8431 17.624 84.8824 21.7244 82 25.3321C81.7843 25.5883 81.5686 25.8446 81.3333 26.0812C80.8235 26.5937 80.3333 26.6332 79.8039 26.2389C79.2941 25.8446 79.1569 25.3321 79.5294 24.7209C80.1961 23.6367 80.9216 22.5918 81.6275 21.547C83.0588 19.3982 84.4118 17.21 85.3529 14.7852C85.4118 14.6078 85.549 14.4501 85.4706 14.1938C83.0784 14.5092 80.6863 14.8838 78.3333 15.4555C74.8431 16.3032 71.4706 17.4663 68.4118 19.3588C66.7843 20.3839 65.1765 21.4879 64.4706 23.4592C63.9412 24.9181 64.1569 25.8052 65.4706 26.6529C67.2549 27.816 69.098 28.8608 71.3333 28.8214C72.5882 28.8017 73.7647 28.3482 74.9412 27.9934C75.2549 27.8948 75.5686 27.7568 75.8824 27.678C76.7255 27.4611 77.2549 27.678 77.5098 28.2891C77.7647 28.9199 77.5098 29.4128 76.7451 29.8465C75.7843 30.3788 74.7451 30.7533 73.6667 30.9702C71.4706 31.4236 69.3529 31.2067 67.3137 30.3196C66.6078 30.0042 66.2549 30.1422 65.8824 30.7533C64.6667 32.6853 63.7059 34.7355 62.8235 36.8251C61.7255 39.447 60.6863 42.0887 60.1176 44.888C60.0392 45.2429 60.0196 45.5977 59.9412 46.0906C60.7255 45.5583 61.3922 45.0852 62.0784 44.6712C64.451 43.1926 67.0588 42.4435 69.8039 42.0887C71.6078 41.8521 73.4118 41.8521 75.2157 41.9507C76.7059 42.0295 77.0588 42.5421 76.6667 43.9812C75.8431 47.1157 74.5882 50.0333 72.5098 52.5369C70.1765 55.3363 67.2745 56.8542 63.5882 56.5782C62.0196 56.46 60.5098 55.9868 59.0784 55.3363C58.9608 55.2771 58.6078 55.0011 58.3529 55.1391C58.098 55.2771 58.1176 55.7305 58.1176 55.9277C58.1373 57.7216 57.902 59.5156 57.902 61.3292C57.902 61.8221 57.902 61.8418 57.902 62.2163C57.902 65.5874 58.1961 79.0715 58.2549 82.1863C58.0196 83.172 57.1373 83.8423 56.1765 83.8028C55.2745 83.7634 54.5098 83.0931 54.2941 82.1863C54.6863 75.5625 55.0784 68.9387 55.4706 62.2952V62.2558ZM45.7843 10.9016C45.5882 11.5325 45.451 12.0056 45.2941 12.4787C43.5686 17.762 42.3725 23.1241 42.7451 28.7425C42.8824 30.8519 43.1961 32.8824 44.9216 34.3806C45.9412 35.2677 47 35.3663 48.098 34.5778C48.4902 34.3018 48.8431 33.9864 49.2549 33.7301C52.9608 31.463 54.1176 27.3034 53.0588 23.2818C51.8039 18.4914 48.9216 14.6867 45.7647 10.8819L45.7843 10.9016ZM42.8039 35.8197C42.3137 35.0115 41.8235 34.3018 41.4706 33.5329C40.1961 30.7139 40.2745 27.7174 40.3922 24.7209C40.3922 24.3069 40.5098 23.9718 39.902 23.8535C36.4706 23.1635 33 22.6707 29.4902 22.7298C28.9216 22.7298 28.9608 22.927 29.1961 23.3015C30.3529 25.1743 31.4314 27.0866 32.7255 28.8805C34.4314 31.2264 36.3922 33.2767 38.9412 34.6961C40.098 35.3466 41.3529 35.7803 42.8039 35.8592V35.8197ZM62.1373 22.4539C62.3333 22.4539 62.3529 22.2961 62.4118 22.1976C63.2353 20.5022 64.451 19.1617 66 18.0971C67.4902 17.0523 69.1176 16.2638 70.7647 15.5344C71.6078 15.1598 71.6667 14.9627 71.3726 14.0953C70.9608 12.8336 70.549 11.5522 70.1569 10.2708C69.5098 8.18115 68.6863 6.17035 67.6471 4.13984C67.098 4.98753 66.5686 5.75637 66.0784 6.54491C64.098 9.63996 62.3725 12.8336 61.7059 16.5003C61.3333 18.5308 61.3333 20.5022 62.1373 22.4341V22.4539ZM59.902 49.8756C60.1961 50.0333 60.4118 49.8756 60.6078 49.777C62.0196 49.087 63.4118 48.3773 64.8235 47.6874C65.8627 47.1748 66.9216 46.682 68 46.2088C68.549 45.9723 69.098 46.0708 69.549 46.4257C69.8627 46.6623 69.8235 47.096 69.7255 47.4311C69.6078 47.9436 69.1569 48.1605 68.7255 48.3773C66.4902 49.4813 64.2353 50.5656 62 51.6695C61.2353 52.0441 60.4902 52.4384 59.6863 52.8523C60.3726 53.3255 61.0588 53.5423 61.7255 53.7592C64.6863 54.7054 67.3529 54.2323 69.6667 52.0835C71.8431 50.053 73.0588 47.4508 74 44.6909C74.1765 44.1783 73.7843 44.2572 73.5294 44.2572C70.098 44.1586 66.8039 44.7303 63.7451 46.406C62.1961 47.2537 60.8235 48.3379 59.8627 49.8953L59.902 49.8756ZM35.2941 13.563C35.2941 15.7906 35.2941 17.9394 35.2941 20.0882C35.2941 20.4825 35.5294 20.6796 35.9216 20.7388C37.3529 20.9753 38.7843 21.2119 40.1961 21.4682C40.5098 21.5273 40.6667 21.4682 40.7255 21.1133C41 19.5559 41.2941 18.0183 41.6274 16.4806C41.7059 16.1258 41.5686 16.0272 41.2941 15.9089C39.3137 15.1401 37.3137 14.3515 35.2745 13.563H35.2941ZM79.1569 12.045C78.9804 10.1131 78.8039 8.26 78.6863 6.3872C78.6471 5.83522 78.5294 5.79579 78.0784 6.03236C76.3333 6.93919 74.5686 7.84602 72.7843 8.71342C72.4314 8.89084 72.3726 9.06826 72.4902 9.44282C72.9216 10.8622 73.3333 12.2816 73.7451 13.701C73.8431 14.0755 74 14.2135 74.3922 14.0953C75.7451 13.701 77.098 13.3264 78.451 12.9519C78.9804 12.8139 79.1569 12.4393 79.1765 12.0253L79.1569 12.045Z" fill="#333333" stroke="#333333" stroke-width="0.25" stroke-miterlimit="10"/>
<path d="M28.9412 53.4438C30.9412 53.2664 32.5882 55.08 32.1765 57.0514C31.9608 58.0568 31.6667 59.0031 31.2745 59.9099C30.4118 61.901 29.2353 63.5963 27.7451 64.9763C26.2549 66.3563 24.5294 67.4208 22.549 68.1502C20.5686 68.8993 18.4706 69.2542 16.2353 69.2542C13.8039 69.2542 11.5882 68.8402 9.62745 68.0122C7.64706 67.1842 5.98039 66.0211 4.58824 64.5229C3.19608 63.0444 2.13725 61.2701 1.37255 59.2199C0.627451 57.1697 0.254902 54.942 0.254902 52.5173C0.254902 50.0925 0.647059 48.0028 1.45098 45.9723C2.23529 43.9418 3.35294 42.1676 4.76471 40.6693C6.17647 39.1514 7.86275 37.9686 9.82353 37.1012C11.7843 36.2337 13.9216 35.8 16.2549 35.8C17.8627 35.8 19.3922 35.9578 20.8627 36.2732C22.3333 36.5886 23.7451 37.1209 25.0784 37.8897C26.4118 38.6388 27.6667 39.6442 28.8235 40.8862C28.9216 40.9847 29.0196 41.0833 29.098 41.2016C30.6863 42.9955 29.6275 45.854 27.2549 46.2089C25.7647 46.4257 24.2941 45.5386 23.9216 44.0601C23.8431 43.7447 23.7451 43.4292 23.6275 43.1138C23.2549 42.0493 22.7255 41.1425 22.0588 40.3736C21.3922 39.6048 20.5882 39.0134 19.6471 38.5797C18.7059 38.146 17.6471 37.9291 16.4706 37.9291C15.2157 37.9291 14.0784 38.146 13.0588 38.56C12.0392 38.974 11.1569 39.5654 10.3725 40.2948C9.58823 41.0242 8.90196 41.8719 8.33333 42.8378C7.76471 43.8038 7.29412 44.8289 6.94118 45.9132C6.56863 46.9974 6.31373 48.1014 6.13725 49.2251C5.96078 50.3685 5.88235 51.4527 5.88235 52.5173C5.88235 53.6409 5.96078 54.7843 6.11765 55.9474C6.27451 57.1105 6.52941 58.2342 6.86274 59.3185C7.21569 60.4027 7.64706 61.4278 8.19608 62.3741C8.7451 63.3203 9.41176 64.1483 10.1961 64.858C10.9804 65.5677 11.902 66.1197 12.9216 66.5337C13.9608 66.9477 15.1373 67.1448 16.4706 67.1448C17.9804 67.1448 19.3333 66.8294 20.549 66.1986C21.7451 65.5677 22.7647 64.7397 23.6078 63.7146C24.451 62.6895 25.0784 61.5067 25.5294 60.1859C25.9804 58.8651 26.1961 57.5245 26.1961 56.1446V55.8489C25.1373 56.0066 24.0588 56.2234 22.9608 56.4797C22.2157 56.6571 21.4706 56.8937 20.7451 57.15C20.3725 57.288 20.098 57.3865 19.7451 57.5245C18.5098 58.0568 17.4706 58.7665 16.9804 59.1016C16.2941 59.5747 16.0588 59.7916 15.5882 59.8705C15.3922 59.9099 14.7647 60.0085 14.2745 59.6536C13.7059 59.2396 13.6667 58.5102 13.6471 58.1159C13.5882 57.1105 14.0588 56.3811 14.2157 56.1249C14.9216 55.0209 16 54.6463 16.3529 54.528C20.5686 54.1732 24.7843 53.8184 29 53.4635L28.9412 53.4438Z" fill="#333333" stroke="#FCE6FB" stroke-width="0.25" stroke-miterlimit="10"/>
<path d="M103.353 54.2323C103.216 54.3112 103.078 54.3506 102.157 54.3309C101.196 54.3112 100.529 54.2323 100.059 54.1929C99.3137 54.1535 98.5294 54.1338 97.7255 54.114C96.9216 54.114 96.1373 54.0746 95.3922 54.0746C94.6471 54.0746 93.9412 54.0549 93.2941 54.0352C92.7843 54.0352 92.2353 54.0352 91.6667 54.0352C90.9412 54.0352 89.9412 54.0352 88.7059 54.0943C88.6078 54.114 88.3922 54.1929 88.2157 54.4097C87.9216 54.7252 87.9412 55.1194 87.9608 55.218C87.9608 56.9725 87.9804 58.727 88 60.4618C88.098 64.6806 88.1176 66.3365 88.098 66.9279C88.098 67.0265 88.098 67.4602 88.098 68.0319C88.098 68.4065 88.098 68.781 88.1373 69.1556L84.7647 69.2147C83.7647 69.2147 82.9412 68.4262 82.9412 67.4405L82.4902 37.6531C82.4902 36.628 83.2941 35.8 84.2941 35.8197L104.863 35.9775C105.863 35.9775 106.667 36.8054 106.647 37.8108C106.686 38.0474 107.118 40.3342 106.118 40.9256C105.863 41.0833 105.549 41.103 104.314 40.8073C102.882 40.4722 102.078 40.0976 101.255 39.8808C100.157 39.6048 98.9804 39.3682 97.7647 39.1711C96.549 38.9739 95.3725 38.7965 94.2157 38.6388C93.0588 38.5008 91.9804 38.3628 90.9804 38.284C89.9608 38.1854 89.098 38.1262 88.3922 38.0671C88.3137 40.3736 88.2353 42.6604 88.1961 44.9275C88.1569 47.2143 88.1176 49.501 88.098 51.7878H88.1765C88.8039 51.7878 89.549 51.7878 90.3922 51.7681C91.2353 51.7681 92.1373 51.7287 93.098 51.6893C94.0588 51.6498 95.0392 51.6301 96.0392 51.5907C97.0392 51.5513 98.0196 51.5118 98.9804 51.4527C99.8823 51.3936 100.784 51.3541 101.667 51.295C103.137 51.1964 103.412 51.1373 103.667 51.3738C104.353 51.9652 104.176 53.7395 103.373 54.2126L103.353 54.2323Z" fill="#333333" stroke="#FCE6FB" stroke-width="0.25" stroke-miterlimit="10"/>
</svg>
