<svg width="58" height="71" viewBox="0 0 58 71" fill="none" xmlns="http://www.w3.org/2000/svg">
<path d="M39.06 0.540012C39.92 2.44001 40.73 4.23001 41.57 6.07001C43.79 4.94001 45.91 3.85001 48.05 2.78001C48.38 2.62001 48.76 2.43001 49.1 2.45001C49.91 2.50001 50.07 3.14001 50.12 3.81001C50.3 5.94001 50.49 8.07001 50.67 10.19C50.69 10.47 50.75 10.75 50.81 11.14C52.27 10.9 53.65 10.68 55.04 10.46C55.27 10.42 55.49 10.37 55.72 10.35C56.9 10.21 57.44 10.85 57.04 11.95C56.62 13.08 56.16 14.21 55.66 15.31C54.5 17.9 53.14 20.37 51.38 22.61C51.17 22.88 50.94 23.15 50.72 23.41C50.26 23.95 49.7 24.12 49.13 23.63C48.57 23.15 48.69 22.62 49.09 22.02C50.34 20.19 51.59 18.35 52.73 16.45C53.39 15.35 53.85 14.12 54.48 12.76C53.83 12.85 53.37 12.91 52.91 12.97C48.23 13.65 43.67 14.79 39.49 17.06C38.36 17.67 37.32 18.49 36.38 19.37C35.84 19.87 35.46 20.63 35.2 21.34C34.76 22.59 35.12 23.43 36.24 24.11C38.05 25.22 39.92 26.27 42.15 25.95C43.25 25.8 44.32 25.41 45.37 25.04C46.2 24.74 46.8 24.81 47.07 25.45C47.39 26.22 46.95 26.65 46.33 26.97C43.73 28.28 41.05 28.55 38.29 27.54C37.88 27.39 37.49 27.22 37.09 27.06C35.22 28.94 31.08 39.06 31.16 41.62C31.61 41.3 32.02 40.99 32.44 40.7C35.65 38.54 39.27 37.85 43.05 37.78C43.83 37.76 44.61 37.81 45.38 37.88C46.25 37.96 46.64 38.48 46.44 39.3C45.74 42.1 44.67 44.73 42.88 47.03C39.79 51.01 35.6 52.11 30.93 50.21C30.54 50.05 30.14 49.88 29.62 49.67C29.54 50.5 29.44 51.23 29.4 51.97C29.32 53.18 29.29 54.39 29.2 55.6C29.15 56.27 29.34 56.51 30.05 56.5C32.53 56.46 35.01 56.48 37.5 56.48C38.96 56.48 39.24 56.75 39.24 58.17C39.24 60.51 39.14 62.85 39.27 65.18C39.4 67.59 38.54 69.26 36.26 70.15C30.83 70.15 25.4 70.15 19.97 70.15C19.8 70.04 19.64 69.92 19.47 69.84C17.9 69.1 17.1 67.87 17.09 66.14C17.08 63.43 17.08 60.71 17.09 58C17.09 56.82 17.45 56.48 18.67 56.48C21.1 56.48 23.52 56.48 25.95 56.48C26.29 56.48 26.63 56.48 27.06 56.48C27.06 54.9 27.06 53.42 27.06 51.83C26.7 51.99 26.37 52.14 26.04 52.28C20.66 54.65 16.03 53.27 12.83 48.35C11.53 46.35 10.61 44.18 10.05 41.86C9.77 40.71 10.14 40.13 11.3 40.17C13.66 40.26 16.01 40.46 18.36 40.63C18.64 40.65 18.92 40.76 19.2 40.85C19.86 41.05 20.16 41.51 19.99 42.17C19.81 42.85 19.28 43.01 18.63 42.9C17.47 42.7 16.31 42.45 15.13 42.33C14.28 42.24 13.41 42.31 12.52 42.31C12.51 42.33 12.45 42.38 12.46 42.42C13.28 45.14 14.49 47.64 16.67 49.55C19.05 51.63 22.72 51.86 25.54 50.08C25.23 49.91 24.96 49.76 24.68 49.62C22.19 48.4 19.69 47.21 17.22 45.95C16.84 45.75 16.41 45.32 16.32 44.93C16.13 44.06 17.06 43.55 17.98 43.99C20.19 45.05 22.39 46.13 24.6 47.2C24.85 47.32 25.11 47.42 25.36 47.53C25.42 47.46 25.48 47.39 25.53 47.33C24.76 46.59 24 45.84 23.22 45.11C23.03 44.93 22.79 44.81 22.59 44.65C22.1 44.25 21.92 43.75 22.29 43.21C22.68 42.64 23.25 42.55 23.81 42.94C24.61 43.5 25.36 44.13 26.11 44.72C26.36 43.14 23.15 35.35 21.41 33.29C20.05 33.69 18.76 34.23 17.42 34.44C13.58 35.02 10.51 33.35 7.79 30.86C4.87 28.19 2.82 24.88 0.980001 21.43C0.750001 21 0.540001 20.55 0.320001 20.11C-0.279999 18.87 0.190002 18.18 1.59 18.23C2.86 18.28 4.13 18.34 5.4 18.38C5.71 18.39 6.02 18.38 6.43 18.38C6.45 18 6.48 17.66 6.47 17.33C6.46 15.19 6.44 13.06 6.44 10.92C6.44 9.73001 7.08 9.30001 8.19 9.73001C10.47 10.61 12.75 11.51 15.14 12.45C15.54 11.16 15.93 9.93001 16.31 8.70001C16.41 8.37001 16.51 8.04001 16.62 7.71001C17.02 6.55001 17.85 6.34001 18.69 7.23001C20.98 9.69001 23.09 12.28 24.74 15.22C26.04 17.53 27.04 19.94 27.26 22.62C27.56 26.21 26.37 29.2 23.59 31.52C23.48 31.61 23.38 31.71 23.28 31.81C23.26 31.83 23.26 31.86 23.26 31.86C24.22 33.75 25.26 35.58 26.09 37.5C26.93 39.41 27.56 41.4 28.35 43.53C29.67 37.26 31.67 31.4 35.04 26.05C34.95 25.94 34.9 25.84 34.81 25.78C30.76 22.86 29.68 18.84 30.65 14.15C31.53 9.84001 33.78 6.18001 36.27 2.64001C36.42 2.43001 36.81 1.86001 37.65 0.760011C37.81 0.560011 38.16 0.110011 38.48 0.170011C38.57 0.190011 38.83 0.290011 39 0.520011C39.05 0.520011 39.06 0.530012 39.06 0.540012ZM18.24 9.83001C17.87 11.01 17.57 11.93 17.29 12.87C15.96 17.26 15.14 21.73 15.5 26.34C15.62 27.85 15.9 29.35 16.94 30.53C18.03 31.76 19.11 32.2 20.55 31.09C20.8 30.9 21.04 30.68 21.31 30.52C24.61 28.57 25.83 25 24.92 21.23C24.1 17.81 22.25 14.93 20.16 12.18C19.6 11.43 18.98 10.72 18.24 9.83001ZM37.12 63.03C31.12 63.03 25.23 63.03 19.34 63.03C19.3 63.18 19.26 63.26 19.26 63.34C19.25 64.21 19.25 65.07 19.25 65.94C19.26 67.41 19.82 67.99 21.29 68.01C23.14 68.03 24.98 68.02 26.83 68.02C29.6 68.02 32.37 68.03 35.14 68.01C36.34 68 37.06 67.43 37.11 66.4C37.16 65.3 37.12 64.21 37.12 63.03ZM33.17 20.45C34.18 18.06 35.92 16.63 37.93 15.49C38.95 14.91 40.03 14.41 41.11 13.93C41.6 13.71 41.78 13.49 41.6 12.96C40.96 11.05 40.4 9.11001 39.71 7.21001C39.3 6.06001 38.72 4.97001 38.14 3.68001C37.28 5.01001 36.52 6.12001 35.83 7.28001C34.24 9.95001 32.94 12.74 32.58 15.87C32.39 17.37 32.52 18.84 33.17 20.45ZM15.59 32.35C13.02 29.09 13.18 25.39 13.35 21.63C9.95 20.86 6.55 20.43 2.86 20.47C3.84 22.07 4.68 23.54 5.62 24.95C7.19 27.29 9 29.42 11.42 30.93C12.64 31.69 13.95 32.25 15.59 32.35ZM30.86 45.37C32.13 44.76 33.23 44.22 34.33 43.69C35.73 43.01 37.11 42.28 38.54 41.68C38.9 41.53 39.51 41.67 39.85 41.9C40.06 42.05 40.12 42.66 40 42.98C39.9 43.27 39.5 43.52 39.18 43.68C36.7 44.91 34.21 46.11 31.72 47.32C31.46 47.45 31.21 47.6 30.88 47.79C34.66 49.72 37.9 49.25 40.36 46.68C41.79 45.2 42.74 43.43 43.49 41.54C43.68 41.05 43.84 40.54 44.02 40.01C39.11 39.62 33.21 41.39 30.86 45.37ZM19.31 58.69C19.29 58.97 19.26 59.2 19.25 59.42C19.21 60.83 19.21 60.82 20.62 60.82C25.52 60.82 30.42 60.81 35.33 60.82C37.33 60.82 37.33 60.83 37.07 58.82C37.07 58.79 37.04 58.77 36.99 58.69C31.14 58.69 25.25 58.69 19.31 58.69ZM48.09 5.17001C46.12 6.18001 44.28 7.11001 42.39 8.07001C42.87 9.69001 43.33 11.25 43.81 12.83C45.33 12.41 46.78 12.04 48.2 11.6C48.39 11.54 48.6 11.15 48.58 10.92C48.51 9.68001 48.38 8.45001 48.27 7.22001C48.22 6.58001 48.16 5.93001 48.09 5.17001ZM13.58 19.43C13.9 17.78 14.22 16.18 14.55 14.5C12.61 13.74 10.67 12.99 8.68 12.21C8.68 14.3 8.67 16.23 8.7 18.15C8.7 18.32 8.89 18.62 9.04 18.65C10.53 18.92 12.02 19.16 13.58 19.43Z" fill="#333333"/>
</svg>
