<svg width="183" height="206" viewBox="0 0 183 206" fill="none" xmlns="http://www.w3.org/2000/svg">
<path d="M85.1335 205.978C72.3531 206.187 59.7022 204.952 47.2804 201.527C35.9842 198.41 25.2359 193.919 15.7028 186.441C9.7559 181.771 4.86483 176.125 1.83658 168.717C0.541598 165.56 0.113311 162.275 0.0834266 158.909C0.013697 150.276 -0.0361584 141.633 0.0335711 133C0.0534939 129.973 0.143187 126.876 0.760792 123.948C1.96612 118.183 5.0143 113.453 8.73985 109.231C9.59653 108.266 10.4133 107.24 11.3298 106.354C12.7244 104.99 12.7144 101.524 11.3796 100.15C10.0149 98.7363 8.73985 97.2228 7.49468 95.6794C4.37678 91.806 1.79675 87.5342 0.74085 82.456C0.212898 79.8969 0.0834168 77.1985 0.0734555 74.5597C0.0535328 64.8314 0.143149 55.093 0.222839 45.3646C0.272646 39.7984 2.62358 35.1683 5.44265 30.7671C9.62642 24.2151 15.394 19.6447 21.6299 15.7314C30.7246 10.0358 40.5564 6.44114 50.7569 3.97171C60.1704 1.69146 69.7133 0.52646 79.336 0.128164C95.324 -0.529024 111.063 1.333 126.493 5.90344C136.435 8.84088 145.878 13.0728 154.275 19.7144C158.718 23.2293 162.743 27.2422 165.811 32.2507C168.799 37.1498 170.343 42.5467 170.313 48.4614C170.293 53.2709 170.383 58.0902 170.383 62.8997C170.383 63.6365 170.592 64.1543 171.1 64.6322C175.812 69.1031 179.438 74.4104 181.669 80.803C182.486 83.143 182.944 85.5527 182.944 88.052C182.954 97.3223 182.815 106.603 182.994 115.873C183.143 123.789 180.504 130.441 175.941 136.335C174.397 138.337 172.624 140.119 171.01 142.061C170.682 142.459 170.433 143.087 170.423 143.614C170.333 148.852 170.323 154.09 170.253 159.327C170.154 166.387 167.534 172.351 163.42 177.629C158.499 183.932 152.353 188.512 145.679 192.306C136.624 197.454 126.951 200.67 117 202.96C109.001 204.803 100.902 205.729 92.734 205.958C90.2038 206.037 87.6637 205.978 85.1335 205.978ZM85.2232 6.95893C72.3033 6.62038 59.6623 8.29322 47.2505 11.9376C38.355 14.5465 29.838 18.1411 22.0382 23.548C17.4859 26.7045 13.3221 30.3787 10.1643 35.218C4.54611 43.8312 4.67559 52.9024 10.3934 61.2965C13.2523 65.4985 16.8484 68.9936 20.8429 71.8912C29.2204 77.9552 38.5143 81.7391 48.1868 84.4973C57.68 87.1957 67.3425 88.6993 77.1445 89.2071C85.6316 89.6452 94.1087 89.4361 102.556 88.4404C109.668 87.6039 116.681 86.1303 123.584 84.0591C132.878 81.2711 141.794 77.5071 149.793 71.5227C154.275 68.1671 158.25 64.214 161.169 59.1557C165.143 52.295 165.313 45.2651 161.776 38.1256C158.868 32.2607 154.455 27.9791 149.424 24.3745C141.395 18.6091 132.57 14.8154 123.325 12.097C110.834 8.41274 98.1231 6.5208 85.2232 6.95893ZM171.05 73.5441C170.901 73.6537 170.751 73.7731 170.602 73.8826C170.542 74.3905 170.433 74.8983 170.433 75.4062C170.413 80.7234 168.889 85.5726 166.508 90.1232C163.768 95.3707 159.704 99.3039 155.441 102.988C149.733 107.917 143.178 111.253 136.484 114.17C124.282 119.488 111.471 121.917 98.4319 123.052C88.1419 123.948 77.8418 123.819 67.5717 122.644C59.0248 121.668 50.5975 120.015 42.3793 117.257C40.7058 116.699 39.0224 116.192 37.3389 115.654C37.6178 116.112 37.9665 116.371 38.345 116.56C42.22 118.462 46.0153 120.603 49.9998 122.186C61.2063 126.637 72.7914 129.395 84.6952 130.142C97.2366 130.929 109.768 130.949 122.22 128.678C133.237 126.677 143.936 123.54 154.006 118.193C160.491 114.748 166.378 110.406 171.12 104.402C173.511 101.365 175.533 98.0592 176.32 94.0763C177.774 86.7078 175.772 80.3251 171.538 74.5896C171.329 74.2909 171.22 73.9026 171.05 73.5441ZM12.1964 114.778C9.9053 117.904 8.0226 120.931 6.95673 124.486C5.65179 128.848 5.69166 133.179 7.16594 137.491C8.27165 140.717 9.93522 143.575 11.9773 146.163C15.9618 151.212 20.9226 154.876 26.2519 157.993C37.05 164.296 48.655 167.9 60.6883 170.011C72.5822 172.102 84.5458 172.64 96.5592 171.684C110.814 170.559 124.68 167.532 137.859 161.348C140.08 160.303 142.242 159.108 144.424 157.993C144.264 157.754 144.174 157.704 144.095 157.724C143.617 157.843 143.148 157.953 142.68 158.112C129.422 162.523 115.815 164.485 101.988 164.953C91.9571 165.292 81.9857 164.505 72.0742 162.822C60.7282 160.9 49.7408 157.714 39.381 152.118C32.3881 148.344 25.8335 143.993 20.5938 137.58C16.3204 132.362 13.2523 126.527 12.6148 119.418C12.4853 117.974 12.3558 116.54 12.1964 114.778ZM107.248 137.222C107.248 144.271 107.248 151.082 107.248 158.062C109.559 157.833 111.681 157.624 113.772 157.425C113.772 150.475 113.772 143.734 113.772 136.853C111.521 136.973 109.36 137.102 107.248 137.222ZM113.753 196.797C113.753 189.946 113.753 183.175 113.753 176.344C113.364 176.344 112.976 176.295 112.607 176.354C111.163 176.583 109.728 176.892 108.284 177.081C107.467 177.191 107.228 177.569 107.228 178.445C107.218 183.892 107.148 189.339 107.108 194.785C107.098 195.801 107.108 196.817 107.108 197.992C109.399 197.583 111.531 197.195 113.753 196.797ZM81.8762 178.814C81.8762 185.804 81.8762 192.704 81.8762 199.505C84.0677 199.505 86.1595 199.505 88.3809 199.505C88.3112 192.515 88.7595 185.684 88.2415 178.814C86.0201 178.814 83.988 178.814 81.8762 178.814ZM44.1325 90.4318C44.0329 91.2384 43.9234 91.796 43.9134 92.3436C43.8537 98.1787 43.8138 104.014 43.744 109.859C43.7341 110.476 43.9532 110.715 44.4812 110.864C45.7662 111.233 47.0313 111.681 48.3163 112.079C50.3186 112.707 50.3983 112.697 50.4281 110.377C50.4979 105.179 50.478 99.971 50.4979 94.7733C50.4979 93.9368 50.4979 93.0905 50.4979 92.2242C48.3562 91.6068 46.324 91.0392 44.1325 90.4318ZM88.371 158.062C88.371 156.151 88.381 154.488 88.371 152.835C88.3212 148.025 88.2713 143.226 88.1916 138.427C88.1817 138.058 87.9028 137.421 87.6936 137.391C85.781 137.112 83.8585 136.943 81.8562 136.734C81.8562 143.694 81.8562 150.465 81.8562 157.415C83.978 157.624 86.0898 157.833 88.371 158.062ZM107.148 94.6239C107.098 94.9326 107.068 95.0322 107.068 95.1318C107.068 101.524 107.078 107.917 107.058 114.32C107.058 115.086 107.357 115.236 107.955 115.126C109.648 114.827 111.352 114.559 113.035 114.2C113.284 114.15 113.613 113.712 113.653 113.414C113.743 112.647 113.703 111.86 113.703 111.083C113.703 105.716 113.693 100.339 113.703 94.9724C113.703 94.1559 113.583 93.5784 112.627 93.7377C110.804 94.0663 108.981 94.3352 107.148 94.6239ZM132.301 153.96C134.432 153.373 136.335 152.815 138.247 152.327C138.905 152.158 139.104 151.819 139.104 151.082C139.074 146.522 139.104 141.951 139.084 137.391C139.074 136.017 139.054 134.633 138.895 133.269C138.766 132.153 138.327 131.904 137.321 132.163C135.996 132.502 134.691 132.96 133.356 133.239C132.589 133.398 132.47 133.806 132.46 134.543C132.43 140.557 132.36 146.572 132.301 152.586C132.301 152.934 132.301 153.283 132.301 153.96ZM50.3584 195.283C50.4381 194.975 50.4879 194.875 50.4879 194.766C50.4879 188.333 50.4978 181.901 50.458 175.468C50.458 175.189 50.0895 174.731 49.8105 174.652C48.1769 174.194 46.5332 173.815 44.8797 173.427C44.5808 173.357 44.262 173.417 43.8735 173.417C43.8735 173.964 43.8735 174.423 43.8735 174.881C43.8835 180.108 43.8835 185.346 43.8935 190.573C43.9034 193.332 43.9035 193.352 46.344 194.128C47.6788 194.556 49.0136 194.905 50.3584 195.283ZM88.3112 96.3963C86.0499 96.3963 83.978 96.3963 81.9857 96.3963C81.9857 103.297 81.9857 110.098 81.9857 116.928C84.1971 116.928 86.2292 116.928 88.3112 116.928C88.3112 110.058 88.3112 103.257 88.3112 96.3963ZM94.6566 199.336C96.7983 199.167 98.8503 198.997 101.002 198.828C101.002 198.29 101.002 197.942 101.002 197.593C101.002 192.963 101.022 188.323 100.992 183.693C100.982 182.07 100.902 180.447 100.783 178.824C100.763 178.555 100.404 178.077 100.215 178.087C98.3722 178.137 96.5393 178.276 94.6566 178.386C94.6566 185.346 94.6566 192.196 94.6566 199.336ZM94.6865 95.9084C94.6865 102.938 94.6865 109.809 94.6865 116.769C95.9615 116.66 97.1569 116.59 98.3423 116.461C100.853 116.182 100.902 116.172 100.932 113.404C100.992 107.678 100.992 101.963 101.012 96.237C101.012 96.008 100.942 95.779 100.892 95.4603C98.8005 95.6097 96.7684 95.7491 94.6865 95.9084ZM138.875 85.5627C136.753 86.4787 134.761 87.3152 132.809 88.2213C132.619 88.3109 132.51 88.7988 132.5 89.1075C132.46 90.5513 132.46 92.0051 132.46 93.4589C132.46 97.9497 132.46 102.44 132.48 106.931C132.49 108.126 132.679 108.266 133.705 107.867C135.289 107.25 136.853 106.553 138.447 105.936C138.955 105.736 139.114 105.428 139.114 104.84C139.084 99.5031 139.084 94.1659 139.064 88.8287C139.034 87.8031 138.935 86.7874 138.875 85.5627ZM94.6466 158.122C96.7983 158.122 98.8503 158.122 100.932 158.122C100.932 151.192 100.932 144.361 100.932 137.57C98.7906 137.57 96.7385 137.57 94.6466 137.57C94.6466 144.481 94.6466 151.252 94.6466 158.122ZM56.5245 176.205C56.5245 176.763 56.5245 177.181 56.5245 177.599C56.5245 182.976 56.5345 188.363 56.5345 193.74C56.5345 196.797 56.5344 196.797 59.3137 197.305C60.4791 197.514 61.6546 197.743 62.9197 197.982C62.9197 195.313 62.9197 192.804 62.9197 190.295C62.9197 186.262 62.9396 182.229 62.9097 178.186C62.9097 177.838 62.6806 177.24 62.4913 177.201C60.5688 176.822 58.6463 176.543 56.5245 176.205ZM44.0528 127.015C43.9731 127.404 43.9233 127.543 43.9233 127.683C43.9134 133.906 43.8935 140.129 43.9134 146.353C43.9134 146.631 44.2222 147.04 44.4812 147.159C45.9953 147.896 47.5194 148.583 49.0634 149.24C50.1592 149.708 50.3086 149.619 50.3186 148.314C50.3983 142.3 50.4381 136.296 50.4779 130.281C50.4779 130.022 50.3186 129.594 50.1393 129.525C48.157 128.668 46.1646 127.872 44.0528 127.015ZM132.679 191.181C134.751 190.245 136.644 189.408 138.497 188.512C138.716 188.403 138.875 187.895 138.875 187.566C138.945 182.02 138.985 176.474 139.015 170.918C139.015 170.161 138.885 169.404 138.785 168.368C136.644 169.245 134.671 170.021 132.729 170.858C132.579 170.918 132.48 171.326 132.48 171.575C132.46 177.619 132.44 183.663 132.45 189.707C132.46 190.105 132.57 190.504 132.679 191.181ZM56.6938 131.735C56.6042 131.984 56.5544 132.044 56.5544 132.113C56.5444 138.546 56.5345 144.988 56.5444 151.421C56.5444 151.65 56.7137 152.028 56.8731 152.078C58.8255 152.686 60.788 153.253 62.8998 153.87C62.8998 153.044 62.8998 152.456 62.8998 151.859C62.8998 146.024 62.9197 140.189 62.8898 134.354C62.8898 133.985 62.6706 133.348 62.4415 133.279C60.5588 132.701 58.6363 132.233 56.6938 131.735ZM25.0964 184.908C25.1562 184.579 25.206 184.45 25.206 184.31C25.2159 178.186 25.2259 172.063 25.196 165.939C25.196 165.59 24.8573 165.122 24.5584 164.933C22.9248 163.917 21.2513 162.972 19.5877 162.016C19.2889 161.846 18.9701 161.727 18.4223 161.468C18.4223 166.387 18.4123 171.057 18.4223 175.727C18.4223 177.24 18.0438 179.023 18.6315 180.198C19.2292 181.383 20.803 181.99 21.9785 182.817C22.9746 183.534 24.0006 184.181 25.0964 184.908ZM62.8599 115.325C62.8997 114.808 62.9197 114.598 62.9197 114.399C62.9197 109.52 62.9296 104.641 62.9097 99.7619C62.9097 98.5969 62.8798 97.4219 62.7902 96.2669C62.6806 94.7832 62.2821 94.3949 60.9274 94.2057C59.8715 94.0564 58.7957 93.9568 57.7497 93.6979C56.9528 93.4987 56.654 93.7277 56.654 94.5841C56.6739 100.877 56.6739 107.17 56.7138 113.463C56.7138 113.702 56.9329 114.13 57.1023 114.16C58.975 114.569 60.8477 114.927 62.8599 115.325ZM69.4145 116.271C71.5761 116.451 73.5982 116.62 75.6901 116.789C75.6901 109.849 75.6901 102.938 75.6901 95.9981C73.5684 95.7989 71.5163 95.6097 69.4145 95.4105C69.4145 102.411 69.4145 109.331 69.4145 116.271ZM69.3547 188.462C69.3547 191.509 69.3945 194.556 69.3348 197.593C69.3149 198.519 69.6137 198.868 70.4007 198.918C71.8251 199.007 73.2496 199.097 74.6741 199.236C75.5009 199.316 75.7997 199.057 75.7898 198.081C75.73 193.76 75.7698 189.448 75.7399 185.127C75.73 183.255 75.6304 181.383 75.5806 179.501C75.5607 178.764 75.2419 178.425 74.5645 178.396C73.14 178.326 71.7056 178.246 70.2811 178.097C69.5041 178.017 69.3448 178.346 69.3547 179.112C69.3647 182.239 69.3547 185.356 69.3547 188.462ZM69.3846 134.852C69.3846 135.539 69.3846 136.166 69.3846 136.793C69.4244 142.668 69.4942 148.543 69.4942 154.418C69.4942 155.314 69.7432 155.663 70.5501 155.752C71.616 155.872 72.6619 156.121 73.7278 156.3C75.6005 156.609 75.6503 156.599 75.6503 154.558C75.6503 148.573 75.6204 142.599 75.5905 136.614C75.5905 136.385 75.5307 136.146 75.4909 135.887C73.4588 135.539 71.4765 135.2 69.3846 134.852ZM24.8972 102.002C24.9569 101.524 25.0267 101.186 25.0366 100.847C25.1064 94.9426 25.1661 89.0279 25.206 83.1231C25.206 82.8742 25.1063 82.4958 24.9469 82.3962C22.9547 81.1615 20.9325 79.9666 18.751 78.6522C18.6813 79.3791 18.5816 79.8869 18.5816 80.3948C18.5816 85.8813 18.5817 91.3678 18.6315 96.8444C18.6315 97.2825 18.9204 97.8601 19.2491 98.119C20.7034 99.2442 22.2176 100.28 23.7217 101.335C24.0504 101.574 24.429 101.743 24.8972 102.002ZM145.469 149.758C147.502 148.862 149.345 148.085 151.148 147.209C151.377 147.099 151.526 146.512 151.526 146.144C151.526 140.209 151.506 134.264 151.476 128.33C151.476 127.971 151.406 127.603 151.357 127.115C149.354 127.921 147.492 128.638 145.659 129.455C145.39 129.574 145.151 130.152 145.151 130.52C145.161 136.286 145.211 142.041 145.27 147.806C145.29 148.364 145.39 148.912 145.469 149.758ZM126.075 145.646C126.085 145.646 126.095 145.646 126.105 145.646C126.105 142.4 126.105 139.143 126.105 135.897C126.105 135.111 125.816 134.842 125.079 134.991C123.744 135.26 122.389 135.489 121.044 135.678C120.357 135.778 120.068 136.057 120.068 136.883C120.048 142.18 119.968 147.488 119.929 152.785C119.919 153.592 119.949 154.418 120.058 155.215C120.227 156.38 120.586 156.659 121.672 156.459C122.887 156.24 124.082 155.902 125.298 155.703C125.905 155.603 126.095 155.324 126.095 154.667C126.055 151.65 126.075 148.653 126.075 145.646ZM126.005 173.048C124.232 173.526 122.578 174.014 120.905 174.413C120.128 174.592 119.879 174.95 119.879 175.836C119.919 180.825 119.889 185.814 119.899 190.802C119.899 191.858 119.939 192.923 120.058 193.979C120.198 195.114 120.437 195.243 121.433 194.935C122.777 194.527 124.112 194.078 125.467 193.73C126.105 193.561 126.284 193.232 126.274 192.555C126.204 186.431 126.164 180.317 126.105 174.193C126.115 173.855 126.055 173.516 126.005 173.048ZM31.5713 85.6921C31.5115 86.3095 31.4218 86.7875 31.4218 87.2754C31.382 92.3935 31.4617 97.5215 31.2725 102.64C31.1928 104.94 31.6809 106.314 33.8823 106.862C35.1474 107.17 36.3228 107.897 37.6577 108.495C37.6577 107.25 37.6577 106.194 37.6577 105.129C37.6577 99.7918 37.6676 94.4546 37.6377 89.1274C37.6377 88.7391 37.3787 88.1317 37.0998 88.0022C35.3367 87.1957 33.5337 86.4987 31.5713 85.6921ZM119.919 112.607C120.397 112.497 120.706 112.448 121.014 112.358C122.389 111.94 123.754 111.462 125.138 111.103C125.885 110.914 126.115 110.546 126.115 109.729C126.134 104.81 126.204 99.9013 126.234 94.9824C126.244 93.8871 126.194 92.7918 126.085 91.6964C125.975 90.5613 125.636 90.3621 124.65 90.6808C123.345 91.1089 122.05 91.577 120.735 91.9354C120.078 92.1147 119.889 92.4333 119.899 93.1701C119.929 98.7961 119.919 104.422 119.929 110.038C119.919 110.854 119.919 111.661 119.919 112.607ZM31.4916 168.508C31.4119 168.807 31.3621 168.906 31.3621 169.006C31.3322 175.259 31.2923 181.512 31.3023 187.775C31.3023 188.074 31.641 188.522 31.9299 188.652C33.2946 189.309 34.6991 189.876 36.0837 190.474C37.4086 191.051 37.5381 191.022 37.5381 189.458C37.5481 183.484 37.5082 177.509 37.4584 171.545C37.4584 171.266 37.2393 170.828 37.0301 170.738C35.2171 169.972 33.3842 169.265 31.4916 168.508ZM145.21 184.997C147.203 183.553 148.996 182.239 150.819 180.974C151.387 180.576 151.556 180.108 151.556 179.401C151.516 173.745 151.506 168.09 151.486 162.434C151.486 162.075 151.426 161.717 151.397 161.259C149.345 162.583 147.442 163.778 145.569 165.053C145.32 165.222 145.171 165.75 145.171 166.118C145.141 172.053 145.151 177.997 145.141 183.932C145.141 184.161 145.171 184.4 145.21 184.997ZM145.37 102.172C147.512 100.658 149.384 99.3537 151.227 97.9796C151.446 97.8203 151.526 97.3025 151.526 96.944C151.526 91.328 151.506 85.712 151.496 80.0861C151.496 79.6778 151.456 79.2696 151.416 78.6622C149.464 79.8571 147.671 80.9723 145.858 82.0477C145.34 82.3564 145.131 82.7248 145.131 83.382C145.181 88.6495 145.191 93.907 145.23 99.1745C145.24 100.041 145.31 100.917 145.37 102.172ZM157.961 143.276C158.051 143.345 158.14 143.425 158.22 143.495C160.192 142.031 162.175 140.587 164.117 139.094C164.306 138.944 164.366 138.476 164.366 138.148C164.326 132.601 164.277 127.045 164.217 121.499C164.217 121.091 164.167 120.692 164.127 120.145C163.699 120.354 163.4 120.473 163.131 120.643C161.716 121.509 160.332 122.425 158.887 123.241C158.2 123.63 157.941 124.098 157.941 124.964C157.981 129.983 157.951 135.001 157.951 140.02C157.961 141.115 157.961 142.2 157.961 143.276ZM31.5015 120.025C31.4418 120.513 31.382 120.742 31.382 120.981C31.3422 126.737 31.2923 132.502 31.2923 138.257C31.2923 138.636 31.5514 139.143 31.8403 139.353C33.5237 140.617 35.247 141.812 36.9604 143.027C37.1297 143.146 37.3588 143.186 37.5481 143.266C37.5979 143.126 37.6477 143.067 37.6477 143.007C37.6576 136.823 37.6676 130.64 37.6577 124.456C37.6577 124.187 37.4983 123.809 37.2991 123.68C35.4263 122.475 33.5436 121.31 31.5015 120.025ZM18.6713 108.315C17.0078 115.445 20.7732 130.172 24.8972 132.303C24.9868 131.685 25.1362 131.118 25.1362 130.55C25.1761 125.671 25.196 120.792 25.186 115.913C25.186 115.534 25.0267 115.066 24.7976 114.808C23.0045 112.816 21.1716 110.855 19.3487 108.893C19.1594 108.674 18.9203 108.515 18.6713 108.315ZM157.971 91.2085C164.297 84.4674 164.765 76.0534 164.247 67.0519C163.559 67.6593 163.011 68.0775 162.533 68.5753C161.248 69.9295 160.013 71.3335 158.718 72.6778C158.18 73.2254 157.951 73.793 157.961 74.6095C158.001 79.17 157.981 83.7405 157.981 88.3009C157.971 89.2469 157.971 90.1829 157.971 91.2085ZM6.07015 149.439C6.02035 149.748 5.97058 149.917 5.98054 150.077C6.07019 153.641 6.04032 157.226 6.30928 160.781C6.44874 162.643 6.82723 164.605 7.57433 166.267C8.67008 168.727 10.1842 170.967 11.529 173.297C11.6984 173.596 11.9673 173.835 12.2462 174.174C12.3159 173.895 12.3657 173.795 12.3657 173.706C12.3558 168.119 12.3558 162.533 12.3159 156.947C12.3159 156.579 12.0869 156.141 11.8478 155.862C10.7022 154.518 9.51681 153.203 8.3314 151.899C7.63411 151.092 6.89695 150.326 6.07015 149.439ZM176.659 108.644C176.39 108.753 176.28 108.763 176.22 108.823C174.377 110.815 172.534 112.816 170.712 114.827C170.532 115.027 170.413 115.385 170.413 115.674C170.423 120.842 170.453 126.01 170.492 131.178C170.492 131.576 170.602 131.964 170.682 132.502C171.001 132.243 171.22 132.143 171.349 131.964C173.79 128.429 176.081 124.755 176.529 120.254C176.828 117.247 176.629 114.18 176.649 111.133C176.669 110.347 176.659 109.54 176.659 108.644ZM157.991 173.686C158.101 173.755 158.21 173.825 158.32 173.905C158.419 173.686 158.489 173.437 158.629 173.257C161.976 168.956 164.157 164.127 164.247 158.381C164.286 155.474 164.257 152.566 164.257 149.748C162.344 151.72 160.461 153.602 158.658 155.563C158.3 155.952 158.031 156.639 158.031 157.196C157.981 162.035 158.011 166.885 158.011 171.724C157.991 172.371 157.991 173.028 157.991 173.686ZM11.8876 90.9994C11.9573 90.9696 12.037 90.9397 12.1067 90.9098C12.1466 90.6011 12.2064 90.2825 12.2064 89.9738C12.2761 84.7064 12.3458 79.4289 12.3657 74.1615C12.3657 73.7731 12.0769 73.3151 11.8079 73.0164C10.2639 71.2937 8.69004 69.6109 7.11615 67.9182C6.78742 67.5597 6.45869 67.2112 6.05027 66.773C6.05027 68.9139 5.99051 70.8556 6.06024 72.7973C6.1499 75.2668 6.17976 77.7661 6.53837 80.1957C7.0464 83.6409 8.99885 86.3891 10.6724 89.2469C11.0409 89.8643 11.4792 90.4219 11.8876 90.9994Z" fill="#333333"/>
<path d="M85.0376 12.9446C93.1063 13.1736 101.155 13.5022 109.124 14.9958C118.886 16.828 128.439 19.4069 137.434 24.067C142.276 26.5762 146.808 29.5933 150.554 33.8452C153.183 36.8324 155.275 40.1482 155.883 44.3602C156.62 49.5181 155.345 54.0886 152.476 58.201C149.348 62.6918 145.234 65.8881 140.771 68.5766C134.297 72.4799 127.344 75.009 120.201 76.9408C113.378 78.7928 106.474 80.1968 99.4617 80.7445C82.368 82.0688 65.3539 81.7004 48.569 77.3789C39.7034 75.0986 31.1367 71.9919 23.3867 66.6149C20.3884 64.5338 17.6291 62.1341 15.3081 59.1668C9.87915 52.2066 9.52052 44.3402 14.292 36.8224C15.8958 34.2932 17.898 32.1823 20.1294 30.3203C25.4288 25.9091 31.4057 22.9319 37.6614 20.552C47.9017 16.6587 58.4806 14.4681 69.2688 13.5719C74.5085 13.1238 79.778 13.1338 85.0376 12.9446ZM84.8484 74.8298C94.9492 74.9194 107.959 73.3163 117.99 70.7174C124.933 68.925 131.677 66.5353 137.962 62.7913C141.897 60.4414 145.394 57.5338 148.153 53.5708C150.812 49.7272 149.906 43.0359 147.655 40.1582C144.367 35.9362 140.333 32.8593 135.831 30.4596C127.443 25.9887 118.518 23.3501 109.333 21.8465C103.366 20.8707 97.3399 20.2433 91.3232 19.8251C84.2806 19.3372 77.2179 19.3272 70.1952 20.1935C64.6865 20.8706 59.168 21.6274 53.7091 22.6929C45.491 24.296 37.5518 26.9347 30.1107 31.1467C26.4548 33.2178 23.0481 35.6773 20.3386 39.1226C16.1249 44.4697 16.1349 49.9363 20.3386 55.2635C22.7691 58.3404 25.7476 60.6604 28.985 62.6121C37.7909 67.9194 47.3737 70.6875 57.2056 72.5296C66.3302 74.2323 75.5644 74.9393 84.8484 74.8298Z" fill="#333333"/>
</svg>
