<svg width="1879" height="694" viewBox="0 0 1879 694" fill="none" xmlns="http://www.w3.org/2000/svg">
<path d="M1752.11 81.3015C1749.72 79.496 1747.36 77.8223 1745.12 75.9966C1740.96 72.5986 1737.26 68.7644 1734.68 63.9464C1731.01 57.0896 1731.09 50.2734 1735.13 43.6295C1739.25 36.8437 1744.63 31.3562 1751.81 27.8974C1759.35 24.256 1767.2 23.8604 1775.25 25.7369C1775.69 25.8383 1776.13 25.9398 1776.57 26.0412C1776.74 24.1647 1776.85 22.3592 1777.09 20.574C1777.99 13.8896 1781.52 9.12231 1787.36 5.93734C1793.45 2.61036 1799.82 0.62229 1806.78 1.05845C1811.73 1.37289 1816.49 2.53936 1820.86 4.99402C1827.67 8.81801 1831.11 14.8634 1831.95 22.5722C1832.08 23.759 1832.12 24.9559 1832.2 26.2846C1832.52 26.1832 1832.82 26.0919 1833.12 25.9905C1838.8 24.0024 1844.6 22.9069 1850.63 23.5155C1859.93 24.4487 1866.93 29.1653 1871.98 37.0162C1874.18 40.4344 1875.97 44.0556 1876.87 48.0621C1878.5 55.3348 1876.56 61.6033 1871.42 66.7967C1869.55 68.6934 1867.3 70.2048 1865.22 71.8886C1864.96 72.0914 1864.67 72.2537 1864.37 72.4464C1865.44 74.1809 1866.52 75.8444 1867.5 77.5586C1869.79 81.5855 1871.55 85.8253 1872.12 90.4709C1873.02 97.7741 1870.43 103.647 1864.91 108.303C1856.27 115.606 1846.51 117.107 1835.87 114.105C1835.64 114.044 1835.41 113.983 1835.09 113.902C1835.01 115.342 1834.98 116.742 1834.85 118.132C1834.31 124.136 1832.51 129.664 1828.41 134.137C1822.88 140.173 1815.99 143.358 1807.82 143.317C1803.29 143.297 1799.44 141.299 1796.06 138.357C1791.93 134.766 1789.08 130.222 1786.67 125.353C1786.55 125.11 1786.42 124.856 1786.29 124.623C1786.26 124.572 1786.2 124.552 1786.12 124.501C1784.99 125.242 1783.88 126.033 1782.71 126.743C1778.05 129.563 1773.05 131.115 1767.56 130.8C1763.42 130.567 1759.6 129.259 1756.06 127.108C1751.31 124.207 1747.37 120.404 1744.32 115.728C1739.75 108.708 1739.73 101.365 1743.13 93.8689C1745.17 89.3755 1748.13 85.5312 1751.48 81.9811C1751.69 81.7579 1751.89 81.5348 1752.1 81.3015H1752.11ZM1806.9 13.0173C1804.92 13.281 1802.91 13.4027 1800.96 13.8288C1794.95 15.1271 1790.9 18.6164 1789.47 24.8544C1788.83 27.6641 1788.74 30.5245 1789.07 33.3849C1789.38 36.012 1788.38 38.0305 1786.4 39.5621C1784.44 41.0836 1782.3 41.1039 1780.05 40.12C1777.63 39.0651 1775.21 37.9798 1772.7 37.1886C1768.3 35.7888 1763.81 35.4135 1759.4 37.148C1754.59 39.0448 1750.51 42.0472 1747.3 46.1653C1743.31 51.2978 1743.25 56.4404 1746.99 61.7758C1748.9 64.4941 1751.31 66.7155 1754.09 68.4399C1757.76 70.7221 1761.54 72.8014 1765.28 74.9518C1767.66 76.3211 1768.63 78.5831 1767.96 81.271C1767.55 82.9142 1766.67 84.2329 1765.39 85.308C1764.55 86.0079 1763.68 86.6875 1762.85 87.3975C1759.62 90.1768 1756.66 93.2096 1754.61 97.0235C1751.51 102.775 1752.24 108.059 1756.88 112.624C1758.2 113.922 1759.67 115.099 1761.22 116.103C1766.46 119.501 1771.77 119.46 1777.05 116.123C1779.78 114.399 1782.07 112.177 1784.21 109.763C1785.45 108.364 1786.99 107.664 1788.84 107.938C1791.38 108.313 1793.17 109.753 1794.15 112.167C1794.49 113.019 1794.74 113.912 1795.04 114.784C1796.39 118.71 1797.86 122.574 1800.28 125.992C1803.17 130.07 1806.85 131.957 1811.91 130.74C1818.34 129.198 1822.25 124.948 1823.06 118.284C1823.57 114.125 1822.96 110.078 1822.09 106.031C1821.86 104.955 1821.82 103.728 1822.1 102.683C1823.05 99.0825 1827.05 97.3886 1830.51 98.9811C1832.52 99.9143 1834.5 100.929 1836.56 101.75C1840.54 103.333 1844.63 104.387 1848.98 103.83C1855.9 102.947 1861.11 96.0091 1859.95 89.1625C1859.46 86.2818 1858.13 83.746 1856.4 81.4638C1854.74 79.2728 1852.98 77.1529 1851.17 75.0837C1847.9 71.3104 1848.84 66.8169 1853.3 64.7782C1856.11 63.49 1858.96 62.2221 1861.58 60.589C1865.25 58.2966 1866.57 54.6857 1865.45 50.4559C1863.65 43.6803 1859.24 39.1564 1852.97 36.509C1848.26 34.5209 1843.47 35.0281 1838.73 36.5597C1834.83 37.8276 1831.28 39.8055 1827.78 41.9153C1825.11 43.518 1822.05 42.8688 1820.16 40.3736C1818.89 38.6999 1818.59 36.8437 1819.1 34.7948C1820.03 31.0519 1820.61 27.2685 1820.14 23.3837C1819.52 18.2816 1816.69 14.8735 1811.86 13.707C1810.25 13.3216 1808.57 13.2405 1806.89 13.0072L1806.9 13.0173Z" fill="#EF94B4"/>
<path d="M1827.7 72.2339C1827.65 84.6999 1817.64 94.8025 1805.43 94.7214C1793.12 94.6402 1783.17 84.4767 1783.27 72.102C1783.38 59.6461 1793.29 49.6348 1805.5 49.6551C1817.78 49.6753 1827.75 59.8186 1827.7 72.2237V72.2339Z" fill="#333333" fill-opacity="0.9"/>
<path d="M1857.95 363.364C1861.3 366.914 1864.25 370.759 1866.3 375.252C1869.71 382.748 1869.68 390.092 1865.11 397.111C1862.06 401.787 1858.12 405.6 1853.37 408.491C1849.83 410.642 1846.01 411.95 1841.87 412.183C1836.39 412.498 1831.39 410.936 1826.72 408.126C1825.55 407.426 1824.44 406.635 1823.31 405.885C1823.23 405.935 1823.17 405.956 1823.14 406.006C1823.01 406.25 1822.88 406.493 1822.76 406.737C1820.35 411.605 1817.49 416.149 1813.37 419.74C1809.99 422.682 1806.14 424.68 1801.61 424.7C1793.44 424.741 1786.55 421.546 1781.02 415.521C1776.92 411.047 1775.11 405.509 1774.58 399.515C1774.46 398.125 1774.42 396.725 1774.34 395.285C1774.02 395.366 1773.79 395.427 1773.56 395.488C1762.92 398.5 1753.16 396.989 1744.52 389.686C1739 385.03 1736.41 379.157 1737.31 371.854C1737.88 367.198 1739.64 362.958 1741.93 358.942C1742.91 357.227 1744 355.564 1745.06 353.83C1744.76 353.637 1744.46 353.474 1744.21 353.272C1742.13 351.588 1739.88 350.077 1738.01 348.18C1732.87 342.976 1730.93 336.708 1732.56 329.445C1733.46 325.439 1735.25 321.818 1737.45 318.399C1742.51 310.548 1749.5 305.832 1758.8 304.899C1764.83 304.29 1770.63 305.385 1776.31 307.374C1776.6 307.475 1776.9 307.566 1777.23 307.668C1777.32 306.339 1777.35 305.142 1777.48 303.955C1778.31 296.246 1781.76 290.201 1788.57 286.377C1792.94 283.922 1797.7 282.746 1802.65 282.442C1809.61 282.005 1815.99 283.993 1822.06 287.31C1827.89 290.485 1831.43 295.252 1832.33 301.947C1832.57 303.732 1832.67 305.548 1832.85 307.414C1833.3 307.313 1833.74 307.211 1834.17 307.11C1842.22 305.233 1850.07 305.629 1857.61 309.27C1864.79 312.729 1870.17 318.227 1874.29 325.002C1878.33 331.646 1878.41 338.473 1874.74 345.319C1872.16 350.127 1868.46 353.972 1864.3 357.369C1862.06 359.195 1859.7 360.869 1857.31 362.674C1857.52 362.908 1857.72 363.131 1857.93 363.354L1857.95 363.364ZM1797.58 295.1C1792.76 296.267 1789.92 299.675 1789.3 304.777C1788.83 308.662 1789.41 312.445 1790.34 316.188C1790.85 318.237 1790.55 320.093 1789.28 321.767C1787.39 324.262 1784.32 324.911 1781.66 323.309C1778.16 321.209 1774.61 319.221 1770.71 317.953C1765.97 316.411 1761.17 315.914 1756.47 317.902C1750.2 320.55 1745.79 325.073 1743.99 331.849C1742.87 336.079 1744.19 339.69 1747.86 341.982C1750.48 343.615 1753.33 344.883 1756.14 346.171C1760.6 348.21 1761.54 352.714 1758.27 356.477C1756.47 358.556 1754.7 360.666 1753.04 362.857C1751.31 365.139 1749.98 367.675 1749.49 370.556C1748.33 377.402 1753.55 384.34 1760.46 385.223C1764.81 385.781 1768.9 384.726 1772.88 383.143C1774.94 382.322 1776.91 381.307 1778.93 380.374C1782.4 378.772 1786.39 380.476 1787.34 384.077C1787.62 385.121 1787.58 386.349 1787.35 387.424C1786.48 391.471 1785.88 395.528 1786.38 399.677C1787.19 406.331 1791.11 410.581 1797.53 412.133C1802.59 413.35 1806.28 411.463 1809.16 407.386C1811.58 403.978 1813.05 400.103 1814.4 396.177C1814.7 395.305 1814.94 394.413 1815.29 393.56C1816.27 391.146 1818.06 389.706 1820.6 389.331C1822.45 389.057 1823.99 389.757 1825.23 391.157C1827.37 393.56 1829.66 395.792 1832.39 397.516C1837.67 400.853 1842.98 400.894 1848.22 397.496C1849.77 396.492 1851.24 395.315 1852.56 394.017C1857.19 389.452 1857.93 384.168 1854.83 378.417C1852.77 374.603 1849.82 371.57 1846.59 368.791C1845.76 368.071 1844.89 367.401 1844.05 366.701C1842.78 365.636 1841.89 364.307 1841.48 362.664C1840.8 359.986 1841.78 357.714 1844.16 356.345C1847.9 354.195 1851.69 352.115 1855.35 349.833C1858.13 348.109 1860.54 345.887 1862.45 343.169C1866.19 337.823 1866.13 332.691 1862.14 327.559C1858.94 323.44 1854.85 320.438 1850.04 318.541C1845.64 316.807 1841.14 317.192 1836.74 318.582C1834.23 319.373 1831.81 320.458 1829.39 321.513C1827.14 322.497 1825 322.477 1823.04 320.955C1821.06 319.424 1820.06 317.395 1820.37 314.778C1820.7 311.918 1820.61 309.057 1819.97 306.248C1818.55 300.01 1814.5 296.51 1808.48 295.222C1806.53 294.806 1804.53 294.674 1802.54 294.411C1800.86 294.634 1799.18 294.715 1797.57 295.11L1797.58 295.1Z" fill="#8D9FF6"/>
<path d="M1781.75 353.617C1781.8 366.083 1791.81 376.186 1804.02 376.105C1816.33 376.024 1826.28 365.86 1826.18 353.486C1826.07 341.03 1816.16 331.018 1803.95 331.039C1791.67 331.059 1781.7 341.202 1781.75 353.607V353.617Z" fill="#333333" fill-opacity="0.9"/>
<path d="M1752.83 631.053C1750.44 629.248 1748.08 627.574 1745.84 625.748C1741.68 622.35 1737.98 618.516 1735.4 613.698C1731.73 606.841 1731.81 600.025 1735.85 593.381C1739.97 586.596 1745.35 581.108 1752.53 577.649C1760.07 574.008 1767.92 573.612 1775.97 575.489C1776.41 575.59 1776.85 575.692 1777.29 575.793C1777.46 573.917 1777.57 572.111 1777.81 570.326C1778.71 563.641 1782.24 558.874 1788.08 555.689C1794.16 552.372 1800.54 550.384 1807.49 550.82C1812.44 551.135 1817.2 552.301 1821.57 554.756C1828.38 558.58 1831.82 564.625 1832.66 572.334C1832.79 573.521 1832.83 574.718 1832.91 576.047C1833.23 575.945 1833.53 575.854 1833.83 575.752C1839.51 573.764 1845.31 572.669 1851.34 573.278C1860.64 574.211 1867.64 578.927 1872.69 586.778C1874.89 590.196 1876.68 593.818 1877.58 597.824C1879.21 605.097 1877.27 611.365 1872.13 616.559C1870.26 618.455 1868.01 619.967 1865.93 621.651C1865.67 621.853 1865.38 622.016 1865.08 622.208C1866.15 623.943 1867.23 625.606 1868.21 627.321C1870.5 631.347 1872.26 635.587 1872.83 640.233C1873.73 647.536 1871.14 653.409 1865.62 658.065C1856.98 665.368 1847.22 666.869 1836.58 663.867C1836.35 663.806 1836.12 663.745 1835.8 663.664C1835.72 665.104 1835.69 666.504 1835.56 667.893C1835.02 673.898 1833.22 679.426 1829.12 683.899C1823.59 689.935 1816.7 693.12 1808.53 693.079C1804 693.059 1800.15 691.061 1796.77 688.119C1792.64 684.528 1789.79 679.984 1787.38 675.115C1787.26 674.872 1787.13 674.618 1787 674.385C1786.97 674.334 1786.91 674.314 1786.83 674.263C1785.7 675.004 1784.59 675.795 1783.42 676.505C1778.76 679.325 1773.76 680.877 1768.27 680.562C1764.13 680.329 1760.31 679.021 1756.77 676.87C1752.02 673.969 1748.08 670.166 1745.03 665.49C1740.46 658.47 1740.44 651.127 1743.84 643.631C1745.88 639.137 1748.84 635.293 1752.19 631.743C1752.4 631.52 1752.6 631.297 1752.81 631.063L1752.83 631.053ZM1807.61 562.769C1805.63 563.033 1803.62 563.155 1801.67 563.581C1795.66 564.879 1791.61 568.368 1790.18 574.606C1789.54 577.416 1789.45 580.276 1789.78 583.137C1790.09 585.764 1789.09 587.782 1787.11 589.314C1785.15 590.835 1783.01 590.856 1780.76 589.872C1778.34 588.817 1775.92 587.732 1773.41 586.94C1769.01 585.541 1764.52 585.165 1760.11 586.9C1755.3 588.797 1751.22 591.799 1748.01 595.917C1744.02 601.05 1743.96 606.192 1747.7 611.528C1749.61 614.246 1752.02 616.467 1754.8 618.192C1758.47 620.474 1762.25 622.553 1765.99 624.704C1768.37 626.073 1769.34 628.335 1768.67 631.023C1768.26 632.666 1767.38 633.985 1766.1 635.06C1765.26 635.76 1764.39 636.439 1763.56 637.149C1760.33 639.929 1757.37 642.961 1755.32 646.775C1752.22 652.526 1752.95 657.811 1757.59 662.376C1758.91 663.674 1760.38 664.85 1761.93 665.855C1767.17 669.253 1772.48 669.212 1777.76 665.875C1780.49 664.151 1782.78 661.929 1784.92 659.515C1786.16 658.115 1787.7 657.416 1789.55 657.689C1792.09 658.065 1793.88 659.505 1794.86 661.919C1795.2 662.771 1795.45 663.664 1795.75 664.536C1797.1 668.461 1798.57 672.326 1800.99 675.744C1803.88 679.822 1807.56 681.709 1812.62 680.491C1819.05 678.95 1822.96 674.7 1823.77 668.035C1824.28 663.877 1823.67 659.83 1822.8 655.782C1822.57 654.707 1822.53 653.48 1822.81 652.435C1823.76 648.834 1827.76 647.14 1831.22 648.733C1833.23 649.666 1835.21 650.68 1837.27 651.502C1841.25 653.084 1845.34 654.139 1849.69 653.581C1856.61 652.699 1861.82 645.761 1860.66 638.914C1860.17 636.034 1858.84 633.498 1857.11 631.216C1855.45 629.025 1853.69 626.905 1851.88 624.836C1848.61 621.062 1849.55 616.569 1854.01 614.53C1856.82 613.242 1859.67 611.974 1862.29 610.341C1865.96 608.048 1867.28 604.437 1866.16 600.208C1864.36 593.432 1859.95 588.908 1853.68 586.261C1848.97 584.273 1844.18 584.78 1839.44 586.312C1835.54 587.579 1831.99 589.557 1828.49 591.667C1825.82 593.27 1822.76 592.621 1820.87 590.125C1819.6 588.452 1819.3 586.596 1819.81 584.547C1820.74 580.804 1821.32 577.02 1820.85 573.136C1820.23 568.033 1817.4 564.625 1812.57 563.459C1810.96 563.073 1809.28 562.992 1807.6 562.759L1807.61 562.769Z" fill="#EF94B4"/>
<path d="M1828.41 621.986C1828.36 634.452 1818.35 644.555 1806.14 644.474C1793.83 644.392 1783.88 634.229 1783.98 621.854C1784.09 609.398 1794 599.387 1806.21 599.407C1818.49 599.428 1828.46 609.571 1828.41 621.976V621.986Z" fill="#333333" fill-opacity="0.9"/>
<path d="M20.1099 80.3088C17.7199 78.5033 15.3599 76.8297 13.1199 75.0039C8.95991 71.6059 5.25991 67.7718 2.67991 62.9537C-0.990095 56.0969 -0.910095 49.2807 3.12991 42.6369C7.24991 35.8511 12.6299 30.3636 19.8099 26.9047C27.3499 23.2633 35.1999 22.8677 43.2499 24.7442C43.6899 24.8457 44.1299 24.9471 44.5699 25.0485C44.7399 23.172 44.8499 21.3665 45.0899 19.5813C45.9899 12.8969 49.5199 8.12963 55.3599 4.94466C61.4499 1.61769 67.8199 -0.370386 74.7799 0.0657725C79.7299 0.380212 84.49 1.54668 88.86 4.00134C95.67 7.82534 99.11 13.8707 99.95 21.5795C100.08 22.7663 100.12 23.9632 100.2 25.292C100.52 25.1905 100.82 25.0992 101.12 24.9978C106.8 23.0097 112.6 21.9143 118.63 22.5229C127.93 23.456 134.93 28.1726 139.98 36.0235C142.18 39.4418 143.97 43.0629 144.87 47.0695C146.5 54.3421 144.56 60.6107 139.42 65.804C137.55 67.7008 135.3 69.2121 133.22 70.8959C132.96 71.0987 132.67 71.261 132.37 71.4538C133.44 73.1882 134.52 74.8517 135.5 76.5659C137.79 80.5928 139.55 84.8327 140.12 89.4783C141.02 96.7814 138.43 102.654 132.91 107.31C124.27 114.613 114.51 116.114 103.87 113.112C103.64 113.051 103.41 112.99 103.09 112.909C103.01 114.349 102.98 115.749 102.85 117.139C102.31 123.144 100.51 128.672 96.41 133.145C90.88 139.18 83.99 142.365 75.8199 142.324C71.2899 142.304 67.4399 140.306 64.0599 137.364C59.9299 133.774 57.0799 129.23 54.6699 124.361C54.5499 124.117 54.4199 123.864 54.2899 123.63C54.2599 123.58 54.1999 123.559 54.1199 123.509C52.9899 124.249 51.8799 125.04 50.7099 125.75C46.0499 128.57 41.0499 130.122 35.5599 129.808C31.4199 129.574 27.5999 128.266 24.0599 126.116C19.3099 123.215 15.3699 119.411 12.3199 114.735C7.74991 107.716 7.72991 100.372 11.1299 92.8762C13.1699 88.3828 16.1299 84.5385 19.4799 80.9884C19.6899 80.7652 19.8899 80.5421 20.0999 80.3088H20.1099ZM74.8999 12.0246C72.9199 12.2884 70.9099 12.4101 68.9599 12.8361C62.9499 14.1344 58.8999 17.6237 57.4699 23.8618C56.8299 26.6714 56.7399 29.5318 57.0699 32.3922C57.3799 35.0193 56.3799 37.0378 54.3999 38.5694C52.4399 40.0909 50.2999 40.1112 48.0499 39.1273C45.6299 38.0724 43.2099 36.9871 40.6999 36.1959C36.2999 34.7962 31.8099 34.4209 27.3999 36.1553C22.5899 38.0521 18.5099 41.0545 15.2999 45.1727C11.3099 50.3051 11.2499 55.4478 14.9899 60.7831C16.8999 63.5015 19.3099 65.7228 22.0899 67.4472C25.7599 69.7294 29.5399 71.8088 33.2799 73.9591C35.6599 75.3285 36.6299 77.5904 35.9599 80.2784C35.5499 81.9216 34.6699 83.2402 33.3899 84.3154C32.5499 85.0152 31.6799 85.6948 30.8499 86.4049C27.6199 89.1841 24.6599 92.2169 22.6099 96.0308C19.5099 101.782 20.2399 107.067 24.8799 111.631C26.1999 112.929 27.6699 114.106 29.2199 115.11C34.4599 118.508 39.7699 118.468 45.0499 115.13C47.7799 113.406 50.0699 111.185 52.2099 108.771C53.4499 107.371 54.9899 106.671 56.8399 106.945C59.3799 107.32 61.1699 108.761 62.1499 111.175C62.4899 112.027 62.7399 112.919 63.0399 113.792C64.3899 117.717 65.8599 121.582 68.2799 125C71.1699 129.077 74.8499 130.964 79.91 129.747C86.34 128.205 90.25 123.955 91.06 117.291C91.57 113.132 90.96 109.085 90.09 105.038C89.86 103.963 89.82 102.735 90.1 101.691C91.05 98.0899 95.05 96.3959 98.51 97.9884C100.52 98.9216 102.5 99.9359 104.56 100.758C108.54 102.34 112.63 103.395 116.98 102.837C123.9 101.954 129.11 95.0165 127.95 88.1698C127.46 85.2891 126.13 82.7533 124.4 80.4711C122.74 78.2801 120.98 76.1602 119.17 74.091C115.9 70.3177 116.84 65.8243 121.3 63.7855C124.11 62.4973 126.96 61.2294 129.58 59.5963C133.25 57.304 134.57 53.693 133.45 49.4633C131.65 42.6876 127.24 38.1637 120.97 35.5163C116.26 33.5283 111.47 34.0354 106.73 35.567C102.83 36.8349 99.28 38.8129 95.78 40.9227C93.11 42.5253 90.05 41.8761 88.16 39.3809C86.89 37.7073 86.59 35.8511 87.1 33.8021C88.03 30.0593 88.61 26.2759 88.14 22.391C87.52 17.289 84.69 13.8808 79.8599 12.7144C78.2499 12.3289 76.5699 12.2478 74.8899 12.0145L74.8999 12.0246Z" fill="#EF94B4"/>
<path d="M95.6998 71.2417C95.6498 83.7077 85.6398 93.8103 73.4298 93.7292C61.1198 93.6481 51.1698 83.4845 51.2698 71.1098C51.3798 58.6539 61.2898 48.6426 73.4998 48.6629C85.7798 48.6832 95.7498 58.8264 95.6998 71.2315V71.2417Z" fill="#333333" fill-opacity="0.9"/>
<path d="M125.95 362.372C129.3 365.922 132.25 369.766 134.3 374.26C137.71 381.756 137.68 389.099 133.11 396.118C130.06 400.794 126.12 404.608 121.37 407.499C117.83 409.649 114.01 410.958 109.87 411.191C104.39 411.506 99.3902 409.944 94.7202 407.134C93.5502 406.434 92.4402 405.643 91.3102 404.892C91.2302 404.943 91.1702 404.963 91.1402 405.014C91.0102 405.257 90.8802 405.501 90.7602 405.744C88.3502 410.613 85.4902 415.157 81.3702 418.748C77.9902 421.689 74.1402 423.688 69.6102 423.708C61.4402 423.749 54.5502 420.553 49.0202 414.528C44.9202 410.055 43.1102 404.517 42.5802 398.522C42.4602 397.133 42.4202 395.733 42.3402 394.293C42.0202 394.374 41.7902 394.435 41.5602 394.496C30.9201 397.508 21.1601 395.997 12.5201 388.694C7.00014 384.038 4.41014 378.165 5.31014 370.862C5.88014 366.206 7.64014 361.966 9.93014 357.95C10.9101 356.235 12.0001 354.572 13.0601 352.837C12.7601 352.645 12.4601 352.482 12.2101 352.279C10.1301 350.596 7.88014 349.084 6.01014 347.188C0.870137 341.984 -1.06986 335.716 0.560137 328.453C1.46014 324.446 3.25014 320.825 5.45014 317.407C10.5101 309.556 17.5001 304.84 26.8002 303.906C32.8302 303.298 38.6302 304.393 44.3102 306.381C44.6002 306.483 44.9002 306.574 45.2302 306.676C45.3202 305.347 45.3502 304.15 45.4802 302.963C46.3102 295.254 49.7602 289.209 56.5702 285.385C60.9402 282.93 65.7002 281.754 70.6502 281.449C77.6102 281.013 83.9902 283.001 90.0602 286.318C95.8902 289.493 99.4302 294.26 100.33 300.955C100.57 302.74 100.67 304.556 100.85 306.422C101.3 306.32 101.74 306.219 102.17 306.118C110.22 304.241 118.07 304.637 125.61 308.278C132.79 311.737 138.17 317.235 142.29 324.01C146.33 330.654 146.41 337.48 142.74 344.327C140.16 349.135 136.46 352.979 132.3 356.377C130.06 358.203 127.7 359.877 125.31 361.682C125.52 361.916 125.72 362.139 125.93 362.362L125.95 362.372ZM65.5802 294.108C60.7602 295.275 57.9202 298.683 57.3002 303.785C56.8302 307.67 57.4102 311.453 58.3402 315.196C58.8502 317.245 58.5502 319.101 57.2802 320.775C55.3902 323.27 52.3202 323.919 49.6602 322.316C46.1602 320.217 42.6102 318.229 38.7102 316.961C33.9702 315.419 29.1702 314.922 24.4701 316.91C18.2001 319.557 13.7901 324.081 11.9901 330.857C10.8701 335.087 12.1901 338.698 15.8601 340.99C18.4801 342.623 21.3301 343.891 24.1401 345.179C28.6002 347.218 29.5402 351.722 26.2702 355.485C24.4701 357.564 22.7001 359.674 21.0401 361.865C19.3101 364.147 17.9801 366.683 17.4901 369.563C16.3301 376.41 21.5501 383.348 28.4602 384.231C32.8102 384.788 36.9002 383.734 40.8802 382.151C42.9402 381.33 44.9102 380.315 46.9302 379.382C50.4002 377.779 54.3902 379.484 55.3402 383.084C55.6202 384.129 55.5802 385.356 55.3502 386.432C54.4802 390.479 53.8802 394.536 54.3802 398.685C55.1902 405.339 59.1102 409.589 65.5302 411.141C70.5902 412.358 74.2802 410.471 77.1602 406.394C79.5802 402.985 81.0502 399.111 82.4002 395.185C82.7002 394.313 82.9402 393.42 83.2902 392.568C84.2702 390.154 86.0602 388.714 88.6002 388.339C90.4502 388.065 91.9902 388.765 93.2302 390.164C95.3702 392.568 97.6602 394.8 100.39 396.524C105.67 399.861 110.98 399.902 116.22 396.504C117.77 395.5 119.24 394.323 120.56 393.025C125.19 388.46 125.93 383.176 122.83 377.424C120.77 373.611 117.82 370.578 114.59 367.799C113.76 367.078 112.89 366.409 112.05 365.709C110.78 364.644 109.89 363.315 109.48 361.672C108.8 358.994 109.78 356.722 112.16 355.353C115.9 353.202 119.69 351.123 123.35 348.841C126.13 347.117 128.54 344.895 130.45 342.177C134.19 336.831 134.13 331.699 130.14 326.566C126.94 322.448 122.85 319.446 118.04 317.549C113.64 315.815 109.14 316.2 104.74 317.59C102.23 318.381 99.8102 319.466 97.3902 320.521C95.1402 321.505 93.0002 321.485 91.0402 319.963C89.0602 318.432 88.0602 316.403 88.3702 313.786C88.7002 310.926 88.6102 308.065 87.9702 305.255C86.5502 299.017 82.5002 295.518 76.4802 294.23C74.5302 293.814 72.5302 293.682 70.5402 293.418C68.8602 293.641 67.1802 293.723 65.5702 294.118L65.5802 294.108Z" fill="#8D9FF6"/>
<path d="M49.7492 352.626C49.7992 365.092 59.8092 375.194 72.0192 375.113C84.3292 375.032 94.2792 364.869 94.1792 352.494C94.0692 340.038 84.1592 330.027 71.9492 330.047C59.6692 330.067 49.6992 340.21 49.7492 352.616V352.626Z" fill="#333333" fill-opacity="0.9"/>
<path d="M20.8299 630.062C18.4399 628.256 16.0799 626.582 13.8399 624.757C9.67985 621.359 5.97985 617.525 3.39985 612.707C-0.270155 605.85 -0.190155 599.034 3.84985 592.39C7.96985 585.604 13.3499 580.116 20.5299 576.658C28.0699 573.016 35.9199 572.621 43.9699 574.497C44.4099 574.598 44.8499 574.7 45.2899 574.801C45.4599 572.925 45.5699 571.119 45.8099 569.334C46.7099 562.65 50.2399 557.882 56.0799 554.697C62.1599 551.381 68.5399 549.393 75.4899 549.829C80.4399 550.143 85.1999 551.31 89.5699 553.764C96.3799 557.588 99.8199 563.634 100.66 571.343C100.79 572.529 100.83 573.726 100.91 575.055C101.23 574.953 101.53 574.862 101.83 574.761C107.51 572.773 113.31 571.677 119.34 572.286C128.64 573.219 135.64 577.936 140.69 585.786C142.89 589.205 144.68 592.826 145.58 596.832C147.21 604.105 145.27 610.374 140.13 615.567C138.26 617.464 136.01 618.975 133.93 620.659C133.67 620.862 133.38 621.024 133.08 621.217C134.15 622.951 135.23 624.615 136.21 626.329C138.5 630.356 140.26 634.596 140.83 639.241C141.73 646.544 139.14 652.417 133.62 657.073C124.98 664.376 115.22 665.877 104.58 662.875C104.35 662.814 104.12 662.753 103.8 662.672C103.72 664.112 103.69 665.512 103.56 666.902C103.02 672.907 101.22 678.435 97.1199 682.908C91.5899 688.943 84.6999 692.128 76.5299 692.087C71.9999 692.067 68.1499 690.069 64.7699 687.127C60.6399 683.537 57.7899 678.992 55.3799 674.124C55.2599 673.88 55.1299 673.627 54.9999 673.393C54.9699 673.343 54.9099 673.322 54.8299 673.272C53.6999 674.012 52.5899 674.803 51.4199 675.513C46.7599 678.333 41.7599 679.885 36.2699 679.571C32.1299 679.337 28.3099 678.029 24.7699 675.879C20.0199 672.978 16.0799 669.174 13.0299 664.498C8.45985 657.479 8.43985 650.135 11.8399 642.639C13.8799 638.146 16.8399 634.301 20.1899 630.751C20.3999 630.528 20.5999 630.305 20.8099 630.072L20.8299 630.062ZM75.6099 561.777C73.6299 562.041 71.6199 562.163 69.6699 562.589C63.6599 563.887 59.6099 567.377 58.1799 573.615C57.5399 576.424 57.4499 579.285 57.7799 582.145C58.0899 584.772 57.0899 586.791 55.1099 588.322C53.1499 589.844 51.0099 589.864 48.7599 588.88C46.3399 587.825 43.9199 586.74 41.4099 585.949C37.0099 584.549 32.5199 584.174 28.1099 585.908C23.2999 587.805 19.2199 590.807 16.0099 594.925C12.0199 600.058 11.9599 605.201 15.6999 610.536C17.6099 613.254 20.0199 615.476 22.7999 617.2C26.4699 619.482 30.2499 621.562 33.9899 623.712C36.3699 625.081 37.3399 627.343 36.6699 630.031C36.2599 631.674 35.3799 632.993 34.0999 634.068C33.2599 634.768 32.3899 635.448 31.5599 636.158C28.3299 638.937 25.3699 641.97 23.3199 645.784C20.2199 651.535 20.9499 656.819 25.5899 661.384C26.9099 662.682 28.3799 663.859 29.9299 664.863C35.1699 668.261 40.4799 668.22 45.7599 664.883C48.4899 663.159 50.7799 660.938 52.9199 658.523C54.1599 657.124 55.6999 656.424 57.5499 656.698C60.0899 657.073 61.8799 658.513 62.8599 660.927C63.1999 661.779 63.4499 662.672 63.7499 663.544C65.0999 667.47 66.5699 671.334 68.9899 674.753C71.8799 678.83 75.5599 680.717 80.6199 679.5C87.0499 677.958 90.9599 673.708 91.7699 667.044C92.2799 662.885 91.6699 658.838 90.7999 654.791C90.5699 653.716 90.5299 652.488 90.8099 651.443C91.7599 647.843 95.7599 646.149 99.2199 647.741C101.23 648.674 103.21 649.689 105.27 650.51C109.25 652.093 113.34 653.148 117.69 652.59C124.61 651.707 129.82 644.769 128.66 637.923C128.17 635.042 126.84 632.506 125.11 630.224C123.45 628.033 121.69 625.913 119.88 623.844C116.61 620.071 117.55 615.577 122.01 613.538C124.82 612.25 127.67 610.982 130.29 609.349C133.96 607.057 135.28 603.446 134.16 599.216C132.36 592.44 127.95 587.917 121.68 585.269C116.97 583.281 112.18 583.788 107.44 585.32C103.54 586.588 99.9899 588.566 96.4899 590.675C93.8199 592.278 90.7599 591.629 88.8699 589.134C87.5999 587.46 87.2999 585.604 87.8099 583.555C88.7399 579.812 89.3199 576.029 88.8499 572.144C88.2299 567.042 85.3999 563.634 80.5699 562.467C78.9599 562.082 77.2799 562.001 75.5999 561.767L75.6099 561.777Z" fill="#EF94B4"/>
<path d="M96.4101 620.994C96.3601 633.46 86.3501 643.563 74.14 643.482C61.83 643.401 51.88 633.237 51.98 620.863C52.09 608.407 62 598.395 74.21 598.416C86.49 598.436 96.4601 608.579 96.4101 620.984V620.994Z" fill="#333333" fill-opacity="0.9"/>
</svg>
