<svg width="48" height="48" viewBox="0 0 48 48" fill="none" xmlns="http://www.w3.org/2000/svg">
<path d="M2.75781 25.7934C2.75781 24.5991 2.75781 23.4153 2.75781 22.221C2.79877 22.022 2.86023 21.8229 2.88071 21.6239C3.80236 12.761 9.98764 5.2391 18.3849 2.85052C19.7366 2.4629 21.1396 2.28481 22.5118 2.00195C23.6792 2.00195 24.8467 2.00195 26.0038 2.00195C26.1779 2.04386 26.3418 2.10671 26.5159 2.12766C35.2715 3.06004 42.6345 9.41911 44.9591 18.1248C45.3175 19.4658 45.5018 20.8486 45.7578 22.2105C45.7578 23.4048 45.7578 24.5886 45.7578 25.7829C45.7169 25.982 45.6554 26.181 45.635 26.3801C44.7952 35.1382 38.4666 42.8277 30.1308 45.1534C28.779 45.5305 27.3761 45.7191 26.0038 46.002C24.8364 46.002 23.6792 46.002 22.5118 46.002C22.3377 45.9601 22.1739 45.8972 21.9998 45.8763C13.2646 44.9439 5.89143 38.5953 3.56682 29.9419C3.2084 28.5905 3.02407 27.1763 2.75781 25.7934ZM43.3616 24.0229C43.3411 13.1591 34.8107 4.46384 24.2015 4.47432C13.6435 4.4848 5.16434 13.2639 5.17458 24.1591C5.19506 34.9077 13.8176 43.5506 24.4985 43.5401C34.8312 43.5087 43.3718 34.6772 43.3616 24.0229Z" stroke="#E78EAD" stroke-width="4" stroke-miterlimit="10"/>
<path d="M24.1704 24.5262C24.5084 24.5262 24.7644 24.5262 25.0306 24.5262C28.7479 24.5262 32.4653 24.5262 36.1826 24.5262C36.4079 24.5262 36.6332 24.5158 36.8585 24.5367C37.6572 24.5996 38.2204 25.1862 38.2307 25.951C38.2409 26.7053 37.6982 27.3234 36.9097 27.4282C36.6844 27.4596 36.4591 27.4491 36.2338 27.4491C31.8918 27.4491 27.5396 27.4491 23.1976 27.4491C21.7639 27.4491 21.3133 26.9881 21.3133 25.5215C21.3133 21.0481 21.3133 16.5853 21.3133 12.1119C21.3133 11.7976 21.3338 11.4624 21.4362 11.1691C21.6615 10.4986 22.2145 10.1634 22.9006 10.2262C23.515 10.2891 24.0168 10.75 24.1192 11.41C24.1704 11.7453 24.1602 12.091 24.1602 12.4367C24.1704 16.4281 24.1704 20.4091 24.1704 24.5262Z" stroke="#E78EAD" stroke-width="4" stroke-miterlimit="10"/>
</svg>
