<svg width="47" height="46" viewBox="0 0 47 46" fill="none" xmlns="http://www.w3.org/2000/svg">
<path d="M2.39999 24.71C2.39999 23.57 2.39999 22.44 2.39999 21.3C2.43999 21.11 2.5 20.92 2.52 20.73C3.42 12.27 9.46 5.09 17.66 2.81C18.98 2.44 20.35 2.27 21.69 2C22.83 2 23.97 2 25.1 2C25.27 2.04 25.43 2.1 25.6 2.12C34.15 3.01 41.34 9.08001 43.61 17.39C43.96 18.67 44.14 19.99 44.39 21.29C44.39 22.43 44.39 23.56 44.39 24.7C44.35 24.89 44.29 25.08 44.27 25.27C43.45 33.63 37.27 40.97 29.13 43.19C27.81 43.55 26.44 43.73 25.1 44C23.96 44 22.83 44 21.69 44C21.52 43.96 21.36 43.9 21.19 43.88C12.66 42.99 5.46 36.93 3.19 28.67C2.84 27.38 2.65999 26.03 2.39999 24.71ZM42.05 23.02C42.03 12.65 33.7 4.34999 23.34 4.35999C13.03 4.36999 4.74999 12.75 4.75999 23.15C4.77999 33.41 13.2 41.66 23.63 41.65C33.72 41.62 42.06 33.19 42.05 23.02Z" stroke="url(#paint0_radial_4_985)" stroke-width="4" stroke-miterlimit="10"/>
<path d="M23.31 23.4999C23.64 23.4999 23.89 23.4999 24.15 23.4999C27.78 23.4999 31.41 23.4999 35.04 23.4999C35.26 23.4999 35.48 23.4899 35.7 23.5099C36.48 23.5699 37.03 24.1299 37.04 24.8599C37.05 25.5799 36.52 26.1699 35.75 26.2699C35.53 26.2999 35.31 26.2899 35.09 26.2899C30.85 26.2899 26.6 26.2899 22.36 26.2899C20.96 26.2899 20.52 25.8499 20.52 24.4499C20.52 20.1799 20.52 15.9199 20.52 11.6499C20.52 11.3499 20.54 11.0299 20.64 10.7499C20.86 10.1099 21.4 9.78991 22.07 9.84991C22.67 9.90991 23.16 10.3499 23.26 10.9799C23.31 11.2999 23.3 11.6299 23.3 11.9599C23.31 15.7699 23.31 19.5699 23.31 23.4999Z" stroke="url(#paint1_radial_4_985)" stroke-width="4" stroke-miterlimit="10"/>
<defs>
<radialGradient id="paint0_radial_4_985" cx="0" cy="0" r="1" gradientUnits="userSpaceOnUse" gradientTransform="translate(23.4042 23.0001) scale(23 23)">
<stop offset="1.38522e-07" stop-color="#F970E6"/>
<stop offset="0.4636" stop-color="#F572E3"/>
<stop offset="0.8883" stop-color="#EA79DB"/>
<stop offset="1" stop-color="#E67BD8"/>
</radialGradient>
<radialGradient id="paint1_radial_4_985" cx="0" cy="0" r="1" gradientUnits="userSpaceOnUse" gradientTransform="translate(28.7814 18.0642) scale(10.2398 10.2398)">
<stop offset="1.38522e-07" stop-color="#F970E6"/>
<stop offset="0.4636" stop-color="#F572E3"/>
<stop offset="0.8883" stop-color="#EA79DB"/>
<stop offset="1" stop-color="#E67BD8"/>
</radialGradient>
</defs>
</svg>
