<svg width="48" height="66" viewBox="0 0 48 66" fill="none" xmlns="http://www.w3.org/2000/svg">
<path d="M23.8437 57.816C22.4933 56.1459 21.1979 54.595 19.9683 52.9945C14.2486 45.5983 8.7265 38.0927 4.76333 29.762C3.47886 27.058 2.35907 24.3043 2.35907 21.3021C2.35907 11.5498 10.8783 3.01038 21.5163 2.0958C32.7471 1.12156 42.8471 7.83188 44.9879 17.614C45.7015 20.8846 45.3722 24.0359 44.1206 27.1475C41.5517 33.5894 37.7313 39.4447 33.6254 45.1509C30.8149 49.0578 27.7849 52.8255 24.8537 56.6528C24.5792 57.0107 24.2499 57.3487 23.8437 57.816ZM23.8766 54.1377C25.9735 51.384 27.9935 48.8192 29.9037 46.1948C34.2401 40.2301 38.5107 34.2157 41.2992 27.4855C42.1336 25.4774 42.8362 23.2705 42.8362 21.163C42.8472 10.2973 31.3089 2.24492 19.5951 4.65068C9.39619 6.74826 1.40396 17.2362 6.44301 27.734C9.61575 34.3549 13.6668 40.4885 18.0471 46.4731C19.9134 49.0081 21.8566 51.4834 23.8766 54.1377Z" stroke="#E78EAD" stroke-width="4" stroke-miterlimit="10"/>
<path d="M30.6057 53.0754C32 51.1468 32.0219 51.0673 34.2176 51.7433C35.7326 52.2105 37.2915 52.7573 38.576 53.5824C41.4304 55.4116 41.4743 58.4039 38.8285 60.4915C36.7646 62.1219 34.2505 62.8973 31.6157 63.3446C25.1715 64.4282 18.7821 64.2791 12.6232 62.1119C11.0094 61.5452 9.4505 60.581 8.23191 59.4775C6.34364 57.7776 6.62908 55.4911 8.64909 53.9303C10.5703 52.4392 12.9306 51.7731 15.3568 51.455C15.8948 51.3854 16.5864 52.3398 17.4976 53.0357C16.312 53.2743 15.5325 53.4035 14.764 53.5824C13.0075 53.9801 11.3827 54.5964 10.0872 55.7993C9.27485 56.5548 9.16506 57.3799 10.0763 58.036C11.229 58.8711 12.4256 59.7857 13.776 60.2529C20.1873 62.4996 26.7414 62.7183 33.2735 60.7599C34.8324 60.2927 36.2815 59.3483 37.577 58.3939C38.7077 57.5588 38.587 56.7536 37.5331 55.7993C36.051 54.4473 34.1957 53.7315 32.1647 53.3438C31.6706 53.2345 31.1766 53.1649 30.6057 53.0754Z" stroke="#E78EAD" stroke-width="4" stroke-miterlimit="10"/>
<path d="M23.8659 29.9299C18.6842 29.9299 14.5453 26.1921 14.5234 21.4899C14.5014 16.8275 18.6622 13.0101 23.822 12.9803C28.9818 12.9405 33.2524 16.8076 33.2414 21.5098C33.2304 26.1722 29.0587 29.9299 23.8659 29.9299ZM17.0155 21.3507C16.9606 24.8401 19.9357 27.6236 23.7781 27.6833C27.5437 27.7429 30.6835 25.0091 30.7493 21.639C30.8152 18.1298 27.7523 15.2568 23.9098 15.227C20.1882 15.1972 17.0703 17.9608 17.0155 21.3507Z" stroke="#E78EAD" stroke-width="4" stroke-miterlimit="10"/>
</svg>
