<svg width="44" height="67" viewBox="0 0 44 67" fill="none" xmlns="http://www.w3.org/2000/svg">
<path d="M21.97 58.1498C20.74 56.4698 19.56 54.9098 18.44 53.2998C13.23 45.8598 8.2 38.3098 4.59 29.9298C3.42 27.2098 2.39999 24.4398 2.39999 21.4198C2.39999 11.6098 10.16 3.01977 19.85 2.09977C30.08 1.11977 39.28 7.86982 41.23 17.7098C41.88 20.9998 41.58 24.1698 40.44 27.2998C38.1 33.7798 34.62 39.6698 30.88 45.4098C28.32 49.3398 25.56 53.1298 22.89 56.9798C22.64 57.3398 22.34 57.6798 21.97 58.1498ZM22 54.4498C23.91 51.6798 25.75 49.0998 27.49 46.4598C31.44 40.4598 35.33 34.4098 37.87 27.6398C38.63 25.6198 39.27 23.3998 39.27 21.2798C39.28 10.3498 28.77 2.24978 18.1 4.66978C8.81001 6.77978 1.52999 17.3298 6.12 27.8898C9.01 34.5498 12.7 40.7198 16.69 46.7398C18.39 49.2898 20.16 51.7798 22 54.4498Z" stroke="url(#paint0_radial_4_988)" stroke-width="4" stroke-miterlimit="10"/>
<path d="M28.13 53.38C29.4 51.44 29.42 51.36 31.42 52.04C32.8 52.51 34.22 53.06 35.39 53.89C37.99 55.73 38.03 58.74 35.62 60.84C33.74 62.48 31.45 63.26 29.05 63.71C23.18 64.8 17.36 64.65 11.75 62.47C10.28 61.9 8.86 60.93 7.75 59.82C6.03 58.11 6.29001 55.81 8.13001 54.24C9.88001 52.74 12.03 52.07 14.24 51.75C14.73 51.68 15.36 52.64 16.19 53.34C15.11 53.58 14.4 53.71 13.7 53.89C12.1 54.29 10.62 54.91 9.44 56.12C8.7 56.88 8.59999 57.71 9.42999 58.37C10.48 59.21 11.57 60.13 12.8 60.6C18.64 62.86 24.61 63.08 30.56 61.11C31.98 60.64 33.3 59.69 34.48 58.73C35.51 57.89 35.4 57.08 34.44 56.12C33.09 54.76 31.4 54.04 29.55 53.65C29.1 53.54 28.65 53.47 28.13 53.38Z" stroke="url(#paint1_radial_4_988)" stroke-width="4" stroke-miterlimit="10"/>
<path d="M21.99 30.0996C17.27 30.0996 13.5 26.3396 13.48 21.6096C13.46 16.9196 17.25 13.0796 21.95 13.0496C26.65 13.0096 30.54 16.8996 30.53 21.6296C30.52 26.3196 26.72 30.0996 21.99 30.0996ZM15.75 21.4696C15.7 24.9796 18.41 27.7797 21.91 27.8397C25.34 27.8997 28.2 25.1496 28.26 21.7596C28.32 18.2296 25.53 15.3396 22.03 15.3096C18.64 15.2796 15.8 18.0596 15.75 21.4696Z" stroke="url(#paint2_radial_4_988)" stroke-width="4" stroke-miterlimit="10"/>
<defs>
<radialGradient id="paint0_radial_4_988" cx="0" cy="0" r="1" gradientUnits="userSpaceOnUse" gradientTransform="translate(21.9864 30.7277) scale(26.5517 26.5517)">
<stop offset="1.38522e-07" stop-color="#F970E6"/>
<stop offset="0.4636" stop-color="#F572E3"/>
<stop offset="0.8883" stop-color="#EA79DB"/>
<stop offset="1" stop-color="#E67BD8"/>
</radialGradient>
<radialGradient id="paint1_radial_4_988" cx="0" cy="0" r="1" gradientUnits="userSpaceOnUse" gradientTransform="translate(21.9863 58.0139) scale(13.649 13.649)">
<stop offset="1.38522e-07" stop-color="#F970E6"/>
<stop offset="0.4636" stop-color="#F572E3"/>
<stop offset="0.8883" stop-color="#EA79DB"/>
<stop offset="1" stop-color="#E67BD8"/>
</radialGradient>
<radialGradient id="paint2_radial_4_988" cx="0" cy="0" r="1" gradientUnits="userSpaceOnUse" gradientTransform="translate(22.0079 21.5699) scale(10.5255 10.5255)">
<stop offset="1.38522e-07" stop-color="#F970E6"/>
<stop offset="0.4636" stop-color="#F572E3"/>
<stop offset="0.8883" stop-color="#EA79DB"/>
<stop offset="1" stop-color="#E67BD8"/>
</radialGradient>
</defs>
</svg>
