<svg width="44" height="44" viewBox="0 0 44 44" fill="none" xmlns="http://www.w3.org/2000/svg">
<path d="M11.4129 0.00341797C13.1764 0.513414 14.0288 1.83341 14.6363 3.5134C15.4789 5.83338 16.5076 8.09337 17.3992 10.3934C18.0262 12.0233 17.6147 13.3833 16.2725 14.4933C15.1262 15.4433 13.9994 16.4133 12.8335 17.3533C12.4025 17.7033 12.3143 18.0233 12.5788 18.5533C15.4887 24.3032 19.7702 28.6432 25.4038 31.6232C25.9034 31.8832 26.1778 31.7832 26.4913 31.3732C27.4221 30.1632 28.3822 28.9832 29.3326 27.7932C30.4397 26.4032 31.7526 26.0132 33.3495 26.6732C36.0341 27.7832 38.7088 28.9132 41.3737 30.0732C42.9511 30.7632 43.6663 32.3132 43.2352 34.0032C42.6082 36.4632 41.9616 38.9131 41.2953 41.3631C40.7956 43.1831 39.7277 44.0231 37.876 44.0031C27.4024 43.8631 18.4671 39.9931 11.1092 32.3832C5.27965 26.3532 1.9093 19.0533 0.714004 10.7034C0.478863 9.07336 0.420077 7.40336 0.361292 5.75338C0.302507 4.02339 1.27246 2.76341 2.91845 2.29341C5.12289 1.66341 7.32733 1.07341 9.53177 0.443417C9.88448 0.343418 10.198 0.153417 10.5409 0.00341797C10.8348 0.00341797 11.1288 0.00341797 11.4129 0.00341797Z" fill="#E78EAD"/>
</svg>
