<svg width="45" height="44" viewBox="0 0 45 44" fill="none" xmlns="http://www.w3.org/2000/svg">
<path d="M11.68 0C13.48 0.51 14.35 1.83001 14.97 3.51001C15.83 5.83001 16.88 8.09001 17.79 10.39C18.43 12.02 18.01 13.38 16.64 14.49C15.47 15.44 14.32 16.41 13.13 17.35C12.69 17.7 12.6 18.02 12.87 18.55C15.84 24.3 20.21 28.64 25.96 31.62C26.47 31.88 26.75 31.78 27.07 31.37C28.02 30.16 29 28.98 29.97 27.79C31.1 26.4 32.44 26.01 34.07 26.67C36.81 27.78 39.54 28.91 42.26 30.07C43.87 30.76 44.6 32.31 44.16 34C43.52 36.46 42.86 38.91 42.18 41.36C41.67 43.18 40.58 44.02 38.69 44C28 43.86 18.88 39.99 11.37 32.38C5.42 26.35 1.98 19.05 0.759996 10.7C0.519996 9.07001 0.459995 7.4 0.399995 5.75C0.339995 4.02 1.33 2.76001 3.01 2.29001C5.26 1.66001 7.51 1.07 9.76 0.440002C10.12 0.340002 10.44 0.15 10.79 0C11.09 0 11.39 0 11.68 0Z" fill="url(#paint0_radial_4_984)"/>
<defs>
<radialGradient id="paint0_radial_4_984" cx="0" cy="0" r="1" gradientUnits="userSpaceOnUse" gradientTransform="translate(22.3496 22) scale(21.9727 21.9727)">
<stop offset="1.38522e-07" stop-color="#F970E6"/>
<stop offset="0.4636" stop-color="#F572E3"/>
<stop offset="0.8883" stop-color="#EA79DB"/>
<stop offset="1" stop-color="#E67BD8"/>
</radialGradient>
</defs>
</svg>
